<svg class="icon" viewBox="0 0 1024 1024" version="1.1" xmlns="http://www.w3.org/2000/svg" width="32" height="32"><path d="M 668.4 428.3 c 0 -25.1 -29.2 -39.1 -48.8 -23.4 C 561.9 451.4 560.2 482 512 482 c -48.2 0 -49.3 -30.2 -107.6 -77.1 c -19.6 -15.8 -48.8 -1.8 -48.8 23.4 c 0 99.1 -70.6 118.2 -70.6 233 a 30 30 0 0 0 12.5 24.4 c 1.1 0.8 4.3 3.1 4.8 11.9 c 6.5 134.7 70 191.8 19.5 244 c -14.2 14.7 -9.9 39.1 8.6 47.9 C 376.2 1011.5 442.4 1024 512 1024 c 69.6 0 135.8 -12.6 181.6 -34.4 c 18.5 -8.8 22.9 -33.2 8.6 -47.9 c -50.5 -52.2 13 -109.4 19.5 -244 c 0.4 -8.7 3.7 -11.1 4.8 -11.8 a 30 30 0 0 0 12.5 -24.4 c 0 -114.6 -70.6 -134.1 -70.6 -233 z" fill="rgb(244, 244, 244)"></path><path d="M 668.4 428.3 c 0 -25.1 -29.2 -39.1 -48.8 -23.4 c -57.7 46.5 -59.4 77.1 -107.6 77.1 v 542 c 69.6 0 135.8 -12.6 181.6 -34.4 c 18.5 -8.8 22.9 -33.2 8.6 -47.9 c -50.5 -52.2 13 -109.4 19.5 -244 c 0.4 -8.7 3.7 -11.1 4.8 -11.8 a 30 30 0 0 0 12.5 -24.4 c 0 -114.6 -70.6 -134.1 -70.6 -233 z" fill="#e0e0e0" ></path><path d="M 804.4 259.1 C 796.8 94.3 675.6 0 512 0 c -163.6 0 -284.8 94.3 -292.4 259.1 c -9.2 200 -147.6 290.1 -62 479.7 c 12.7 28.2 96.9 44.7 90 -24.6 c -2.6 -26.4 36.9 -38 49.9 -28.6 c 19.8 14.2 47.5 0.1 47.5 -24.4 c 0 -94.1 70.6 -114.2 70.6 -233 c 0 -9.1 -4.1 -17.6 -11.1 -23.3 c -9.8 -7.9 -21.6 -16.8 -35.1 -26.4 a 629.6 629.6 0 0 1 27.9 -6.2 c 23.5 -4.7 32.2 -33.7 15.4 -50.6 c -11.6 -11.6 -18.5 -31.3 -18.5 -52.6 c 0 -28.9 15.4 -61.1 36 -61.1 s 36 32.3 36 61.1 c 0 13.8 -2.8 26.8 -8.1 37.6 c -25.4 16.9 -12.1 56.9 18.6 54.9 c 23.3 -1.5 46 -1.6 71 0 c 30.6 2 44 -38 18.6 -54.9 c -5.3 -10.8 -8.1 -23.8 -8.1 -37.6 c 0 -28.9 15.4 -61.1 36 -61.1 s 36 32.3 36 61.1 c 0 21.3 -6.9 41 -18.5 52.6 c -16.9 16.9 -8.1 45.9 15.4 50.6 c 9.5 1.9 18.9 4 27.9 6.2 c -13.5 9.6 -25.4 18.5 -35.1 26.4 a 30 30 0 0 0 -11.1 23.3 c 0 119.3 70.6 138.6 70.6 233 c 0 24.4 27.7 38.6 47.5 24.4 c 13 -9.4 52.6 2.2 49.9 28.6 c -6.9 69.4 77.3 52.5 90 24.6 c 85.7 -189.7 -52.8 -279.7 -62 -479.7 z" fill="rgb(40, 72, 72)" ></path><path d="M 804.4 259.1 C 796.8 94.3 675.6 0 512 0 v 360.5 c 11.5 0 23.2 0.4 35.5 1.2 c 30.6 2 44 -38 18.6 -54.9 c -5.3 -10.8 -8.1 -23.8 -8.1 -37.6 c 0 -28.9 15.4 -61.1 36 -61.1 s 36 32.3 36 61.1 c 0 21.3 -6.9 41 -18.5 52.6 c -16.9 16.9 -8.1 45.9 15.4 50.6 c 9.5 1.9 18.9 4 27.9 6.2 c -13.5 9.6 -25.4 18.5 -35.1 26.4 a 30 30 0 0 0 -11.1 23.3 c 0 119.3 70.6 138.6 70.6 233 c 0 24.4 27.7 38.6 47.5 24.4 c 13 -9.4 52.6 2.2 49.9 28.6 c -6.9 69.4 77.3 52.5 90 24.6 c 85.7 -189.7 -52.8 -279.7 -62 -479.7 z" fill="rgb(47, 59, 59)" ></path><path d="M 593.9 148 c -35.1 0 -65.2 22.6 -81.9 57.2 c -16.7 -34.6 -46.8 -57.2 -81.9 -57.2 c -52.2 0 -96 52.2 -96 121.1 c 0 37.4 13.1 72 36 95 a 30 30 0 0 0 27.1 8.2 c 27.8 -5.5 50.9 -8.8 82.9 -10.9 a 30 30 0 0 0 22.8 -13.1 a 122.8 122.8 0 0 0 9 -15.7 a 122.8 122.8 0 0 0 9 15.7 a 30 30 0 0 0 22.8 13.1 c 32.2 2.1 54.7 5.5 82.9 10.9 a 30 30 0 0 0 27.1 -8.2 c 22.9 -22.9 36 -57.6 36 -95 c 0 -69.4 -44.1 -121.1 -96 -121.1 z" fill="#f7f7f7" ></path><path d="M 593.9 148 c -35.1 0 -65.2 22.6 -81.9 57.2 v 127.4 a 122.4 122.4 0 0 0 9 15.7 a 30 30 0 0 0 22.8 13.1 c 32.2 2.1 54.7 5.5 82.9 10.9 a 30 30 0 0 0 27.1 -8.2 c 22.9 -22.9 36 -57.6 36 -95 c 0 -69.4 -44.1 -121.1 -96 -121.1 z" fill="#e0e0e0" ></path><path d="M 362.3 694.7 c -3.2 -66.8 -73.8 -90.2 -129.4 -58.1 c -23.9 13.8 -39.3 35 -43.9 59.3 c -25.2 -9.5 -68.6 -22.1 -103.1 12.4 c -34.4 34.4 -22.4 76.5 -12.4 103.1 c -59.2 11.2 -89.1 84.6 -65 133.4 c 11.8 24 35.1 38.5 63.9 39.9 c 88.6 4.3 144.9 39.2 202.7 39.2 c 31.9 0 61.9 -11.2 90 -40.6 c 80.9 -83.5 3.6 -159.8 -2.6 -288.6 z" fill="rgb(255, 175, 34)" ></path><path d="M 947.4 811.4 c 10 -26.6 21.9 -68.7 -12.4 -103.1 c -34.5 -34.5 -77.9 -21.9 -103.1 -12.4 c -4.6 -24.3 -20.1 -45.5 -43.9 -59.3 c -55.7 -32.1 -126.2 -8.6 -129.4 58.1 c -6.2 130 -84.6 205.6 -0.6 290.7 c 29.1 29.1 58.3 38.6 88 38.6 c 57.8 0 114 -34.9 202.7 -39.2 h 0 c 28.8 -1.4 52 -15.9 63.9 -39.9 c 24 -48.5 -5.6 -122.1 -65 -133.4 z" fill="#ff9842" ></path><path d="M 669.2 320.4 c -104.8 -26 -206 -26.9 -314.4 0 c -49.8 12.3 -62 77.6 -20.2 107.2 c 39.4 27.9 50.4 39.4 69.2 59.5 C 429.2 514.1 455.3 542 512 542 s 82.9 -27.9 108.1 -54.9 c 18.4 -19.6 29.5 -31.4 69.2 -59.5 c 41.9 -29.6 29.7 -94.9 -20.1 -107.2 z" fill="#ffd664" ></path><path d="M 669.2 320.4 c -52.8 -13.1 -104.8 -19.8 -157.2 -19.8 V 542 c 56.8 0 82.9 -27.9 108.1 -54.9 c 18.4 -19.6 29.5 -31.4 69.2 -59.5 c 41.9 -29.6 29.7 -94.9 -20.1 -107.2 z" fill="rgb(247, 160, 87)" ></path><path d="M 598.3 245.6 m -31.5 0 a 31.5 31.5 0 1 0 63 0 a 31.5 31.5 0 1 0 -63 0 Z" fill="#1c2323" ></path><path d="M 425.7 245.6 m -31.5 0 a 31.5 31.5 0 1 0 63 0 a 31.5 31.5 0 1 0 -63 0 Z" fill="#294a4a"></path></svg>