<svg class="icon" viewBox="0 0 1172 1024" version="1.1" xmlns="http://www.w3.org/2000/svg" width="16" height="16"><path d="M754.352051 437.708186h-336.830799a50.410052 50.410052 0 0 1-50.410051-50.410051v-336.830799a50.410052 50.410052 0 0 1 50.410051-50.410052h336.830799a50.410052 50.410052 0 0 1 50.410052 50.410052v336.830799a50.410052 50.410052 0 0 1-50.410052 50.410051z m-313.917139-73.323711h291.00348v-291.003479h-291.00348zM242.552546 1023.862518H50.410052a50.410052 50.410052 0 0 1-50.410052-50.410052v-192.131037a50.410052 50.410052 0 0 1 50.410052-50.410052h192.142494a50.410052 50.410052 0 0 1 50.410051 50.410052v192.131037a50.410052 50.410052 0 0 1-50.410051 50.410052zM73.323711 950.538807h146.315175v-146.303718H73.323711zM681.085624 1024H488.94313a50.410052 50.410052 0 0 1-50.410052-50.410052v-192.131037a50.410052 50.410052 0 0 1 50.410052-50.410052h192.142494a50.410052 50.410052 0 0 1 50.410052 50.410052v192.131037a50.410052 50.410052 0 0 1-50.410052 50.410052z m-169.228834-73.323711h146.315174v-146.303718H511.85679zM1121.955896 1023.862518H929.847772a50.410052 50.410052 0 0 1-50.410052-50.410052v-192.131037a50.410052 50.410052 0 0 1 50.410052-50.410052h192.108124a50.410052 50.410052 0 0 1 50.410051 50.410052v192.131037a50.410052 50.410052 0 0 1-50.410051 50.410052z m-169.228835-73.323711h146.315175v-146.303718H952.761432z" fill="#1296db"></path><path d="M1062.575146 732.171629h-73.323711v-147.334833a0.263507 0.263507 0 0 0-0.126025-0.183309H184.78721v147.128609h-73.323712V583.060987a71.799953 71.799953 0 0 1 71.719755-71.719755h805.873416a73.587218 73.587218 0 0 1 73.50702 73.507021z" fill="#1296db"></path><path d="M548.35825 417.395227h73.323711v314.776402h-73.323711z" fill="#1296db"></path></svg>