<svg class="icon" viewBox="0 0 1194 1024" version="1.1" xmlns="http://www.w3.org/2000/svg" width="200" height="200"><path d="M808.172308 841.255385a196.923077 196.923077 0 0 0 36.233846 29.144615C835.741538 955.470769 650.633846 1024 422.990769 1024S0 952.32 0 866.461538V671.901538c0 88.221538 189.046154 157.538462 422.990769 157.538462a830.227692 830.227692 0 0 0 322.953846-56.713846l14.966154 16.541538 11.815385 13.39077a256.787692 256.787692 0 0 0 25.206154 26.781538 60.652308 60.652308 0 0 1 10.24 9.452308z" fill="#124E60" ></path><path d="M589.193846 693.169231a140.996923 140.996923 0 0 0 14.966154 26.781538 1001.156923 1001.156923 0 0 1-181.169231 15.753846c-236.307692 0-422.990769-71.68-422.990769-157.538461V383.606154c0 89.009231 189.046154 157.538462 422.990769 157.538461a1051.569231 1051.569231 0 0 0 157.538462-11.027692 290.658462 290.658462 0 0 0 12.603077 157.538462z" fill="#237C97" ></path><path d="M582.104615 393.846154a236.307692 236.307692 0 0 0 16.541539 40.96 1014.547692 1014.547692 0 0 1-175.655385 14.966154c-236.307692 0-422.990769-71.68-422.990769-157.538462V157.538462C0 71.68 189.046154 0 422.990769 0s422.203077 71.68 422.203077 157.538462v65.378461c-13.390769-12.603077-27.569231-25.206154-42.535384-37.021538A243.396923 243.396923 0 0 0 740.430769 157.538462h-8.664615l-37.809231-6.301539-5.513846-6.301538a55.926154 55.926154 0 0 0-11.815385-11.815385A198.498462 198.498462 0 0 0 581.316923 78.769231a65.378462 65.378462 0 0 0-70.104615 37.809231 115.790769 115.790769 0 0 0 18.904615 110.276923L535.630769 236.307692l5.513846 10.24a166.990769 166.990769 0 0 1 14.966154 32.295385 78.769231 78.769231 0 0 1 0 13.390769v16.541539a225.28 225.28 0 0 1 5.513846 22.055384 413.538462 413.538462 0 0 0 15.753847 61.44z" fill="#3395B2" ></path><path d="M1188.627692 960.196923l-12.603077-14.966154a236.307692 236.307692 0 0 0-45.686153-58.289231c-13.390769-14.178462-45.686154-33.870769-50.412308-53.563076a236.307692 236.307692 0 0 0 33.870769-4.726154c17.329231 0 32.295385 0 49.624615-3.938462l23.63077-4.726154v-8.664615c-7.876923-10.24-12.603077-24.418462-21.267693-33.870769a805.809231 805.809231 0 0 0-72.467692-74.043077c-14.966154-12.603077-33.083077-21.267692-48.049231-32.295385s-14.966154-6.301538-18.116923-11.815384a236.307692 236.307692 0 0 1-14.966154-43.323077c-11.027692-30.72-22.055385-63.803077-30.72-96.098462s-10.24-43.323077-18.116923-63.015385A516.726154 516.726154 0 0 0 795.569231 236.307692a196.135385 196.135385 0 0 0-59.076923-28.356923l-36.233846-6.301538c-7.089231-3.938462-13.390769-14.966154-19.692308-20.48a166.990769 166.990769 0 0 0-78.769231-41.747693 38.596923 38.596923 0 0 0-42.535385 22.843077c-15.753846 33.083077 12.603077 70.892308 22.843077 89.796923a236.307692 236.307692 0 0 1 19.692308 42.535385c0 9.452308 0 18.904615 5.513846 28.356923a546.658462 546.658462 0 0 0 18.116923 78.769231 320.590769 320.590769 0 0 0 14.178462 34.658461c0 6.301538 10.24 9.452308 10.24 18.904616a146.510769 146.510769 0 0 0-14.966154 39.384615A252.849231 252.849231 0 0 0 630.153846 671.901538c6.301538 14.966154 22.055385 45.686154 47.261539 37.021539s21.267692-37.809231 29.932307-64.590769c0-5.513846 0-10.24 4.726154-14.178462l15.753846 45.686154a290.658462 290.658462 0 0 0 55.138462 78.769231 438.744615 438.744615 0 0 0 32.295384 35.446154c23.630769 18.904615 8.664615 24.418462 179.593847 108.701538 0 0 67.741538 32.295385 102.4 48.049231a608.886154 608.886154 0 0 0 94.523077 31.507692 164.627692 164.627692 0 0 1-3.15077-18.116923zM716.8 315.076923a182.744615 182.744615 0 0 0-22.843077-57.501538c-14.966154-11.815385 0-27.569231 20.48-22.843077 7.876923 0 11.815385 7.876923 18.116923 13.390769a44.898462 44.898462 0 0 1-15.753846 66.953846z" fill="#FF6A00" ></path></svg>