<svg id="SvgjsSvg1138" width="532.187490609976" height="208.57497464693506" xmlns="http://www.w3.org/2000/svg" version="1.1" xmlns:xlink="http://www.w3.org/1999/xlink" xmlns:svgjs="http://svgjs.com/svgjs"><defs id="SvgjsDefs1139"><pattern patternUnits="userSpaceOnUse" id="pattern_mark_0" width="300" height="300"><text x="150" y="100" fill="rgba(229,229,229,0.8)" font-size="18" transform="rotate(-45, 150, 150)" style="dominant-baseline: middle; text-anchor: middle;"></text></pattern><pattern patternUnits="userSpaceOnUse" id="pattern_mark_1" width="300" height="300"><text x="150" y="200" fill="rgba(229,229,229,0.8)" font-size="18" transform="rotate(-45, 150, 150)" style="dominant-baseline: middle; text-anchor: middle;"></text></pattern><marker id="SvgjsMarker1211" markerWidth="13" markerHeight="9" refX="9.5" refY="4.5" viewBox="0 0 13 9" orient="auto" markerUnits="userSpaceOnUse" stroke-dasharray="0,0"><path id="SvgjsPath1212" d="M0,0 L13,4.5 L0,9 L0,0" fill="#323232" stroke="#323232" stroke-width="1"></path></marker></defs><rect id="svgbackgroundid" width="532.187490609976" height="208.57497464693506" fill="#ffffff"></rect><rect id="SvgjsRect1141" width="532.187490609976" height="208.57497464693506" fill="url(#pattern_mark_0)"></rect><rect id="SvgjsRect1142" width="532.187490609976" height="208.57497464693506" fill="url(#pattern_mark_1)"></rect><g id="SvgjsG1143" transform="translate(25.00804320659381,96.73208957320475)"><path id="SvgjsPath1144" d="M 0 4Q 0 0 4 0L 115.95027134669124 0Q 119.95027134669124 0 119.95027134669124 4L 119.95027134669124 59.838072686410555Q 119.95027134669124 63.838072686410555 115.95027134669124 63.838072686410555L 4 63.838072686410555Q 0 63.838072686410555 0 59.838072686410555Z" stroke="rgba(0,0,0,1)" stroke-width="1.5" fill-opacity="1" fill="#fbeada"></path><g id="SvgjsG1145"><text id="SvgjsText1146" font-family="微软雅黑" text-anchor="middle" font-size="22px" width="100px" fill="#323232" font-weight="400" align="middle" lineHeight="125%" anchor="middle" family="微软雅黑" size="22px" weight="400" font-style="" opacity="1" y="12.169036343205278" transform="rotate(0)"><tspan id="SvgjsTspan1147" dy="27.5" x="60"><tspan id="SvgjsTspan1148" style="">select</tspan></tspan></text></g></g><g id="SvgjsG1149" transform="translate(168.77887184491533,96.73208957320475)"><path id="SvgjsPath1150" d="M 0 4Q 0 0 4 0L 59.74834826976803 0Q 63.74834826976803 0 63.74834826976803 4L 63.74834826976803 59.838072686410555Q 63.74834826976803 63.838072686410555 59.74834826976803 63.838072686410555L 4 63.838072686410555Q 0 63.838072686410555 0 59.838072686410555Z" stroke="rgba(0,0,0,1)" stroke-width="1.5" fill-opacity="1" fill="#fcf9ea"></path><g id="SvgjsG1151"><text id="SvgjsText1152" font-family="微软雅黑" text-anchor="middle" font-size="20px" width="44px" fill="#323232" font-weight="400" align="middle" lineHeight="125%" anchor="middle" family="微软雅黑" size="20px" weight="400" font-style="" opacity="1" y="13.919036343205278" transform="rotate(0)"><tspan id="SvgjsTspan1153" dy="25" x="32"><tspan id="SvgjsTspan1154" style="">fd</tspan></tspan></text></g></g><g id="SvgjsG1155" transform="translate(237.11700817554436,96.73208957320475)"><path id="SvgjsPath1156" d="M 0 4Q 0 0 4 0L 60.10411750053731 0Q 64.10411750053731 0 64.10411750053731 4L 64.10411750053731 59.838072686410555Q 64.10411750053731 63.838072686410555 60.10411750053731 63.838072686410555L 4 63.838072686410555Q 0 63.838072686410555 0 59.838072686410555Z" stroke="rgba(0,0,0,1)" stroke-width="1.5" fill-opacity="1" fill="#fadcdb"></path><g id="SvgjsG1157"><text id="SvgjsText1158" font-family="微软雅黑" text-anchor="middle" font-size="20px" width="45px" fill="#323232" font-weight="400" align="middle" lineHeight="125%" anchor="middle" family="微软雅黑" size="20px" weight="400" font-style="" opacity="1" y="13.919036343205278" transform="rotate(0)"><tspan id="SvgjsTspan1159" dy="25" x="32.5"><tspan id="SvgjsTspan1160" style="">fd</tspan></tspan></text></g></g><g id="SvgjsG1161" transform="translate(241.732392790929,160.5701622596153)"><path id="SvgjsPath1162" d="M 0 0L 51.74834826976826 0L 51.74834826976826 23.07692307692315L 0 23.07692307692315Z" stroke="none" fill="none"></path><g id="SvgjsG1163"><text id="SvgjsText1164" font-family="微软雅黑" text-anchor="middle" font-size="16px" width="52px" fill="#323232" font-weight="400" align="middle" lineHeight="125%" anchor="middle" family="微软雅黑" size="16px" weight="400" font-style="" opacity="1" y="-2.4615384615384244" transform="rotate(0)"><tspan id="SvgjsTspan1165" dy="20" x="26"><tspan id="SvgjsTspan1166" style="">链接</tspan></tspan></text></g></g><g id="SvgjsG1167" transform="translate(176.16348722953046,160.5701622596153)"><path id="SvgjsPath1168" d="M 0 0L 51.74834826976826 0L 51.74834826976826 23.076923076923208L 0 23.076923076923208Z" stroke="none" fill="none"></path><g id="SvgjsG1169"><text id="SvgjsText1170" font-family="微软雅黑" text-anchor="middle" font-size="16px" width="52px" fill="#323232" font-weight="400" align="middle" lineHeight="125%" anchor="middle" family="微软雅黑" size="16px" weight="400" font-style="" opacity="1" y="-2.461538461538396" transform="rotate(0)"><tspan id="SvgjsTspan1171" dy="20" x="26"><tspan id="SvgjsTspan1172" style="">服务器</tspan></tspan></text></g></g><g id="SvgjsG1173" transform="translate(305.81091373694267,96.73208957320475)"><path id="SvgjsPath1174" d="M 0 4Q 0 0 4 0L 60.10411750053731 0Q 64.10411750053731 0 64.10411750053731 4L 64.10411750053731 59.838072686410555Q 64.10411750053731 63.838072686410555 60.10411750053731 63.838072686410555L 4 63.838072686410555Q 0 63.838072686410555 0 59.838072686410555Z" stroke="rgba(0,0,0,1)" stroke-width="1.5" fill-opacity="1" fill="#fadcdb"></path><g id="SvgjsG1175"><text id="SvgjsText1176" font-family="微软雅黑" text-anchor="middle" font-size="20px" width="45px" fill="#323232" font-weight="400" align="middle" lineHeight="125%" anchor="middle" family="微软雅黑" size="20px" weight="400" font-style="" opacity="1" y="13.919036343205278" transform="rotate(0)"><tspan id="SvgjsTspan1177" dy="25" x="32.5"><tspan id="SvgjsTspan1178" style="">fd</tspan></tspan></text></g></g><g id="SvgjsG1179" transform="translate(310.4262983523273,160.5701622596153)"><path id="SvgjsPath1180" d="M 0 0L 51.74834826976826 0L 51.74834826976826 23.07692307692315L 0 23.07692307692315Z" stroke="none" fill="none"></path><g id="SvgjsG1181"><text id="SvgjsText1182" font-family="微软雅黑" text-anchor="middle" font-size="16px" width="52px" fill="#323232" font-weight="400" align="middle" lineHeight="125%" anchor="middle" family="微软雅黑" size="16px" weight="400" font-style="" opacity="1" y="-2.4615384615384244" transform="rotate(0)"><tspan id="SvgjsTspan1183" dy="20" x="26"><tspan id="SvgjsTspan1184" style="">链接</tspan></tspan></text></g></g><g id="SvgjsG1185" transform="translate(374.504819298341,96.73208957320475)"><path id="SvgjsPath1186" d="M 0 4Q 0 0 4 0L 60.10411750053731 0Q 64.10411750053731 0 64.10411750053731 4L 64.10411750053731 59.838072686410555Q 64.10411750053731 63.838072686410555 60.10411750053731 63.838072686410555L 4 63.838072686410555Q 0 63.838072686410555 0 59.838072686410555Z" stroke="rgba(0,0,0,1)" stroke-width="1.5" fill-opacity="1" fill="#fadcdb"></path><g id="SvgjsG1187"><text id="SvgjsText1188" font-family="微软雅黑" text-anchor="middle" font-size="20px" width="45px" fill="#323232" font-weight="400" align="middle" lineHeight="125%" anchor="middle" family="微软雅黑" size="20px" weight="400" font-style="" opacity="1" y="13.919036343205278" transform="rotate(0)"><tspan id="SvgjsTspan1189" dy="25" x="32.5"><tspan id="SvgjsTspan1190" style="">fd</tspan></tspan></text></g></g><g id="SvgjsG1191" transform="translate(382.2452039137254,160.5701622596153)"><path id="SvgjsPath1192" d="M 0 0L 51.74834826976826 0L 51.74834826976826 23.07692307692315L 0 23.07692307692315Z" stroke="none" fill="none"></path><g id="SvgjsG1193"><text id="SvgjsText1194" font-family="微软雅黑" text-anchor="middle" font-size="16px" width="52px" fill="#323232" font-weight="400" align="middle" lineHeight="125%" anchor="middle" family="微软雅黑" size="16px" weight="400" font-style="" opacity="1" y="-2.4615384615384244" transform="rotate(0)"><tspan id="SvgjsTspan1195" dy="20" x="26"><tspan id="SvgjsTspan1196" style="">链接</tspan></tspan></text></g></g><g id="SvgjsG1197" transform="translate(443.1987248597393,73.6551664962816)"><path id="SvgjsPath1198" d="M 0 4Q 0 0 4 0L 60.10411750053731 0Q 64.10411750053731 0 64.10411750053731 4L 64.10411750053731 59.838072686410555Q 64.10411750053731 63.838072686410555 60.10411750053731 63.838072686410555L 4 63.838072686410555Q 0 63.838072686410555 0 59.838072686410555Z" stroke="rgba(0,0,0,1)" stroke-width="1.5" fill-opacity="1" fill="#fadcdb"></path><g id="SvgjsG1199"><text id="SvgjsText1200" font-family="微软雅黑" text-anchor="middle" font-size="20px" width="45px" fill="#323232" font-weight="400" align="middle" lineHeight="125%" anchor="middle" family="微软雅黑" size="20px" weight="400" font-style="" opacity="1" y="13.919036343205278" transform="rotate(0)"><tspan id="SvgjsTspan1201" dy="25" x="32.5"><tspan id="SvgjsTspan1202" style="">fd</tspan></tspan></text></g></g><g id="SvgjsG1203" transform="translate(450.9391094751237,137.49323918269215)"><path id="SvgjsPath1204" d="M 0 0L 51.74834826976826 0L 51.74834826976826 23.07692307692315L 0 23.07692307692315Z" stroke="none" fill="none"></path><g id="SvgjsG1205"><text id="SvgjsText1206" font-family="微软雅黑" text-anchor="middle" font-size="16px" width="52px" fill="#323232" font-weight="400" align="middle" lineHeight="125%" anchor="middle" family="微软雅黑" size="16px" weight="400" font-style="" opacity="1" y="-2.4615384615384244" transform="rotate(0)"><tspan id="SvgjsTspan1207" dy="20" x="26"><tspan id="SvgjsTspan1208" style="">链接</tspan></tspan></text></g></g><g id="SvgjsG1209"><path id="SvgjsPath1210" d="M200.65304597979934 95.98208957320475L200.65304597979934 25.193628034743085L475.25078361000794 25.193628034743085L475.25078361000794 70.9551664962816" stroke="#323232" stroke-width="1.5" fill="none" marker-end="url(#SvgjsMarker1211)"></path><rect id="SvgjsRect1213" width="50" height="20" x="312.729061551707" y="15.193628034743085" fill="#ffffff"></rect><text id="SvgjsText1214" font-family="微软雅黑" text-anchor="middle" font-size="16px" width="50px" fill="#323232" font-weight="400" align="top" lineHeight="20px" anchor="middle" family="微软雅黑" size="16px" weight="400" font-style="" opacity="1" y="11.193628034743085" transform="rotate(0)"><tspan id="SvgjsTspan1215" dy="20" x="337.729061551707"><tspan id="SvgjsTspan1216" style="">accept</tspan></tspan></text></g></svg>