<svg id="SvgjsSvg1111" width="483.16245045381436" height="295.03745583926934" xmlns="http://www.w3.org/2000/svg" version="1.1" xmlns:xlink="http://www.w3.org/1999/xlink" xmlns:svgjs="http://svgjs.com/svgjs"><defs id="SvgjsDefs1112"><pattern patternUnits="userSpaceOnUse" id="pattern_mark_0" width="300" height="300"><text x="150" y="100" fill="rgba(229,229,229,0.8)" font-size="18" transform="rotate(-45, 150, 150)" style="dominant-baseline: middle; text-anchor: middle;"></text></pattern><pattern patternUnits="userSpaceOnUse" id="pattern_mark_1" width="300" height="300"><text x="150" y="200" fill="rgba(229,229,229,0.8)" font-size="18" transform="rotate(-45, 150, 150)" style="dominant-baseline: middle; text-anchor: middle;"></text></pattern><marker id="SvgjsMarker1158" markerWidth="13" markerHeight="9" refX="9.5" refY="4.5" viewBox="0 0 13 9" orient="auto" markerUnits="userSpaceOnUse" stroke-dasharray="0,0"><path id="SvgjsPath1159" d="M0,0 L13,4.5 L0,9 L0,0" fill="#323232" stroke="#323232" stroke-width="1"></path></marker><marker id="SvgjsMarker1186" markerWidth="13" markerHeight="9" refX="9.5" refY="4.5" viewBox="0 0 13 9" orient="auto" markerUnits="userSpaceOnUse" stroke-dasharray="0,0"><path id="SvgjsPath1187" d="M0,0 L13,4.5 L0,9 L0,0" fill="#323232" stroke="#323232" stroke-width="1"></path></marker><marker id="SvgjsMarker1190" markerWidth="13" markerHeight="9" refX="9.5" refY="4.5" viewBox="0 0 13 9" orient="auto" markerUnits="userSpaceOnUse" stroke-dasharray="0,0"><path id="SvgjsPath1191" d="M0,0 L13,4.5 L0,9 L0,0" fill="#000000" stroke="#000000" stroke-width="1"></path></marker><marker id="SvgjsMarker1194" markerWidth="13" markerHeight="9" refX="9.5" refY="4.5" viewBox="0 0 13 9" orient="auto" markerUnits="userSpaceOnUse" stroke-dasharray="0,0"><path id="SvgjsPath1195" d="M0,0 L13,4.5 L0,9 L0,0" fill="#323232" stroke="#323232" stroke-width="1"></path></marker><marker id="SvgjsMarker1204" markerWidth="13" markerHeight="9" refX="9.5" refY="4.5" viewBox="0 0 13 9" orient="auto" markerUnits="userSpaceOnUse" stroke-dasharray="0,0"><path id="SvgjsPath1205" d="M0,0 L13,4.5 L0,9 L0,0" fill="#616161" stroke="#616161" stroke-width="1"></path></marker><marker id="SvgjsMarker1214" markerWidth="13" markerHeight="9" refX="9.5" refY="4.5" viewBox="0 0 13 9" orient="auto" markerUnits="userSpaceOnUse" stroke-dasharray="0,0"><path id="SvgjsPath1215" d="M0,0 L13,4.5 L0,9 L0,0" fill="#569230" stroke="#569230" stroke-width="1"></path></marker></defs><rect id="svgbackgroundid" width="483.16245045381436" height="295.03745583926934" fill="#ffffff"></rect><rect id="SvgjsRect1114" width="483.16245045381436" height="295.03745583926934" fill="url(#pattern_mark_0)"></rect><rect id="SvgjsRect1115" width="483.16245045381436" height="295.03745583926934" fill="url(#pattern_mark_1)"></rect><g id="SvgjsG1116" transform="translate(171.17014259316954,148.1970950284949)"><path id="SvgjsPath1117" d="M 0 4Q 0 0 4 0L 283.1880488517636 0Q 287.1880488517636 0 287.1880488517636 4L 287.1880488517636 63.04166666666697Q 287.1880488517636 67.04166666666697 283.1880488517636 67.04166666666697L 4 67.04166666666697Q 0 67.04166666666697 0 63.04166666666697Z" stroke="rgba(33,41,48,1)" stroke-width="1.5" fill-opacity="1" fill="#b7eaeb"></path><g id="SvgjsG1118"><text id="SvgjsText1119" font-family="微软雅黑" text-anchor="middle" font-size="20px" width="268px" fill="#323232" font-weight="400" align="top" lineHeight="200%" anchor="middle" family="微软雅黑" size="20px" weight="400" font-style="" opacity="1" y="-13" transform="rotate(0)"></text></g></g><g id="SvgjsG1120" transform="translate(182.3660683881576,25.009595028494232)"><path id="SvgjsPath1121" d="M 0 0L 48.920098581167835 0L 48.920098581167835 27.77685773526548L 0 27.77685773526548Z" stroke="none" fill="none"></path><g id="SvgjsG1122"><text id="SvgjsText1123" font-family="微软雅黑" text-anchor="middle" font-size="20px" width="49px" fill="#323232" font-weight="400" align="middle" lineHeight="125%" anchor="middle" family="微软雅黑" size="20px" weight="400" font-style="" opacity="1" y="-4.11157113236726" transform="rotate(0)"><tspan id="SvgjsTspan1124" dy="25" x="24.5"><tspan id="SvgjsTspan1125" style="">stdin</tspan></tspan></text></g></g><g id="SvgjsG1126" transform="translate(225.69565589635351,48.831128347532285)"><path id="SvgjsPath1127" d="M 0 0L 70.19897290508607 0L 70.19897290508607 40L 0 40Z" stroke="none" fill="none"></path><g id="SvgjsG1128"><text id="SvgjsText1129" font-family="微软雅黑" text-anchor="middle" font-size="20px" width="71px" fill="#000000" font-weight="400" align="middle" lineHeight="125%" anchor="middle" family="微软雅黑" size="20px" weight="400" font-style="" opacity="1" y="2" transform="rotate(0)"><tspan id="SvgjsTspan1130" dy="25" x="35.5"><tspan id="SvgjsTspan1131" style="">stdout</tspan></tspan></text></g></g><g id="SvgjsG1132" transform="translate(275.0492959511238,92.93192132432773)"><path id="SvgjsPath1133" d="M 0 0L 79.42974213585535 0L 79.42974213585535 27.14374360513807L 0 27.14374360513807Z" stroke="none" fill="none"></path><g id="SvgjsG1134"><text id="SvgjsText1135" font-family="微软雅黑" text-anchor="middle" font-size="20px" width="80px" fill="#323232" font-weight="400" align="middle" lineHeight="125%" anchor="middle" family="微软雅黑" size="20px" weight="400" font-style="" opacity="1" y="-4.428128197430965" transform="rotate(0)"><tspan id="SvgjsTspan1136" dy="25" x="40"><tspan id="SvgjsTspan1137" style="">stderr</tspan></tspan></text></g></g><g id="SvgjsG1138" transform="translate(25.010344058371516,25.009595028494232)"><path id="SvgjsPath1139" d="M 0 4Q 0 0 4 0L 122.03571428571422 0Q 126.03571428571422 0 126.03571428571422 4L 126.03571428571422 192.75000000000114Q 126.03571428571422 196.75000000000114 122.03571428571422 196.75000000000114L 4 196.75000000000114Q 0 196.75000000000114 0 192.75000000000114Z" stroke="rgba(33,41,48,1)" stroke-width="1.5" fill-opacity="1" fill="#caedb4"></path><g id="SvgjsG1140"><text id="SvgjsText1141" font-family="微软雅黑" text-anchor="middle" font-size="20px" width="107px" fill="#323232" font-weight="400" align="top" lineHeight="200%" anchor="middle" family="微软雅黑" size="20px" weight="400" font-style="" opacity="1" y="-13" transform="rotate(0)"><tspan id="SvgjsTspan1142" dy="40" x="63.5"><tspan id="SvgjsTspan1143" style="">files_struct</tspan></tspan></text></g></g><g id="SvgjsG1144" transform="translate(38.46272501075225,154.7179283618284)"><path id="SvgjsPath1145" d="M 0 4Q 0 0 4 0L 96.38095238095241 0Q 100.38095238095241 0 100.38095238095241 4L 100.38095238095241 50Q 100.38095238095241 54 96.38095238095241 54L 4 54Q 0 54 0 50Z" stroke="rgba(33,41,48,1)" stroke-width="1.5" fill-opacity="1" fill="#e5f6da"></path><g id="SvgjsG1146"><text id="SvgjsText1147" font-family="微软雅黑" text-anchor="middle" font-size="20px" width="81px" fill="#323232" font-weight="400" align="middle" lineHeight="125%" anchor="middle" family="微软雅黑" size="20px" weight="400" font-style="" opacity="1" y="9" transform="rotate(0)"><tspan id="SvgjsTspan1148" dy="25" x="50.5"><tspan id="SvgjsTspan1149" style="">fd_array</tspan></tspan></text></g></g><g id="SvgjsG1150" transform="translate(38.653201201228626,103.3845950284948)"><path id="SvgjsPath1151" d="M 0 0L 100 0L 100 40L 0 40Z" stroke="none" fill="none"></path><g id="SvgjsG1152"><text id="SvgjsText1153" font-family="微软雅黑" text-anchor="middle" font-size="24px" width="100px" fill="#323232" font-weight="400" align="middle" lineHeight="125%" anchor="middle" family="微软雅黑" size="24px" weight="400" font-style="" opacity="1" y="-1" transform="rotate(0)"><tspan id="SvgjsTspan1154" dy="30" x="50"><tspan id="SvgjsTspan1155" style="">···</tspan></tspan></text></g></g><g id="SvgjsG1156"><path id="SvgjsPath1157" d="M139.59367739170455 181.7179283618284L168.4701425931695 181.7179283618284" stroke="#323232" stroke-width="1.5" fill="none" marker-end="url(#SvgjsMarker1158)"></path></g><g id="SvgjsG1160" transform="translate(406.8531489524231,166.87476605573272)"><path id="SvgjsPath1161" d="M 0 0L 28.46211661823895 0L 28.46211661823895 29.68632461219113L 0 29.68632461219113Z" stroke="none" fill="none"></path><g id="SvgjsG1162"><text id="SvgjsText1163" font-family="微软雅黑" text-anchor="middle" font-size="24px" width="29px" fill="#323232" font-weight="400" align="middle" lineHeight="125%" anchor="middle" family="微软雅黑" size="24px" weight="400" font-style="" opacity="1" y="-6.156837693904436" transform="rotate(0)"><tspan id="SvgjsTspan1164" dy="30" x="14.5"><tspan id="SvgjsTspan1165" style="">···</tspan></tspan></text></g></g><g id="SvgjsG1166" transform="translate(184.9460749419586,160.25840852373767)"><path id="SvgjsPath1167" d="M 0 4Q 0 0 4 0L 39.76008547356591 0Q 43.76008547356591 0 43.76008547356591 4L 43.76008547356591 38.91903967618137Q 43.76008547356591 42.91903967618137 39.76008547356591 42.91903967618137L 4 42.91903967618137Q 0 42.91903967618137 0 38.91903967618137Z" stroke="rgba(33,41,48,1)" stroke-width="1.5" fill-opacity="1" fill="#dbf5f5"></path><g id="SvgjsG1168"><text id="SvgjsText1169" font-family="微软雅黑" text-anchor="middle" font-size="18px" width="24px" fill="#000000" font-weight="400" align="middle" lineHeight="125%" anchor="middle" family="微软雅黑" size="18px" weight="400" font-style="" opacity="1" y="5.709519838090685" transform="rotate(0)"><tspan id="SvgjsTspan1170" dy="22.5" x="22"><tspan id="SvgjsTspan1171" style="">0</tspan></tspan></text></g></g><g id="SvgjsG1172" transform="translate(238.91509961211364,160.25840852373756)"><path id="SvgjsPath1173" d="M 0 4Q 0 0 4 0L 39.76008547356591 0Q 43.76008547356591 0 43.76008547356591 4L 43.76008547356591 38.91903967618137Q 43.76008547356591 42.91903967618137 39.76008547356591 42.91903967618137L 4 42.91903967618137Q 0 42.91903967618137 0 38.91903967618137Z" stroke="rgba(33,41,48,1)" stroke-width="1.5" fill-opacity="1" fill="#dbf5f5"></path><g id="SvgjsG1174"><text id="SvgjsText1175" font-family="微软雅黑" text-anchor="middle" font-size="18px" width="24px" fill="#000000" font-weight="400" align="middle" lineHeight="125%" anchor="middle" family="微软雅黑" size="18px" weight="400" font-style="" opacity="1" y="5.709519838090685" transform="rotate(0)"><tspan id="SvgjsTspan1176" dy="22.5" x="22"><tspan id="SvgjsTspan1177" style="">1</tspan></tspan></text></g></g><g id="SvgjsG1178" transform="translate(292.88412428226854,160.25840852373756)"><path id="SvgjsPath1179" d="M 0 4Q 0 0 4 0L 39.76008547356591 0Q 43.76008547356591 0 43.76008547356591 4L 43.76008547356591 38.91903967618137Q 43.76008547356591 42.91903967618137 39.76008547356591 42.91903967618137L 4 42.91903967618137Q 0 42.91903967618137 0 38.91903967618137Z" stroke="rgba(33,41,48,1)" stroke-width="1.5" fill-opacity="1" fill="#dbf5f5"></path><g id="SvgjsG1180"><text id="SvgjsText1181" font-family="微软雅黑" text-anchor="middle" font-size="18px" width="24px" fill="#000000" font-weight="400" align="middle" lineHeight="125%" anchor="middle" family="微软雅黑" size="18px" weight="400" font-style="" opacity="1" y="5.709519838090685" transform="rotate(0)"><tspan id="SvgjsTspan1182" dy="22.5" x="22"><tspan id="SvgjsTspan1183" style="">2</tspan></tspan></text></g></g><g id="SvgjsG1184"><path id="SvgjsPath1185" d="M206.82611767874153 159.50840852373767L206.82611767874153 55.48645276375976" stroke="#323232" stroke-width="1.5" fill="none" marker-end="url(#SvgjsMarker1186)"></path></g><g id="SvgjsG1188"><path id="SvgjsPath1189" d="M260.79514234889655 159.50840852373756L260.79514234889655 84.04244823887336" stroke="#000000" stroke-width="1.5" fill="none" marker-end="url(#SvgjsMarker1190)"></path></g><g id="SvgjsG1192"><path id="SvgjsPath1193" d="M314.76416701905157 159.50840852373756L314.76416701905157 122.77566492946585" stroke="#323232" stroke-width="1.5" fill="none" marker-end="url(#SvgjsMarker1194)"></path></g><g id="SvgjsG1196" transform="translate(346.85314895242334,160.25840852373756)"><path id="SvgjsPath1197" d="M 0 4Q 0 0 4 0L 39.76008547356591 0Q 43.76008547356591 0 43.76008547356591 4L 43.76008547356591 38.91903967618137Q 43.76008547356591 42.91903967618137 39.76008547356591 42.91903967618137L 4 42.91903967618137Q 0 42.91903967618137 0 38.91903967618137Z" stroke="rgba(33,41,48,1)" stroke-width="1.5" fill-opacity="1" fill="#dbf5f5"></path><g id="SvgjsG1198"><text id="SvgjsText1199" font-family="微软雅黑" text-anchor="middle" font-size="18px" width="24px" fill="#569230" font-weight="400" align="middle" lineHeight="125%" anchor="middle" family="微软雅黑" size="18px" weight="400" font-style="" opacity="1" y="5.709519838090685" transform="rotate(0)"><tspan id="SvgjsTspan1200" dy="22.5" x="22"><tspan id="SvgjsTspan1201" style="">3</tspan></tspan></text></g></g><g id="SvgjsG1202"><path id="SvgjsPath1203" d="M260.79514234889655 203.9274481999189L260.79514234889655 233.1774481999189L368.73319168920636 233.1774481999189L368.73319168920636 205.87744819991894" stroke-dasharray="8,5" stroke="#616161" stroke-width="1.5" fill="none" marker-end="url(#SvgjsMarker1204)"></path></g><g id="SvgjsG1206" transform="translate(275.04929595112367,230.03734918400562)"><path id="SvgjsPath1207" d="M 0 0L 79.42974213585535 0L 79.42974213585535 40L 0 40Z" stroke="none" fill="none"></path><g id="SvgjsG1208"><text id="SvgjsText1209" font-family="微软雅黑" text-anchor="middle" font-size="18px" width="80px" fill="#616161" font-weight="400" align="middle" lineHeight="125%" anchor="middle" family="微软雅黑" size="18px" weight="400" font-style="" opacity="1" y="4.25" transform="rotate(0)"><tspan id="SvgjsTspan1210" dy="22.5" x="40"><tspan id="SvgjsTspan1211" style="">dup</tspan></tspan></text></g></g><g id="SvgjsG1212"><path id="SvgjsPath1213" d="M368.73319168920636 159.50840852373756L368.73319168920636 68.83112834753229L298.5946288014396 68.83112834753229" stroke="#569230" stroke-width="1.5" fill="none" marker-end="url(#SvgjsMarker1214)"></path></g></svg>