<svg id="SvgjsSvg1206" width="401.5882352941177" height="196.21848739495795" xmlns="http://www.w3.org/2000/svg" version="1.1" xmlns:xlink="http://www.w3.org/1999/xlink" xmlns:svgjs="http://svgjs.com/svgjs"><defs id="SvgjsDefs1207"><pattern patternUnits="userSpaceOnUse" id="pattern_mark_0" width="300" height="300"><text x="150" y="100" fill="rgba(229,229,229,0.8)" font-size="18" transform="rotate(-45, 150, 150)" style="dominant-baseline: middle; text-anchor: middle;"></text></pattern><pattern patternUnits="userSpaceOnUse" id="pattern_mark_1" width="300" height="300"><text x="150" y="200" fill="rgba(229,229,229,0.8)" font-size="18" transform="rotate(-45, 150, 150)" style="dominant-baseline: middle; text-anchor: middle;"></text></pattern><marker id="SvgjsMarker1255" markerWidth="13" markerHeight="9" refX="9.5" refY="4.5" viewBox="0 0 13 9" orient="auto" markerUnits="userSpaceOnUse" stroke-dasharray="0,0"><path id="SvgjsPath1256" d="M0,0 L13,4.5 L0,9 L0,0" fill="#323232" stroke="#323232" stroke-width="1"></path></marker></defs><rect id="svgbackgroundid" width="401.5882352941177" height="196.21848739495795" fill="#ffffff"></rect><rect id="SvgjsRect1209" width="401.5882352941177" height="196.21848739495795" fill="url(#pattern_mark_0)"></rect><rect id="SvgjsRect1210" width="401.5882352941177" height="196.21848739495795" fill="url(#pattern_mark_1)"></rect><g id="SvgjsG1211" transform="translate(25,25)"><path id="SvgjsPath1212" d="M 0 4Q 0 0 4 0L 147 0Q 151 0 151 4L 151 97.21190476190498Q 151 101.21190476190498 147 101.21190476190498L 4 101.21190476190498Q 0 101.21190476190498 0 97.21190476190498Z" stroke="rgba(33,41,48,1)" stroke-width="1.5" fill-opacity="1" fill="#dbf5f5"></path><g id="SvgjsG1213"><text id="SvgjsText1214" font-family="微软雅黑" text-anchor="middle" font-size="24px" width="131px" fill="#323232" font-weight="400" align="top" lineHeight="125%" anchor="middle" family="微软雅黑" size="24px" weight="400" font-style="" opacity="1" y="-6" transform="rotate(0)"><tspan id="SvgjsTspan1215" dy="30" x="75.5"><tspan id="SvgjsTspan1216" style="">CPU</tspan></tspan></text></g></g><g id="SvgjsG1217" transform="translate(88.85714285714289,68.95238095238113)"><path id="SvgjsPath1218" d="M 0 4Q 0 0 4 0L 70.77976190476221 0Q 74.77976190476221 0 74.77976190476221 4L 74.77976190476221 38Q 74.77976190476221 42 70.77976190476221 42L 4 42Q 0 42 0 38Z" stroke="rgba(33,41,48,1)" stroke-width="1.5" fill-opacity="1" fill="#e5f6da"></path><g id="SvgjsG1219"><text id="SvgjsText1220" font-family="微软雅黑" text-anchor="middle" font-size="20px" width="55px" fill="#e74f4c" font-weight="700" align="middle" lineHeight="125%" anchor="middle" family="微软雅黑" size="20px" weight="700" font-style="" opacity="1" y="3" transform="rotate(0)"><tspan id="SvgjsTspan1221" dy="25" x="37.5"><tspan id="SvgjsTspan1222" style="">21</tspan></tspan></text></g></g><g id="SvgjsG1223" transform="translate(31.714285714285666,69.95238095238113)"><path id="SvgjsPath1224" d="M 0 0L 55.71428571428578 0L 55.71428571428578 40L 0 40Z" stroke="none" fill="none"></path><g id="SvgjsG1225"><text id="SvgjsText1226" font-family="微软雅黑" text-anchor="middle" font-size="20px" width="56px" fill="#323232" font-weight="400" align="middle" lineHeight="125%" anchor="middle" family="微软雅黑" size="20px" weight="400" font-style="" opacity="1" y="2" transform="rotate(0)"><tspan id="SvgjsTspan1227" dy="25" x="28"><tspan id="SvgjsTspan1228" style="">eax</tspan></tspan></text></g></g><g id="SvgjsG1229" transform="translate(225.58823529411768,25)"><path id="SvgjsPath1230" d="M 0 4Q 0 0 4 0L 147 0Q 151 0 151 4L 151 97.21190476190498Q 151 101.21190476190498 147 101.21190476190498L 4 101.21190476190498Q 0 101.21190476190498 0 97.21190476190498Z" stroke="rgba(33,41,48,1)" stroke-width="1.5" fill-opacity="1" fill="#fcf9ea"></path><g id="SvgjsG1231"><text id="SvgjsText1232" font-family="微软雅黑" text-anchor="middle" font-size="24px" width="131px" fill="#323232" font-weight="400" align="top" lineHeight="125%" anchor="middle" family="微软雅黑" size="24px" weight="400" font-style="" opacity="1" y="-6" transform="rotate(0)"><tspan id="SvgjsTspan1233" dy="30" x="75.5"><tspan id="SvgjsTspan1234" style="">内存</tspan></tspan></text></g></g><g id="SvgjsG1235" transform="translate(290.58823529411757,69.95238095238108)"><path id="SvgjsPath1236" d="M 0 4Q 0 0 4 0L 70.77976190476221 0Q 74.77976190476221 0 74.77976190476221 4L 74.77976190476221 38Q 74.77976190476221 42 70.77976190476221 42L 4 42Q 0 42 0 38Z" stroke="rgba(33,41,48,1)" stroke-width="1.5" fill-opacity="1" fill="#fbeada"></path><g id="SvgjsG1237"><text id="SvgjsText1238" font-family="微软雅黑" text-anchor="middle" font-size="20px" width="55px" fill="#323232" font-weight="400" align="middle" lineHeight="125%" anchor="middle" family="微软雅黑" size="20px" weight="400" font-style="" opacity="1" y="3" transform="rotate(0)"><tspan id="SvgjsTspan1239" dy="25" x="37.5"><tspan id="SvgjsTspan1240" style="">20</tspan></tspan></text></g></g><g id="SvgjsG1241" transform="translate(233.44537815126023,70.95238095238108)"><path id="SvgjsPath1242" d="M 0 0L 55.71428571428578 0L 55.71428571428578 40L 0 40Z" stroke="none" fill="none"></path><g id="SvgjsG1243"><text id="SvgjsText1244" font-family="微软雅黑" text-anchor="middle" font-size="20px" width="56px" fill="#323232" font-weight="400" align="middle" lineHeight="125%" anchor="middle" family="微软雅黑" size="20px" weight="400" font-style="" opacity="1" y="2" transform="rotate(0)"><tspan id="SvgjsTspan1245" dy="25" x="28"><tspan id="SvgjsTspan1246" style="">cnt</tspan></tspan></text></g></g><g id="SvgjsG1247" transform="translate(70.45290616246513,151.21848739495795)"><path id="SvgjsPath1248" d="M 0 0L 111.58823529411768 0L 111.58823529411768 20L 0 20Z" stroke="none" fill="none"></path><g id="SvgjsG1249"><text id="SvgjsText1250" font-family="&quot;Lucida Console&quot;" text-anchor="middle" font-size="16px" width="112px" fill="#7f7f7f" font-weight="400" align="middle" lineHeight="125%" anchor="middle" family="&quot;Lucida Console&quot;" size="16px" weight="400" font-style="" opacity="1" y="-4" transform="rotate(0)"><tspan id="SvgjsTspan1251" dy="20" x="56"><tspan id="SvgjsTspan1252" style="">add eax, 1</tspan></tspan></text></g></g><g id="SvgjsG1253"><path id="SvgjsPath1254" d="M126.24702380952397 150.46848739495795C 126.24702380952397 135.1120448179272 126.24702380952397 127.05882352941188 126.24702380952397 113.65238095238112" stroke="#323232" stroke-width="1.5" fill="none" marker-end="url(#SvgjsMarker1255)"></path></g></svg>