<svg id="SvgjsSvg1151" width="714" height="411.296875" xmlns="http://www.w3.org/2000/svg" version="1.1" xmlns:xlink="http://www.w3.org/1999/xlink" xmlns:svgjs="http://svgjs.com/svgjs"><defs id="SvgjsDefs1152"><pattern patternUnits="userSpaceOnUse" id="pattern_mark_0" width="300" height="300"><text x="150" y="100" fill="rgba(229,229,229,0.8)" font-size="18" transform="rotate(-45, 150, 150)" style="dominant-baseline: middle; text-anchor: middle;"></text></pattern><pattern patternUnits="userSpaceOnUse" id="pattern_mark_1" width="300" height="300"><text x="150" y="200" fill="rgba(229,229,229,0.8)" font-size="18" transform="rotate(-45, 150, 150)" style="dominant-baseline: middle; text-anchor: middle;"></text></pattern><marker id="SvgjsMarker1170" markerWidth="13" markerHeight="9" refX="9.5" refY="4.5" viewBox="0 0 13 9" orient="auto" markerUnits="userSpaceOnUse" stroke-dasharray="0,0"><path id="SvgjsPath1171" d="M0,0 L13,4.5 L0,9 L0,0" fill="#323232" stroke="#323232" stroke-width="1"></path></marker><marker id="SvgjsMarker1174" markerWidth="13" markerHeight="9" refX="9.5" refY="4.5" viewBox="0 0 13 9" orient="auto" markerUnits="userSpaceOnUse" stroke-dasharray="0,0"><path id="SvgjsPath1175" d="M0,0 L13,4.5 L0,9 L0,0" fill="#323232" stroke="#323232" stroke-width="1"></path></marker><marker id="SvgjsMarker1184" markerWidth="13" markerHeight="9" refX="9.5" refY="4.5" viewBox="0 0 13 9" orient="auto" markerUnits="userSpaceOnUse" stroke-dasharray="0,0"><path id="SvgjsPath1185" d="M0,0 L13,4.5 L0,9 L0,0" fill="#323232" stroke="#323232" stroke-width="1"></path></marker><marker id="SvgjsMarker1188" markerWidth="13" markerHeight="9" refX="9.5" refY="4.5" viewBox="0 0 13 9" orient="auto" markerUnits="userSpaceOnUse" stroke-dasharray="0,0"><path id="SvgjsPath1189" d="M0,0 L13,4.5 L0,9 L0,0" fill="#323232" stroke="#323232" stroke-width="1"></path></marker><marker id="SvgjsMarker1198" markerWidth="13" markerHeight="9" refX="9.5" refY="4.5" viewBox="0 0 13 9" orient="auto" markerUnits="userSpaceOnUse" stroke-dasharray="0,0"><path id="SvgjsPath1199" d="M0,0 L13,4.5 L0,9 L0,0" fill="#323232" stroke="#323232" stroke-width="1"></path></marker><marker id="SvgjsMarker1202" markerWidth="13" markerHeight="9" refX="9.5" refY="4.5" viewBox="0 0 13 9" orient="auto" markerUnits="userSpaceOnUse" stroke-dasharray="0,0"><path id="SvgjsPath1203" d="M0,0 L13,4.5 L0,9 L0,0" fill="#323232" stroke="#323232" stroke-width="1"></path></marker><marker id="SvgjsMarker1212" markerWidth="13" markerHeight="9" refX="9.5" refY="4.5" viewBox="0 0 13 9" orient="auto" markerUnits="userSpaceOnUse" stroke-dasharray="0,0"><path id="SvgjsPath1213" d="M0,0 L13,4.5 L0,9 L0,0" fill="#323232" stroke="#323232" stroke-width="1"></path></marker><marker id="SvgjsMarker1228" markerWidth="13" markerHeight="9" refX="9.5" refY="4.5" viewBox="0 0 13 9" orient="auto" markerUnits="userSpaceOnUse" stroke-dasharray="0,0"><path id="SvgjsPath1229" d="M0,0 L13,4.5 L0,9 L0,0" fill="#323232" stroke="#323232" stroke-width="1"></path></marker><marker id="SvgjsMarker1236" markerWidth="13" markerHeight="9" refX="9.5" refY="4.5" viewBox="0 0 13 9" orient="auto" markerUnits="userSpaceOnUse" stroke-dasharray="0,0"><path id="SvgjsPath1237" d="M0,0 L13,4.5 L0,9 L0,0" fill="#323232" stroke="#323232" stroke-width="1"></path></marker><marker id="SvgjsMarker1244" markerWidth="13" markerHeight="9" refX="9.5" refY="4.5" viewBox="0 0 13 9" orient="auto" markerUnits="userSpaceOnUse" stroke-dasharray="0,0"><path id="SvgjsPath1245" d="M0,0 L13,4.5 L0,9 L0,0" fill="#323232" stroke="#323232" stroke-width="1"></path></marker><marker id="SvgjsMarker1264" markerWidth="13" markerHeight="9" refX="9.5" refY="4.5" viewBox="0 0 13 9" orient="auto" markerUnits="userSpaceOnUse" stroke-dasharray="0,0"><path id="SvgjsPath1265" d="M0,0 L13,4.5 L0,9 L0,0" fill="#323232" stroke="#323232" stroke-width="1"></path></marker></defs><rect id="svgbackgroundid" width="714" height="411.296875" fill="#ffffff"></rect><rect id="SvgjsRect1154" width="714" height="411.296875" fill="url(#pattern_mark_0)"></rect><rect id="SvgjsRect1155" width="714" height="411.296875" fill="url(#pattern_mark_1)"></rect><g id="SvgjsG1156" transform="translate(60.839279631047475,194.89506894066218)"><path id="SvgjsPath1157" d="M 21.401041666666668 0L 98.09895833333333 0C 126.63368055555556 0 126.63368055555556 64.203125 98.09895833333333 64.203125L 21.401041666666668 64.203125C -7.133680555555556 64.203125 -7.133680555555556 0 21.401041666666668 0Z" stroke="rgba(33,41,48,1)" stroke-width="1.5" fill-opacity="1" fill="#e5f6da"></path><g id="SvgjsG1158"><text id="SvgjsText1159" font-family="微软雅黑" text-anchor="middle" font-size="20px" width="100px" fill="#323232" font-weight="400" align="middle" lineHeight="125%" anchor="middle" family="微软雅黑" size="20px" weight="400" font-style="" opacity="1" y="14.1015625" transform="rotate(0)"><tspan id="SvgjsTspan1160" dy="25" x="60"><tspan id="SvgjsTspan1161" style="">epitem</tspan></tspan></text></g></g><g id="SvgjsG1162" transform="translate(220.33927963104748,194.89506894066218)"><path id="SvgjsPath1163" d="M 21.401041666666668 0L 98.09895833333333 0C 126.63368055555556 0 126.63368055555556 64.203125 98.09895833333333 64.203125L 21.401041666666668 64.203125C -7.133680555555556 64.203125 -7.133680555555556 0 21.401041666666668 0Z" stroke="rgba(33,41,48,1)" stroke-width="1.5" fill-opacity="1" fill="#e5f6da"></path><g id="SvgjsG1164"><text id="SvgjsText1165" font-family="微软雅黑" text-anchor="middle" font-size="20px" width="100px" fill="#323232" font-weight="400" align="middle" lineHeight="125%" anchor="middle" family="微软雅黑" size="20px" weight="400" font-style="" opacity="1" y="14.1015625" transform="rotate(0)"><tspan id="SvgjsTspan1166" dy="25" x="60"><tspan id="SvgjsTspan1167" style="">epitem</tspan></tspan></text></g></g><g id="SvgjsG1168"><path id="SvgjsPath1169" d="M177.6534386805714 209.99771462448305C 195.00051069235144 204.6572097550788 206.30584999193536 204.02980793954256 221.5699493640201 209.4762845448454" stroke="#323232" stroke-width="1.5" fill="none" marker-end="url(#SvgjsMarker1170)"></path></g><g id="SvgjsG1172"><path id="SvgjsPath1173" d="M223.31484829346164 243.51201625560498C 206.91544944403608 251.94750250013044 193.28797016517 251.64779455918222 178.5606106046945 244.20835758518956" stroke="#323232" stroke-width="1.5" fill="none" marker-end="url(#SvgjsMarker1174)"></path></g><g id="SvgjsG1176" transform="translate(381.3392796310475,194.89506894066218)"><path id="SvgjsPath1177" d="M 21.401041666666668 0L 98.09895833333333 0C 126.63368055555556 0 126.63368055555556 64.203125 98.09895833333333 64.203125L 21.401041666666668 64.203125C -7.133680555555556 64.203125 -7.133680555555556 0 21.401041666666668 0Z" stroke="rgba(33,41,48,1)" stroke-width="1.5" fill-opacity="1" fill="#e5f6da"></path><g id="SvgjsG1178"><text id="SvgjsText1179" font-family="微软雅黑" text-anchor="middle" font-size="20px" width="100px" fill="#323232" font-weight="400" align="middle" lineHeight="125%" anchor="middle" family="微软雅黑" size="20px" weight="400" font-style="" opacity="1" y="14.1015625" transform="rotate(0)"><tspan id="SvgjsTspan1180" dy="25" x="60"><tspan id="SvgjsTspan1181" style="">epitem</tspan></tspan></text></g></g><g id="SvgjsG1182"><path id="SvgjsPath1183" d="M337.63088115648054 210.02047676107358C 355.63593201246374 205.51121776619865 366.9170595838384 203.89593666625265 382.5645746241372 209.4964117638448" stroke="#323232" stroke-width="1.5" fill="none" marker-end="url(#SvgjsMarker1184)"></path></g><g id="SvgjsG1186"><path id="SvgjsPath1187" d="M384.3131919150243 243.50779011080556C 367.69344028485716 252.06062181675304 354.31100480979853 250.8310234959432 338.9664712994687 244.13022603899378" stroke="#323232" stroke-width="1.5" fill="none" marker-end="url(#SvgjsMarker1188)"></path></g><g id="SvgjsG1190" transform="translate(542.3392796310475,194.89506894066218)"><path id="SvgjsPath1191" d="M 21.401041666666668 0L 98.09895833333333 0C 126.63368055555556 0 126.63368055555556 64.203125 98.09895833333333 64.203125L 21.401041666666668 64.203125C -7.133680555555556 64.203125 -7.133680555555556 0 21.401041666666668 0Z" stroke="rgba(33,41,48,1)" stroke-width="1.5" fill-opacity="1" fill="#e5f6da"></path><g id="SvgjsG1192"><text id="SvgjsText1193" font-family="微软雅黑" text-anchor="middle" font-size="20px" width="100px" fill="#323232" font-weight="400" align="middle" lineHeight="125%" anchor="middle" family="微软雅黑" size="20px" weight="400" font-style="" opacity="1" y="14.1015625" transform="rotate(0)"><tspan id="SvgjsTspan1194" dy="25" x="60"><tspan id="SvgjsTspan1195" style="">epitem</tspan></tspan></text></g></g><g id="SvgjsG1196"><path id="SvgjsPath1197" d="M498.7059822086253 210.0126222114167C 516.5987263390061 205.19287934356984 527.9461392524809 203.9059495991515 543.5666646419993 209.4885108417059" stroke="#323232" stroke-width="1.5" fill="none" marker-end="url(#SvgjsMarker1198)"></path></g><g id="SvgjsG1200"><path id="SvgjsPath1201" d="M545.2928086983616 243.44796146206568C 529.9125171410346 251.43947113364084 518.9084874600735 243.2362224414436 500.8392796310475 243.2362224414436" stroke="#323232" stroke-width="1.5" fill="none" marker-end="url(#SvgjsMarker1202)"></path></g><g id="SvgjsG1204" transform="translate(60.839279631047475,324.296061342823)"><path id="SvgjsPath1205" d="M 0 4Q 0 0 4 0L 115.5 0Q 119.5 0 119.5 4L 119.5 57.59161638615438Q 119.5 61.59161638615438 115.5 61.59161638615438L 4 61.59161638615438Q 0 61.59161638615438 0 57.59161638615438Z" stroke="rgba(33,41,48,1)" stroke-width="1.5" fill-opacity="1" fill="#fbeada"></path><g id="SvgjsG1206"><text id="SvgjsText1207" font-family="微软雅黑" text-anchor="middle" font-size="19px" width="100px" fill="#323232" font-weight="400" align="middle" lineHeight="125%" anchor="middle" family="微软雅黑" size="19px" weight="400" font-style="" opacity="1" y="14.420808193077189" transform="rotate(0)"><tspan id="SvgjsTspan1208" dy="23.75" x="60"><tspan id="SvgjsTspan1209" style="">fd就绪事件</tspan></tspan></text></g></g><g id="SvgjsG1210"><path id="SvgjsPath1211" d="M120.58927963104748 323.8793946761564L120.58927963104759 261.79819394066214" stroke="#323232" stroke-width="1.5" fill="none" marker-end="url(#SvgjsMarker1212)"></path><rect id="SvgjsRect1214" width="64" height="20" x="88.58927963104752" y="285.27105839272076" fill="#ffffff"></rect><text id="SvgjsText1215" font-family="微软雅黑" text-anchor="middle" font-size="16px" width="64px" fill="#323232" font-weight="400" align="top" lineHeight="20px" anchor="middle" family="微软雅黑" size="16px" weight="400" font-style="" opacity="1" y="281.27105839272076" transform="rotate(0)"><tspan id="SvgjsTspan1216" dy="20" x="120.58927963104752"><tspan id="SvgjsTspan1217" style="">加入队列</tspan></tspan></text></g><g id="SvgjsG1218"><path id="SvgjsPath1219" d="M25.0103759765625 153.0446225120908L357.09370930989587 153.0446225120908L357.09370930989587 153.0446225120908L689.1770426432292 153.0446225120908" stroke-dasharray="8,5" stroke="#323232" stroke-width="1.5" fill="none"></path></g><g id="SvgjsG1220" transform="translate(301.5892796310475,25.01034705710876)"><path id="SvgjsPath1221" d="M 0 4Q 0 0 4 0L 115.5 0Q 119.5 0 119.5 4L 119.5 57.59161638615438Q 119.5 61.59161638615438 115.5 61.59161638615438L 4 61.59161638615438Q 0 61.59161638615438 0 57.59161638615438Z" stroke="rgba(33,41,48,1)" stroke-width="1.5" fill-opacity="1" fill="#fcf9ea"></path><g id="SvgjsG1222"><text id="SvgjsText1223" font-family="微软雅黑" text-anchor="middle" font-size="20px" width="100px" fill="#323232" font-weight="400" align="middle" lineHeight="125%" anchor="middle" family="微软雅黑" size="20px" weight="400" font-style="" opacity="1" y="12.795808193077189" transform="rotate(0)"><tspan id="SvgjsTspan1224" dy="25" x="60"><tspan id="SvgjsTspan1225" style="">epoll_wait</tspan></tspan></text></g></g><g id="SvgjsG1226"><path id="SvgjsPath1227" d="M203.34370930989576 55.80615525018597L252.46649447047162 55.80615525018597L252.46649447047162 55.80615525018597L298.88927963104743 55.80615525018597" stroke="#323232" stroke-width="1.5" fill="none" marker-end="url(#SvgjsMarker1228)"></path><rect id="SvgjsRect1230" width="32" height="20" x="202.73749310642387" y="45.80615525018597" fill="#ffffff"></rect><text id="SvgjsText1231" font-family="微软雅黑" text-anchor="middle" font-size="16px" width="32px" fill="#323232" font-weight="400" align="top" lineHeight="20px" anchor="middle" family="微软雅黑" size="16px" weight="400" font-style="" opacity="1" y="41.80615525018597" transform="rotate(0)"><tspan id="SvgjsTspan1232" dy="20" x="218.73749310642387"><tspan id="SvgjsTspan1233" style="">调用</tspan></tspan></text></g><g id="SvgjsG1234"><path id="SvgjsPath1235" d="M601.9807271655523 194.15296627779477C 599.1770426432292 96.95831298828125 362.5103759765625 171.1249796549479 361.73717987812074 89.27248312927537" stroke="#323232" stroke-width="1.5" fill="none" marker-end="url(#SvgjsMarker1236)"></path><rect id="SvgjsRect1238" width="64" height="20" x="449.09752036288097" y="125.9594159170947" fill="#ffffff"></rect><text id="SvgjsText1239" font-family="微软雅黑" text-anchor="middle" font-size="16px" width="64px" fill="#323232" font-weight="400" align="top" lineHeight="20px" anchor="middle" family="微软雅黑" size="16px" weight="400" font-style="" opacity="1" y="121.9594159170947" transform="rotate(0)"><tspan id="SvgjsTspan1240" dy="20" x="481.09752036288097"><tspan id="SvgjsTspan1241" style="">弹出队列</tspan></tspan></text></g><g id="SvgjsG1242"><path id="SvgjsPath1243" d="M421.8392796310467 55.80615525018595C 469.589279631047 55.80615525018591 493.83927963104725 55.80615525018595 539.6392796310474 55.80615525018595" stroke="#323232" stroke-width="1.5" fill="none" marker-end="url(#SvgjsMarker1244)"></path><rect id="SvgjsRect1246" width="32" height="20" x="461.20146643104704" y="45.806155250185924" fill="#ffffff"></rect><text id="SvgjsText1247" font-family="微软雅黑" text-anchor="middle" font-size="16px" width="32px" fill="#323232" font-weight="400" align="top" lineHeight="20px" anchor="middle" family="微软雅黑" size="16px" weight="400" font-style="" opacity="1" y="41.806155250185924" transform="rotate(0)"><tspan id="SvgjsTspan1248" dy="20" x="477.20146643104704"><tspan id="SvgjsTspan1249" style="">返回</tspan></tspan></text></g><g id="SvgjsG1250" transform="translate(542.3392796310475,25.010347057108774)"><path id="SvgjsPath1251" d="M 0 4Q 0 0 4 0L 115.5 0Q 119.5 0 119.5 4L 119.5 57.59161638615438Q 119.5 61.59161638615438 115.5 61.59161638615438L 4 61.59161638615438Q 0 61.59161638615438 0 57.59161638615438Z" stroke="rgba(33,41,48,1)" stroke-width="1.5" fill-opacity="1" fill="#fbeada"></path><g id="SvgjsG1252"><text id="SvgjsText1253" font-family="微软雅黑" text-anchor="middle" font-size="19px" width="100px" fill="#323232" font-weight="400" align="middle" lineHeight="125%" anchor="middle" family="微软雅黑" size="19px" weight="400" font-style="" opacity="1" y="14.420808193077189" transform="rotate(0)"><tspan id="SvgjsTspan1254" dy="23.75" x="60"><tspan id="SvgjsTspan1255" style="">fd就绪事件</tspan></tspan></text></g></g><g id="SvgjsG1256" transform="translate(301.5892796310475,324.296061342823)"><path id="SvgjsPath1257" d="M 0 4Q 0 0 4 0L 115.5 0Q 119.5 0 119.5 4L 119.5 57.59161638615438Q 119.5 61.59161638615438 115.5 61.59161638615438L 4 61.59161638615438Q 0 61.59161638615438 0 57.59161638615438Z" stroke="rgba(33,41,48,1)" stroke-width="1.5" fill-opacity="1" fill="#dbf5f5"></path><g id="SvgjsG1258"><text id="SvgjsText1259" font-family="微软雅黑" text-anchor="middle" font-size="20px" width="100px" fill="#323232" font-weight="400" align="middle" lineHeight="125%" anchor="middle" family="微软雅黑" size="20px" weight="400" font-style="" opacity="1" y="12.795808193077189" transform="rotate(0)"><tspan id="SvgjsTspan1260" dy="25" x="60"><tspan id="SvgjsTspan1261" style="">IO设备</tspan></tspan></text></g></g><g id="SvgjsG1262"><path id="SvgjsPath1263" d="M300.8392796310475 355.0918695359002C 253.08927963104748 355.0918695359002 228.83927963104748 355.09186953590006 183.03927963104752 355.0918695359002" stroke="#323232" stroke-width="1.5" fill="none" marker-end="url(#SvgjsMarker1264)"></path></g><g id="SvgjsG1266" transform="translate(70.58927963104748,35.80615525018595)"><path id="SvgjsPath1267" d="M 0 0L 100 0L 100 40L 0 40Z" stroke="none" fill="none"></path><g id="SvgjsG1268"><text id="SvgjsText1269" font-family="微软雅黑" text-anchor="middle" font-size="24px" width="100px" fill="#323232" font-weight="400" align="middle" lineHeight="125%" anchor="middle" family="微软雅黑" size="24px" weight="400" font-style="" opacity="1" y="-1" transform="rotate(0)"><tspan id="SvgjsTspan1270" dy="30" x="50"><tspan id="SvgjsTspan1271" style="">用户空间</tspan></tspan></text></g></g><g id="SvgjsG1272" transform="translate(552.0892796310475,335.0918695359002)"><path id="SvgjsPath1273" d="M 0 0L 100 0L 100 40L 0 40Z" stroke="none" fill="none"></path><g id="SvgjsG1274"><text id="SvgjsText1275" font-family="微软雅黑" text-anchor="middle" font-size="24px" width="100px" fill="#323232" font-weight="400" align="middle" lineHeight="125%" anchor="middle" family="微软雅黑" size="24px" weight="400" font-style="" opacity="1" y="-1" transform="rotate(0)"><tspan id="SvgjsTspan1276" dy="30" x="50"><tspan id="SvgjsTspan1277" style="">内核空间</tspan></tspan></text></g></g></svg>