<svg id="SvgjsSvg1107" width="624.2500287224266" height="366" xmlns="http://www.w3.org/2000/svg" version="1.1" xmlns:xlink="http://www.w3.org/1999/xlink" xmlns:svgjs="http://svgjs.com/svgjs"><defs id="SvgjsDefs1108"><pattern patternUnits="userSpaceOnUse" id="pattern_mark_0" width="300" height="300"><text x="150" y="100" fill="rgba(229,229,229,0.8)" font-size="18" transform="rotate(-45, 150, 150)" style="dominant-baseline: middle; text-anchor: middle;"></text></pattern><pattern patternUnits="userSpaceOnUse" id="pattern_mark_1" width="300" height="300"><text x="150" y="200" fill="rgba(229,229,229,0.8)" font-size="18" transform="rotate(-45, 150, 150)" style="dominant-baseline: middle; text-anchor: middle;"></text></pattern><marker id="SvgjsMarker1196" markerWidth="13" markerHeight="9" refX="9.5" refY="4.5" viewBox="0 0 13 9" orient="auto" markerUnits="userSpaceOnUse" stroke-dasharray="0,0"><path id="SvgjsPath1197" d="M0,0 L13,4.5 L0,9 L0,0" fill="#323232" stroke="#323232" stroke-width="1"></path></marker><marker id="SvgjsMarker1200" markerWidth="13" markerHeight="9" refX="9.5" refY="4.5" viewBox="0 0 13 9" orient="auto" markerUnits="userSpaceOnUse" stroke-dasharray="0,0"><path id="SvgjsPath1201" d="M0,0 L13,4.5 L0,9 L0,0" fill="#323232" stroke="#323232" stroke-width="1"></path></marker></defs><rect id="svgbackgroundid" width="624.2500287224266" height="366" fill="#ffffff"></rect><rect id="SvgjsRect1110" width="624.2500287224266" height="366" fill="url(#pattern_mark_0)"></rect><rect id="SvgjsRect1111" width="624.2500287224266" height="366" fill="url(#pattern_mark_1)"></rect><g id="SvgjsG1112" transform="translate(25.011218159138707,25.00738303133744)"><path id="SvgjsPath1113" d="M 0 4Q 0 0 4 0L 122.03571428571422 0Q 126.03571428571422 0 126.03571428571422 4L 126.03571428571422 311.89880952380963Q 126.03571428571422 315.89880952380963 122.03571428571422 315.89880952380963L 4 315.89880952380963Q 0 315.89880952380963 0 311.89880952380963Z" stroke="rgba(33,41,48,1)" stroke-width="1.5" fill-opacity="1" fill="#f6edc1"></path><g id="SvgjsG1114"><text id="SvgjsText1115" font-family="微软雅黑" text-anchor="middle" font-size="20px" width="107px" fill="#323232" font-weight="400" align="top" lineHeight="200%" anchor="middle" family="微软雅黑" size="20px" weight="400" font-style="" opacity="1" y="-13" transform="rotate(0)"><tspan id="SvgjsTspan1116" dy="40" x="63.5"><tspan id="SvgjsTspan1117" style="">task_struct</tspan></tspan></text></g></g><g id="SvgjsG1118" transform="translate(37.83859911151956,161.86452588848022)"><path id="SvgjsPath1119" d="M 0 4Q 0 0 4 0L 96.38095238095241 0Q 100.38095238095241 0 100.38095238095241 4L 100.38095238095241 50Q 100.38095238095241 54 96.38095238095241 54L 4 54Q 0 54 0 50Z" stroke="rgba(33,41,48,1)" stroke-width="1.5" fill-opacity="1" fill="#fcf9ea"></path><g id="SvgjsG1120"><text id="SvgjsText1121" font-family="微软雅黑" text-anchor="middle" font-size="20px" width="81px" fill="#323232" font-weight="400" align="middle" lineHeight="125%" anchor="middle" family="微软雅黑" size="20px" weight="400" font-style="" opacity="1" y="9" transform="rotate(0)"><tspan id="SvgjsTspan1122" dy="25" x="50.5"><tspan id="SvgjsTspan1123" style="">files</tspan></tspan></text></g></g><g id="SvgjsG1124" transform="translate(439.14217054009055,25.00738303133744)"><path id="SvgjsPath1125" d="M 0 4Q 0 0 4 0L 113.06986520769203 0Q 117.06986520769203 0 117.06986520769203 4L 117.06986520769203 311.89880952380963Q 117.06986520769203 315.89880952380963 113.06986520769203 315.89880952380963L 4 315.89880952380963Q 0 315.89880952380963 0 311.89880952380963Z" stroke="rgba(33,41,48,1)" stroke-width="1.5" fill-opacity="1" fill="#b7eaeb"></path><g id="SvgjsG1126"><text id="SvgjsText1127" font-family="微软雅黑" text-anchor="middle" font-size="20px" width="98px" fill="#323232" font-weight="400" align="top" lineHeight="200%" anchor="middle" family="微软雅黑" size="20px" weight="400" font-style="" opacity="1" y="-13" transform="rotate(0)"></text></g></g><g id="SvgjsG1128" transform="translate(451.6762871182448,36.348795389086035)"><path id="SvgjsPath1129" d="M 0 4Q 0 0 4 0L 89.24011555976763 0Q 93.24011555976763 0 93.24011555976763 4L 93.24011555976763 49.14529592432779Q 93.24011555976763 53.14529592432779 89.24011555976763 53.14529592432779L 4 53.14529592432779Q 0 53.14529592432779 0 49.14529592432779Z" stroke="rgba(33,41,48,1)" stroke-width="1.5" fill-opacity="1" fill="#dbf5f5"></path><g id="SvgjsG1130"><text id="SvgjsText1131" font-family="微软雅黑" text-anchor="middle" font-size="18px" width="74px" fill="#e74f4c" font-weight="400" align="middle" lineHeight="125%" anchor="middle" family="微软雅黑" size="18px" weight="400" font-style="" opacity="1" y="10.822647962163895" transform="rotate(0)"><tspan id="SvgjsTspan1132" dy="22.5" x="47"><tspan id="SvgjsTspan1133" style="">标准输入</tspan></tspan></text></g></g><g id="SvgjsG1134" transform="translate(451.6762871182448,99.08976974419522)"><path id="SvgjsPath1135" d="M 0 4Q 0 0 4 0L 89.24011555976763 0Q 93.24011555976763 0 93.24011555976763 4L 93.24011555976763 49.14529592432779Q 93.24011555976763 53.14529592432779 89.24011555976763 53.14529592432779L 4 53.14529592432779Q 0 53.14529592432779 0 49.14529592432779Z" stroke="rgba(33,41,48,1)" stroke-width="1.5" fill-opacity="1" fill="#dbf5f5"></path><g id="SvgjsG1136"><text id="SvgjsText1137" font-family="微软雅黑" text-anchor="middle" font-size="18px" width="74px" fill="#e74f4c" font-weight="400" align="middle" lineHeight="125%" anchor="middle" family="微软雅黑" size="18px" weight="400" font-style="" opacity="1" y="10.822647962163895" transform="rotate(0)"><tspan id="SvgjsTspan1138" dy="22.5" x="47"><tspan id="SvgjsTspan1139" style="">标准输出</tspan></tspan></text></g></g><g id="SvgjsG1140" transform="translate(451.6762871182448,161.8307440993044)"><path id="SvgjsPath1141" d="M 0 4Q 0 0 4 0L 89.24011555976763 0Q 93.24011555976763 0 93.24011555976763 4L 93.24011555976763 49.14529592432779Q 93.24011555976763 53.14529592432779 89.24011555976763 53.14529592432779L 4 53.14529592432779Q 0 53.14529592432779 0 49.14529592432779Z" stroke="rgba(33,41,48,1)" stroke-width="1.5" fill-opacity="1" fill="#dbf5f5"></path><g id="SvgjsG1142"><text id="SvgjsText1143" font-family="微软雅黑" text-anchor="middle" font-size="18px" width="74px" fill="#e74f4c" font-weight="400" align="middle" lineHeight="125%" anchor="middle" family="微软雅黑" size="18px" weight="400" font-style="" opacity="1" y="10.822647962163895" transform="rotate(0)"><tspan id="SvgjsTspan1144" dy="22.5" x="47"><tspan id="SvgjsTspan1145" style="">标准错误</tspan></tspan></text></g></g><g id="SvgjsG1146" transform="translate(550.2518338636851,43.23800041631375)"><path id="SvgjsPath1147" d="M 0 0L 48.920098581167835 0L 48.920098581167835 39.36688586987243L 0 39.36688586987243Z" stroke="none" fill="none"></path><g id="SvgjsG1148"><text id="SvgjsText1149" font-family="微软雅黑" text-anchor="middle" font-size="20px" width="49px" fill="#323232" font-weight="400" align="middle" lineHeight="125%" anchor="middle" family="微软雅黑" size="20px" weight="400" font-style="" opacity="1" y="1.6834429349362168" transform="rotate(0)"><tspan id="SvgjsTspan1150" dy="25" x="24.5"><tspan id="SvgjsTspan1151" style="">0</tspan></tspan></text></g></g><g id="SvgjsG1152" transform="translate(550.2518338636851,105.97897477142294)"><path id="SvgjsPath1153" d="M 0 0L 48.920098581167835 0L 48.920098581167835 39.36688586987243L 0 39.36688586987243Z" stroke="none" fill="none"></path><g id="SvgjsG1154"><text id="SvgjsText1155" font-family="微软雅黑" text-anchor="middle" font-size="20px" width="49px" fill="#323232" font-weight="400" align="middle" lineHeight="125%" anchor="middle" family="微软雅黑" size="20px" weight="400" font-style="" opacity="1" y="1.6834429349362168" transform="rotate(0)"><tspan id="SvgjsTspan1156" dy="25" x="24.5"><tspan id="SvgjsTspan1157" style="">1</tspan></tspan></text></g></g><g id="SvgjsG1158" transform="translate(550.2518338636851,168.71994912653213)"><path id="SvgjsPath1159" d="M 0 0L 48.920098581167835 0L 48.920098581167835 39.36688586987243L 0 39.36688586987243Z" stroke="none" fill="none"></path><g id="SvgjsG1160"><text id="SvgjsText1161" font-family="微软雅黑" text-anchor="middle" font-size="20px" width="49px" fill="#323232" font-weight="400" align="middle" lineHeight="125%" anchor="middle" family="微软雅黑" size="20px" weight="400" font-style="" opacity="1" y="1.6834429349362168" transform="rotate(0)"><tspan id="SvgjsTspan1162" dy="25" x="24.5"><tspan id="SvgjsTspan1163" style="">2</tspan></tspan></text></g></g><g id="SvgjsG1164" transform="translate(38.02907530199582,100.5311925551465)"><path id="SvgjsPath1165" d="M 0 0L 100 0L 100 40L 0 40Z" stroke="none" fill="none"></path><g id="SvgjsG1166"><text id="SvgjsText1167" font-family="微软雅黑" text-anchor="middle" font-size="24px" width="100px" fill="#323232" font-weight="400" align="middle" lineHeight="125%" anchor="middle" family="微软雅黑" size="24px" weight="400" font-style="" opacity="1" y="-1" transform="rotate(0)"><tspan id="SvgjsTspan1168" dy="30" x="50"><tspan id="SvgjsTspan1169" style="">···</tspan></tspan></text></g></g><g id="SvgjsG1170" transform="translate(38.02907530199582,237.19785922181393)"><path id="SvgjsPath1171" d="M 0 0L 100 0L 100 40L 0 40Z" stroke="none" fill="none"></path><g id="SvgjsG1172"><text id="SvgjsText1173" font-family="微软雅黑" text-anchor="middle" font-size="24px" width="100px" fill="#323232" font-weight="400" align="middle" lineHeight="125%" anchor="middle" family="微软雅黑" size="24px" weight="400" font-style="" opacity="1" y="-1" transform="rotate(0)"><tspan id="SvgjsTspan1174" dy="30" x="50"><tspan id="SvgjsTspan1175" style="">···</tspan></tspan></text></g></g><g id="SvgjsG1176" transform="translate(228.1362181591387,73.67702588847987)"><path id="SvgjsPath1177" d="M 0 4Q 0 0 4 0L 122.03571428571422 0Q 126.03571428571422 0 126.03571428571422 4L 126.03571428571422 226.37500000000057Q 126.03571428571422 230.37500000000057 122.03571428571422 230.37500000000057L 4 230.37500000000057Q 0 230.37500000000057 0 226.37500000000057Z" stroke="rgba(33,41,48,1)" stroke-width="1.5" fill-opacity="1" fill="#caedb4"></path><g id="SvgjsG1178"><text id="SvgjsText1179" font-family="微软雅黑" text-anchor="middle" font-size="20px" width="107px" fill="#323232" font-weight="400" align="top" lineHeight="200%" anchor="middle" family="微软雅黑" size="20px" weight="400" font-style="" opacity="1" y="-13" transform="rotate(0)"><tspan id="SvgjsTspan1180" dy="40" x="63.5"><tspan id="SvgjsTspan1181" style="">files_struct</tspan></tspan></text></g></g><g id="SvgjsG1182" transform="translate(241.58859911151944,237.01035922181347)"><path id="SvgjsPath1183" d="M 0 4Q 0 0 4 0L 96.38095238095241 0Q 100.38095238095241 0 100.38095238095241 4L 100.38095238095241 50Q 100.38095238095241 54 96.38095238095241 54L 4 54Q 0 54 0 50Z" stroke="rgba(33,41,48,1)" stroke-width="1.5" fill-opacity="1" fill="#e5f6da"></path><g id="SvgjsG1184"><text id="SvgjsText1185" font-family="微软雅黑" text-anchor="middle" font-size="20px" width="81px" fill="#323232" font-weight="400" align="middle" lineHeight="125%" anchor="middle" family="微软雅黑" size="20px" weight="400" font-style="" opacity="1" y="9" transform="rotate(0)"><tspan id="SvgjsTspan1186" dy="25" x="50.5"><tspan id="SvgjsTspan1187" style="">fd_array</tspan></tspan></text></g></g><g id="SvgjsG1188" transform="translate(241.77907530199582,185.67702588847987)"><path id="SvgjsPath1189" d="M 0 0L 100 0L 100 40L 0 40Z" stroke="none" fill="none"></path><g id="SvgjsG1190"><text id="SvgjsText1191" font-family="微软雅黑" text-anchor="middle" font-size="24px" width="100px" fill="#323232" font-weight="400" align="middle" lineHeight="125%" anchor="middle" family="微软雅黑" size="24px" weight="400" font-style="" opacity="1" y="-1" transform="rotate(0)"><tspan id="SvgjsTspan1192" dy="30" x="50"><tspan id="SvgjsTspan1193" style="">···</tspan></tspan></text></g></g><g id="SvgjsG1194"><path id="SvgjsPath1195" d="M138.95832977159728 188.73527166498025C 192.34363881628383 188.86452588848022 174.29784512104106 88.00628056617586 225.76233064000166 88.4715957707756" stroke="#323232" stroke-width="1.5" fill="none" marker-end="url(#SvgjsMarker1196)"></path></g><g id="SvgjsG1198"><path id="SvgjsPath1199" d="M342.7138846367279 263.91833655959454C 436.5893235192266 264.01035922181336 344.66615106341646 48.40619255514707 436.6063237708495 48.7374741391352" stroke="#323232" stroke-width="1.5" fill="none" marker-end="url(#SvgjsMarker1200)"></path></g><g id="SvgjsG1202" transform="translate(448.2963448981286,283.1770258884799)"><path id="SvgjsPath1203" d="M 0 0L 100 0L 100 40L 0 40Z" stroke="none" fill="none"></path><g id="SvgjsG1204"><text id="SvgjsText1205" font-family="微软雅黑" text-anchor="middle" font-size="24px" width="100px" fill="#323232" font-weight="400" align="middle" lineHeight="125%" anchor="middle" family="微软雅黑" size="24px" weight="400" font-style="" opacity="1" y="-1" transform="rotate(0)"><tspan id="SvgjsTspan1206" dy="30" x="50"><tspan id="SvgjsTspan1207" style="">···</tspan></tspan></text></g></g><g id="SvgjsG1208" transform="translate(451.6762871182448,223.05256329748613)"><path id="SvgjsPath1209" d="M 0 4Q 0 0 4 0L 89.24011555976763 0Q 93.24011555976763 0 93.24011555976763 4L 93.24011555976763 49.14529592432779Q 93.24011555976763 53.14529592432779 89.24011555976763 53.14529592432779L 4 53.14529592432779Q 0 53.14529592432779 0 49.14529592432779Z" stroke="rgba(33,41,48,1)" stroke-width="1.5" fill-opacity="1" fill="#dbf5f5"></path><g id="SvgjsG1210"><text id="SvgjsText1211" font-family="微软雅黑" text-anchor="middle" font-size="18px" width="74px" fill="#616161" font-weight="400" align="middle" lineHeight="125%" anchor="middle" family="微软雅黑" size="18px" weight="400" font-style="" opacity="1" y="10.822647962163895" transform="rotate(0)"><tspan id="SvgjsTspan1212" dy="22.5" x="47"><tspan id="SvgjsTspan1213" style="">其他文件</tspan></tspan></text></g></g><g id="SvgjsG1214" transform="translate(550.2518338636851,229.6252112596501)"><path id="SvgjsPath1215" d="M 0 0L 48.920098581167835 0L 48.920098581167835 40L 0 40Z" stroke="none" fill="none"></path><g id="SvgjsG1216"><text id="SvgjsText1217" font-family="微软雅黑" text-anchor="middle" font-size="20px" width="49px" fill="#323232" font-weight="400" align="middle" lineHeight="125%" anchor="middle" family="微软雅黑" size="20px" weight="400" font-style="" opacity="1" y="2" transform="rotate(0)"><tspan id="SvgjsTspan1218" dy="25" x="24.5"><tspan id="SvgjsTspan1219" style="">3</tspan></tspan></text></g></g></svg>