<svg id="SvgjsSvg1006" width="610.5" height="338.5" xmlns="http://www.w3.org/2000/svg" version="1.1" xmlns:xlink="http://www.w3.org/1999/xlink" xmlns:svgjs="http://svgjs.com/svgjs"><defs id="SvgjsDefs1007"><pattern patternUnits="userSpaceOnUse" id="pattern_mark_0" width="300" height="300"><text x="150" y="100" fill="rgba(229,229,229,0.8)" font-size="18" transform="rotate(-45, 150, 150)" style="dominant-baseline: middle; text-anchor: middle;"></text></pattern><pattern patternUnits="userSpaceOnUse" id="pattern_mark_1" width="300" height="300"><text x="150" y="200" fill="rgba(229,229,229,0.8)" font-size="18" transform="rotate(-45, 150, 150)" style="dominant-baseline: middle; text-anchor: middle;"></text></pattern><marker id="SvgjsMarker1039" markerWidth="13" markerHeight="9" refX="9.5" refY="4.5" viewBox="0 0 13 9" orient="auto" markerUnits="userSpaceOnUse" stroke-dasharray="0,0"><path id="SvgjsPath1040" d="M0,0 L13,4.5 L0,9 L0,0" fill="#323232" stroke="#323232" stroke-width="1"></path></marker><marker id="SvgjsMarker1043" markerWidth="13" markerHeight="9" refX="9.5" refY="4.5" viewBox="0 0 13 9" orient="auto" markerUnits="userSpaceOnUse" stroke-dasharray="0,0"><path id="SvgjsPath1044" d="M0,0 L13,4.5 L0,9 L0,0" fill="#e74f4c" stroke="#e74f4c" stroke-width="1"></path></marker><marker id="SvgjsMarker1047" markerWidth="13" markerHeight="9" refX="9.5" refY="4.5" viewBox="0 0 13 9" orient="auto" markerUnits="userSpaceOnUse" stroke-dasharray="0,0"><path id="SvgjsPath1048" d="M0,0 L13,4.5 L0,9 L0,0" fill="#e74f4c" stroke="#e74f4c" stroke-width="1"></path></marker></defs><rect id="svgbackgroundid" width="610.5" height="338.5" fill="#ffffff"></rect><rect id="SvgjsRect1009" width="610.5" height="338.5" fill="url(#pattern_mark_0)"></rect><rect id="SvgjsRect1010" width="610.5" height="338.5" fill="url(#pattern_mark_1)"></rect><g id="SvgjsG1011" transform="translate(85.21428571428578,110)"><path id="SvgjsPath1012" d="M 0 4Q 0 0 4 0L 116.28571428571422 0Q 120.28571428571422 0 120.28571428571422 4L 120.28571428571422 59.71428571428578Q 120.28571428571422 63.71428571428578 116.28571428571422 63.71428571428578L 4 63.71428571428578Q 0 63.71428571428578 0 59.71428571428578Z" stroke="rgba(33,41,48,1)" stroke-width="1.5" fill-opacity="1" fill="#fbeada"></path><g id="SvgjsG1013"><text id="SvgjsText1014" font-family="微软雅黑" text-anchor="middle" font-size="20px" width="101px" fill="#323232" font-weight="400" align="middle" lineHeight="125%" anchor="middle" family="微软雅黑" size="20px" weight="400" font-style="" opacity="1" y="13.85714285714289" transform="rotate(0)"><tspan id="SvgjsTspan1015" dy="25" x="60.5"><tspan id="SvgjsTspan1016" style="">fork()</tspan></tspan></text></g></g><g id="SvgjsG1017" transform="translate(365.2142857142858,110)"><path id="SvgjsPath1018" d="M 0 4Q 0 0 4 0L 116.28571428571422 0Q 120.28571428571422 0 120.28571428571422 4L 120.28571428571422 59.71428571428578Q 120.28571428571422 63.71428571428578 116.28571428571422 63.71428571428578L 4 63.71428571428578Q 0 63.71428571428578 0 59.71428571428578Z" stroke="rgba(33,41,48,1)" stroke-width="1.5" fill-opacity="1" fill="#fbeada"></path><g id="SvgjsG1019"><text id="SvgjsText1020" font-family="微软雅黑" text-anchor="middle" font-size="20px" width="101px" fill="#323232" font-weight="400" align="middle" lineHeight="125%" anchor="middle" family="微软雅黑" size="20px" weight="400" font-style="" opacity="1" y="13.85714285714289" transform="rotate(0)"><tspan id="SvgjsTspan1021" dy="25" x="60.5"><tspan id="SvgjsTspan1022" style="">后续代码</tspan></tspan></text></g></g><g id="SvgjsG1023" transform="translate(365.2142857142858,25)"><path id="SvgjsPath1024" d="M 0 4Q 0 0 4 0L 116.28571428571422 0Q 120.28571428571422 0 120.28571428571422 4L 120.28571428571422 59.71428571428578Q 120.28571428571422 63.71428571428578 116.28571428571422 63.71428571428578L 4 63.71428571428578Q 0 63.71428571428578 0 59.71428571428578Z" stroke="rgba(33,41,48,1)" stroke-width="1.5" fill-opacity="1" fill="#fcf9ea"></path><g id="SvgjsG1025"><text id="SvgjsText1026" font-family="微软雅黑" text-anchor="middle" font-size="20px" width="101px" fill="#323232" font-weight="400" align="middle" lineHeight="125%" anchor="middle" family="微软雅黑" size="20px" weight="400" font-style="" opacity="1" y="13.85714285714289" transform="rotate(0)"><tspan id="SvgjsTspan1027" dy="25" x="60.5"><tspan id="SvgjsTspan1028" style="">后续代码</tspan></tspan></text></g></g><g id="SvgjsG1029"><path id="SvgjsPath1030" d="M25 210.5L303.5 210.5L303.5 210.5L582 210.5" stroke-dasharray="8,5" stroke="#323232" stroke-width="1.5" fill="none"></path></g><g id="SvgjsG1031" transform="translate(228.5,249.5)"><path id="SvgjsPath1032" d="M 0 4Q 0 0 4 0L 116.28571428571422 0Q 120.28571428571422 0 120.28571428571422 4L 120.28571428571422 59.71428571428578Q 120.28571428571422 63.71428571428578 116.28571428571422 63.71428571428578L 4 63.71428571428578Q 0 63.71428571428578 0 59.71428571428578Z" stroke="rgba(33,41,48,1)" stroke-width="1.5" fill-opacity="1" fill="#dbf5f5"></path><g id="SvgjsG1033"><text id="SvgjsText1034" font-family="微软雅黑" text-anchor="middle" font-size="20px" width="101px" fill="#323232" font-weight="400" align="middle" lineHeight="125%" anchor="middle" family="微软雅黑" size="20px" weight="400" font-style="" opacity="1" y="13.85714285714289" transform="rotate(0)"><tspan id="SvgjsTspan1035" dy="25" x="60.5"><tspan id="SvgjsTspan1036" style="">fork</tspan></tspan></text></g></g><g id="SvgjsG1037"><path id="SvgjsPath1038" d="M145.3571428571429 174.46428571428578L145.3571428571429 281.3571428571429L225.79999999999995 281.3571428571429" stroke="#323232" stroke-width="1.5" fill="none" marker-end="url(#SvgjsMarker1039)"></path></g><g id="SvgjsG1041"><path id="SvgjsPath1042" d="M310.5 248.75L310.5 141.8571428571429L362.51428571428573 141.8571428571429" stroke="#e74f4c" stroke-width="1.5" fill="none" marker-end="url(#SvgjsMarker1043)"></path></g><g id="SvgjsG1045"><path id="SvgjsPath1046" d="M268 249.25L268 56.85714285714289L362.51428571428573 56.85714285714289" stroke="#e74f4c" stroke-width="1.5" fill="none" marker-end="url(#SvgjsMarker1047)"></path></g><g id="SvgjsG1049" transform="translate(485.5,121.85714285714289)"><path id="SvgjsPath1050" d="M 0 0L 100 0L 100 40L 0 40Z" stroke="none" fill="none"></path><g id="SvgjsG1051"><text id="SvgjsText1052" font-family="微软雅黑" text-anchor="middle" font-size="16px" width="100px" fill="#323232" font-weight="400" align="middle" lineHeight="125%" anchor="middle" family="微软雅黑" size="16px" weight="400" font-style="" opacity="1" y="6" transform="rotate(0)"><tspan id="SvgjsTspan1053" dy="20" x="50"><tspan id="SvgjsTspan1054" style="">父进程</tspan></tspan></text></g></g><g id="SvgjsG1055" transform="translate(485.5,36.85714285714289)"><path id="SvgjsPath1056" d="M 0 0L 100 0L 100 40L 0 40Z" stroke="none" fill="none"></path><g id="SvgjsG1057"><text id="SvgjsText1058" font-family="微软雅黑" text-anchor="middle" font-size="16px" width="100px" fill="#323232" font-weight="400" align="middle" lineHeight="125%" anchor="middle" family="微软雅黑" size="16px" weight="400" font-style="" opacity="1" y="6" transform="rotate(0)"><tspan id="SvgjsTspan1059" dy="20" x="50"><tspan id="SvgjsTspan1060" style="">子进程</tspan></tspan></text></g></g><g id="SvgjsG1061" transform="translate(412.5,261.3571428571429)"><path id="SvgjsPath1062" d="M 0 0L 100 0L 100 40L 0 40Z" stroke="none" fill="none"></path><g id="SvgjsG1063"><text id="SvgjsText1064" font-family="微软雅黑" text-anchor="middle" font-size="16px" width="100px" fill="#323232" font-weight="400" align="middle" lineHeight="125%" anchor="middle" family="微软雅黑" size="16px" weight="400" font-style="" opacity="1" y="6" transform="rotate(0)"><tspan id="SvgjsTspan1065" dy="20" x="50"><tspan id="SvgjsTspan1066" style="">内核空间</tspan></tspan></text></g></g><g id="SvgjsG1067" transform="translate(95.35714285714289,36.85714285714289)"><path id="SvgjsPath1068" d="M 0 0L 100 0L 100 40L 0 40Z" stroke="none" fill="none"></path><g id="SvgjsG1069"><text id="SvgjsText1070" font-family="微软雅黑" text-anchor="middle" font-size="16px" width="100px" fill="#323232" font-weight="400" align="middle" lineHeight="125%" anchor="middle" family="微软雅黑" size="16px" weight="400" font-style="" opacity="1" y="6" transform="rotate(0)"><tspan id="SvgjsTspan1071" dy="20" x="50"><tspan id="SvgjsTspan1072" style="">用户空间</tspan></tspan></text></g></g></svg>