<svg id="SvgjsSvg1110" width="676" height="384.82503255208337" xmlns="http://www.w3.org/2000/svg" version="1.1" xmlns:xlink="http://www.w3.org/1999/xlink" xmlns:svgjs="http://svgjs.com/svgjs"><defs id="SvgjsDefs1111"><pattern patternUnits="userSpaceOnUse" id="pattern_mark_0" width="300" height="300"><text x="150" y="100" fill="rgba(229,229,229,0.8)" font-size="18" transform="rotate(-45, 150, 150)" style="dominant-baseline: middle; text-anchor: middle;"></text></pattern><pattern patternUnits="userSpaceOnUse" id="pattern_mark_1" width="300" height="300"><text x="150" y="200" fill="rgba(229,229,229,0.8)" font-size="18" transform="rotate(-45, 150, 150)" style="dominant-baseline: middle; text-anchor: middle;"></text></pattern><marker id="SvgjsMarker1157" markerWidth="13" markerHeight="9" refX="9.5" refY="4.5" viewBox="0 0 13 9" orient="auto" markerUnits="userSpaceOnUse" stroke-dasharray="0,0"><path id="SvgjsPath1158" d="M0,0 L13,4.5 L0,9 L0,0" fill="#323232" stroke="#323232" stroke-width="1"></path></marker><marker id="SvgjsMarker1161" markerWidth="13" markerHeight="9" refX="9.5" refY="4.5" viewBox="0 0 13 9" orient="auto" markerUnits="userSpaceOnUse" stroke-dasharray="0,0"><path id="SvgjsPath1162" d="M0,0 L13,4.5 L0,9 L0,0" fill="#323232" stroke="#323232" stroke-width="1"></path></marker><marker id="SvgjsMarker1181" markerWidth="13" markerHeight="9" refX="9.5" refY="4.5" viewBox="0 0 13 9" orient="auto" markerUnits="userSpaceOnUse" stroke-dasharray="0,0"><path id="SvgjsPath1182" d="M0,0 L13,4.5 L0,9 L0,0" fill="#569230" stroke="#569230" stroke-width="1"></path></marker><marker id="SvgjsMarker1191" markerWidth="13" markerHeight="9" refX="9.5" refY="4.5" viewBox="0 0 13 9" orient="auto" markerUnits="userSpaceOnUse" stroke-dasharray="0,0"><path id="SvgjsPath1192" d="M0,0 L13,4.5 L0,9 L0,0" fill="#569230" stroke="#569230" stroke-width="1"></path></marker><marker id="SvgjsMarker1195" markerWidth="13" markerHeight="9" refX="9.5" refY="4.5" viewBox="0 0 13 9" orient="auto" markerUnits="userSpaceOnUse" stroke-dasharray="0,0"><path id="SvgjsPath1196" d="M0,0 L13,4.5 L0,9 L0,0" fill="#569230" stroke="#569230" stroke-width="1"></path></marker></defs><rect id="svgbackgroundid" width="676" height="384.82503255208337" fill="#ffffff"></rect><rect id="SvgjsRect1113" width="676" height="384.82503255208337" fill="url(#pattern_mark_0)"></rect><rect id="SvgjsRect1114" width="676" height="384.82503255208337" fill="url(#pattern_mark_1)"></rect><g id="SvgjsG1115"><path id="SvgjsPath1116" d="M25.004169464111385 253.40003267923998L337.8041706085206 253.40003267923998L337.8041706085206 253.40003267923998L650.6041717529295 253.40003267923998" stroke-dasharray="8,5" stroke="#323232" stroke-width="1.5" fill="none"></path></g><g id="SvgjsG1117" transform="translate(273.5041694641113,319.83337020874023)"><path id="SvgjsPath1118" d="M 24 0L 153.33333333333334 0C 161.8181818181818 0 161.8181818181818 40 153.33333333333334 40L 24 40C -8 40 -8 0 24 0ZM 153.33333333333334 0C 145 0 145 40 153.33333333333334 40C 145 40 145 0 153.33333333333334 0" stroke="rgba(33,41,48,1)" stroke-width="1.5" fill-opacity="1" fill="#e5f6da"></path><g id="SvgjsG1119"><text id="SvgjsText1120" font-family="微软雅黑" text-anchor="middle" font-size="13px" width="128px" fill="#323232" font-weight="400" align="middle" lineHeight="125%" anchor="middle" family="微软雅黑" size="13px" weight="400" font-style="" opacity="1" y="9.375" transform="rotate(0)"></text></g></g><g id="SvgjsG1121" transform="translate(280.93750381469727,319.83337020874023)"><path id="SvgjsPath1122" d="M 0 0L 63.5 0L 63.5 40L 0 40Z" stroke="none" fill="none"></path><g id="SvgjsG1123"><text id="SvgjsText1124" font-family="微软雅黑" text-anchor="middle" font-size="16px" width="64px" fill="#323232" font-weight="400" align="middle" lineHeight="125%" anchor="middle" family="微软雅黑" size="16px" weight="400" font-style="" opacity="1" y="6" transform="rotate(0)"><tspan id="SvgjsTspan1125" dy="20" x="32"><tspan id="SvgjsTspan1126" style="">读端</tspan></tspan></text></g></g><g id="SvgjsG1127" transform="translate(368.93750381469727,319.83337020874023)"><path id="SvgjsPath1128" d="M 0 0L 59.033330281575445 0L 59.033330281575445 40L 0 40Z" stroke="none" fill="none"></path><g id="SvgjsG1129"><text id="SvgjsText1130" font-family="微软雅黑" text-anchor="middle" font-size="16px" width="60px" fill="#323232" font-weight="400" align="middle" lineHeight="125%" anchor="middle" family="微软雅黑" size="16px" weight="400" font-style="" opacity="1" y="6" transform="rotate(0)"><tspan id="SvgjsTspan1131" dy="20" x="30"><tspan id="SvgjsTspan1132" style="">写端</tspan></tspan></text></g></g><g id="SvgjsG1133" transform="translate(313.62083562215173,283.33337020874023)"><path id="SvgjsPath1134" d="M 0 0L 79.7666676839192 0L 79.7666676839192 40L 0 40Z" stroke="none" fill="none"></path><g id="SvgjsG1135"><text id="SvgjsText1136" font-family="微软雅黑" text-anchor="middle" font-size="16px" width="80px" fill="#323232" font-weight="400" align="middle" lineHeight="125%" anchor="middle" family="微软雅黑" size="16px" weight="400" font-style="" opacity="1" y="6" transform="rotate(0)"><tspan id="SvgjsTspan1137" dy="20" x="40"><tspan id="SvgjsTspan1138" style="">管道</tspan></tspan></text></g></g><g id="SvgjsG1139" transform="translate(117.27083841959643,144.65583779155352)"><path id="SvgjsPath1140" d="M 0 4Q 0 0 4 0L 196.7333310445149 0Q 200.7333310445149 0 200.7333310445149 4L 200.7333310445149 76.8441952691561Q 200.7333310445149 80.8441952691561 196.7333310445149 80.8441952691561L 4 80.8441952691561Q 0 80.8441952691561 0 76.8441952691561Z" stroke="rgba(33,41,48,1)" stroke-width="1.5" fill-opacity="1" fill="#fbeada"></path><g id="SvgjsG1141"><text id="SvgjsText1142" font-family="微软雅黑" text-anchor="start" font-size="16px" width="181px" fill="#323232" font-weight="400" align="middle" lineHeight="200%" anchor="start" family="微软雅黑" size="16px" weight="400" font-style="" opacity="1" y="14.422097634578051" transform="rotate(0)"></text></g></g><g id="SvgjsG1143" transform="translate(130.5708351135254,160.0000368754069)"><path id="SvgjsPath1144" d="M 0 4Q 0 0 4 0L 75.76666768391925 0Q 79.76666768391925 0 79.76666768391925 4L 79.76666768391925 46.15579710144936Q 79.76666768391925 50.15579710144936 75.76666768391925 50.15579710144936L 4 50.15579710144936Q 0 50.15579710144936 0 46.15579710144936Z" stroke="rgba(33,41,48,1)" stroke-width="1.5" fill-opacity="1" fill="#fcf9ea"></path><g id="SvgjsG1145"><text id="SvgjsText1146" font-family="微软雅黑" text-anchor="middle" font-size="16px" width="60px" fill="#323232" font-weight="400" align="middle" lineHeight="125%" anchor="middle" family="微软雅黑" size="16px" weight="400" font-style="" opacity="1" y="11.07789855072468" transform="rotate(0)"><tspan id="SvgjsTspan1147" dy="20" x="40"><tspan id="SvgjsTspan1148" style="">fd[0]</tspan></tspan></text></g></g><g id="SvgjsG1149" transform="translate(226.00416946411133,160.0000368754069)"><path id="SvgjsPath1150" d="M 0 4Q 0 0 4 0L 75.89999898274732 0Q 79.89999898274732 0 79.89999898274732 4L 79.89999898274732 46.155797101449366Q 79.89999898274732 50.155797101449366 75.89999898274732 50.155797101449366L 4 50.155797101449366Q 0 50.155797101449366 0 46.155797101449366Z" stroke="rgba(33,41,48,1)" stroke-width="1.5" fill-opacity="1" fill="#dbf5f5"></path><g id="SvgjsG1151"><text id="SvgjsText1152" font-family="微软雅黑" text-anchor="middle" font-size="16px" width="60px" fill="#323232" font-weight="400" align="middle" lineHeight="125%" anchor="middle" family="微软雅黑" size="16px" weight="400" font-style="" opacity="1" y="11.077898550724683" transform="rotate(0)"><tspan id="SvgjsTspan1153" dy="20" x="40"><tspan id="SvgjsTspan1154" style="">fd[1]</tspan></tspan></text></g></g><g id="SvgjsG1155"><path id="SvgjsPath1156" d="M272.7576440595917 339.7612604284966C 203.93750508626306 337.53336588541663 170.454168955485 276.4105738924269 170.55384273568518 212.85399356026502" stroke="#323232" stroke-width="1.5" fill="none" marker-end="url(#SvgjsMarker1157)"></path></g><g id="SvgjsG1159"><path id="SvgjsPath1160" d="M266.06152326395477 210.89811091469883C 260.6041717529297 270.86669921875 501.43750508626306 266.70003255208337 429.67341866034894 337.7378497955327" stroke="#323232" stroke-width="1.5" fill="none" marker-end="url(#SvgjsMarker1161)"></path></g><g id="SvgjsG1163" transform="translate(388.1041717529298,144.65583779155352)"><path id="SvgjsPath1164" d="M 0 4Q 0 0 4 0L 196.7333310445149 0Q 200.7333310445149 0 200.7333310445149 4L 200.7333310445149 76.8441952691561Q 200.7333310445149 80.8441952691561 196.7333310445149 80.8441952691561L 4 80.8441952691561Q 0 80.8441952691561 0 76.8441952691561Z" stroke="rgba(33,41,48,1)" stroke-width="1.5" fill-opacity="1" fill="#fff1e3"></path><g id="SvgjsG1165"><text id="SvgjsText1166" font-family="微软雅黑" text-anchor="start" font-size="16px" width="181px" fill="#323232" font-weight="400" align="middle" lineHeight="200%" anchor="start" family="微软雅黑" size="16px" weight="400" font-style="" opacity="1" y="14.422097634578051" transform="rotate(0)"></text></g></g><g id="SvgjsG1167" transform="translate(401.40416844685876,160.0000368754069)"><path id="SvgjsPath1168" d="M 0 4Q 0 0 4 0L 75.76666768391925 0Q 79.76666768391925 0 79.76666768391925 4L 79.76666768391925 46.15579710144936Q 79.76666768391925 50.15579710144936 75.76666768391925 50.15579710144936L 4 50.15579710144936Q 0 50.15579710144936 0 46.15579710144936Z" stroke="rgba(33,41,48,1)" stroke-width="1.5" fill-opacity="1" fill="#fffdf2"></path><g id="SvgjsG1169"><text id="SvgjsText1170" font-family="微软雅黑" text-anchor="middle" font-size="16px" width="60px" fill="#323232" font-weight="400" align="middle" lineHeight="125%" anchor="middle" family="微软雅黑" size="16px" weight="400" font-style="" opacity="1" y="11.07789855072468" transform="rotate(0)"><tspan id="SvgjsTspan1171" dy="20" x="40"><tspan id="SvgjsTspan1172" style="">fd[0]</tspan></tspan></text></g></g><g id="SvgjsG1173" transform="translate(496.8375027974447,160.0000368754069)"><path id="SvgjsPath1174" d="M 0 4Q 0 0 4 0L 75.89999898274732 0Q 79.89999898274732 0 79.89999898274732 4L 79.89999898274732 46.155797101449366Q 79.89999898274732 50.155797101449366 75.89999898274732 50.155797101449366L 4 50.155797101449366Q 0 50.155797101449366 0 46.155797101449366Z" stroke="rgba(33,41,48,1)" stroke-width="1.5" fill-opacity="1" fill="#e6f7f7"></path><g id="SvgjsG1175"><text id="SvgjsText1176" font-family="微软雅黑" text-anchor="middle" font-size="16px" width="60px" fill="#323232" font-weight="400" align="middle" lineHeight="125%" anchor="middle" family="微软雅黑" size="16px" weight="400" font-style="" opacity="1" y="11.077898550724683" transform="rotate(0)"><tspan id="SvgjsTspan1177" dy="20" x="40"><tspan id="SvgjsTspan1178" style="">fd[1]</tspan></tspan></text></g></g><g id="SvgjsG1179"><path id="SvgjsPath1180" d="M217.72133607769263 143.91053773587078C 217.63750394185388 36.322504458220166 488.47083727518725 36.322504458220166 488.16904158616774 141.97275759109561" stroke="#569230" stroke-width="1.5" fill="none" marker-end="url(#SvgjsMarker1181)"></path></g><g id="SvgjsG1183" transform="translate(313.62083562215173,25.000036875406934)"><path id="SvgjsPath1184" d="M 0 0L 79.7666676839192 0L 79.7666676839192 40L 0 40Z" stroke="none" fill="none"></path><g id="SvgjsG1185"><text id="SvgjsText1186" font-family="微软雅黑" text-anchor="middle" font-size="16px" width="80px" fill="#569230" font-weight="400" align="middle" lineHeight="125%" anchor="middle" family="微软雅黑" size="16px" weight="400" font-style="" opacity="1" y="6" transform="rotate(0)"><tspan id="SvgjsTspan1187" dy="20" x="40"><tspan id="SvgjsTspan1188" style="">fork()</tspan></tspan></text></g></g><g id="SvgjsG1189"><path id="SvgjsPath1190" d="M273.1122383270383 339.1939251494954C 212.27083841959643 260.86669921875 442.27083841959643 274.20003255208337 440.7767010625905 212.80707559302104" stroke="#569230" stroke-width="1.5" fill="none" marker-end="url(#SvgjsMarker1191)"></path></g><g id="SvgjsG1193"><path id="SvgjsPath1194" d="M536.7552905717426 210.905141927757C 536.7875022888184 277.8697388173815 495.6847389367979 339.83337020874023 430.66509252433025 339.65738292840217" stroke="#569230" stroke-width="1.5" fill="none" marker-end="url(#SvgjsMarker1195)"></path></g><g id="SvgjsG1197"><path id="SvgjsPath1198" d="M354.77083841959643 90.86669921875L354.77083841959643 165.45003255208334L354.77083841959643 165.45003255208334L354.77083841959643 240.0333658854167" stroke-dasharray="8,5" stroke="#323232" stroke-width="1.5" fill="none"></path></g><g id="SvgjsG1199" transform="translate(117.27083841959643,97.50003687540695)"><path id="SvgjsPath1200" d="M 0 0L 79.7666676839192 0L 79.7666676839192 40L 0 40Z" stroke="none" fill="none"></path><g id="SvgjsG1201"><text id="SvgjsText1202" font-family="微软雅黑" text-anchor="middle" font-size="16px" width="80px" fill="#323232" font-weight="400" align="middle" lineHeight="125%" anchor="middle" family="微软雅黑" size="16px" weight="400" font-style="" opacity="1" y="6" transform="rotate(0)"><tspan id="SvgjsTspan1203" dy="20" x="40"><tspan id="SvgjsTspan1204" style="">父进程</tspan></tspan></text></g></g><g id="SvgjsG1205" transform="translate(509.0708351135255,97.50003687540695)"><path id="SvgjsPath1206" d="M 0 0L 79.7666676839192 0L 79.7666676839192 40L 0 40Z" stroke="none" fill="none"></path><g id="SvgjsG1207"><text id="SvgjsText1208" font-family="微软雅黑" text-anchor="middle" font-size="16px" width="80px" fill="#323232" font-weight="400" align="middle" lineHeight="125%" anchor="middle" family="微软雅黑" size="16px" weight="400" font-style="" opacity="1" y="6" transform="rotate(0)"><tspan id="SvgjsTspan1209" dy="20" x="40"><tspan id="SvgjsTspan1210" style="">子进程</tspan></tspan></text></g></g></svg>