<svg id="SvgjsSvg1218" width="514.1666666666666" height="564.2380952380952" xmlns="http://www.w3.org/2000/svg" version="1.1" xmlns:xlink="http://www.w3.org/1999/xlink" xmlns:svgjs="http://svgjs.com/svgjs"><defs id="SvgjsDefs1219"><pattern patternUnits="userSpaceOnUse" id="pattern_mark_0" width="300" height="300"><text x="150" y="100" fill="rgba(229,229,229,0.8)" font-size="18" transform="rotate(-45, 150, 150)" style="dominant-baseline: middle; text-anchor: middle;"></text></pattern><pattern patternUnits="userSpaceOnUse" id="pattern_mark_1" width="300" height="300"><text x="150" y="200" fill="rgba(229,229,229,0.8)" font-size="18" transform="rotate(-45, 150, 150)" style="dominant-baseline: middle; text-anchor: middle;"></text></pattern><marker id="SvgjsMarker1239" markerWidth="13" markerHeight="9" refX="9.5" refY="4.5" viewBox="0 0 13 9" orient="auto" markerUnits="userSpaceOnUse" stroke-dasharray="0,0"><path id="SvgjsPath1240" d="M0,0 L13,4.5 L0,9 L0,0" fill="#323232" stroke="#323232" stroke-width="1"></path></marker><marker id="SvgjsMarker1249" markerWidth="13" markerHeight="9" refX="9.5" refY="4.5" viewBox="0 0 13 9" orient="auto" markerUnits="userSpaceOnUse" stroke-dasharray="0,0"><path id="SvgjsPath1250" d="M0,0 L13,4.5 L0,9 L0,0" fill="#323232" stroke="#323232" stroke-width="1"></path></marker><marker id="SvgjsMarker1259" markerWidth="13" markerHeight="9" refX="9.5" refY="4.5" viewBox="0 0 13 9" orient="auto" markerUnits="userSpaceOnUse" stroke-dasharray="0,0"><path id="SvgjsPath1260" d="M0,0 L13,4.5 L0,9 L0,0" fill="#323232" stroke="#323232" stroke-width="1"></path></marker><marker id="SvgjsMarker1298" markerWidth="13" markerHeight="9" refX="9.5" refY="4.5" viewBox="0 0 13 9" orient="auto" markerUnits="userSpaceOnUse" stroke-dasharray="0,0"><path id="SvgjsPath1299" d="M0,0 L13,4.5 L0,9 L0,0" fill="#323232" stroke="#323232" stroke-width="1"></path></marker><marker id="SvgjsMarker1308" markerWidth="13" markerHeight="9" refX="9.5" refY="4.5" viewBox="0 0 13 9" orient="auto" markerUnits="userSpaceOnUse" stroke-dasharray="0,0"><path id="SvgjsPath1309" d="M0,0 L13,4.5 L0,9 L0,0" fill="#323232" stroke="#323232" stroke-width="1"></path></marker><marker id="SvgjsMarker1318" markerWidth="13" markerHeight="9" refX="9.5" refY="4.5" viewBox="0 0 13 9" orient="auto" markerUnits="userSpaceOnUse" stroke-dasharray="0,0"><path id="SvgjsPath1319" d="M0,0 L13,4.5 L0,9 L0,0" fill="#323232" stroke="#323232" stroke-width="1"></path></marker></defs><rect id="svgbackgroundid" width="514.1666666666666" height="564.2380952380952" fill="#ffffff"></rect><rect id="SvgjsRect1221" width="514.1666666666666" height="564.2380952380952" fill="url(#pattern_mark_0)"></rect><rect id="SvgjsRect1222" width="514.1666666666666" height="564.2380952380952" fill="url(#pattern_mark_1)"></rect><g id="SvgjsG1223" transform="translate(375.2380952380953,25)"><path id="SvgjsPath1224" d="M 0 4Q 0 0 4 0L 109.92857142857133 0Q 113.92857142857133 0 113.92857142857133 4L 113.92857142857133 224.28571428571428Q 113.92857142857133 228.28571428571428 109.92857142857133 228.28571428571428L 4 228.28571428571428Q 0 228.28571428571428 0 224.28571428571428Z" stroke="rgba(33,41,48,1)" stroke-width="1.5" fill-opacity="1" fill="#fcf9ea"></path><g id="SvgjsG1225"><text id="SvgjsText1226" font-family="微软雅黑" text-anchor="middle" font-size="20px" width="94px" fill="#323232" font-weight="400" align="middle" lineHeight="125%" anchor="middle" family="微软雅黑" size="20px" weight="400" font-style="" opacity="1" y="83.64285714285714" transform="rotate(0)"><tspan id="SvgjsTspan1227" dy="25" x="57"><tspan id="SvgjsTspan1228" style="">进程的</tspan></tspan><tspan id="SvgjsTspan1229" dy="25" x="57"><tspan id="SvgjsTspan1230" style="">地址空间</tspan></tspan></text></g></g><g id="SvgjsG1231" transform="translate(108.125,25)"><path id="SvgjsPath1232" d="M 0 4Q 0 0 4 0L 183.94642857142856 0Q 187.94642857142856 0 187.94642857142856 4L 187.94642857142856 46Q 187.94642857142856 50 183.94642857142856 50L 4 50Q 0 50 0 46Z" stroke="rgba(33,41,48,1)" stroke-width="1.5" fill-opacity="1" fill="#fadcdb"></path><g id="SvgjsG1233"><text id="SvgjsText1234" font-family="微软雅黑" text-anchor="middle" font-size="20px" width="168px" fill="#323232" font-weight="400" align="middle" lineHeight="125%" anchor="middle" family="微软雅黑" size="20px" weight="400" font-style="" opacity="1" y="7" transform="rotate(0)"><tspan id="SvgjsTspan1235" dy="25" x="94"><tspan id="SvgjsTspan1236" style="">进程的 task_struct</tspan></tspan></text></g></g><g id="SvgjsG1237"><path id="SvgjsPath1238" d="M296.82142857142856 50L335.6547619047619 50L335.6547619047619 50L372.53809523809525 50" stroke="#323232" stroke-width="1.5" fill="none" marker-end="url(#SvgjsMarker1239)"></path></g><g id="SvgjsG1241" transform="translate(108.125,90.45238095238105)"><path id="SvgjsPath1242" d="M 0 4Q 0 0 4 0L 183.94642857142856 0Q 187.94642857142856 0 187.94642857142856 4L 187.94642857142856 46Q 187.94642857142856 50 183.94642857142856 50L 4 50Q 0 50 0 46Z" stroke="rgba(33,41,48,1)" stroke-width="1.5" fill-opacity="1" fill="#e5f6da"></path><g id="SvgjsG1243"><text id="SvgjsText1244" font-family="微软雅黑" text-anchor="middle" font-size="20px" width="168px" fill="#323232" font-weight="400" align="middle" lineHeight="125%" anchor="middle" family="微软雅黑" size="20px" weight="400" font-style="" opacity="1" y="7" transform="rotate(0)"><tspan id="SvgjsTspan1245" dy="25" x="94"><tspan id="SvgjsTspan1246" style="">线程的 task_struct</tspan></tspan></text></g></g><g id="SvgjsG1247"><path id="SvgjsPath1248" d="M296.82142857142856 115.45238095238105L335.76827769151134 115.45238095238105L335.76827769151134 115.45238095238105L372.7651268115942 115.45238095238105" stroke="#323232" stroke-width="1.5" fill="none" marker-end="url(#SvgjsMarker1249)"></path></g><g id="SvgjsG1251" transform="translate(108.125,155.90476190476207)"><path id="SvgjsPath1252" d="M 0 4Q 0 0 4 0L 183.94642857142856 0Q 187.94642857142856 0 187.94642857142856 4L 187.94642857142856 46Q 187.94642857142856 50 183.94642857142856 50L 4 50Q 0 50 0 46Z" stroke="rgba(33,41,48,1)" stroke-width="1.5" fill-opacity="1" fill="#e5f6da"></path><g id="SvgjsG1253"><text id="SvgjsText1254" font-family="微软雅黑" text-anchor="middle" font-size="20px" width="168px" fill="#323232" font-weight="400" align="middle" lineHeight="125%" anchor="middle" family="微软雅黑" size="20px" weight="400" font-style="" opacity="1" y="7" transform="rotate(0)"><tspan id="SvgjsTspan1255" dy="25" x="94"><tspan id="SvgjsTspan1256" style="">线程的 task_struct</tspan></tspan></text></g></g><g id="SvgjsG1257"><path id="SvgjsPath1258" d="M296.82142857142856 180.90476190476207L336.20238095238096 180.90476190476207L336.20238095238096 180.90476190476207L376.3333333333335 180.90476190476207" stroke="#323232" stroke-width="1.5" fill="none" marker-end="url(#SvgjsMarker1259)"></path></g><g id="SvgjsG1261" transform="translate(152.09821428571422,213.54761904761884)"><path id="SvgjsPath1262" d="M 0 0L 100 0L 100 20L 0 20Z" stroke="none" fill="none"></path><g id="SvgjsG1263"><text id="SvgjsText1264" font-family="微软雅黑" text-anchor="middle" font-size="24px" width="100px" fill="#323232" font-weight="400" align="middle" lineHeight="125%" anchor="middle" family="微软雅黑" size="24px" weight="400" font-style="" opacity="1" y="-11" transform="rotate(0)"><tspan id="SvgjsTspan1265" dy="30" x="50"><tspan id="SvgjsTspan1266" style="">……</tspan></tspan></text></g></g><g id="SvgjsG1267" transform="translate(25,25.00000000000003)"><path id="SvgjsPath1268" d="M 71.66666666666663 0Q 64.49999999999997 0 64.49999999999997 9L 64.49999999999997 245.6190476190476Q 64.49999999999997 254.6190476190476 49.66666666666663 254.6190476190476Q 64.49999999999997 254.6190476190476 64.49999999999997 263.6190476190476L 64.49999999999997 500.2380952380952Q 64.49999999999997 509.2380952380952 71.66666666666663 509.2380952380952" stroke="rgba(33,41,48,1)" stroke-width="1.5" fill="none"></path><path id="SvgjsPath1269" d="M 0 0L 71.66666666666663 0L 71.66666666666663 509.2380952380952L 0 509.2380952380952Z" stroke="none" fill="none"></path><g id="SvgjsG1270"><text id="SvgjsText1271" font-family="微软雅黑" text-anchor="end" font-size="20px" width="45px" fill="#323232" font-weight="400" align="middle" lineHeight="125%" anchor="end" family="微软雅黑" size="20px" weight="400" font-style="" opacity="1" y="224.1190476190476" transform="rotate(0)"><tspan id="SvgjsTspan1272" dy="25" x="45"><tspan id="SvgjsTspan1273" style="">CPU</tspan></tspan><tspan id="SvgjsTspan1274" dy="25" x="45"><tspan id="SvgjsTspan1275" style="">调度</tspan></tspan></text></g></g><g id="SvgjsG1276" transform="translate(252.098214285714,514.2380952380952)"><path id="SvgjsPath1277" d="M 0 0L 100 0L 100 20L 0 20Z" stroke="none" fill="none"></path><g id="SvgjsG1278"><text id="SvgjsText1279" font-family="微软雅黑" text-anchor="middle" font-size="24px" width="100px" fill="#323232" font-weight="400" align="middle" lineHeight="125%" anchor="middle" family="微软雅黑" size="24px" weight="400" font-style="" opacity="1" y="-11" transform="rotate(0)"><tspan id="SvgjsTspan1280" dy="30" x="50"><tspan id="SvgjsTspan1281" style="">……</tspan></tspan></text></g></g><g id="SvgjsG1282" transform="translate(375.2380952380952,269.6190476190476)"><path id="SvgjsPath1283" d="M 0 4Q 0 0 4 0L 109.92857142857133 0Q 113.92857142857133 0 113.92857142857133 4L 113.92857142857133 224.28571428571428Q 113.92857142857133 228.28571428571428 109.92857142857133 228.28571428571428L 4 228.28571428571428Q 0 228.28571428571428 0 224.28571428571428Z" stroke="rgba(33,41,48,1)" stroke-width="1.5" fill-opacity="1" fill="#fcf9ea"></path><g id="SvgjsG1284"><text id="SvgjsText1285" font-family="微软雅黑" text-anchor="middle" font-size="20px" width="94px" fill="#323232" font-weight="400" align="middle" lineHeight="125%" anchor="middle" family="微软雅黑" size="20px" weight="400" font-style="" opacity="1" y="83.64285714285714" transform="rotate(0)"><tspan id="SvgjsTspan1286" dy="25" x="57"><tspan id="SvgjsTspan1287" style="">进程的</tspan></tspan><tspan id="SvgjsTspan1288" dy="25" x="57"><tspan id="SvgjsTspan1289" style="">地址空间</tspan></tspan></text></g></g><g id="SvgjsG1290" transform="translate(108.12499999999977,269.6190476190476)"><path id="SvgjsPath1291" d="M 0 4Q 0 0 4 0L 183.94642857142856 0Q 187.94642857142856 0 187.94642857142856 4L 187.94642857142856 46Q 187.94642857142856 50 183.94642857142856 50L 4 50Q 0 50 0 46Z" stroke="rgba(33,41,48,1)" stroke-width="1.5" fill-opacity="1" fill="#fadcdb"></path><g id="SvgjsG1292"><text id="SvgjsText1293" font-family="微软雅黑" text-anchor="middle" font-size="20px" width="168px" fill="#323232" font-weight="400" align="middle" lineHeight="125%" anchor="middle" family="微软雅黑" size="20px" weight="400" font-style="" opacity="1" y="7" transform="rotate(0)"><tspan id="SvgjsTspan1294" dy="25" x="94"><tspan id="SvgjsTspan1295" style="">进程的 task_struct</tspan></tspan></text></g></g><g id="SvgjsG1296"><path id="SvgjsPath1297" d="M296.8214285714283 294.6190476190476L335.6547619047618 294.6190476190476L335.6547619047618 294.6190476190476L372.53809523809514 294.6190476190476" stroke="#323232" stroke-width="1.5" fill="none" marker-end="url(#SvgjsMarker1298)"></path></g><g id="SvgjsG1300" transform="translate(108.12499999999977,335.07142857142867)"><path id="SvgjsPath1301" d="M 0 4Q 0 0 4 0L 183.94642857142856 0Q 187.94642857142856 0 187.94642857142856 4L 187.94642857142856 46Q 187.94642857142856 50 183.94642857142856 50L 4 50Q 0 50 0 46Z" stroke="rgba(33,41,48,1)" stroke-width="1.5" fill-opacity="1" fill="#e5f6da"></path><g id="SvgjsG1302"><text id="SvgjsText1303" font-family="微软雅黑" text-anchor="middle" font-size="20px" width="168px" fill="#323232" font-weight="400" align="middle" lineHeight="125%" anchor="middle" family="微软雅黑" size="20px" weight="400" font-style="" opacity="1" y="7" transform="rotate(0)"><tspan id="SvgjsTspan1304" dy="25" x="94"><tspan id="SvgjsTspan1305" style="">线程的 task_struct</tspan></tspan></text></g></g><g id="SvgjsG1306"><path id="SvgjsPath1307" d="M296.8214285714283 360.07142857142867L335.76827769151134 360.07142857142867L335.76827769151134 360.07142857142867L372.7651268115942 360.07142857142867" stroke="#323232" stroke-width="1.5" fill="none" marker-end="url(#SvgjsMarker1308)"></path></g><g id="SvgjsG1310" transform="translate(108.12499999999977,400.5238095238095)"><path id="SvgjsPath1311" d="M 0 4Q 0 0 4 0L 183.94642857142856 0Q 187.94642857142856 0 187.94642857142856 4L 187.94642857142856 46Q 187.94642857142856 50 183.94642857142856 50L 4 50Q 0 50 0 46Z" stroke="rgba(33,41,48,1)" stroke-width="1.5" fill-opacity="1" fill="#e5f6da"></path><g id="SvgjsG1312"><text id="SvgjsText1313" font-family="微软雅黑" text-anchor="middle" font-size="20px" width="168px" fill="#323232" font-weight="400" align="middle" lineHeight="125%" anchor="middle" family="微软雅黑" size="20px" weight="400" font-style="" opacity="1" y="7" transform="rotate(0)"><tspan id="SvgjsTspan1314" dy="25" x="94"><tspan id="SvgjsTspan1315" style="">线程的 task_struct</tspan></tspan></text></g></g><g id="SvgjsG1316"><path id="SvgjsPath1317" d="M296.8214285714283 425.5238095238095L336.20238095238085 425.5238095238095L336.20238095238085 425.5238095238095L376.33333333333326 425.5238095238095" stroke="#323232" stroke-width="1.5" fill="none" marker-end="url(#SvgjsMarker1318)"></path></g><g id="SvgjsG1320" transform="translate(152.098214285714,458.1666666666664)"><path id="SvgjsPath1321" d="M 0 0L 100 0L 100 20L 0 20Z" stroke="none" fill="none"></path><g id="SvgjsG1322"><text id="SvgjsText1323" font-family="微软雅黑" text-anchor="middle" font-size="24px" width="100px" fill="#323232" font-weight="400" align="middle" lineHeight="125%" anchor="middle" family="微软雅黑" size="24px" weight="400" font-style="" opacity="1" y="-11" transform="rotate(0)"><tspan id="SvgjsTspan1324" dy="30" x="50"><tspan id="SvgjsTspan1325" style="">……</tspan></tspan></text></g></g></svg>