<svg id="SvgjsSvg1006" width="621.7187500000001" height="252.00001436121318" xmlns="http://www.w3.org/2000/svg" version="1.1" xmlns:xlink="http://www.w3.org/1999/xlink" xmlns:svgjs="http://svgjs.com/svgjs"><defs id="SvgjsDefs1007"><pattern patternUnits="userSpaceOnUse" id="pattern_mark_0" width="300" height="300"><text x="150" y="100" fill="rgba(229,229,229,0.8)" font-size="18" transform="rotate(-45, 150, 150)" style="dominant-baseline: middle; text-anchor: middle;"></text></pattern><pattern patternUnits="userSpaceOnUse" id="pattern_mark_1" width="300" height="300"><text x="150" y="200" fill="rgba(229,229,229,0.8)" font-size="18" transform="rotate(-45, 150, 150)" style="dominant-baseline: middle; text-anchor: middle;"></text></pattern><marker id="SvgjsMarker1057" markerWidth="13" markerHeight="9" refX="9.5" refY="4.5" viewBox="0 0 13 9" orient="auto" markerUnits="userSpaceOnUse" stroke-dasharray="0,0"><path id="SvgjsPath1058" d="M0,0 L13,4.5 L0,9 L0,0" fill="#323232" stroke="#323232" stroke-width="1"></path></marker><marker id="SvgjsMarker1061" markerWidth="13" markerHeight="9" refX="9.5" refY="4.5" viewBox="0 0 13 9" orient="auto" markerUnits="userSpaceOnUse" stroke-dasharray="0,0"><path id="SvgjsPath1062" d="M0,0 L13,4.5 L0,9 L0,0" fill="#323232" stroke="#323232" stroke-width="1"></path></marker><marker id="SvgjsMarker1065" markerWidth="13" markerHeight="9" refX="9.5" refY="4.5" viewBox="0 0 13 9" orient="auto" markerUnits="userSpaceOnUse" stroke-dasharray="0,0"><path id="SvgjsPath1066" d="M0,0 L13,4.5 L0,9 L0,0" fill="#323232" stroke="#323232" stroke-width="1"></path></marker><marker id="SvgjsMarker1069" markerWidth="13" markerHeight="9" refX="9.5" refY="4.5" viewBox="0 0 13 9" orient="auto" markerUnits="userSpaceOnUse" stroke-dasharray="0,0"><path id="SvgjsPath1070" d="M0,0 L13,4.5 L0,9 L0,0" fill="#323232" stroke="#323232" stroke-width="1"></path></marker><marker id="SvgjsMarker1073" markerWidth="13" markerHeight="9" refX="9.5" refY="4.5" viewBox="0 0 13 9" orient="auto" markerUnits="userSpaceOnUse" stroke-dasharray="0,0"><path id="SvgjsPath1074" d="M0,0 L13,4.5 L0,9 L0,0" fill="#323232" stroke="#323232" stroke-width="1"></path></marker><marker id="SvgjsMarker1077" markerWidth="13" markerHeight="9" refX="9.5" refY="4.5" viewBox="0 0 13 9" orient="auto" markerUnits="userSpaceOnUse" stroke-dasharray="0,0"><path id="SvgjsPath1078" d="M0,0 L13,4.5 L0,9 L0,0" fill="#323232" stroke="#323232" stroke-width="1"></path></marker><marker id="SvgjsMarker1099" markerWidth="13" markerHeight="9" refX="9.5" refY="4.5" viewBox="0 0 13 9" orient="auto" markerUnits="userSpaceOnUse" stroke-dasharray="0,0"><path id="SvgjsPath1100" d="M0,0 L13,4.5 L0,9 L0,0" fill="#323232" stroke="#323232" stroke-width="1"></path></marker><marker id="SvgjsMarker1103" markerWidth="13" markerHeight="9" refX="9.5" refY="4.5" viewBox="0 0 13 9" orient="auto" markerUnits="userSpaceOnUse" stroke-dasharray="0,0"><path id="SvgjsPath1104" d="M0,0 L13,4.5 L0,9 L0,0" fill="#323232" stroke="#323232" stroke-width="1"></path></marker><marker id="SvgjsMarker1107" markerWidth="13" markerHeight="9" refX="9.5" refY="4.5" viewBox="0 0 13 9" orient="auto" markerUnits="userSpaceOnUse" stroke-dasharray="0,0"><path id="SvgjsPath1108" d="M0,0 L13,4.5 L0,9 L0,0" fill="#323232" stroke="#323232" stroke-width="1"></path></marker></defs><rect id="svgbackgroundid" width="621.7187500000001" height="252.00001436121318" fill="#ffffff"></rect><rect id="SvgjsRect1009" width="621.7187500000001" height="252.00001436121318" fill="url(#pattern_mark_0)"></rect><rect id="SvgjsRect1010" width="621.7187500000001" height="252.00001436121318" fill="url(#pattern_mark_1)"></rect><g id="SvgjsG1011" transform="translate(350.8980367537639,53.33331897211849)"><path id="SvgjsPath1012" d="M 0 4Q 0 0 4 0L 96.38095238095241 0Q 100.38095238095241 0 100.38095238095241 4L 100.38095238095241 36.37500000000091Q 100.38095238095241 40.37500000000091 96.38095238095241 40.37500000000091L 4 40.37500000000091Q 0 40.37500000000091 0 36.37500000000091Z" stroke="rgba(33,41,48,1)" stroke-width="1.5" fill-opacity="1" fill="#d2e6f9"></path><g id="SvgjsG1013"><text id="SvgjsText1014" font-family="微软雅黑" text-anchor="middle" font-size="20px" width="81px" fill="#323232" font-weight="400" align="middle" lineHeight="125%" anchor="middle" family="微软雅黑" size="20px" weight="400" font-style="" opacity="1" y="2.1875000000004547" transform="rotate(0)"><tspan id="SvgjsTspan1015" dy="25" x="50.5"><tspan id="SvgjsTspan1016" style="">数据库</tspan></tspan></text></g></g><g id="SvgjsG1017" transform="translate(350.8980367537639,159.9999856387849)"><path id="SvgjsPath1018" d="M 0 4Q 0 0 4 0L 96.38095238095241 0Q 100.38095238095241 0 100.38095238095241 4L 100.38095238095241 36.37500000000091Q 100.38095238095241 40.37500000000091 96.38095238095241 40.37500000000091L 4 40.37500000000091Q 0 40.37500000000091 0 36.37500000000091Z" stroke="rgba(33,41,48,1)" stroke-width="1.5" fill-opacity="1" fill="#d2e6f9"></path><g id="SvgjsG1019"><text id="SvgjsText1020" font-family="微软雅黑" text-anchor="middle" font-size="20px" width="81px" fill="#323232" font-weight="400" align="middle" lineHeight="125%" anchor="middle" family="微软雅黑" size="20px" weight="400" font-style="" opacity="1" y="2.1875000000004547" transform="rotate(0)"><tspan id="SvgjsTspan1021" dy="25" x="50.5"><tspan id="SvgjsTspan1022" style="">数据库</tspan></tspan></text></g></g><g id="SvgjsG1023" transform="translate(205.04089389662101,86.6960640701576)"><path id="SvgjsPath1024" d="M 0 4Q 0 0 4 0L 96.38095238095241 0Q 100.38095238095241 0 100.38095238095241 4L 100.38095238095241 73.80637254902001Q 100.38095238095241 77.80637254902001 96.38095238095241 77.80637254902001L 4 77.80637254902001Q 0 77.80637254902001 0 73.80637254902001Z" stroke="rgba(33,41,48,1)" stroke-width="1.5" fill-opacity="1" fill="#dbf5f5"></path><g id="SvgjsG1025"><text id="SvgjsText1026" font-family="微软雅黑" text-anchor="middle" font-size="20px" width="81px" fill="#323232" font-weight="400" align="middle" lineHeight="150%" anchor="middle" family="微软雅黑" size="20px" weight="400" font-style="" opacity="1" y="0.9031862745100057" transform="rotate(0)"><tspan id="SvgjsTspan1027" dy="30" x="50.5"><tspan id="SvgjsTspan1028" style="">MySQL</tspan></tspan><tspan id="SvgjsTspan1029" dy="30" x="50.5"><tspan id="SvgjsTspan1030" style="">服务器</tspan></tspan></text></g></g><g id="SvgjsG1031" transform="translate(496.75517961090657,24.99998563878512)"><path id="SvgjsPath1032" d="M 0 4Q 0 0 4 0L 96.38095238095241 0Q 100.38095238095241 0 100.38095238095241 4L 100.38095238095241 36.37500000000091Q 100.38095238095241 40.37500000000091 96.38095238095241 40.37500000000091L 4 40.37500000000091Q 0 40.37500000000091 0 36.37500000000091Z" stroke="rgba(33,41,48,1)" stroke-width="1.5" fill-opacity="1" fill="#d2d6f9"></path><g id="SvgjsG1033"><text id="SvgjsText1034" font-family="微软雅黑" text-anchor="middle" font-size="20px" width="81px" fill="#323232" font-weight="400" align="middle" lineHeight="125%" anchor="middle" family="微软雅黑" size="20px" weight="400" font-style="" opacity="1" y="2.1875000000004547" transform="rotate(0)"><tspan id="SvgjsTspan1035" dy="25" x="50.5"><tspan id="SvgjsTspan1036" style="">数据表</tspan></tspan></text></g></g><g id="SvgjsG1037" transform="translate(496.75517961090657,78.999985638785)"><path id="SvgjsPath1038" d="M 0 4Q 0 0 4 0L 96.38095238095241 0Q 100.38095238095241 0 100.38095238095241 4L 100.38095238095241 36.37500000000091Q 100.38095238095241 40.37500000000091 96.38095238095241 40.37500000000091L 4 40.37500000000091Q 0 40.37500000000091 0 36.37500000000091Z" stroke="rgba(33,41,48,1)" stroke-width="1.5" fill-opacity="1" fill="#d2d6f9"></path><g id="SvgjsG1039"><text id="SvgjsText1040" font-family="微软雅黑" text-anchor="middle" font-size="20px" width="81px" fill="#323232" font-weight="400" align="middle" lineHeight="125%" anchor="middle" family="微软雅黑" size="20px" weight="400" font-style="" opacity="1" y="2.1875000000004547" transform="rotate(0)"><tspan id="SvgjsTspan1041" dy="25" x="50.5"><tspan id="SvgjsTspan1042" style="">数据表</tspan></tspan></text></g></g><g id="SvgjsG1043" transform="translate(496.75517961090657,132.9999856387849)"><path id="SvgjsPath1044" d="M 0 4Q 0 0 4 0L 96.38095238095241 0Q 100.38095238095241 0 100.38095238095241 4L 100.38095238095241 36.37500000000091Q 100.38095238095241 40.37500000000091 96.38095238095241 40.37500000000091L 4 40.37500000000091Q 0 40.37500000000091 0 36.37500000000091Z" stroke="rgba(33,41,48,1)" stroke-width="1.5" fill-opacity="1" fill="#d2d6f9"></path><g id="SvgjsG1045"><text id="SvgjsText1046" font-family="微软雅黑" text-anchor="middle" font-size="20px" width="81px" fill="#323232" font-weight="400" align="middle" lineHeight="125%" anchor="middle" family="微软雅黑" size="20px" weight="400" font-style="" opacity="1" y="2.1875000000004547" transform="rotate(0)"><tspan id="SvgjsTspan1047" dy="25" x="50.5"><tspan id="SvgjsTspan1048" style="">数据表</tspan></tspan></text></g></g><g id="SvgjsG1049" transform="translate(496.75517961090657,186.99998563878478)"><path id="SvgjsPath1050" d="M 0 4Q 0 0 4 0L 96.38095238095241 0Q 100.38095238095241 0 100.38095238095241 4L 100.38095238095241 36.37500000000091Q 100.38095238095241 40.37500000000091 96.38095238095241 40.37500000000091L 4 40.37500000000091Q 0 40.37500000000091 0 36.37500000000091Z" stroke="rgba(33,41,48,1)" stroke-width="1.5" fill-opacity="1" fill="#d2d6f9"></path><g id="SvgjsG1051"><text id="SvgjsText1052" font-family="微软雅黑" text-anchor="middle" font-size="20px" width="81px" fill="#323232" font-weight="400" align="middle" lineHeight="125%" anchor="middle" family="微软雅黑" size="20px" weight="400" font-style="" opacity="1" y="2.1875000000004547" transform="rotate(0)"><tspan id="SvgjsTspan1053" dy="25" x="50.5"><tspan id="SvgjsTspan1054" style="">数据表</tspan></tspan></text></g></g><g id="SvgjsG1055"><path id="SvgjsPath1056" d="M305.9419041946088 103.92673272358513L348.6615425381516 75.03346355150052" stroke="#323232" stroke-width="1.5" fill="none" marker-end="url(#SvgjsMarker1057)"></path></g><g id="SvgjsG1059"><path id="SvgjsPath1060" d="M305.90704264595195 144.2864738357532L348.7875924107535 178.50343555786264" stroke="#323232" stroke-width="1.5" fill="none" marker-end="url(#SvgjsMarker1061)"></path></g><g id="SvgjsG1063"><path id="SvgjsPath1064" d="M451.4944780738384 63.05063009641958L494.24370514435293 46.17869500307188" stroke="#323232" stroke-width="1.5" fill="none" marker-end="url(#SvgjsMarker1065)"></path></g><g id="SvgjsG1067"><path id="SvgjsPath1068" d="M451.01896885349186 85.4544959248492L494.16923742446977 98.41101734683343" stroke="#323232" stroke-width="1.5" fill="none" marker-end="url(#SvgjsMarker1069)"></path></g><g id="SvgjsG1071"><path id="SvgjsPath1072" d="M451.4970482687712 170.55723350309677L494.23445244259517 154.15492273903362" stroke="#323232" stroke-width="1.5" fill="none" marker-end="url(#SvgjsMarker1073)"></path></g><g id="SvgjsG1075"><path id="SvgjsPath1076" d="M451.4959071368195 189.59765319492158L494.2385605176215 206.20941184846401" stroke="#323232" stroke-width="1.5" fill="none" marker-end="url(#SvgjsMarker1077)"></path></g><g id="SvgjsG1079" transform="translate(25.015683812587213,39.120083678001606)"><path id="SvgjsPath1080" d="M 0 4Q 0 0 4 0L 96.38095238095241 0Q 100.38095238095241 0 100.38095238095241 4L 100.38095238095241 36.37500000000091Q 100.38095238095241 40.37500000000091 96.38095238095241 40.37500000000091L 4 40.37500000000091Q 0 40.37500000000091 0 36.37500000000091Z" stroke="rgba(33,41,48,1)" stroke-width="1.5" fill-opacity="1" fill="#e5f6da"></path><g id="SvgjsG1081"><text id="SvgjsText1082" font-family="微软雅黑" text-anchor="middle" font-size="20px" width="81px" fill="#323232" font-weight="400" align="middle" lineHeight="125%" anchor="middle" family="微软雅黑" size="20px" weight="400" font-style="" opacity="1" y="2.1875000000004547" transform="rotate(0)"><tspan id="SvgjsTspan1083" dy="25" x="50.5"><tspan id="SvgjsTspan1084" style="">客户端</tspan></tspan></text></g></g><g id="SvgjsG1085" transform="translate(25.015683812587326,105.4117503446671)"><path id="SvgjsPath1086" d="M 0 4Q 0 0 4 0L 96.38095238095241 0Q 100.38095238095241 0 100.38095238095241 4L 100.38095238095241 36.37500000000091Q 100.38095238095241 40.37500000000091 96.38095238095241 40.37500000000091L 4 40.37500000000091Q 0 40.37500000000091 0 36.37500000000091Z" stroke="rgba(33,41,48,1)" stroke-width="1.5" fill-opacity="1" fill="#e5f6da"></path><g id="SvgjsG1087"><text id="SvgjsText1088" font-family="微软雅黑" text-anchor="middle" font-size="20px" width="81px" fill="#323232" font-weight="400" align="middle" lineHeight="125%" anchor="middle" family="微软雅黑" size="20px" weight="400" font-style="" opacity="1" y="2.1875000000004547" transform="rotate(0)"><tspan id="SvgjsTspan1089" dy="25" x="50.5"><tspan id="SvgjsTspan1090" style="">客户端</tspan></tspan></text></g></g><g id="SvgjsG1091" transform="translate(25.015683812587326,171.7034170113326)"><path id="SvgjsPath1092" d="M 0 4Q 0 0 4 0L 96.38095238095241 0Q 100.38095238095241 0 100.38095238095241 4L 100.38095238095241 36.37500000000091Q 100.38095238095241 40.37500000000091 96.38095238095241 40.37500000000091L 4 40.37500000000091Q 0 40.37500000000091 0 36.37500000000091Z" stroke="rgba(33,41,48,1)" stroke-width="1.5" fill-opacity="1" fill="#e5f6da"></path><g id="SvgjsG1093"><text id="SvgjsText1094" font-family="微软雅黑" text-anchor="middle" font-size="20px" width="81px" fill="#323232" font-weight="400" align="middle" lineHeight="125%" anchor="middle" family="微软雅黑" size="20px" weight="400" font-style="" opacity="1" y="2.1875000000004547" transform="rotate(0)"><tspan id="SvgjsTspan1095" dy="25" x="50.5"><tspan id="SvgjsTspan1096" style="">客户端</tspan></tspan></text></g></g><g id="SvgjsG1097"><path id="SvgjsPath1098" d="M126.03814625205291 59.69612562532075L203.66388065516094 106.7115287460864" stroke="#323232" stroke-width="1.5" fill="none" marker-end="url(#SvgjsMarker1099)"></path></g><g id="SvgjsG1101"><path id="SvgjsPath1102" d="M126.14663619353973 125.59925034466755L202.34089389662097 125.59925034466755" stroke="#323232" stroke-width="1.5" fill="none" marker-end="url(#SvgjsMarker1103)"></path></g><g id="SvgjsG1105"><path id="SvgjsPath1106" d="M126.0381303739149 191.50234884930126L203.13452605175223 144.803242786807" stroke="#323232" stroke-width="1.5" fill="none" marker-end="url(#SvgjsMarker1107)"></path></g></svg>