<svg id="SvgjsSvg1055" width="389" height="240.17499542236328" xmlns="http://www.w3.org/2000/svg" version="1.1" xmlns:xlink="http://www.w3.org/1999/xlink" xmlns:svgjs="http://svgjs.com/svgjs"><defs id="SvgjsDefs1056"><pattern patternUnits="userSpaceOnUse" id="pattern_mark_0" width="300" height="300"><text x="150" y="100" fill="rgba(229,229,229,0.8)" font-size="18" transform="rotate(-45, 150, 150)" style="dominant-baseline: middle; text-anchor: middle;"></text></pattern><pattern patternUnits="userSpaceOnUse" id="pattern_mark_1" width="300" height="300"><text x="150" y="200" fill="rgba(229,229,229,0.8)" font-size="18" transform="rotate(-45, 150, 150)" style="dominant-baseline: middle; text-anchor: middle;"></text></pattern><marker id="SvgjsMarker1104" markerWidth="13" markerHeight="9" refX="9.5" refY="4.5" viewBox="0 0 13 9" orient="auto" markerUnits="userSpaceOnUse" stroke-dasharray="0,0"><path id="SvgjsPath1105" d="M0,0 L13,4.5 L0,9 L0,0" fill="#323232" stroke="#323232" stroke-width="1"></path></marker><marker id="SvgjsMarker1108" markerWidth="13" markerHeight="9" refX="9.5" refY="4.5" viewBox="0 0 13 9" orient="auto" markerUnits="userSpaceOnUse" stroke-dasharray="0,0"><path id="SvgjsPath1109" d="M0,0 L13,4.5 L0,9 L0,0" fill="#323232" stroke="#323232" stroke-width="1"></path></marker></defs><rect id="svgbackgroundid" width="389" height="240.17499542236328" fill="#ffffff"></rect><rect id="SvgjsRect1058" width="389" height="240.17499542236328" fill="url(#pattern_mark_0)"></rect><rect id="SvgjsRect1059" width="389" height="240.17499542236328" fill="url(#pattern_mark_1)"></rect><g id="SvgjsG1060"><path id="SvgjsPath1061" d="M25.008326212565123 137.91666094462084L363.6749928792317 137.91666094462084" stroke-dasharray="8,5" stroke="#323232" stroke-width="1.5" fill="none"></path></g><g id="SvgjsG1062" transform="translate(144.34165954589844,175.18333180745446)"><path id="SvgjsPath1063" d="M 24 0L 153.33333333333334 0C 161.8181818181818 0 161.8181818181818 40 153.33333333333334 40L 24 40C -8 40 -8 0 24 0ZM 153.33333333333334 0C 145 0 145 40 153.33333333333334 40C 145 40 145 0 153.33333333333334 0" stroke="rgba(33,41,48,1)" stroke-width="1.5" fill-opacity="1" fill="#e5f6da"></path><g id="SvgjsG1064"><text id="SvgjsText1065" font-family="微软雅黑" text-anchor="middle" font-size="13px" width="128px" fill="#323232" font-weight="400" align="middle" lineHeight="125%" anchor="middle" family="微软雅黑" size="13px" weight="400" font-style="" opacity="1" y="9.375" transform="rotate(0)"></text></g></g><g id="SvgjsG1066" transform="translate(151.77499389648438,175.18333180745446)"><path id="SvgjsPath1067" d="M 0 0L 63.5 0L 63.5 40L 0 40Z" stroke="none" fill="none"></path><g id="SvgjsG1068"><text id="SvgjsText1069" font-family="微软雅黑" text-anchor="middle" font-size="16px" width="64px" fill="#323232" font-weight="400" align="middle" lineHeight="125%" anchor="middle" family="微软雅黑" size="16px" weight="400" font-style="" opacity="1" y="6" transform="rotate(0)"><tspan id="SvgjsTspan1070" dy="20" x="32"><tspan id="SvgjsTspan1071" style="">读端</tspan></tspan></text></g></g><g id="SvgjsG1072" transform="translate(239.77499389648438,175.18333180745446)"><path id="SvgjsPath1073" d="M 0 0L 59.033330281575445 0L 59.033330281575445 40L 0 40Z" stroke="none" fill="none"></path><g id="SvgjsG1074"><text id="SvgjsText1075" font-family="微软雅黑" text-anchor="middle" font-size="16px" width="60px" fill="#323232" font-weight="400" align="middle" lineHeight="125%" anchor="middle" family="微软雅黑" size="16px" weight="400" font-style="" opacity="1" y="6" transform="rotate(0)"><tspan id="SvgjsTspan1076" dy="20" x="30"><tspan id="SvgjsTspan1077" style="">写端</tspan></tspan></text></g></g><g id="SvgjsG1078" transform="translate(184.45832570393884,138.68333180745446)"><path id="SvgjsPath1079" d="M 0 0L 79.7666676839192 0L 79.7666676839192 40L 0 40Z" stroke="none" fill="none"></path><g id="SvgjsG1080"><text id="SvgjsText1081" font-family="微软雅黑" text-anchor="middle" font-size="16px" width="80px" fill="#323232" font-weight="400" align="middle" lineHeight="125%" anchor="middle" family="微软雅黑" size="16px" weight="400" font-style="" opacity="1" y="6" transform="rotate(0)"><tspan id="SvgjsTspan1082" dy="20" x="40"><tspan id="SvgjsTspan1083" style="">管道</tspan></tspan></text></g></g><g id="SvgjsG1084" transform="translate(67.34165954589844,25.005799390267725)"><path id="SvgjsPath1085" d="M 0 4Q 0 0 4 0L 250 0Q 254 0 254 4L 254 76.8441952691561Q 254 80.8441952691561 250 80.8441952691561L 4 80.8441952691561Q 0 80.8441952691561 0 76.8441952691561Z" stroke="rgba(33,41,48,1)" stroke-width="1.5" fill-opacity="1" fill="#fbeada"></path><g id="SvgjsG1086"><text id="SvgjsText1087" font-family="微软雅黑" text-anchor="start" font-size="16px" width="234px" fill="#323232" font-weight="400" align="middle" lineHeight="200%" anchor="start" family="微软雅黑" size="16px" weight="400" font-style="" opacity="1" y="14.422097634578051" transform="rotate(0)"><tspan id="SvgjsTspan1088" dy="32" x="10"><tspan id="SvgjsTspan1089" style="">pipe()</tspan></tspan></text></g></g><g id="SvgjsG1090" transform="translate(133.9083251953125,40.349998474121094)"><path id="SvgjsPath1091" d="M 0 4Q 0 0 4 0L 75.76666768391925 0Q 79.76666768391925 0 79.76666768391925 4L 79.76666768391925 46.15579710144936Q 79.76666768391925 50.15579710144936 75.76666768391925 50.15579710144936L 4 50.15579710144936Q 0 50.15579710144936 0 46.15579710144936Z" stroke="rgba(33,41,48,1)" stroke-width="1.5" fill-opacity="1" fill="#fcf9ea"></path><g id="SvgjsG1092"><text id="SvgjsText1093" font-family="微软雅黑" text-anchor="middle" font-size="16px" width="60px" fill="#323232" font-weight="400" align="middle" lineHeight="125%" anchor="middle" family="微软雅黑" size="16px" weight="400" font-style="" opacity="1" y="11.07789855072468" transform="rotate(0)"><tspan id="SvgjsTspan1094" dy="20" x="40"><tspan id="SvgjsTspan1095" style="">fd[0]</tspan></tspan></text></g></g><g id="SvgjsG1096" transform="translate(229.34165954589844,40.349998474121094)"><path id="SvgjsPath1097" d="M 0 4Q 0 0 4 0L 75.89999898274732 0Q 79.89999898274732 0 79.89999898274732 4L 79.89999898274732 46.155797101449366Q 79.89999898274732 50.155797101449366 75.89999898274732 50.155797101449366L 4 50.155797101449366Q 0 50.155797101449366 0 46.155797101449366Z" stroke="rgba(33,41,48,1)" stroke-width="1.5" fill-opacity="1" fill="#dbf5f5"></path><g id="SvgjsG1098"><text id="SvgjsText1099" font-family="微软雅黑" text-anchor="middle" font-size="16px" width="60px" fill="#323232" font-weight="400" align="middle" lineHeight="125%" anchor="middle" family="微软雅黑" size="16px" weight="400" font-style="" opacity="1" y="11.077898550724683" transform="rotate(0)"><tspan id="SvgjsTspan1100" dy="20" x="40"><tspan id="SvgjsTspan1101" style="">fd[1]</tspan></tspan></text></g></g><g id="SvgjsG1102"><path id="SvgjsPath1103" d="M143.86811001547449 194.6017384424345C 109.77499389648438 161.8499984741211 133.77499389648438 116.3499984741211 149.3464528479194 92.64112712013048" stroke="#323232" stroke-width="1.5" fill="none" marker-end="url(#SvgjsMarker1104)"></path></g><g id="SvgjsG1106"><path id="SvgjsPath1107" d="M298.22796362478596 90.44775965155105C 322.2749938964844 116.8499984741211 335.2749938964844 176.3499984741211 300.9715788440891 193.56768046824084" stroke="#323232" stroke-width="1.5" fill="none" marker-end="url(#SvgjsMarker1108)"></path></g></svg>