<svg class="icon" viewBox="0 0 1024 1024" version="1.1" xmlns="http://www.w3.org/2000/svg" width="256" height="256"><path d="M971.776 742.741333c-53.248 27.648-329.045333 140.970667-387.754667 171.690667-58.709333 30.72-91.477333 30.378667-137.557333 8.192-46.421333-22.186667-339.968-140.629333-392.874667-165.888-26.624-12.629333-40.277333-23.210667-40.277333-33.450667v-100.693333s381.952-83.285333 443.733333-105.472 82.944-22.869333 135.509334-3.754667c52.565333 19.114667 366.250667 75.776 418.133333 94.890667v99.328c0 9.898667-11.946667 21.162667-38.912 35.157333z" fill="#A41E11"></path><path d="M971.776 641.706667c-53.248 27.648-329.045333 140.970667-387.754667 171.690666s-91.477333 30.378667-137.557333 8.192c-46.421333-22.186667-339.968-140.629333-392.874667-165.888-52.906667-25.258667-53.930667-42.666667-2.048-62.805333l405.504-157.013333c61.781333-22.186667 82.944-22.869333 135.509334-3.754667 52.565333 19.114667 326.656 128.341333 378.197333 147.456 51.541333 19.456 53.930667 34.474667 0.682667 62.464l0.341333-0.341333z" fill="#D82C20"></path><path d="M971.776 578.218667c-53.248 27.648-329.045333 140.970667-387.754667 171.690666s-91.477333 30.378667-137.557333 8.192c-46.421333-22.186667-339.968-140.629333-392.874667-165.888-26.624-12.629333-40.277333-23.210667-40.277333-33.450666v-100.693334s381.952-83.285333 443.733333-105.472 82.944-22.869333 135.509334-3.754666 366.250667 75.776 418.133333 94.890666v99.328c0 10.24-11.946667 21.162667-38.912 35.157334z" fill="#A41E11"></path><path d="M971.776 477.184c-53.248 27.648-329.045333 140.970667-387.754667 171.690667s-91.477333 30.378667-137.557333 8.192c-46.421333-22.186667-339.968-140.629333-392.874667-165.888-52.906667-25.258667-53.930667-42.666667-2.048-62.805334l405.504-157.013333c61.781333-22.186667 82.944-22.869333 135.509334-3.754667s326.656 128.341333 378.538666 147.456 53.930667 34.133333 0.682667 62.122667z" fill="#D82C20"></path><path d="M971.776 407.552c-53.248 27.648-329.045333 140.970667-387.754667 171.690667-58.709333 30.72-91.477333 30.378667-137.557333 8.192-46.421333-22.186667-339.968-140.629333-392.874667-165.888-26.624-12.629333-40.277333-23.210667-40.277333-33.450667V287.402667s381.952-83.285333 443.733333-105.472 82.944-22.869333 135.509334-3.754667S958.805333 254.293333 1010.688 273.066667v99.328c0 10.24-11.946667 21.504-38.912 35.157333z" fill="#A41E11"></path><path d="M971.776 306.858667c-53.248 27.648-329.045333 140.970667-387.754667 171.690666-58.709333 30.72-91.477333 30.378667-137.557333 8.192-46.421333-22.186667-339.968-140.629333-392.874667-165.888C0.682667 295.594667-0.341333 278.186667 51.541333 257.706667l405.504-157.013334c61.781333-22.186667 82.944-22.869333 135.509334-3.754666S919.210667 225.28 971.093333 244.394667c51.882667 18.773333 53.930667 34.474667 0.682667 62.464z" fill="#D82C20"></path><path d="M536.917333 265.216l-31.402666-51.882667-99.669334-8.874666 74.410667-26.965334-22.186667-41.301333 69.632 27.306667 65.877334-21.504-17.749334 42.666666 66.901334 25.258667L556.373333 218.453333l-19.456 46.762667zM370.346667 368.64l231.082666-35.498667-69.973333 102.4-161.109333-66.901333zM184.661333 283.648c0-26.624 54.954667-47.786667 123.562667-47.786667s123.562667 21.504 123.562667 47.786667-54.954667 47.786667-123.562667 47.786667-123.562667-21.504-123.562667-47.786667z" fill="#FFFFFF"></path><path d="M881.664 276.48l-136.874667 53.930667V222.208L881.664 276.48z" fill="#7A0C00"></path><path d="M744.789333 330.410667l-14.677333 5.802666-136.533333-53.930666 151.210666-59.733334v107.861334z" fill="#AD2115"></path></svg>