<svg id="SvgjsSvg1308" width="911.0000000000005" height="495.71463585434157" xmlns="http://www.w3.org/2000/svg" version="1.1" xmlns:xlink="http://www.w3.org/1999/xlink" xmlns:svgjs="http://svgjs.com/svgjs"><defs id="SvgjsDefs1309"><pattern patternUnits="userSpaceOnUse" id="pattern_mark_0" width="300" height="300"><text x="150" y="100" fill="rgba(229,229,229,0.8)" font-size="18" transform="rotate(-45, 150, 150)" style="dominant-baseline: middle; text-anchor: middle;"></text></pattern><pattern patternUnits="userSpaceOnUse" id="pattern_mark_1" width="300" height="300"><text x="150" y="200" fill="rgba(229,229,229,0.8)" font-size="18" transform="rotate(-45, 150, 150)" style="dominant-baseline: middle; text-anchor: middle;"></text></pattern><marker id="SvgjsMarker1379" markerWidth="13" markerHeight="9" refX="9.5" refY="4.5" viewBox="0 0 13 9" orient="auto" markerUnits="userSpaceOnUse" stroke-dasharray="0,0"><path id="SvgjsPath1380" d="M0,0 L13,4.5 L0,9 L0,0" fill="#323232" stroke="#323232" stroke-width="1"></path></marker><marker id="SvgjsMarker1383" markerWidth="13" markerHeight="9" refX="9.5" refY="4.5" viewBox="0 0 13 9" orient="auto" markerUnits="userSpaceOnUse" stroke-dasharray="0,0"><path id="SvgjsPath1384" d="M0,0 L13,4.5 L0,9 L0,0" fill="#323232" stroke="#323232" stroke-width="1"></path></marker><marker id="SvgjsMarker1423" markerWidth="13" markerHeight="9" refX="9.5" refY="4.5" viewBox="0 0 13 9" orient="auto" markerUnits="userSpaceOnUse" stroke-dasharray="0,0"><path id="SvgjsPath1424" d="M0,0 L13,4.5 L0,9 L0,0" fill="#323232" stroke="#323232" stroke-width="1"></path></marker><marker id="SvgjsMarker1457" markerWidth="13" markerHeight="9" refX="9.5" refY="4.5" viewBox="0 0 13 9" orient="auto" markerUnits="userSpaceOnUse" stroke-dasharray="0,0"><path id="SvgjsPath1458" d="M0,0 L13,4.5 L0,9 L0,0" fill="#323232" stroke="#323232" stroke-width="1"></path></marker></defs><rect id="svgbackgroundid" width="911.0000000000005" height="495.71463585434157" fill="#ffffff"></rect><rect id="SvgjsRect1311" width="911.0000000000005" height="495.71463585434157" fill="url(#pattern_mark_0)"></rect><rect id="SvgjsRect1312" width="911.0000000000005" height="495.71463585434157" fill="url(#pattern_mark_1)"></rect><g id="SvgjsG1313" transform="translate(418.0437675070025,116.1764705882353)"><path id="SvgjsPath1314" d="M 0 4Q 0 0 4 0L 70.77976190476221 0Q 74.77976190476221 0 74.77976190476221 4L 74.77976190476221 38Q 74.77976190476221 42 70.77976190476221 42L 4 42Q 0 42 0 38Z" stroke="rgba(33,41,48,1)" stroke-width="1.5" fill-opacity="1" fill="#e5f6da"></path><g id="SvgjsG1315"><text id="SvgjsText1316" font-family="微软雅黑" text-anchor="middle" font-size="20px" width="55px" fill="#323232" font-weight="400" align="middle" lineHeight="125%" anchor="middle" family="微软雅黑" size="20px" weight="400" font-style="" opacity="1" y="3" transform="rotate(0)"><tspan id="SvgjsTspan1317" dy="25" x="37.5"><tspan id="SvgjsTspan1318" style="">20</tspan></tspan></text></g></g><g id="SvgjsG1319" transform="translate(427.5765056022407,70)"><path id="SvgjsPath1320" d="M 0 0L 55.71428571428578 0L 55.71428571428578 40L 0 40Z" stroke="none" fill="none"></path><g id="SvgjsG1321"><text id="SvgjsText1322" font-family="&quot;Lucida Console&quot;" text-anchor="middle" font-size="20px" width="56px" fill="#323232" font-weight="400" align="middle" lineHeight="125%" anchor="middle" family="&quot;Lucida Console&quot;" size="20px" weight="400" font-style="" opacity="1" y="2" transform="rotate(0)"><tspan id="SvgjsTspan1323" dy="25" x="28"><tspan id="SvgjsTspan1324" style="">cnt</tspan></tspan></text></g></g><g id="SvgjsG1325" transform="translate(290.3967086834732,116.1764705882353)"><path id="SvgjsPath1326" d="M 0 4Q 0 0 4 0L 70.77976190476221 0Q 74.77976190476221 0 74.77976190476221 4L 74.77976190476221 38Q 74.77976190476221 42 70.77976190476221 42L 4 42Q 0 42 0 38Z" stroke="rgba(33,41,48,1)" stroke-width="1.5" fill-opacity="1" fill="#fcf9ea"></path><g id="SvgjsG1327"><text id="SvgjsText1328" font-family="微软雅黑" text-anchor="middle" font-size="20px" width="55px" fill="#e74f4c" font-weight="400" align="middle" lineHeight="125%" anchor="middle" family="微软雅黑" size="20px" weight="400" font-style="" opacity="1" y="3" transform="rotate(0)"><tspan id="SvgjsTspan1329" dy="25" x="37.5"><tspan id="SvgjsTspan1330" style="">20</tspan></tspan></text></g></g><g id="SvgjsG1331" transform="translate(299.9294467787114,70)"><path id="SvgjsPath1332" d="M 0 0L 55.71428571428578 0L 55.71428571428578 40L 0 40Z" stroke="none" fill="none"></path><g id="SvgjsG1333"><text id="SvgjsText1334" font-family="&quot;Lucida Console&quot;" text-anchor="middle" font-size="20px" width="56px" fill="#323232" font-weight="400" align="middle" lineHeight="125%" anchor="middle" family="&quot;Lucida Console&quot;" size="20px" weight="400" font-style="" opacity="1" y="2" transform="rotate(0)"><tspan id="SvgjsTspan1335" dy="25" x="28"><tspan id="SvgjsTspan1336" style="">eax</tspan></tspan></text></g></g><g id="SvgjsG1337"><path id="SvgjsPath1338" d="M392.57317927170845 26.20204001644484L392.57317927170845 248.45833793539322L392.57317927170845 248.45833793539322L392.57317927170845 470.71463585434157" stroke-dasharray="8,5" stroke="#323232" stroke-width="1.5" fill="none"></path></g><g id="SvgjsG1339" transform="translate(25.000000000000227,117.1764705882353)"><path id="SvgjsPath1340" d="M 0 0L 245.8823529411764 0L 245.8823529411764 40L 0 40Z" stroke="none" fill="none"></path><g id="SvgjsG1341"><text id="SvgjsText1342" font-family="&quot;Lucida Console&quot;" text-anchor="end" font-size="16px" width="246px" fill="#323232" font-weight="400" align="middle" lineHeight="125%" anchor="end" family="&quot;Lucida Console&quot;" size="16px" weight="400" font-style="" opacity="1" y="6" transform="rotate(0)"><tspan id="SvgjsTspan1343" dy="20" x="246"><tspan id="SvgjsTspan1344" style="">mov eax, dword ptr [cnt]</tspan></tspan></text></g></g><g id="SvgjsG1345" transform="translate(290.3967086834732,170.26610644257687)"><path id="SvgjsPath1346" d="M 0 4Q 0 0 4 0L 70.77976190476221 0Q 74.77976190476221 0 74.77976190476221 4L 74.77976190476221 38Q 74.77976190476221 42 70.77976190476221 42L 4 42Q 0 42 0 38Z" stroke="rgba(33,41,48,1)" stroke-width="1.5" fill-opacity="1" fill="#fcf9ea"></path><g id="SvgjsG1347"><text id="SvgjsText1348" font-family="微软雅黑" text-anchor="middle" font-size="20px" width="55px" fill="#e74f4c" font-weight="400" align="middle" lineHeight="125%" anchor="middle" family="微软雅黑" size="20px" weight="400" font-style="" opacity="1" y="3" transform="rotate(0)"><tspan id="SvgjsTspan1349" dy="25" x="37.5"><tspan id="SvgjsTspan1350" style="">21</tspan></tspan></text></g></g><g id="SvgjsG1351" transform="translate(25.00000000000017,171.26610644257687)"><path id="SvgjsPath1352" d="M 0 0L 245.8823529411764 0L 245.8823529411764 40L 0 40Z" stroke="none" fill="none"></path><g id="SvgjsG1353"><text id="SvgjsText1354" font-family="&quot;Lucida Console&quot;" text-anchor="end" font-size="16px" width="246px" fill="#323232" font-weight="400" align="middle" lineHeight="125%" anchor="end" family="&quot;Lucida Console&quot;" size="16px" weight="400" font-style="" opacity="1" y="6" transform="rotate(0)"><tspan id="SvgjsTspan1355" dy="20" x="246"><tspan id="SvgjsTspan1356" style="">add eax, 1</tspan></tspan></text></g></g><g id="SvgjsG1357" transform="translate(418.0437675070025,170.26610644257687)"><path id="SvgjsPath1358" d="M 0 4Q 0 0 4 0L 70.77976190476221 0Q 74.77976190476221 0 74.77976190476221 4L 74.77976190476221 38Q 74.77976190476221 42 70.77976190476221 42L 4 42Q 0 42 0 38Z" stroke="rgba(33,41,48,1)" stroke-width="1.5" fill-opacity="1" fill="#e5f6da"></path><g id="SvgjsG1359"><text id="SvgjsText1360" font-family="微软雅黑" text-anchor="middle" font-size="20px" width="55px" fill="#323232" font-weight="400" align="middle" lineHeight="125%" anchor="middle" family="微软雅黑" size="20px" weight="400" font-style="" opacity="1" y="3" transform="rotate(0)"><tspan id="SvgjsTspan1361" dy="25" x="37.5"><tspan id="SvgjsTspan1362" style="">20</tspan></tspan></text></g></g><g id="SvgjsG1363"><path id="SvgjsPath1364" d="M519.2202380952382 25.714635854341566L519.2202380952382 247.9709337732902L519.2202380952382 247.9709337732902L519.2202380952382 470.22723169223883" stroke-dasharray="8,5" stroke="#323232" stroke-width="1.5" fill="none"></path></g><g id="SvgjsG1365" transform="translate(418.0437675070025,224.35574229691844)"><path id="SvgjsPath1366" d="M 0 4Q 0 0 4 0L 70.77976190476221 0Q 74.77976190476221 0 74.77976190476221 4L 74.77976190476221 38Q 74.77976190476221 42 70.77976190476221 42L 4 42Q 0 42 0 38Z" stroke="rgba(33,41,48,1)" stroke-width="1.5" fill-opacity="1" fill="#e5f6da"></path><g id="SvgjsG1367"><text id="SvgjsText1368" font-family="微软雅黑" text-anchor="middle" font-size="20px" width="55px" fill="#323232" font-weight="400" align="middle" lineHeight="125%" anchor="middle" family="微软雅黑" size="20px" weight="400" font-style="" opacity="1" y="3" transform="rotate(0)"><tspan id="SvgjsTspan1369" dy="25" x="37.5"><tspan id="SvgjsTspan1370" style="">20</tspan></tspan></text></g></g><g id="SvgjsG1371" transform="translate(545.6908263305316,224.35574229691844)"><path id="SvgjsPath1372" d="M 0 4Q 0 0 4 0L 70.77976190476221 0Q 74.77976190476221 0 74.77976190476221 4L 74.77976190476221 38Q 74.77976190476221 42 70.77976190476221 42L 4 42Q 0 42 0 38Z" stroke="rgba(33,41,48,1)" stroke-width="1.5" fill-opacity="1" fill="#dbf5f5"></path><g id="SvgjsG1373"><text id="SvgjsText1374" font-family="微软雅黑" text-anchor="middle" font-size="20px" width="55px" fill="#e74f4c" font-weight="400" align="middle" lineHeight="125%" anchor="middle" family="微软雅黑" size="20px" weight="400" font-style="" opacity="1" y="3" transform="rotate(0)"><tspan id="SvgjsTspan1375" dy="25" x="37.5"><tspan id="SvgjsTspan1376" style="">20</tspan></tspan></text></g></g><g id="SvgjsG1377"><path id="SvgjsPath1378" d="M417.2937675070025 137.1764705882353C 396.8968487394957 137.1764705882353 386.32338935574217 137.1764705882353 367.8764705882354 137.1764705882353" stroke="#323232" stroke-width="1.5" fill="none" marker-end="url(#SvgjsMarker1379)"></path></g><g id="SvgjsG1381"><path id="SvgjsPath1382" d="M493.57352941176475 245.35574229691844C 513.9704481792716 245.35574229691844 524.5439075630248 245.35574229691844 542.9908263305316 245.35574229691844" stroke="#323232" stroke-width="1.5" fill="none" marker-end="url(#SvgjsMarker1383)"></path></g><g id="SvgjsG1385" transform="translate(640.0000000000005,225.35574229691844)"><path id="SvgjsPath1386" d="M 0 0L 245.8823529411764 0L 245.8823529411764 40L 0 40Z" stroke="none" fill="none"></path><g id="SvgjsG1387"><text id="SvgjsText1388" font-family="&quot;Lucida Console&quot;" text-anchor="start" font-size="16px" width="246px" fill="#323232" font-weight="400" align="middle" lineHeight="125%" anchor="start" family="&quot;Lucida Console&quot;" size="16px" weight="400" font-style="" opacity="1" y="6" transform="rotate(0)"><tspan id="SvgjsTspan1389" dy="20" x="0"><tspan id="SvgjsTspan1390" style="">mov eax, dword ptr [cnt]</tspan></tspan></text></g></g><g id="SvgjsG1391" transform="translate(418.04376750700237,278.44537815126)"><path id="SvgjsPath1392" d="M 0 4Q 0 0 4 0L 70.77976190476221 0Q 74.77976190476221 0 74.77976190476221 4L 74.77976190476221 38Q 74.77976190476221 42 70.77976190476221 42L 4 42Q 0 42 0 38Z" stroke="rgba(33,41,48,1)" stroke-width="1.5" fill-opacity="1" fill="#e5f6da"></path><g id="SvgjsG1393"><text id="SvgjsText1394" font-family="微软雅黑" text-anchor="middle" font-size="20px" width="55px" fill="#323232" font-weight="400" align="middle" lineHeight="125%" anchor="middle" family="微软雅黑" size="20px" weight="400" font-style="" opacity="1" y="3" transform="rotate(0)"><tspan id="SvgjsTspan1395" dy="25" x="37.5"><tspan id="SvgjsTspan1396" style="">20</tspan></tspan></text></g></g><g id="SvgjsG1397" transform="translate(418.04376750700237,332.5350140056017)"><path id="SvgjsPath1398" d="M 0 4Q 0 0 4 0L 70.77976190476221 0Q 74.77976190476221 0 74.77976190476221 4L 74.77976190476221 38Q 74.77976190476221 42 70.77976190476221 42L 4 42Q 0 42 0 38Z" stroke="rgba(33,41,48,1)" stroke-width="1.5" fill-opacity="1" fill="#e5f6da"></path><g id="SvgjsG1399"><text id="SvgjsText1400" font-family="微软雅黑" text-anchor="middle" font-size="20px" width="55px" fill="#e74f4c" font-weight="400" align="middle" lineHeight="125%" anchor="middle" family="微软雅黑" size="20px" weight="400" font-style="" opacity="1" y="3" transform="rotate(0)"><tspan id="SvgjsTspan1401" dy="25" x="37.5"><tspan id="SvgjsTspan1402" style="">21</tspan></tspan></text></g></g><g id="SvgjsG1403" transform="translate(545.6908263305316,277.44537815126)"><path id="SvgjsPath1404" d="M 0 4Q 0 0 4 0L 70.77976190476221 0Q 74.77976190476221 0 74.77976190476221 4L 74.77976190476221 38Q 74.77976190476221 42 70.77976190476221 42L 4 42Q 0 42 0 38Z" stroke="rgba(33,41,48,1)" stroke-width="1.5" fill-opacity="1" fill="#dbf5f5"></path><g id="SvgjsG1405"><text id="SvgjsText1406" font-family="微软雅黑" text-anchor="middle" font-size="20px" width="55px" fill="#e74f4c" font-weight="400" align="middle" lineHeight="125%" anchor="middle" family="微软雅黑" size="20px" weight="400" font-style="" opacity="1" y="3" transform="rotate(0)"><tspan id="SvgjsTspan1407" dy="25" x="37.5"><tspan id="SvgjsTspan1408" style="">21</tspan></tspan></text></g></g><g id="SvgjsG1409" transform="translate(640.0000000000006,278.44537815126)"><path id="SvgjsPath1410" d="M 0 0L 245.8823529411764 0L 245.8823529411764 40L 0 40Z" stroke="none" fill="none"></path><g id="SvgjsG1411"><text id="SvgjsText1412" font-family="&quot;Lucida Console&quot;" text-anchor="start" font-size="16px" width="246px" fill="#323232" font-weight="400" align="middle" lineHeight="125%" anchor="start" family="&quot;Lucida Console&quot;" size="16px" weight="400" font-style="" opacity="1" y="6" transform="rotate(0)"><tspan id="SvgjsTspan1413" dy="20" x="0"><tspan id="SvgjsTspan1414" style="">add eax, 1</tspan></tspan></text></g></g><g id="SvgjsG1415" transform="translate(545.6908263305315,332.5350140056017)"><path id="SvgjsPath1416" d="M 0 4Q 0 0 4 0L 70.77976190476221 0Q 74.77976190476221 0 74.77976190476221 4L 74.77976190476221 38Q 74.77976190476221 42 70.77976190476221 42L 4 42Q 0 42 0 38Z" stroke="rgba(33,41,48,1)" stroke-width="1.5" fill-opacity="1" fill="#dbf5f5"></path><g id="SvgjsG1417"><text id="SvgjsText1418" font-family="微软雅黑" text-anchor="middle" font-size="20px" width="55px" fill="#000000" font-weight="400" align="middle" lineHeight="125%" anchor="middle" family="微软雅黑" size="20px" weight="400" font-style="" opacity="1" y="3" transform="rotate(0)"><tspan id="SvgjsTspan1419" dy="25" x="37.5"><tspan id="SvgjsTspan1420" style="">21</tspan></tspan></text></g></g><g id="SvgjsG1421"><path id="SvgjsPath1422" d="M544.9408263305315 353.5350140056017C 524.5439075630247 353.5350140056017 513.9704481792714 353.5350140056017 495.5235294117647 353.5350140056017" stroke="#323232" stroke-width="1.5" fill="none" marker-end="url(#SvgjsMarker1423)"></path></g><g id="SvgjsG1425" transform="translate(640.0000000000006,333.5350140056017)"><path id="SvgjsPath1426" d="M 0 0L 245.8823529411764 0L 245.8823529411764 40L 0 40Z" stroke="none" fill="none"></path><g id="SvgjsG1427"><text id="SvgjsText1428" font-family="&quot;Lucida Console&quot;" text-anchor="start" font-size="16px" width="246px" fill="#323232" font-weight="400" align="middle" lineHeight="125%" anchor="start" family="&quot;Lucida Console&quot;" size="16px" weight="400" font-style="" opacity="1" y="6" transform="rotate(0)"><tspan id="SvgjsTspan1429" dy="20" x="0"><tspan id="SvgjsTspan1430" style="">mov dword ptr [cnt], eax</tspan></tspan></text></g></g><g id="SvgjsG1431" transform="translate(290.3967086834731,386.6246498599434)"><path id="SvgjsPath1432" d="M 0 4Q 0 0 4 0L 70.77976190476221 0Q 74.77976190476221 0 74.77976190476221 4L 74.77976190476221 38Q 74.77976190476221 42 70.77976190476221 42L 4 42Q 0 42 0 38Z" stroke="rgba(33,41,48,1)" stroke-width="1.5" fill-opacity="1" fill="#fcf9ea"></path><g id="SvgjsG1433"><text id="SvgjsText1434" font-family="微软雅黑" text-anchor="middle" font-size="20px" width="55px" fill="#000000" font-weight="400" align="middle" lineHeight="125%" anchor="middle" family="微软雅黑" size="20px" weight="400" font-style="" opacity="1" y="3" transform="rotate(0)"><tspan id="SvgjsTspan1435" dy="25" x="37.5"><tspan id="SvgjsTspan1436" style="">21</tspan></tspan></text></g></g><g id="SvgjsG1437" transform="translate(25,387.6246498599434)"><path id="SvgjsPath1438" d="M 0 0L 245.8823529411764 0L 245.8823529411764 40L 0 40Z" stroke="none" fill="none"></path><g id="SvgjsG1439"><text id="SvgjsText1440" font-family="&quot;Lucida Console&quot;" text-anchor="end" font-size="16px" width="246px" fill="#323232" font-weight="400" align="middle" lineHeight="125%" anchor="end" family="&quot;Lucida Console&quot;" size="16px" weight="400" font-style="" opacity="1" y="6" transform="rotate(0)"><tspan id="SvgjsTspan1441" dy="20" x="246"><tspan id="SvgjsTspan1442" style="">mov dword ptr [cnt], eax</tspan></tspan></text></g></g><g id="SvgjsG1443" transform="translate(555.2235644257698,70)"><path id="SvgjsPath1444" d="M 0 0L 55.71428571428578 0L 55.71428571428578 40L 0 40Z" stroke="none" fill="none"></path><g id="SvgjsG1445"><text id="SvgjsText1446" font-family="&quot;Lucida Console&quot;" text-anchor="middle" font-size="20px" width="56px" fill="#323232" font-weight="400" align="middle" lineHeight="125%" anchor="middle" family="&quot;Lucida Console&quot;" size="20px" weight="400" font-style="" opacity="1" y="2" transform="rotate(0)"><tspan id="SvgjsTspan1447" dy="25" x="28"><tspan id="SvgjsTspan1448" style="">eax</tspan></tspan></text></g></g><g id="SvgjsG1449" transform="translate(418.04376750700237,386.6246498599434)"><path id="SvgjsPath1450" d="M 0 4Q 0 0 4 0L 70.77976190476221 0Q 74.77976190476221 0 74.77976190476221 4L 74.77976190476221 38Q 74.77976190476221 42 70.77976190476221 42L 4 42Q 0 42 0 38Z" stroke="rgba(33,41,48,1)" stroke-width="1.5" fill-opacity="1" fill="#e5f6da"></path><g id="SvgjsG1451"><text id="SvgjsText1452" font-family="微软雅黑" text-anchor="middle" font-size="20px" width="55px" fill="#e74f4c" font-weight="400" align="middle" lineHeight="125%" anchor="middle" family="微软雅黑" size="20px" weight="400" font-style="" opacity="1" y="3" transform="rotate(0)"><tspan id="SvgjsTspan1453" dy="25" x="37.5"><tspan id="SvgjsTspan1454" style="">21</tspan></tspan></text></g></g><g id="SvgjsG1455"><path id="SvgjsPath1456" d="M365.92647058823536 407.6246498599434C 386.32338935574217 407.6246498599434 396.89684873949557 407.6246498599434 415.3437675070023 407.6246498599434" stroke="#323232" stroke-width="1.5" fill="none" marker-end="url(#SvgjsMarker1457)"></path></g><g id="SvgjsG1459" transform="translate(427.5765056022407,30)"><path id="SvgjsPath1460" d="M 0 0L 55.71428571428578 0L 55.71428571428578 40L 0 40Z" stroke="none" fill="none"></path><g id="SvgjsG1461"><text id="SvgjsText1462" font-family="微软雅黑" text-anchor="middle" font-size="20px" width="56px" fill="#323232" font-weight="700" align="middle" lineHeight="125%" anchor="middle" family="微软雅黑" size="20px" weight="700" font-style="" opacity="1" y="2" transform="rotate(0)"><tspan id="SvgjsTspan1463" dy="25" x="28"><tspan id="SvgjsTspan1464" style="">内存</tspan></tspan></text></g></g><g id="SvgjsG1465" transform="translate(293.47557773109236,25)"><path id="SvgjsPath1466" d="M 0 0L 68.62202380952397 0L 68.62202380952397 50L 0 50Z" stroke="none" fill="none"></path><g id="SvgjsG1467"><text id="SvgjsText1468" font-family="微软雅黑" text-anchor="middle" font-size="20px" width="69px" fill="#323232" font-weight="400" align="middle" lineHeight="125%" anchor="middle" family="微软雅黑" size="20px" weight="400" font-style="" opacity="1" y="7" transform="rotate(0)"><tspan id="SvgjsTspan1469" dy="25" x="34.5"><tspan id="SvgjsTspan1470" style="">寄存器</tspan></tspan></text></g></g><g id="SvgjsG1471" transform="translate(548.7696953781507,25)"><path id="SvgjsPath1472" d="M 0 0L 68.62202380952397 0L 68.62202380952397 50L 0 50Z" stroke="none" fill="none"></path><g id="SvgjsG1473"><text id="SvgjsText1474" font-family="微软雅黑" text-anchor="middle" font-size="20px" width="69px" fill="#323232" font-weight="400" align="middle" lineHeight="125%" anchor="middle" family="微软雅黑" size="20px" weight="400" font-style="" opacity="1" y="7" transform="rotate(0)"><tspan id="SvgjsTspan1475" dy="25" x="34.5"><tspan id="SvgjsTspan1476" style="">寄存器</tspan></tspan></text></g></g><g id="SvgjsG1477" transform="translate(115.55065583925966,30)"><path id="SvgjsPath1478" d="M 0 0L 112.4460178302084 0L 112.4460178302084 65.54514809550234L 0 65.54514809550234Z" stroke="none" fill="none"></path><g id="SvgjsG1479"><text id="SvgjsText1480" font-family="微软雅黑" text-anchor="middle" font-size="28px" width="113px" fill="#323232" font-weight="700" align="middle" lineHeight="125%" anchor="middle" family="微软雅黑" size="28px" weight="700" font-style="" opacity="1" y="8.77257404775117" transform="rotate(0)"><tspan id="SvgjsTspan1481" dy="35" x="56.5"><tspan id="SvgjsTspan1482" style="">线程1</tspan></tspan></text></g></g><g id="SvgjsG1483" transform="translate(682.8706232492989,42.772574047751164)"><path id="SvgjsPath1484" d="M 0 0L 112.4460178302084 0L 112.4460178302084 40L 0 40Z" stroke="none" fill="none"></path><g id="SvgjsG1485"><text id="SvgjsText1486" font-family="微软雅黑" text-anchor="middle" font-size="28px" width="113px" fill="#323232" font-weight="700" align="middle" lineHeight="125%" anchor="middle" family="微软雅黑" size="28px" weight="700" font-style="" opacity="1" y="-4" transform="rotate(0)"><tspan id="SvgjsTspan1487" dy="35" x="56.5"><tspan id="SvgjsTspan1488" style="">线程2</tspan></tspan></text></g></g></svg>