<svg id="SvgjsSvg1257" width="401.5882352941177" height="211.51820728291318" xmlns="http://www.w3.org/2000/svg" version="1.1" xmlns:xlink="http://www.w3.org/1999/xlink" xmlns:svgjs="http://svgjs.com/svgjs"><defs id="SvgjsDefs1258"><pattern patternUnits="userSpaceOnUse" id="pattern_mark_0" width="300" height="300"><text x="150" y="100" fill="rgba(229,229,229,0.8)" font-size="18" transform="rotate(-45, 150, 150)" style="dominant-baseline: middle; text-anchor: middle;"></text></pattern><pattern patternUnits="userSpaceOnUse" id="pattern_mark_1" width="300" height="300"><text x="150" y="200" fill="rgba(229,229,229,0.8)" font-size="18" transform="rotate(-45, 150, 150)" style="dominant-baseline: middle; text-anchor: middle;"></text></pattern><marker id="SvgjsMarker1300" markerWidth="13" markerHeight="9" refX="9.5" refY="4.5" viewBox="0 0 13 9" orient="auto" markerUnits="userSpaceOnUse" stroke-dasharray="0,0"><path id="SvgjsPath1301" d="M0,0 L13,4.5 L0,9 L0,0" fill="#323232" stroke="#323232" stroke-width="1"></path></marker></defs><rect id="svgbackgroundid" width="401.5882352941177" height="211.51820728291318" fill="#ffffff"></rect><rect id="SvgjsRect1260" width="401.5882352941177" height="211.51820728291318" fill="url(#pattern_mark_0)"></rect><rect id="SvgjsRect1261" width="401.5882352941177" height="211.51820728291318" fill="url(#pattern_mark_1)"></rect><g id="SvgjsG1262" transform="translate(25,25)"><path id="SvgjsPath1263" d="M 0 4Q 0 0 4 0L 147 0Q 151 0 151 4L 151 97.21190476190498Q 151 101.21190476190498 147 101.21190476190498L 4 101.21190476190498Q 0 101.21190476190498 0 97.21190476190498Z" stroke="rgba(33,41,48,1)" stroke-width="1.5" fill-opacity="1" fill="#dbf5f5"></path><g id="SvgjsG1264"><text id="SvgjsText1265" font-family="微软雅黑" text-anchor="middle" font-size="24px" width="131px" fill="#323232" font-weight="400" align="top" lineHeight="125%" anchor="middle" family="微软雅黑" size="24px" weight="400" font-style="" opacity="1" y="-6" transform="rotate(0)"><tspan id="SvgjsTspan1266" dy="30" x="75.5"><tspan id="SvgjsTspan1267" style="">CPU</tspan></tspan></text></g></g><g id="SvgjsG1268" transform="translate(88.85714285714289,68.95238095238113)"><path id="SvgjsPath1269" d="M 0 4Q 0 0 4 0L 70.77976190476221 0Q 74.77976190476221 0 74.77976190476221 4L 74.77976190476221 38Q 74.77976190476221 42 70.77976190476221 42L 4 42Q 0 42 0 38Z" stroke="rgba(33,41,48,1)" stroke-width="1.5" fill-opacity="1" fill="#e5f6da"></path><g id="SvgjsG1270"><text id="SvgjsText1271" font-family="微软雅黑" text-anchor="middle" font-size="20px" width="55px" fill="#e74f4c" font-weight="400" align="middle" lineHeight="125%" anchor="middle" family="微软雅黑" size="20px" weight="400" font-style="" opacity="1" y="3" transform="rotate(0)"><tspan id="SvgjsTspan1272" dy="25" x="37.5"><tspan id="SvgjsTspan1273" style="">21</tspan></tspan></text></g></g><g id="SvgjsG1274" transform="translate(31.714285714285666,69.95238095238113)"><path id="SvgjsPath1275" d="M 0 0L 55.71428571428578 0L 55.71428571428578 40L 0 40Z" stroke="none" fill="none"></path><g id="SvgjsG1276"><text id="SvgjsText1277" font-family="微软雅黑" text-anchor="middle" font-size="20px" width="56px" fill="#323232" font-weight="400" align="middle" lineHeight="125%" anchor="middle" family="微软雅黑" size="20px" weight="400" font-style="" opacity="1" y="2" transform="rotate(0)"><tspan id="SvgjsTspan1278" dy="25" x="28"><tspan id="SvgjsTspan1279" style="">eax</tspan></tspan></text></g></g><g id="SvgjsG1280" transform="translate(225.58823529411768,25)"><path id="SvgjsPath1281" d="M 0 4Q 0 0 4 0L 147 0Q 151 0 151 4L 151 97.21190476190498Q 151 101.21190476190498 147 101.21190476190498L 4 101.21190476190498Q 0 101.21190476190498 0 97.21190476190498Z" stroke="rgba(33,41,48,1)" stroke-width="1.5" fill-opacity="1" fill="#fcf9ea"></path><g id="SvgjsG1282"><text id="SvgjsText1283" font-family="微软雅黑" text-anchor="middle" font-size="24px" width="131px" fill="#323232" font-weight="400" align="top" lineHeight="125%" anchor="middle" family="微软雅黑" size="24px" weight="400" font-style="" opacity="1" y="-6" transform="rotate(0)"><tspan id="SvgjsTspan1284" dy="30" x="75.5"><tspan id="SvgjsTspan1285" style="">内存</tspan></tspan></text></g></g><g id="SvgjsG1286" transform="translate(290.58823529411757,69.95238095238108)"><path id="SvgjsPath1287" d="M 0 4Q 0 0 4 0L 70.77976190476221 0Q 74.77976190476221 0 74.77976190476221 4L 74.77976190476221 38Q 74.77976190476221 42 70.77976190476221 42L 4 42Q 0 42 0 38Z" stroke="rgba(33,41,48,1)" stroke-width="1.5" fill-opacity="1" fill="#fbeada"></path><g id="SvgjsG1288"><text id="SvgjsText1289" font-family="微软雅黑" text-anchor="middle" font-size="20px" width="55px" fill="#323232" font-weight="400" align="middle" lineHeight="125%" anchor="middle" family="微软雅黑" size="20px" weight="400" font-style="" opacity="1" y="3" transform="rotate(0)"><tspan id="SvgjsTspan1290" dy="25" x="37.5"><tspan id="SvgjsTspan1291" style="">21</tspan></tspan></text></g></g><g id="SvgjsG1292" transform="translate(233.44537815126023,70.95238095238108)"><path id="SvgjsPath1293" d="M 0 0L 55.71428571428578 0L 55.71428571428578 40L 0 40Z" stroke="none" fill="none"></path><g id="SvgjsG1294"><text id="SvgjsText1295" font-family="微软雅黑" text-anchor="middle" font-size="20px" width="56px" fill="#323232" font-weight="400" align="middle" lineHeight="125%" anchor="middle" family="微软雅黑" size="20px" weight="400" font-style="" opacity="1" y="2" transform="rotate(0)"><tspan id="SvgjsTspan1296" dy="25" x="28"><tspan id="SvgjsTspan1297" style="">cnt</tspan></tspan></text></g></g><g id="SvgjsG1298"><path id="SvgjsPath1299" d="M126.77165446428239 111.48834986574064C 177.47058823529414 168.8655462184874 263.3529411764706 167.10084033613447 325.8736472483005 112.64389218072785" stroke="#323232" stroke-width="1.5" fill="none" marker-end="url(#SvgjsMarker1300)"></path></g><g id="SvgjsG1302" transform="translate(88.85714285714289,159.45378151260502)"><path id="SvgjsPath1303" d="M 0 0L 258.64705882352945 0L 258.64705882352945 27.064425770308162L 0 27.064425770308162Z" stroke="none" fill="none"></path><g id="SvgjsG1304"><text id="SvgjsText1305" font-family="&quot;Lucida Console&quot;" text-anchor="middle" font-size="16px" width="259px" fill="#7f7f7f" font-weight="400" align="middle" lineHeight="125%" anchor="middle" family="&quot;Lucida Console&quot;" size="16px" weight="400" font-style="" opacity="1" y="-0.46778711484591895" transform="rotate(0)"><tspan id="SvgjsTspan1306" dy="20" x="129.5"><tspan id="SvgjsTspan1307" style="">mov dword ptr [cnt], eax</tspan></tspan></text></g></g></svg>