<svg id="SvgjsSvg1155" width="401.5882352941177" height="222.45938375350147" xmlns="http://www.w3.org/2000/svg" version="1.1" xmlns:xlink="http://www.w3.org/1999/xlink" xmlns:svgjs="http://svgjs.com/svgjs"><defs id="SvgjsDefs1156"><pattern patternUnits="userSpaceOnUse" id="pattern_mark_0" width="300" height="300"><text x="150" y="100" fill="rgba(229,229,229,0.8)" font-size="18" transform="rotate(-45, 150, 150)" style="dominant-baseline: middle; text-anchor: middle;"></text></pattern><pattern patternUnits="userSpaceOnUse" id="pattern_mark_1" width="300" height="300"><text x="150" y="200" fill="rgba(229,229,229,0.8)" font-size="18" transform="rotate(-45, 150, 150)" style="dominant-baseline: middle; text-anchor: middle;"></text></pattern><marker id="SvgjsMarker1204" markerWidth="13" markerHeight="9" refX="9.5" refY="4.5" viewBox="0 0 13 9" orient="auto" markerUnits="userSpaceOnUse" stroke-dasharray="0,0"><path id="SvgjsPath1205" d="M0,0 L13,4.5 L0,9 L0,0" fill="#323232" stroke="#323232" stroke-width="1"></path></marker></defs><rect id="svgbackgroundid" width="401.5882352941177" height="222.45938375350147" fill="#ffffff"></rect><rect id="SvgjsRect1158" width="401.5882352941177" height="222.45938375350147" fill="url(#pattern_mark_0)"></rect><rect id="SvgjsRect1159" width="401.5882352941177" height="222.45938375350147" fill="url(#pattern_mark_1)"></rect><g id="SvgjsG1160" transform="translate(25,25)"><path id="SvgjsPath1161" d="M 0 4Q 0 0 4 0L 147 0Q 151 0 151 4L 151 97.21190476190498Q 151 101.21190476190498 147 101.21190476190498L 4 101.21190476190498Q 0 101.21190476190498 0 97.21190476190498Z" stroke="rgba(33,41,48,1)" stroke-width="1.5" fill-opacity="1" fill="#dbf5f5"></path><g id="SvgjsG1162"><text id="SvgjsText1163" font-family="微软雅黑" text-anchor="middle" font-size="24px" width="131px" fill="#323232" font-weight="400" align="top" lineHeight="125%" anchor="middle" family="微软雅黑" size="24px" weight="400" font-style="" opacity="1" y="-6" transform="rotate(0)"><tspan id="SvgjsTspan1164" dy="30" x="75.5"><tspan id="SvgjsTspan1165" style="">CPU</tspan></tspan></text></g></g><g id="SvgjsG1166" transform="translate(88.85714285714289,68.95238095238113)"><path id="SvgjsPath1167" d="M 0 4Q 0 0 4 0L 70.77976190476221 0Q 74.77976190476221 0 74.77976190476221 4L 74.77976190476221 38Q 74.77976190476221 42 70.77976190476221 42L 4 42Q 0 42 0 38Z" stroke="rgba(33,41,48,1)" stroke-width="1.5" fill-opacity="1" fill="#e5f6da"></path><g id="SvgjsG1168"><text id="SvgjsText1169" font-family="微软雅黑" text-anchor="middle" font-size="20px" width="55px" fill="#e74f4c" font-weight="400" align="middle" lineHeight="125%" anchor="middle" family="微软雅黑" size="20px" weight="400" font-style="" opacity="1" y="3" transform="rotate(0)"><tspan id="SvgjsTspan1170" dy="25" x="37.5"><tspan id="SvgjsTspan1171" style="">20</tspan></tspan></text></g></g><g id="SvgjsG1172" transform="translate(31.714285714285666,69.95238095238113)"><path id="SvgjsPath1173" d="M 0 0L 55.71428571428578 0L 55.71428571428578 40L 0 40Z" stroke="none" fill="none"></path><g id="SvgjsG1174"><text id="SvgjsText1175" font-family="微软雅黑" text-anchor="middle" font-size="20px" width="56px" fill="#323232" font-weight="400" align="middle" lineHeight="125%" anchor="middle" family="微软雅黑" size="20px" weight="400" font-style="" opacity="1" y="2" transform="rotate(0)"><tspan id="SvgjsTspan1176" dy="25" x="28"><tspan id="SvgjsTspan1177" style="">eax</tspan></tspan></text></g></g><g id="SvgjsG1178" transform="translate(225.58823529411768,25)"><path id="SvgjsPath1179" d="M 0 4Q 0 0 4 0L 147 0Q 151 0 151 4L 151 97.21190476190498Q 151 101.21190476190498 147 101.21190476190498L 4 101.21190476190498Q 0 101.21190476190498 0 97.21190476190498Z" stroke="rgba(33,41,48,1)" stroke-width="1.5" fill-opacity="1" fill="#fcf9ea"></path><g id="SvgjsG1180"><text id="SvgjsText1181" font-family="微软雅黑" text-anchor="middle" font-size="24px" width="131px" fill="#323232" font-weight="400" align="top" lineHeight="125%" anchor="middle" family="微软雅黑" size="24px" weight="400" font-style="" opacity="1" y="-6" transform="rotate(0)"><tspan id="SvgjsTspan1182" dy="30" x="75.5"><tspan id="SvgjsTspan1183" style="">内存</tspan></tspan></text></g></g><g id="SvgjsG1184" transform="translate(290.58823529411757,69.95238095238108)"><path id="SvgjsPath1185" d="M 0 4Q 0 0 4 0L 70.77976190476221 0Q 74.77976190476221 0 74.77976190476221 4L 74.77976190476221 38Q 74.77976190476221 42 70.77976190476221 42L 4 42Q 0 42 0 38Z" stroke="rgba(33,41,48,1)" stroke-width="1.5" fill-opacity="1" fill="#fbeada"></path><g id="SvgjsG1186"><text id="SvgjsText1187" font-family="微软雅黑" text-anchor="middle" font-size="20px" width="55px" fill="#323232" font-weight="400" align="middle" lineHeight="125%" anchor="middle" family="微软雅黑" size="20px" weight="400" font-style="" opacity="1" y="3" transform="rotate(0)"><tspan id="SvgjsTspan1188" dy="25" x="37.5"><tspan id="SvgjsTspan1189" style="">20</tspan></tspan></text></g></g><g id="SvgjsG1190" transform="translate(233.44537815126023,70.95238095238108)"><path id="SvgjsPath1191" d="M 0 0L 55.71428571428578 0L 55.71428571428578 40L 0 40Z" stroke="none" fill="none"></path><g id="SvgjsG1192"><text id="SvgjsText1193" font-family="微软雅黑" text-anchor="middle" font-size="20px" width="56px" fill="#323232" font-weight="400" align="middle" lineHeight="125%" anchor="middle" family="微软雅黑" size="20px" weight="400" font-style="" opacity="1" y="2" transform="rotate(0)"><tspan id="SvgjsTspan1194" dy="25" x="28"><tspan id="SvgjsTspan1195" style="">cnt</tspan></tspan></text></g></g><g id="SvgjsG1196" transform="translate(110.99999999999994,157.45938375350147)"><path id="SvgjsPath1197" d="M 0 0L 239.41176470588232 0L 239.41176470588232 40L 0 40Z" stroke="none" fill="none"></path><g id="SvgjsG1198"><text id="SvgjsText1199" font-family="&quot;Lucida Console&quot;" text-anchor="middle" font-size="16px" width="240px" fill="#7f7f7f" font-weight="400" align="middle" lineHeight="125%" anchor="middle" family="&quot;Lucida Console&quot;" size="16px" weight="400" font-style="" opacity="1" y="6" transform="rotate(0)"><tspan id="SvgjsTspan1200" dy="20" x="120"><tspan id="SvgjsTspan1201" style="">mov eax, dword ptr [cnt]</tspan></tspan></text></g></g><g id="SvgjsG1202"><path id="SvgjsPath1203" d="M327.588473112345 112.5932227643807C 299.2352941176471 172.39495798319325 169.23529411764707 171.80672268907563 127.99703731844602 114.00845797394192" stroke="#323232" stroke-width="1.5" fill="none" marker-end="url(#SvgjsMarker1204)"></path></g></svg>