<svg id="SvgjsSvg1211" width="676" height="292.32503255208337" xmlns="http://www.w3.org/2000/svg" version="1.1" xmlns:xlink="http://www.w3.org/1999/xlink" xmlns:svgjs="http://svgjs.com/svgjs"><defs id="SvgjsDefs1212"><pattern patternUnits="userSpaceOnUse" id="pattern_mark_0" width="300" height="300"><text x="150" y="100" fill="rgba(229,229,229,0.8)" font-size="18" transform="rotate(-45, 150, 150)" style="dominant-baseline: middle; text-anchor: middle;"></text></pattern><pattern patternUnits="userSpaceOnUse" id="pattern_mark_1" width="300" height="300"><text x="150" y="200" fill="rgba(229,229,229,0.8)" font-size="18" transform="rotate(-45, 150, 150)" style="dominant-baseline: middle; text-anchor: middle;"></text></pattern><marker id="SvgjsMarker1258" markerWidth="13" markerHeight="9" refX="9.5" refY="4.5" viewBox="0 0 13 9" orient="auto" markerUnits="userSpaceOnUse" stroke-dasharray="0,0"><path id="SvgjsPath1259" d="M0,0 L13,4.5 L0,9 L0,0" fill="#323232" stroke="#323232" stroke-width="1"></path></marker><marker id="SvgjsMarker1278" markerWidth="13" markerHeight="9" refX="9.5" refY="4.5" viewBox="0 0 13 9" orient="auto" markerUnits="userSpaceOnUse" stroke-dasharray="0,0"><path id="SvgjsPath1279" d="M0,0 L13,4.5 L0,9 L0,0" fill="#000000" stroke="#000000" stroke-width="1"></path></marker></defs><rect id="svgbackgroundid" width="676" height="292.32503255208337" fill="#ffffff"></rect><rect id="SvgjsRect1214" width="676" height="292.32503255208337" fill="url(#pattern_mark_0)"></rect><rect id="SvgjsRect1215" width="676" height="292.32503255208337" fill="url(#pattern_mark_1)"></rect><g id="SvgjsG1216"><path id="SvgjsPath1217" d="M25.004169464111385 180.90003267923996L337.8041706085206 180.90003267923996L337.8041706085206 180.90003267923996L650.6041717529295 180.90003267923996" stroke-dasharray="8,5" stroke="#323232" stroke-width="1.5" fill="none"></path></g><g id="SvgjsG1218" transform="translate(273.5041694641113,227.33337020874026)"><path id="SvgjsPath1219" d="M 24 0L 153.33333333333334 0C 161.8181818181818 0 161.8181818181818 40 153.33333333333334 40L 24 40C -8 40 -8 0 24 0ZM 153.33333333333334 0C 145 0 145 40 153.33333333333334 40C 145 40 145 0 153.33333333333334 0" stroke="rgba(33,41,48,1)" stroke-width="1.5" fill-opacity="1" fill="#e5f6da"></path><g id="SvgjsG1220"><text id="SvgjsText1221" font-family="微软雅黑" text-anchor="middle" font-size="13px" width="128px" fill="#323232" font-weight="400" align="middle" lineHeight="125%" anchor="middle" family="微软雅黑" size="13px" weight="400" font-style="" opacity="1" y="9.375" transform="rotate(0)"></text></g></g><g id="SvgjsG1222" transform="translate(280.93750381469727,227.33337020874026)"><path id="SvgjsPath1223" d="M 0 0L 63.5 0L 63.5 40L 0 40Z" stroke="none" fill="none"></path><g id="SvgjsG1224"><text id="SvgjsText1225" font-family="微软雅黑" text-anchor="middle" font-size="16px" width="64px" fill="#323232" font-weight="400" align="middle" lineHeight="125%" anchor="middle" family="微软雅黑" size="16px" weight="400" font-style="" opacity="1" y="6" transform="rotate(0)"><tspan id="SvgjsTspan1226" dy="20" x="32"><tspan id="SvgjsTspan1227" style="">读端</tspan></tspan></text></g></g><g id="SvgjsG1228" transform="translate(368.93750381469727,227.33337020874026)"><path id="SvgjsPath1229" d="M 0 0L 59.033330281575445 0L 59.033330281575445 40L 0 40Z" stroke="none" fill="none"></path><g id="SvgjsG1230"><text id="SvgjsText1231" font-family="微软雅黑" text-anchor="middle" font-size="16px" width="60px" fill="#323232" font-weight="400" align="middle" lineHeight="125%" anchor="middle" family="微软雅黑" size="16px" weight="400" font-style="" opacity="1" y="6" transform="rotate(0)"><tspan id="SvgjsTspan1232" dy="20" x="30"><tspan id="SvgjsTspan1233" style="">写端</tspan></tspan></text></g></g><g id="SvgjsG1234" transform="translate(313.62083562215173,190.83337020874026)"><path id="SvgjsPath1235" d="M 0 0L 79.7666676839192 0L 79.7666676839192 40L 0 40Z" stroke="none" fill="none"></path><g id="SvgjsG1236"><text id="SvgjsText1237" font-family="微软雅黑" text-anchor="middle" font-size="16px" width="80px" fill="#323232" font-weight="400" align="middle" lineHeight="125%" anchor="middle" family="微软雅黑" size="16px" weight="400" font-style="" opacity="1" y="6" transform="rotate(0)"><tspan id="SvgjsTspan1238" dy="20" x="40"><tspan id="SvgjsTspan1239" style="">管道</tspan></tspan></text></g></g><g id="SvgjsG1240" transform="translate(117.27083841959643,72.15583779155352)"><path id="SvgjsPath1241" d="M 0 4Q 0 0 4 0L 196.7333310445149 0Q 200.7333310445149 0 200.7333310445149 4L 200.7333310445149 76.8441952691561Q 200.7333310445149 80.8441952691561 196.7333310445149 80.8441952691561L 4 80.8441952691561Q 0 80.8441952691561 0 76.8441952691561Z" stroke="rgba(33,41,48,1)" stroke-width="1.5" fill-opacity="1" fill="#fbeada"></path><g id="SvgjsG1242"><text id="SvgjsText1243" font-family="微软雅黑" text-anchor="start" font-size="16px" width="181px" fill="#323232" font-weight="400" align="middle" lineHeight="200%" anchor="start" family="微软雅黑" size="16px" weight="400" font-style="" opacity="1" y="14.422097634578051" transform="rotate(0)"></text></g></g><g id="SvgjsG1244" transform="translate(130.5708351135254,87.50003687540689)"><path id="SvgjsPath1245" d="M 0 4Q 0 0 4 0L 75.76666768391925 0Q 79.76666768391925 0 79.76666768391925 4L 79.76666768391925 46.15579710144936Q 79.76666768391925 50.15579710144936 75.76666768391925 50.15579710144936L 4 50.15579710144936Q 0 50.15579710144936 0 46.15579710144936Z" stroke="rgba(33,41,48,1)" stroke-width="1.5" fill-opacity="1" fill="#fcf9ea"></path><g id="SvgjsG1246"><text id="SvgjsText1247" font-family="微软雅黑" text-anchor="middle" font-size="16px" width="60px" fill="#323232" font-weight="400" align="middle" lineHeight="125%" anchor="middle" family="微软雅黑" size="16px" weight="400" font-style="" opacity="1" y="11.07789855072468" transform="rotate(0)"><tspan id="SvgjsTspan1248" dy="20" x="40"><tspan id="SvgjsTspan1249" style="">fd[0]</tspan></tspan></text></g></g><g id="SvgjsG1250" transform="translate(226.00416946411133,87.50003687540689)"><path id="SvgjsPath1251" d="M 0 4Q 0 0 4 0L 75.89999898274732 0Q 79.89999898274732 0 79.89999898274732 4L 79.89999898274732 46.155797101449366Q 79.89999898274732 50.155797101449366 75.89999898274732 50.155797101449366L 4 50.155797101449366Q 0 50.155797101449366 0 46.155797101449366Z" stroke="rgba(33,41,48,1)" stroke-width="1.5" fill-opacity="1" fill="#fadcdb"></path><g id="SvgjsG1252"><text id="SvgjsText1253" font-family="微软雅黑" text-anchor="middle" font-size="16px" width="60px" fill="#323232" font-weight="400" align="middle" lineHeight="125%" anchor="middle" family="微软雅黑" size="16px" weight="400" font-style="" opacity="1" y="11.077898550724683" transform="rotate(0)"><tspan id="SvgjsTspan1254" dy="20" x="40"><tspan id="SvgjsTspan1255" style="">fd[1]</tspan></tspan></text></g></g><g id="SvgjsG1256"><path id="SvgjsPath1257" d="M272.7585052193425 247.2528417412683C 211.43750508626306 244.20003255208337 170.454168955485 197.8534612506605 170.60148982845556 140.35181182550176" stroke="#323232" stroke-width="1.5" fill="none" marker-end="url(#SvgjsMarker1258)"></path></g><g id="SvgjsG1260" transform="translate(388.1041717529298,72.15583779155352)"><path id="SvgjsPath1261" d="M 0 4Q 0 0 4 0L 196.7333310445149 0Q 200.7333310445149 0 200.7333310445149 4L 200.7333310445149 76.8441952691561Q 200.7333310445149 80.8441952691561 196.7333310445149 80.8441952691561L 4 80.8441952691561Q 0 80.8441952691561 0 76.8441952691561Z" stroke="rgba(33,41,48,1)" stroke-width="1.5" fill-opacity="1" fill="#fff1e3"></path><g id="SvgjsG1262"><text id="SvgjsText1263" font-family="微软雅黑" text-anchor="start" font-size="16px" width="181px" fill="#323232" font-weight="400" align="middle" lineHeight="200%" anchor="start" family="微软雅黑" size="16px" weight="400" font-style="" opacity="1" y="14.422097634578051" transform="rotate(0)"></text></g></g><g id="SvgjsG1264" transform="translate(401.40416844685876,87.50003687540689)"><path id="SvgjsPath1265" d="M 0 4Q 0 0 4 0L 75.76666768391925 0Q 79.76666768391925 0 79.76666768391925 4L 79.76666768391925 46.15579710144936Q 79.76666768391925 50.15579710144936 75.76666768391925 50.15579710144936L 4 50.15579710144936Q 0 50.15579710144936 0 46.15579710144936Z" stroke="rgba(33,41,48,1)" stroke-width="1.5" fill-opacity="1" fill="#fadcdb"></path><g id="SvgjsG1266"><text id="SvgjsText1267" font-family="微软雅黑" text-anchor="middle" font-size="16px" width="60px" fill="#323232" font-weight="400" align="middle" lineHeight="125%" anchor="middle" family="微软雅黑" size="16px" weight="400" font-style="" opacity="1" y="11.07789855072468" transform="rotate(0)"><tspan id="SvgjsTspan1268" dy="20" x="40"><tspan id="SvgjsTspan1269" style="">fd[0]</tspan></tspan></text></g></g><g id="SvgjsG1270" transform="translate(496.8375027974447,87.50003687540689)"><path id="SvgjsPath1271" d="M 0 4Q 0 0 4 0L 75.89999898274732 0Q 79.89999898274732 0 79.89999898274732 4L 79.89999898274732 46.155797101449366Q 79.89999898274732 50.155797101449366 75.89999898274732 50.155797101449366L 4 50.155797101449366Q 0 50.155797101449366 0 46.155797101449366Z" stroke="rgba(33,41,48,1)" stroke-width="1.5" fill-opacity="1" fill="#e6f7f7"></path><g id="SvgjsG1272"><text id="SvgjsText1273" font-family="微软雅黑" text-anchor="middle" font-size="16px" width="60px" fill="#323232" font-weight="400" align="middle" lineHeight="125%" anchor="middle" family="微软雅黑" size="16px" weight="400" font-style="" opacity="1" y="11.077898550724683" transform="rotate(0)"><tspan id="SvgjsTspan1274" dy="20" x="40"><tspan id="SvgjsTspan1275" style="">fd[1]</tspan></tspan></text></g></g><g id="SvgjsG1276"><path id="SvgjsPath1277" d="M536.7451461025203 138.40463699066046C 536.7875022888184 199.45580709066635 492.27083841959643 241.70003255208337 430.6466957461414 246.97314190507404" stroke="#000000" stroke-width="1.5" fill="none" marker-end="url(#SvgjsMarker1278)"></path></g><g id="SvgjsG1280"><path id="SvgjsPath1281" d="M354.77083841959643 25.00003687540695L354.77083841959643 96.26670138041183L354.77083841959643 96.26670138041183L354.77083841959643 167.5333658854167" stroke-dasharray="8,5" stroke="#323232" stroke-width="1.5" fill="none"></path></g><g id="SvgjsG1282" transform="translate(177.75417009989428,25.00003687540695)"><path id="SvgjsPath1283" d="M 0 0L 79.7666676839192 0L 79.7666676839192 40L 0 40Z" stroke="none" fill="none"></path><g id="SvgjsG1284"><text id="SvgjsText1285" font-family="微软雅黑" text-anchor="middle" font-size="16px" width="80px" fill="#323232" font-weight="400" align="middle" lineHeight="125%" anchor="middle" family="微软雅黑" size="16px" weight="400" font-style="" opacity="1" y="6" transform="rotate(0)"><tspan id="SvgjsTspan1286" dy="20" x="40"><tspan id="SvgjsTspan1287" style="">父进程</tspan></tspan></text></g></g><g id="SvgjsG1288" transform="translate(448.58750343322765,25.00003687540695)"><path id="SvgjsPath1289" d="M 0 0L 79.7666676839192 0L 79.7666676839192 40L 0 40Z" stroke="none" fill="none"></path><g id="SvgjsG1290"><text id="SvgjsText1291" font-family="微软雅黑" text-anchor="middle" font-size="16px" width="80px" fill="#323232" font-weight="400" align="middle" lineHeight="125%" anchor="middle" family="微软雅黑" size="16px" weight="400" font-style="" opacity="1" y="6" transform="rotate(0)"><tspan id="SvgjsTspan1292" dy="20" x="40"><tspan id="SvgjsTspan1293" style="">子进程</tspan></tspan></text></g></g><g id="SvgjsG1294" transform="translate(226.0708351135254,124.66669972737625)"><path id="SvgjsPath1295" d="M 0 0L 79.7666676839192 0L 79.7666676839192 40L 0 40Z" stroke="none" fill="none"></path><g id="SvgjsG1296"><text id="SvgjsText1297" font-family="微软雅黑" text-anchor="middle" font-size="16px" width="80px" fill="#323232" font-weight="400" align="middle" lineHeight="125%" anchor="middle" family="微软雅黑" size="16px" weight="400" font-style="" opacity="1" y="6" transform="rotate(0)"><tspan id="SvgjsTspan1298" dy="20" x="40"><tspan id="SvgjsTspan1299" style="">close</tspan></tspan></text></g></g><g id="SvgjsG1300" transform="translate(401.40416844685876,124.66669972737625)"><path id="SvgjsPath1301" d="M 0 0L 79.7666676839192 0L 79.7666676839192 40L 0 40Z" stroke="none" fill="none"></path><g id="SvgjsG1302"><text id="SvgjsText1303" font-family="微软雅黑" text-anchor="middle" font-size="16px" width="80px" fill="#323232" font-weight="400" align="middle" lineHeight="125%" anchor="middle" family="微软雅黑" size="16px" weight="400" font-style="" opacity="1" y="6" transform="rotate(0)"><tspan id="SvgjsTspan1304" dy="20" x="40"><tspan id="SvgjsTspan1305" style="">close</tspan></tspan></text></g></g></svg>