<svg id="SvgjsSvg1187" width="513.515625" height="346" xmlns="http://www.w3.org/2000/svg" version="1.1" xmlns:xlink="http://www.w3.org/1999/xlink" xmlns:svgjs="http://svgjs.com/svgjs"><defs id="SvgjsDefs1188"><pattern patternUnits="userSpaceOnUse" id="pattern_mark_0" width="300" height="300"><text x="150" y="100" fill="rgba(229,229,229,0.8)" font-size="18" transform="rotate(-45, 150, 150)" style="dominant-baseline: middle; text-anchor: middle;"></text></pattern><pattern patternUnits="userSpaceOnUse" id="pattern_mark_1" width="300" height="300"><text x="150" y="200" fill="rgba(229,229,229,0.8)" font-size="18" transform="rotate(-45, 150, 150)" style="dominant-baseline: middle; text-anchor: middle;"></text></pattern><marker id="SvgjsMarker1230" markerWidth="13" markerHeight="9" refX="9.5" refY="4.5" viewBox="0 0 13 9" orient="auto" markerUnits="userSpaceOnUse" stroke-dasharray="0,0"><path id="SvgjsPath1231" d="M0,0 L13,4.5 L0,9 L0,0" fill="#323232" stroke="#323232" stroke-width="1"></path></marker><marker id="SvgjsMarker1238" markerWidth="13" markerHeight="9" refX="9.5" refY="4.5" viewBox="0 0 13 9" orient="auto" markerUnits="userSpaceOnUse" stroke-dasharray="0,0"><path id="SvgjsPath1239" d="M0,0 L13,4.5 L0,9 L0,0" fill="#323232" stroke="#323232" stroke-width="1"></path></marker><marker id="SvgjsMarker1252" markerWidth="13" markerHeight="9" refX="9.5" refY="4.5" viewBox="0 0 13 9" orient="auto" markerUnits="userSpaceOnUse" stroke-dasharray="0,0"><path id="SvgjsPath1253" d="M0,0 L13,4.5 L0,9 L0,0" fill="#323232" stroke="#323232" stroke-width="1"></path></marker></defs><rect id="svgbackgroundid" width="513.515625" height="346" fill="#ffffff"></rect><rect id="SvgjsRect1190" width="513.515625" height="346" fill="url(#pattern_mark_0)"></rect><rect id="SvgjsRect1191" width="513.515625" height="346" fill="url(#pattern_mark_1)"></rect><g id="SvgjsG1192" transform="translate(25.01339285714289,189.01264880952374)"><path id="SvgjsPath1193" d="M 0 4Q 0 0 4 0L 136.5 0Q 140.5 0 140.5 4L 140.5 128.19047619047626Q 140.5 132.19047619047626 136.5 132.19047619047626L 4 132.19047619047626Q 0 132.19047619047626 0 128.19047619047626Z" stroke="rgba(33,41,48,1)" stroke-width="1.5" fill-opacity="1" fill="#f6edc1"></path><g id="SvgjsG1194"><text id="SvgjsText1195" font-family="微软雅黑" text-anchor="middle" font-size="20px" width="121px" fill="#323232" font-weight="400" align="top" lineHeight="200%" anchor="middle" family="微软雅黑" size="20px" weight="400" font-style="" opacity="1" y="-13" transform="rotate(0)"><tspan id="SvgjsTspan1196" dy="40" x="70.5"><tspan id="SvgjsTspan1197" style="">子进程</tspan></tspan></text></g></g><g id="SvgjsG1198" transform="translate(25.01339285714289,25.012648809523967)"><path id="SvgjsPath1199" d="M 0 4Q 0 0 4 0L 136.5 0Q 140.5 0 140.5 4L 140.5 128.1904761904762Q 140.5 132.1904761904762 136.5 132.1904761904762L 4 132.1904761904762Q 0 132.1904761904762 0 128.1904761904762Z" stroke="rgba(33,41,48,1)" stroke-width="1.5" fill-opacity="1" fill="#f8d5b5"></path><g id="SvgjsG1200"><text id="SvgjsText1201" font-family="微软雅黑" text-anchor="middle" font-size="20px" width="121px" fill="#323232" font-weight="400" align="top" lineHeight="200%" anchor="middle" family="微软雅黑" size="20px" weight="400" font-style="" opacity="1" y="-13" transform="rotate(0)"><tspan id="SvgjsTspan1202" dy="40" x="70.5"><tspan id="SvgjsTspan1203" style="">父进程</tspan></tspan></text></g></g><g id="SvgjsG1204" transform="translate(45.07291666666674,81.86979166666663)"><path id="SvgjsPath1205" d="M 0 4Q 0 0 4 0L 96.38095238095241 0Q 100.38095238095241 0 100.38095238095241 4L 100.38095238095241 50Q 100.38095238095241 54 96.38095238095241 54L 4 54Q 0 54 0 50Z" stroke="rgba(33,41,48,1)" stroke-width="1.5" fill-opacity="1" fill="#fbeada"></path><g id="SvgjsG1206"><text id="SvgjsText1207" font-family="微软雅黑" text-anchor="middle" font-size="20px" width="81px" fill="#323232" font-weight="400" align="middle" lineHeight="125%" anchor="middle" family="微软雅黑" size="20px" weight="400" font-style="" opacity="1" y="9" transform="rotate(0)"><tspan id="SvgjsTspan1208" dy="25" x="50.5"><tspan id="SvgjsTspan1209" style="">num</tspan></tspan></text></g></g><g id="SvgjsG1210" transform="translate(45.07291666666663,245.86979166666652)"><path id="SvgjsPath1211" d="M 0 4Q 0 0 4 0L 96.38095238095241 0Q 100.38095238095241 0 100.38095238095241 4L 100.38095238095241 50Q 100.38095238095241 54 96.38095238095241 54L 4 54Q 0 54 0 50Z" stroke="rgba(33,41,48,1)" stroke-width="1.5" fill-opacity="1" fill="#fcf9ea"></path><g id="SvgjsG1212"><text id="SvgjsText1213" font-family="微软雅黑" text-anchor="middle" font-size="20px" width="81px" fill="#323232" font-weight="400" align="middle" lineHeight="125%" anchor="middle" family="微软雅黑" size="20px" weight="400" font-style="" opacity="1" y="9" transform="rotate(0)"><tspan id="SvgjsTspan1214" dy="25" x="50.5"><tspan id="SvgjsTspan1215" style="">num</tspan></tspan></text></g></g><g id="SvgjsG1216" transform="translate(303.01339285714334,25.01264880952408)"><path id="SvgjsPath1217" d="M 0 4Q 0 0 4 0L 136.5 0Q 140.5 0 140.5 4L 140.5 292.1904761904759Q 140.5 296.1904761904759 136.5 296.1904761904759L 4 296.1904761904759Q 0 296.1904761904759 0 292.1904761904759Z" stroke="rgba(33,41,48,1)" stroke-width="1.5" fill-opacity="1" fill="#b7eaeb"></path><g id="SvgjsG1218"><text id="SvgjsText1219" font-family="微软雅黑" text-anchor="middle" font-size="20px" width="121px" fill="#323232" font-weight="400" align="top" lineHeight="200%" anchor="middle" family="微软雅黑" size="20px" weight="400" font-style="" opacity="1" y="-13" transform="rotate(0)"><tspan id="SvgjsTspan1220" dy="40" x="70.5"><tspan id="SvgjsTspan1221" style="">物理内存</tspan></tspan></text></g></g><g id="SvgjsG1222" transform="translate(322.40625000000045,81.86979166666663)"><path id="SvgjsPath1223" d="M 0 4Q 0 0 4 0L 96.38095238095241 0Q 100.38095238095241 0 100.38095238095241 4L 100.38095238095241 50Q 100.38095238095241 54 96.38095238095241 54L 4 54Q 0 54 0 50Z" stroke="rgba(33,41,48,1)" stroke-width="1.5" fill-opacity="1" fill="#dbf5f5"></path><g id="SvgjsG1224"><text id="SvgjsText1225" font-family="微软雅黑" text-anchor="middle" font-size="20px" width="81px" fill="#e74f4c" font-weight="400" align="middle" lineHeight="125%" anchor="middle" family="微软雅黑" size="20px" weight="400" font-style="" opacity="1" y="9" transform="rotate(0)"><tspan id="SvgjsTspan1226" dy="25" x="50.5"><tspan id="SvgjsTspan1227" style="">10</tspan></tspan></text></g></g><g id="SvgjsG1228"><path id="SvgjsPath1229" d="M146.20386904761915 108.86979166666663L319.7062500000004 108.86979166666663" stroke="#323232" stroke-width="1.5" fill="none" marker-end="url(#SvgjsMarker1230)"></path><rect id="SvgjsRect1232" width="20" height="25" x="219.48501190476216" y="96.36979166666663" fill="#ffffff"></rect><text id="SvgjsText1233" font-family="微软雅黑" text-anchor="middle" font-size="20px" width="20px" fill="#323232" font-weight="400" align="top" lineHeight="25px" anchor="middle" family="微软雅黑" size="20px" weight="400" font-style="" opacity="1" y="90.86979166666663" transform="rotate(0)"><tspan id="SvgjsTspan1234" dy="25" x="229.48501190476216"><tspan id="SvgjsTspan1235" style="">读</tspan></tspan></text></g><g id="SvgjsG1236"><path id="SvgjsPath1237" d="M146.20386904761904 272.8697916666665L319.7062500000004 272.8697916666665" stroke="#323232" stroke-width="1.5" fill="none" marker-end="url(#SvgjsMarker1238)"></path><rect id="SvgjsRect1240" width="20" height="25" x="219.4850119047621" y="260.3697916666665" fill="#ffffff"></rect><text id="SvgjsText1241" font-family="微软雅黑" text-anchor="middle" font-size="20px" width="20px" fill="#323232" font-weight="400" align="top" lineHeight="25px" anchor="middle" family="微软雅黑" size="20px" weight="400" font-style="" opacity="1" y="254.86979166666652" transform="rotate(0)"><tspan id="SvgjsTspan1242" dy="25" x="229.4850119047621"><tspan id="SvgjsTspan1243" style="">写</tspan></tspan></text></g><g id="SvgjsG1244" transform="translate(322.40625000000045,245.86979166666652)"><path id="SvgjsPath1245" d="M 0 4Q 0 0 4 0L 96.38095238095241 0Q 100.38095238095241 0 100.38095238095241 4L 100.38095238095241 50Q 100.38095238095241 54 96.38095238095241 54L 4 54Q 0 54 0 50Z" stroke="rgba(33,41,48,1)" stroke-width="1.5" fill-opacity="1" fill="#dbf5f5"></path><g id="SvgjsG1246"><text id="SvgjsText1247" font-family="微软雅黑" text-anchor="middle" font-size="20px" width="81px" fill="#e74f4c" font-weight="400" align="middle" lineHeight="125%" anchor="middle" family="微软雅黑" size="20px" weight="400" font-style="" opacity="1" y="9" transform="rotate(0)"><tspan id="SvgjsTspan1248" dy="25" x="50.5"><tspan id="SvgjsTspan1249" style="">20</tspan></tspan></text></g></g><g id="SvgjsG1250"><path id="SvgjsPath1251" d="M423.5243243647308 109.00817945887138C 488.38720238095266 108.86979166666652 488.38720238095266 272.8697916666664 425.4408415225532 272.37159561472936" stroke-dasharray="8,5" stroke="#323232" stroke-width="1.5" fill="none" marker-end="url(#SvgjsMarker1252)"></path><rect id="SvgjsRect1254" width="32" height="20" x="456.41104752162494" y="180.82481563419995" fill="#ffffff"></rect><text id="SvgjsText1255" font-family="微软雅黑" text-anchor="middle" font-size="16px" width="32px" fill="#323232" font-weight="400" align="top" lineHeight="20px" anchor="middle" family="微软雅黑" size="16px" weight="400" font-style="" opacity="1" y="176.82481563419995" transform="rotate(0)"><tspan id="SvgjsTspan1256" dy="20" x="472.41104752162494"><tspan id="SvgjsTspan1257" style="">拷贝</tspan></tspan></text></g></svg>