<svg id="SvgjsSvg1130" width="469" height="346" xmlns="http://www.w3.org/2000/svg" version="1.1" xmlns:xlink="http://www.w3.org/1999/xlink" xmlns:svgjs="http://svgjs.com/svgjs"><defs id="SvgjsDefs1131"><pattern patternUnits="userSpaceOnUse" id="pattern_mark_0" width="300" height="300"><text x="150" y="100" fill="rgba(229,229,229,0.8)" font-size="18" transform="rotate(-45, 150, 150)" style="dominant-baseline: middle; text-anchor: middle;"></text></pattern><pattern patternUnits="userSpaceOnUse" id="pattern_mark_1" width="300" height="300"><text x="150" y="200" fill="rgba(229,229,229,0.8)" font-size="18" transform="rotate(-45, 150, 150)" style="dominant-baseline: middle; text-anchor: middle;"></text></pattern><marker id="SvgjsMarker1173" markerWidth="13" markerHeight="9" refX="9.5" refY="4.5" viewBox="0 0 13 9" orient="auto" markerUnits="userSpaceOnUse" stroke-dasharray="0,0"><path id="SvgjsPath1174" d="M0,0 L13,4.5 L0,9 L0,0" fill="#323232" stroke="#323232" stroke-width="1"></path></marker><marker id="SvgjsMarker1181" markerWidth="13" markerHeight="9" refX="9.5" refY="4.5" viewBox="0 0 13 9" orient="auto" markerUnits="userSpaceOnUse" stroke-dasharray="0,0"><path id="SvgjsPath1182" d="M0,0 L13,4.5 L0,9 L0,0" fill="#323232" stroke="#323232" stroke-width="1"></path></marker></defs><rect id="svgbackgroundid" width="469" height="346" fill="#ffffff"></rect><rect id="SvgjsRect1133" width="469" height="346" fill="url(#pattern_mark_0)"></rect><rect id="SvgjsRect1134" width="469" height="346" fill="url(#pattern_mark_1)"></rect><g id="SvgjsG1135" transform="translate(25.01339285714289,189.01264880952374)"><path id="SvgjsPath1136" d="M 0 4Q 0 0 4 0L 136.5 0Q 140.5 0 140.5 4L 140.5 128.19047619047626Q 140.5 132.19047619047626 136.5 132.19047619047626L 4 132.19047619047626Q 0 132.19047619047626 0 128.19047619047626Z" stroke="rgba(33,41,48,1)" stroke-width="1.5" fill-opacity="1" fill="#f6edc1"></path><g id="SvgjsG1137"><text id="SvgjsText1138" font-family="微软雅黑" text-anchor="middle" font-size="20px" width="121px" fill="#323232" font-weight="400" align="top" lineHeight="200%" anchor="middle" family="微软雅黑" size="20px" weight="400" font-style="" opacity="1" y="-13" transform="rotate(0)"><tspan id="SvgjsTspan1139" dy="40" x="70.5"><tspan id="SvgjsTspan1140" style="">子进程</tspan></tspan></text></g></g><g id="SvgjsG1141" transform="translate(25.01339285714289,25.012648809523967)"><path id="SvgjsPath1142" d="M 0 4Q 0 0 4 0L 136.5 0Q 140.5 0 140.5 4L 140.5 128.1904761904762Q 140.5 132.1904761904762 136.5 132.1904761904762L 4 132.1904761904762Q 0 132.1904761904762 0 128.1904761904762Z" stroke="rgba(33,41,48,1)" stroke-width="1.5" fill-opacity="1" fill="#f8d5b5"></path><g id="SvgjsG1143"><text id="SvgjsText1144" font-family="微软雅黑" text-anchor="middle" font-size="20px" width="121px" fill="#323232" font-weight="400" align="top" lineHeight="200%" anchor="middle" family="微软雅黑" size="20px" weight="400" font-style="" opacity="1" y="-13" transform="rotate(0)"><tspan id="SvgjsTspan1145" dy="40" x="70.5"><tspan id="SvgjsTspan1146" style="">父进程</tspan></tspan></text></g></g><g id="SvgjsG1147" transform="translate(45.07291666666674,81.86979166666663)"><path id="SvgjsPath1148" d="M 0 4Q 0 0 4 0L 96.38095238095241 0Q 100.38095238095241 0 100.38095238095241 4L 100.38095238095241 50Q 100.38095238095241 54 96.38095238095241 54L 4 54Q 0 54 0 50Z" stroke="rgba(33,41,48,1)" stroke-width="1.5" fill-opacity="1" fill="#fbeada"></path><g id="SvgjsG1149"><text id="SvgjsText1150" font-family="微软雅黑" text-anchor="middle" font-size="20px" width="81px" fill="#323232" font-weight="400" align="middle" lineHeight="125%" anchor="middle" family="微软雅黑" size="20px" weight="400" font-style="" opacity="1" y="9" transform="rotate(0)"><tspan id="SvgjsTspan1151" dy="25" x="50.5"><tspan id="SvgjsTspan1152" style="">num</tspan></tspan></text></g></g><g id="SvgjsG1153" transform="translate(45.07291666666663,245.86979166666652)"><path id="SvgjsPath1154" d="M 0 4Q 0 0 4 0L 96.38095238095241 0Q 100.38095238095241 0 100.38095238095241 4L 100.38095238095241 50Q 100.38095238095241 54 96.38095238095241 54L 4 54Q 0 54 0 50Z" stroke="rgba(33,41,48,1)" stroke-width="1.5" fill-opacity="1" fill="#fcf9ea"></path><g id="SvgjsG1155"><text id="SvgjsText1156" font-family="微软雅黑" text-anchor="middle" font-size="20px" width="81px" fill="#323232" font-weight="400" align="middle" lineHeight="125%" anchor="middle" family="微软雅黑" size="20px" weight="400" font-style="" opacity="1" y="9" transform="rotate(0)"><tspan id="SvgjsTspan1157" dy="25" x="50.5"><tspan id="SvgjsTspan1158" style="">num</tspan></tspan></text></g></g><g id="SvgjsG1159" transform="translate(303.01339285714334,25.01264880952408)"><path id="SvgjsPath1160" d="M 0 4Q 0 0 4 0L 136.5 0Q 140.5 0 140.5 4L 140.5 292.1904761904759Q 140.5 296.1904761904759 136.5 296.1904761904759L 4 296.1904761904759Q 0 296.1904761904759 0 292.1904761904759Z" stroke="rgba(33,41,48,1)" stroke-width="1.5" fill-opacity="1" fill="#b7eaeb"></path><g id="SvgjsG1161"><text id="SvgjsText1162" font-family="微软雅黑" text-anchor="middle" font-size="20px" width="121px" fill="#323232" font-weight="400" align="top" lineHeight="200%" anchor="middle" family="微软雅黑" size="20px" weight="400" font-style="" opacity="1" y="-13" transform="rotate(0)"><tspan id="SvgjsTspan1163" dy="40" x="70.5"><tspan id="SvgjsTspan1164" style="">物理内存</tspan></tspan></text></g></g><g id="SvgjsG1165" transform="translate(323.73958333333394,81.86979166666663)"><path id="SvgjsPath1166" d="M 0 4Q 0 0 4 0L 96.38095238095241 0Q 100.38095238095241 0 100.38095238095241 4L 100.38095238095241 50Q 100.38095238095241 54 96.38095238095241 54L 4 54Q 0 54 0 50Z" stroke="rgba(33,41,48,1)" stroke-width="1.5" fill-opacity="1" fill="#dbf5f5"></path><g id="SvgjsG1167"><text id="SvgjsText1168" font-family="微软雅黑" text-anchor="middle" font-size="20px" width="81px" fill="#e74f4c" font-weight="400" align="middle" lineHeight="125%" anchor="middle" family="微软雅黑" size="20px" weight="400" font-style="" opacity="1" y="9" transform="rotate(0)"><tspan id="SvgjsTspan1169" dy="25" x="50.5"><tspan id="SvgjsTspan1170" style="">10</tspan></tspan></text></g></g><g id="SvgjsG1171"><path id="SvgjsPath1172" d="M146.20386904761915 108.86979166666663C 216.76815476190495 108.86979166666652 252.42529761904802 108.86979166666663 321.0395833333339 108.86979166666663" stroke="#323232" stroke-width="1.5" fill="none" marker-end="url(#SvgjsMarker1173)"></path><rect id="SvgjsRect1175" width="20" height="25" x="224.35297619047648" y="96.36979166666657" fill="#ffffff"></rect><text id="SvgjsText1176" font-family="微软雅黑" text-anchor="middle" font-size="20px" width="20px" fill="#323232" font-weight="400" align="top" lineHeight="25px" anchor="middle" family="微软雅黑" size="20px" weight="400" font-style="" opacity="1" y="90.86979166666657" transform="rotate(0)"><tspan id="SvgjsTspan1177" dy="25" x="234.35297619047648"><tspan id="SvgjsTspan1178" style="">读</tspan></tspan></text></g><g id="SvgjsG1179"><path id="SvgjsPath1180" d="M146.2012089806375 272.80668045913546C 239.0618444622412 272.8697916666664 230.63160791871132 121.86979166666663 321.54915957446724 122.09699201377816" stroke="#323232" stroke-width="1.5" fill="none" marker-end="url(#SvgjsMarker1181)"></path><rect id="SvgjsRect1183" width="20" height="25" x="222.09730404191347" y="189.41362826678568" fill="#ffffff"></rect><text id="SvgjsText1184" font-family="微软雅黑" text-anchor="middle" font-size="20px" width="20px" fill="#323232" font-weight="400" align="top" lineHeight="25px" anchor="middle" family="微软雅黑" size="20px" weight="400" font-style="" opacity="1" y="183.91362826678568" transform="rotate(0)"><tspan id="SvgjsTspan1185" dy="25" x="232.09730404191347"><tspan id="SvgjsTspan1186" style="">读</tspan></tspan></text></g></svg>