<svg id="SvgjsSvg1282" width="302.2333424886066" height="268.66666666666663" xmlns="http://www.w3.org/2000/svg" version="1.1" xmlns:xlink="http://www.w3.org/1999/xlink" xmlns:svgjs="http://svgjs.com/svgjs"><defs id="SvgjsDefs1283"><pattern patternUnits="userSpaceOnUse" id="pattern_mark_0" width="300" height="300"><text x="150" y="100" fill="rgba(229,229,229,0.8)" font-size="18" transform="rotate(-45, 150, 150)" style="dominant-baseline: middle; text-anchor: middle;"></text></pattern><pattern patternUnits="userSpaceOnUse" id="pattern_mark_1" width="300" height="300"><text x="150" y="200" fill="rgba(229,229,229,0.8)" font-size="18" transform="rotate(-45, 150, 150)" style="dominant-baseline: middle; text-anchor: middle;"></text></pattern><marker id="SvgjsMarker1307" markerWidth="13" markerHeight="9" refX="9.5" refY="4.5" viewBox="0 0 13 9" orient="auto" markerUnits="userSpaceOnUse" stroke-dasharray="0,0"><path id="SvgjsPath1308" d="M0,0 L13,4.5 L0,9 L0,0" fill="#323232" stroke="#323232" stroke-width="1"></path></marker><marker id="SvgjsMarker1311" markerWidth="13" markerHeight="9" refX="9.5" refY="4.5" viewBox="0 0 13 9" orient="auto" markerUnits="userSpaceOnUse" stroke-dasharray="0,0"><path id="SvgjsPath1312" d="M0,0 L13,4.5 L0,9 L0,0" fill="#a6a6a6" stroke="#a6a6a6" stroke-width="1"></path></marker></defs><rect id="svgbackgroundid" width="302.2333424886066" height="268.66666666666663" fill="#ffffff"></rect><rect id="SvgjsRect1285" width="302.2333424886066" height="268.66666666666663" fill="url(#pattern_mark_0)"></rect><rect id="SvgjsRect1286" width="302.2333424886066" height="268.66666666666663" fill="url(#pattern_mark_1)"></rect><g id="SvgjsG1287" transform="translate(25,112.33333333333333)"><path id="SvgjsPath1288" d="M 14.666666666666666 0L 85.73334248860654 0C 105.2888980441621 0 105.2888980441621 44 85.73334248860654 44L 14.666666666666666 44C -4.888888888888888 44 -4.888888888888888 0 14.666666666666666 0Z" stroke="rgba(33,41,48,1)" stroke-width="2" fill-opacity="1" fill="#f6edc1"></path><g id="SvgjsG1289"><text id="SvgjsText1290" font-family="微软雅黑" text-anchor="middle" font-size="20px" width="81px" fill="#323232" font-weight="400" align="middle" lineHeight="125%" anchor="middle" family="微软雅黑" size="20px" weight="400" font-style="" opacity="1" y="4" transform="rotate(0)"><tspan id="SvgjsTspan1291" dy="25" x="50.5"><tspan id="SvgjsTspan1292" style="">thread1</tspan></tspan></text></g></g><g id="SvgjsG1293" transform="translate(181.23334248860658,112.33333333333333)"><path id="SvgjsPath1294" d="M 0 4Q 0 0 4 0L 92 0Q 96 0 96 4L 96 40Q 96 44 92 44L 4 44Q 0 44 0 40Z" stroke="rgba(33,41,48,1)" stroke-width="1.5" fill-opacity="1" fill="#fcf9ea"></path><g id="SvgjsG1295"><text id="SvgjsText1296" font-family="微软雅黑" text-anchor="middle" font-size="20px" width="76px" fill="#323232" font-weight="400" align="middle" lineHeight="125%" anchor="middle" family="微软雅黑" size="20px" weight="400" font-style="" opacity="1" y="4" transform="rotate(0)"><tspan id="SvgjsTspan1297" dy="25" x="48"><tspan id="SvgjsTspan1298" style="">mutex1</tspan></tspan></text></g></g><g id="SvgjsG1299" transform="translate(103.7333424886067,25)"><path id="SvgjsPath1300" d="M 0 0L 100 0L 100 40L 0 40Z" stroke="none" fill="none"></path><g id="SvgjsG1301"><text id="SvgjsText1302" font-family="微软雅黑" text-anchor="middle" font-size="20px" width="100px" fill="#323232" font-weight="400" align="middle" lineHeight="125%" anchor="middle" family="微软雅黑" size="20px" weight="400" font-style="" opacity="1" y="2" transform="rotate(0)"><tspan id="SvgjsTspan1303" dy="25" x="50"><tspan id="SvgjsTspan1304" style="">持有</tspan></tspan></text></g></g><g id="SvgjsG1305"><path id="SvgjsPath1306" d="M75.39635455263647 111.35279945461342C 75.2000045776366 50.71999816894534 229.23334248860658 50.71999816894534 228.70319755610683 109.68589186078954" stroke="#323232" stroke-width="1.5" fill="none" marker-end="url(#SvgjsMarker1307)"></path></g><g id="SvgjsG1309"><path id="SvgjsPath1310" d="M75.39635455263647 157.31386721205325C 75.2000045776366 217.9466684977213 229.23334248860658 217.9466684977213 228.70319755610683 158.9807748058771" stroke-dasharray="8,5" stroke="#a6a6a6" stroke-width="1.5" fill="none" marker-end="url(#SvgjsMarker1311)"></path></g><g id="SvgjsG1313" transform="translate(103.7333424886067,203.66666666666663)"><path id="SvgjsPath1314" d="M 0 0L 100 0L 100 40L 0 40Z" stroke="none" fill="none"></path><g id="SvgjsG1315"><text id="SvgjsText1316" font-family="微软雅黑" text-anchor="middle" font-size="20px" width="100px" fill="#323232" font-weight="400" align="middle" lineHeight="125%" anchor="middle" family="微软雅黑" size="20px" weight="400" font-style="" opacity="1" y="2" transform="rotate(0)"><tspan id="SvgjsTspan1317" dy="25" x="50"><tspan id="SvgjsTspan1318" style="">申请</tspan></tspan></text></g></g></svg>