<svg id="SvgjsSvg1065" width="463.48735163762024" height="265.312504695012" xmlns="http://www.w3.org/2000/svg" version="1.1" xmlns:xlink="http://www.w3.org/1999/xlink" xmlns:svgjs="http://svgjs.com/svgjs"><defs id="SvgjsDefs1066"><pattern patternUnits="userSpaceOnUse" id="pattern_mark_0" width="300" height="300"><text x="150" y="100" fill="rgba(229,229,229,0.8)" font-size="18" transform="rotate(-45, 150, 150)" style="dominant-baseline: middle; text-anchor: middle;"></text></pattern><pattern patternUnits="userSpaceOnUse" id="pattern_mark_1" width="300" height="300"><text x="150" y="200" fill="rgba(229,229,229,0.8)" font-size="18" transform="rotate(-45, 150, 150)" style="dominant-baseline: middle; text-anchor: middle;"></text></pattern><marker id="SvgjsMarker1132" markerWidth="13" markerHeight="9" refX="9.5" refY="4.5" viewBox="0 0 13 9" orient="auto" markerUnits="userSpaceOnUse" stroke-dasharray="0,0"><path id="SvgjsPath1133" d="M0,0 L13,4.5 L0,9 L0,0" fill="#323232" stroke="#323232" stroke-width="1"></path></marker></defs><rect id="svgbackgroundid" width="463.48735163762024" height="265.312504695012" fill="#ffffff"></rect><rect id="SvgjsRect1068" width="463.48735163762024" height="265.312504695012" fill="url(#pattern_mark_0)"></rect><rect id="SvgjsRect1069" width="463.48735163762024" height="265.312504695012" fill="url(#pattern_mark_1)"></rect><g id="SvgjsG1070" transform="translate(25.00804320659381,153.4696196212817)"><path id="SvgjsPath1071" d="M 0 4Q 0 0 4 0L 115.95027134669124 0Q 119.95027134669124 0 119.95027134669124 4L 119.95027134669124 59.838072686410555Q 119.95027134669124 63.838072686410555 115.95027134669124 63.838072686410555L 4 63.838072686410555Q 0 63.838072686410555 0 59.838072686410555Z" stroke="rgba(0,0,0,1)" stroke-width="1.5" fill-opacity="1" fill="#fbeada"></path><g id="SvgjsG1072"><text id="SvgjsText1073" font-family="微软雅黑" text-anchor="middle" font-size="22px" width="100px" fill="#323232" font-weight="400" align="middle" lineHeight="125%" anchor="middle" family="微软雅黑" size="22px" weight="400" font-style="" opacity="1" y="12.169036343205278" transform="rotate(0)"><tspan id="SvgjsTspan1074" dy="27.5" x="60"><tspan id="SvgjsTspan1075" style="">select</tspan></tspan></text></g></g><g id="SvgjsG1076" transform="translate(168.77887184491533,153.4696196212817)"><path id="SvgjsPath1077" d="M 0 4Q 0 0 4 0L 59.74834826976803 0Q 63.74834826976803 0 63.74834826976803 4L 63.74834826976803 59.838072686410555Q 63.74834826976803 63.838072686410555 59.74834826976803 63.838072686410555L 4 63.838072686410555Q 0 63.838072686410555 0 59.838072686410555Z" stroke="rgba(0,0,0,1)" stroke-width="1.5" fill-opacity="1" fill="#e5f6da"></path><g id="SvgjsG1078"><text id="SvgjsText1079" font-family="微软雅黑" text-anchor="middle" font-size="20px" width="44px" fill="#323232" font-weight="400" align="middle" lineHeight="125%" anchor="middle" family="微软雅黑" size="20px" weight="400" font-style="" opacity="1" y="13.919036343205278" transform="rotate(0)"><tspan id="SvgjsTspan1080" dy="25" x="32"><tspan id="SvgjsTspan1081" style="">fd</tspan></tspan></text></g></g><g id="SvgjsG1082" transform="translate(237.11700817554436,153.4696196212817)"><path id="SvgjsPath1083" d="M 0 4Q 0 0 4 0L 60.10411750053731 0Q 64.10411750053731 0 64.10411750053731 4L 64.10411750053731 59.838072686410555Q 64.10411750053731 63.838072686410555 60.10411750053731 63.838072686410555L 4 63.838072686410555Q 0 63.838072686410555 0 59.838072686410555Z" stroke="rgba(0,0,0,1)" stroke-width="1.5" fill-opacity="1" fill="#fadcdb"></path><g id="SvgjsG1084"><text id="SvgjsText1085" font-family="微软雅黑" text-anchor="middle" font-size="20px" width="45px" fill="#323232" font-weight="400" align="middle" lineHeight="125%" anchor="middle" family="微软雅黑" size="20px" weight="400" font-style="" opacity="1" y="13.919036343205278" transform="rotate(0)"><tspan id="SvgjsTspan1086" dy="25" x="32.5"><tspan id="SvgjsTspan1087" style="">fd</tspan></tspan></text></g></g><g id="SvgjsG1088" transform="translate(241.732392790929,217.30769230769226)"><path id="SvgjsPath1089" d="M 0 0L 51.74834826976826 0L 51.74834826976826 23.07692307692315L 0 23.07692307692315Z" stroke="none" fill="none"></path><g id="SvgjsG1090"><text id="SvgjsText1091" font-family="微软雅黑" text-anchor="middle" font-size="16px" width="52px" fill="#323232" font-weight="400" align="middle" lineHeight="125%" anchor="middle" family="微软雅黑" size="16px" weight="400" font-style="" opacity="1" y="-2.4615384615384244" transform="rotate(0)"><tspan id="SvgjsTspan1092" dy="20" x="26"><tspan id="SvgjsTspan1093" style="">链接</tspan></tspan></text></g></g><g id="SvgjsG1094" transform="translate(176.16348722953046,217.30769230769226)"><path id="SvgjsPath1095" d="M 0 0L 51.74834826976826 0L 51.74834826976826 23.076923076923208L 0 23.076923076923208Z" stroke="none" fill="none"></path><g id="SvgjsG1096"><text id="SvgjsText1097" font-family="微软雅黑" text-anchor="middle" font-size="16px" width="52px" fill="#323232" font-weight="400" align="middle" lineHeight="125%" anchor="middle" family="微软雅黑" size="16px" weight="400" font-style="" opacity="1" y="-2.461538461538396" transform="rotate(0)"><tspan id="SvgjsTspan1098" dy="20" x="26"><tspan id="SvgjsTspan1099" style="">服务器</tspan></tspan></text></g></g><g id="SvgjsG1100" transform="translate(305.81091373694267,153.4696196212817)"><path id="SvgjsPath1101" d="M 0 4Q 0 0 4 0L 60.10411750053731 0Q 64.10411750053731 0 64.10411750053731 4L 64.10411750053731 59.838072686410555Q 64.10411750053731 63.838072686410555 60.10411750053731 63.838072686410555L 4 63.838072686410555Q 0 63.838072686410555 0 59.838072686410555Z" stroke="rgba(0,0,0,1)" stroke-width="1.5" fill-opacity="1" fill="#fadcdb"></path><g id="SvgjsG1102"><text id="SvgjsText1103" font-family="微软雅黑" text-anchor="middle" font-size="20px" width="45px" fill="#323232" font-weight="400" align="middle" lineHeight="125%" anchor="middle" family="微软雅黑" size="20px" weight="400" font-style="" opacity="1" y="13.919036343205278" transform="rotate(0)"><tspan id="SvgjsTspan1104" dy="25" x="32.5"><tspan id="SvgjsTspan1105" style="">fd</tspan></tspan></text></g></g><g id="SvgjsG1106" transform="translate(310.4262983523273,217.30769230769226)"><path id="SvgjsPath1107" d="M 0 0L 51.74834826976826 0L 51.74834826976826 23.07692307692315L 0 23.07692307692315Z" stroke="none" fill="none"></path><g id="SvgjsG1108"><text id="SvgjsText1109" font-family="微软雅黑" text-anchor="middle" font-size="16px" width="52px" fill="#323232" font-weight="400" align="middle" lineHeight="125%" anchor="middle" family="微软雅黑" size="16px" weight="400" font-style="" opacity="1" y="-2.4615384615384244" transform="rotate(0)"><tspan id="SvgjsTspan1110" dy="20" x="26"><tspan id="SvgjsTspan1111" style="">链接</tspan></tspan></text></g></g><g id="SvgjsG1112" transform="translate(374.504819298341,153.4696196212817)"><path id="SvgjsPath1113" d="M 0 4Q 0 0 4 0L 60.10411750053731 0Q 64.10411750053731 0 64.10411750053731 4L 64.10411750053731 59.838072686410555Q 64.10411750053731 63.838072686410555 60.10411750053731 63.838072686410555L 4 63.838072686410555Q 0 63.838072686410555 0 59.838072686410555Z" stroke="rgba(0,0,0,1)" stroke-width="1.5" fill-opacity="1" fill="#fadcdb"></path><g id="SvgjsG1114"><text id="SvgjsText1115" font-family="微软雅黑" text-anchor="middle" font-size="20px" width="45px" fill="#323232" font-weight="400" align="middle" lineHeight="125%" anchor="middle" family="微软雅黑" size="20px" weight="400" font-style="" opacity="1" y="13.919036343205278" transform="rotate(0)"><tspan id="SvgjsTspan1116" dy="25" x="32.5"><tspan id="SvgjsTspan1117" style="">fd</tspan></tspan></text></g></g><g id="SvgjsG1118" transform="translate(381.7611850836338,217.30769230769226)"><path id="SvgjsPath1119" d="M 0 0L 51.74834826976826 0L 51.74834826976826 23.07692307692315L 0 23.07692307692315Z" stroke="none" fill="none"></path><g id="SvgjsG1120"><text id="SvgjsText1121" font-family="微软雅黑" text-anchor="middle" font-size="16px" width="52px" fill="#323232" font-weight="400" align="middle" lineHeight="125%" anchor="middle" family="微软雅黑" size="16px" weight="400" font-style="" opacity="1" y="-2.4615384615384244" transform="rotate(0)"><tspan id="SvgjsTspan1122" dy="20" x="26"><tspan id="SvgjsTspan1123" style="">链接</tspan></tspan></text></g></g><g id="SvgjsG1124" transform="translate(152.43349704525406,25)"><path id="SvgjsPath1125" d="M 0 4Q 0 0 4 0L 92.43909786909069 0Q 96.43909786909069 0 96.43909786909069 4L 96.43909786909069 44.46153846153845Q 96.43909786909069 48.46153846153845 92.43909786909069 48.46153846153845L 4 48.46153846153845Q 0 48.46153846153845 0 44.46153846153845Z" stroke="rgba(0,0,0,1)" stroke-width="1.5" fill-opacity="1" fill="#fadded"></path><g id="SvgjsG1126"><text id="SvgjsText1127" font-family="微软雅黑" text-anchor="middle" font-size="20px" width="77px" fill="#323232" font-weight="400" align="middle" lineHeight="125%" anchor="middle" family="微软雅黑" size="20px" weight="400" font-style="" opacity="1" y="6.230769230769226" transform="rotate(0)"><tspan id="SvgjsTspan1128" dy="25" x="48.5"><tspan id="SvgjsTspan1129" style="">客户端</tspan></tspan></text></g></g><g id="SvgjsG1130"><path id="SvgjsPath1131" d="M200.65304597979946 74.21153846153845L200.65304597979946 150.76961962128172" stroke="#323232" stroke-width="1.5" fill="none" marker-end="url(#SvgjsMarker1132)"></path><rect id="SvgjsRect1134" width="32" height="20" x="184.65304597979946" y="101.75064603531445" fill="#ffffff"></rect><text id="SvgjsText1135" font-family="微软雅黑" text-anchor="middle" font-size="16px" width="32px" fill="#323232" font-weight="400" align="top" lineHeight="20px" anchor="middle" family="微软雅黑" size="16px" weight="400" font-style="" opacity="1" y="97.75064603531445" transform="rotate(0)"><tspan id="SvgjsTspan1136" dy="20" x="200.65304597979946"><tspan id="SvgjsTspan1137" style="">连接</tspan></tspan></text></g></svg>