<svg id="SvgjsSvg1568" width="444.125" height="431.3749008178711" xmlns="http://www.w3.org/2000/svg" version="1.1" xmlns:xlink="http://www.w3.org/1999/xlink" xmlns:svgjs="http://svgjs.com/svgjs"><defs id="SvgjsDefs1569"><pattern patternUnits="userSpaceOnUse" id="pattern_mark_0" width="300" height="300"><text x="150" y="100" fill="rgba(229,229,229,0.8)" font-size="18" transform="rotate(-45, 150, 150)" style="dominant-baseline: middle; text-anchor: middle;"></text></pattern><pattern patternUnits="userSpaceOnUse" id="pattern_mark_1" width="300" height="300"><text x="150" y="200" fill="rgba(229,229,229,0.8)" font-size="18" transform="rotate(-45, 150, 150)" style="dominant-baseline: middle; text-anchor: middle;"></text></pattern><marker id="SvgjsMarker1593" markerWidth="13" markerHeight="9" refX="9.5" refY="4.5" viewBox="0 0 13 9" orient="auto" markerUnits="userSpaceOnUse" stroke-dasharray="0,0"><path id="SvgjsPath1594" d="M0,0 L13,4.5 L0,9 L0,0" fill="#323232" stroke="#323232" stroke-width="1"></path></marker><marker id="SvgjsMarker1601" markerWidth="13" markerHeight="9" refX="9.5" refY="4.5" viewBox="0 0 13 9" orient="auto" markerUnits="userSpaceOnUse" stroke-dasharray="0,0"><path id="SvgjsPath1602" d="M0,0 L13,4.5 L0,9 L0,0" fill="#323232" stroke="#323232" stroke-width="1"></path></marker><marker id="SvgjsMarker1615" markerWidth="13" markerHeight="9" refX="9.5" refY="4.5" viewBox="0 0 13 9" orient="auto" markerUnits="userSpaceOnUse" stroke-dasharray="0,0"><path id="SvgjsPath1616" d="M0,0 L13,4.5 L0,9 L0,0" fill="#323232" stroke="#323232" stroke-width="1"></path></marker><marker id="SvgjsMarker1641" markerWidth="13" markerHeight="9" refX="9.5" refY="4.5" viewBox="0 0 13 9" orient="auto" markerUnits="userSpaceOnUse" stroke-dasharray="0,0"><path id="SvgjsPath1642" d="M0,0 L13,4.5 L0,9 L0,0" fill="#323232" stroke="#323232" stroke-width="1"></path></marker><marker id="SvgjsMarker1649" markerWidth="13" markerHeight="9" refX="9.5" refY="4.5" viewBox="0 0 13 9" orient="auto" markerUnits="userSpaceOnUse" stroke-dasharray="0,0"><path id="SvgjsPath1650" d="M0,0 L13,4.5 L0,9 L0,0" fill="#323232" stroke="#323232" stroke-width="1"></path></marker></defs><rect id="svgbackgroundid" width="444.125" height="431.3749008178711" fill="#ffffff"></rect><rect id="SvgjsRect1571" width="444.125" height="431.3749008178711" fill="url(#pattern_mark_0)"></rect><rect id="SvgjsRect1572" width="444.125" height="431.3749008178711" fill="url(#pattern_mark_1)"></rect><g id="SvgjsG1573" transform="translate(25.000770409404254,86.53066925582974)"><path id="SvgjsPath1574" d="M 0 4Q 0 0 4 0L 111.62423504016328 0Q 115.62423504016328 0 115.62423504016328 4L 115.62423504016328 58.6138045414591Q 115.62423504016328 62.6138045414591 111.62423504016328 62.6138045414591L 4 62.6138045414591Q 0 62.6138045414591 0 58.6138045414591Z" stroke="rgba(0,0,0,1)" stroke-width="1.5" fill-opacity="1" fill="#fbeada"></path><g id="SvgjsG1575"><text id="SvgjsText1576" font-family="微软雅黑" text-anchor="middle" font-size="20px" width="96px" fill="#323232" font-weight="400" align="middle" lineHeight="125%" anchor="middle" family="微软雅黑" size="20px" weight="400" font-style="" opacity="1" y="13.306902270729552" transform="rotate(0)"><tspan id="SvgjsTspan1577" dy="25" x="58"><tspan id="SvgjsTspan1578" style="">aio_read</tspan></tspan></text></g></g><g id="SvgjsG1579" transform="translate(303.12577040940425,86.53066925582974)"><path id="SvgjsPath1580" d="M 0 4Q 0 0 4 0L 111.62423504016328 0Q 115.62423504016328 0 115.62423504016328 4L 115.62423504016328 58.6138045414591Q 115.62423504016328 62.6138045414591 111.62423504016328 62.6138045414591L 4 62.6138045414591Q 0 62.6138045414591 0 58.6138045414591Z" stroke="rgba(0,0,0,1)" stroke-width="1.5" fill-opacity="1" fill="#fcf9ea"></path><g id="SvgjsG1581"><text id="SvgjsText1582" font-family="微软雅黑" text-anchor="middle" font-size="20px" width="96px" fill="#323232" font-weight="400" align="middle" lineHeight="125%" anchor="middle" family="微软雅黑" size="20px" weight="400" font-style="" opacity="1" y="13.306902270729552" transform="rotate(0)"><tspan id="SvgjsTspan1583" dy="25" x="58"><tspan id="SvgjsTspan1584" style="">未就绪</tspan></tspan></text></g></g><g id="SvgjsG1585" transform="translate(303.12577040940414,343.3878121129728)"><path id="SvgjsPath1586" d="M 0 4Q 0 0 4 0L 111.62423504016328 0Q 115.62423504016328 0 115.62423504016328 4L 115.62423504016328 58.61380454145908Q 115.62423504016328 62.61380454145908 111.62423504016328 62.61380454145908L 4 62.61380454145908Q 0 62.61380454145908 0 58.61380454145908Z" stroke="rgba(0,0,0,1)" stroke-width="1.5" fill-opacity="1" fill="#dbf5f5"></path><g id="SvgjsG1587"><text id="SvgjsText1588" font-family="微软雅黑" text-anchor="middle" font-size="20px" width="96px" fill="#323232" font-weight="400" align="middle" lineHeight="125%" anchor="middle" family="微软雅黑" size="20px" weight="400" font-style="" opacity="1" y="13.306902270729541" transform="rotate(0)"><tspan id="SvgjsTspan1589" dy="25" x="58"><tspan id="SvgjsTspan1590" style="">拷贝完成</tspan></tspan></text></g></g><g id="SvgjsG1591"><path id="SvgjsPath1592" d="M141.25000544956754 101.060082571847L222.00000544956754 101.060082571847L222.00000544956754 101.060082571847L300.8000054495675 101.060082571847" stroke="#323232" stroke-width="1.5" fill="none" marker-end="url(#SvgjsMarker1593)"></path><rect id="SvgjsRect1595" width="64" height="20" x="184.14173421151986" y="91.060082571847" fill="#ffffff"></rect><text id="SvgjsText1596" font-family="微软雅黑" text-anchor="middle" font-size="16px" width="64px" fill="#323232" font-weight="400" align="top" lineHeight="20px" anchor="middle" family="微软雅黑" size="16px" weight="400" font-style="" opacity="1" y="87.060082571847" transform="rotate(0)"><tspan id="SvgjsTspan1597" dy="20" x="216.14173421151986"><tspan id="SvgjsTspan1598" style="">系统调用</tspan></tspan></text></g><g id="SvgjsG1599"><path id="SvgjsPath1600" d="M302.87500544956754 135.435082571847L221.75000544956754 135.435082571847L221.75000544956754 135.435082571847L142.57500544956758 135.435082571847" stroke="#323232" stroke-width="1.5" fill="none" marker-end="url(#SvgjsMarker1601)"></path><rect id="SvgjsRect1603" width="32" height="20" x="202.25305231990842" y="125.435082571847" fill="#ffffff"></rect><text id="SvgjsText1604" font-family="微软雅黑" text-anchor="middle" font-size="16px" width="32px" fill="#323232" font-weight="400" align="top" lineHeight="20px" anchor="middle" family="微软雅黑" size="16px" weight="400" font-style="" opacity="1" y="121.435082571847" transform="rotate(0)"><tspan id="SvgjsTspan1605" dy="20" x="218.25305231990842"><tspan id="SvgjsTspan1606" style="">返回</tspan></tspan></text></g><g id="SvgjsG1607" transform="translate(25.00077040940414,343.3878121129728)"><path id="SvgjsPath1608" d="M 0 4Q 0 0 4 0L 111.62423504016328 0Q 115.62423504016328 0 115.62423504016328 4L 115.62423504016328 58.6138045414591Q 115.62423504016328 62.6138045414591 111.62423504016328 62.6138045414591L 4 62.6138045414591Q 0 62.6138045414591 0 58.6138045414591Z" stroke="rgba(0,0,0,1)" stroke-width="1.5" fill-opacity="1" fill="#fadcdb"></path><g id="SvgjsG1609"><text id="SvgjsText1610" font-family="微软雅黑" text-anchor="middle" font-size="20px" width="96px" fill="#323232" font-weight="400" align="middle" lineHeight="125%" anchor="middle" family="微软雅黑" size="20px" weight="400" font-style="" opacity="1" y="13.306902270729552" transform="rotate(0)"><tspan id="SvgjsTspan1611" dy="25" x="58"><tspan id="SvgjsTspan1612" style="">应用进程</tspan></tspan></text></g></g><g id="SvgjsG1613"><path id="SvgjsPath1614" d="M302.37577040940414 374.6947143837024L221.87538792948578 374.6947143837024L221.87538792948578 374.6947143837024L143.32500544956747 374.6947143837024" stroke="#323232" stroke-width="1.5" fill="none" marker-end="url(#SvgjsMarker1615)"></path><rect id="SvgjsRect1617" width="64" height="20" x="186.41328520873202" y="364.6947143837024" fill="#ffffff"></rect><text id="SvgjsText1618" font-family="微软雅黑" text-anchor="middle" font-size="16px" width="64px" fill="#323232" font-weight="400" align="top" lineHeight="20px" anchor="middle" family="微软雅黑" size="16px" weight="400" font-style="" opacity="1" y="360.6947143837024" transform="rotate(0)"><tspan id="SvgjsTspan1619" dy="20" x="218.41328520873202"><tspan id="SvgjsTspan1620" style="">信号通知</tspan></tspan></text></g><g id="SvgjsG1621" transform="translate(32.812887929485896,25.001616654431672)"><path id="SvgjsPath1622" d="M 0 0L 100 0L 100 40L 0 40Z" stroke="none" fill="none"></path><g id="SvgjsG1623"><text id="SvgjsText1624" font-family="微软雅黑" text-anchor="middle" font-size="20px" width="100px" fill="#323232" font-weight="400" align="middle" lineHeight="125%" anchor="middle" family="微软雅黑" size="20px" weight="400" font-style="" opacity="1" y="2" transform="rotate(0)"><tspan id="SvgjsTspan1625" dy="25" x="50"><tspan id="SvgjsTspan1626" style="">用户</tspan></tspan></text></g></g><g id="SvgjsG1627" transform="translate(310.9378879294859,25.001616654431672)"><path id="SvgjsPath1628" d="M 0 0L 100 0L 100 40L 0 40Z" stroke="none" fill="none"></path><g id="SvgjsG1629"><text id="SvgjsText1630" font-family="微软雅黑" text-anchor="middle" font-size="20px" width="100px" fill="#323232" font-weight="400" align="middle" lineHeight="125%" anchor="middle" family="微软雅黑" size="20px" weight="400" font-style="" opacity="1" y="2" transform="rotate(0)"><tspan id="SvgjsTspan1631" dy="25" x="50"><tspan id="SvgjsTspan1632" style="">内核</tspan></tspan></text></g></g><g id="SvgjsG1633" transform="translate(303.12577040940414,214.9592406844013)"><path id="SvgjsPath1634" d="M 0 4Q 0 0 4 0L 111.62423504016328 0Q 115.62423504016328 0 115.62423504016328 4L 115.62423504016328 58.61380454145908Q 115.62423504016328 62.61380454145908 111.62423504016328 62.61380454145908L 4 62.61380454145908Q 0 62.61380454145908 0 58.61380454145908Z" stroke="rgba(0,0,0,1)" stroke-width="1.5" fill-opacity="1" fill="#e5f6da"></path><g id="SvgjsG1635"><text id="SvgjsText1636" font-family="微软雅黑" text-anchor="middle" font-size="20px" width="96px" fill="#323232" font-weight="400" align="middle" lineHeight="125%" anchor="middle" family="微软雅黑" size="20px" weight="400" font-style="" opacity="1" y="13.306902270729541" transform="rotate(0)"><tspan id="SvgjsTspan1637" dy="25" x="58"><tspan id="SvgjsTspan1638" style="">资源就绪</tspan></tspan></text></g></g><g id="SvgjsG1639"><path id="SvgjsPath1640" d="M360.9378879294859 149.89447379728884L360.9378879294859 182.05185724084507L360.9378879294858 182.05185724084507L360.9378879294858 212.2592406844013" stroke-dasharray="8,5" stroke="#323232" stroke-width="1.5" fill="none" marker-end="url(#SvgjsMarker1641)"></path><rect id="SvgjsRect1643" width="64" height="20" x="328.93788792948584" y="166.19291283015315" fill="#ffffff"></rect><text id="SvgjsText1644" font-family="微软雅黑" text-anchor="middle" font-size="16px" width="64px" fill="#323232" font-weight="400" align="top" lineHeight="20px" anchor="middle" family="微软雅黑" size="16px" weight="400" font-style="" opacity="1" y="162.19291283015315" transform="rotate(0)"><tspan id="SvgjsTspan1645" dy="20" x="360.93788792948584"><tspan id="SvgjsTspan1646" style="">等待数据</tspan></tspan></text></g><g id="SvgjsG1647"><path id="SvgjsPath1648" d="M360.9378879294858 278.32304522586037L360.9378879294858 310.4804286694166L360.9378879294858 310.4804286694166L360.9378879294858 340.6878121129728" stroke-dasharray="8,5" stroke="#323232" stroke-width="1.5" fill="none" marker-end="url(#SvgjsMarker1649)"></path><rect id="SvgjsRect1651" width="32" height="20" x="344.9378879294858" y="293.80927269887275" fill="#ffffff"></rect><text id="SvgjsText1652" font-family="微软雅黑" text-anchor="middle" font-size="16px" width="32px" fill="#323232" font-weight="400" align="top" lineHeight="20px" anchor="middle" family="微软雅黑" size="16px" weight="400" font-style="" opacity="1" y="289.80927269887275" transform="rotate(0)"><tspan id="SvgjsTspan1653" dy="20" x="360.9378879294858"><tspan id="SvgjsTspan1654" style="">拷贝</tspan></tspan></text></g></svg>