<svg id="SvgjsSvg1213" width="451.66666666666663" height="262.46666971842444" xmlns="http://www.w3.org/2000/svg" version="1.1" xmlns:xlink="http://www.w3.org/1999/xlink" xmlns:svgjs="http://svgjs.com/svgjs"><defs id="SvgjsDefs1214"><pattern patternUnits="userSpaceOnUse" id="pattern_mark_0" width="300" height="300"><text x="150" y="100" fill="rgba(229,229,229,0.8)" font-size="18" transform="rotate(-45, 150, 150)" style="dominant-baseline: middle; text-anchor: middle;"></text></pattern><pattern patternUnits="userSpaceOnUse" id="pattern_mark_1" width="300" height="300"><text x="150" y="200" fill="rgba(229,229,229,0.8)" font-size="18" transform="rotate(-45, 150, 150)" style="dominant-baseline: middle; text-anchor: middle;"></text></pattern><marker id="SvgjsMarker1244" markerWidth="13" markerHeight="9" refX="9.5" refY="4.5" viewBox="0 0 13 9" orient="auto" markerUnits="userSpaceOnUse" stroke-dasharray="0,0"><path id="SvgjsPath1245" d="M0,0 L13,4.5 L0,9 L0,0" fill="#323232" stroke="#323232" stroke-width="1"></path></marker><marker id="SvgjsMarker1248" markerWidth="13" markerHeight="9" refX="9.5" refY="4.5" viewBox="0 0 13 9" orient="auto" markerUnits="userSpaceOnUse" stroke-dasharray="0,0"><path id="SvgjsPath1249" d="M0,0 L13,4.5 L0,9 L0,0" fill="#a6a6a6" stroke="#a6a6a6" stroke-width="1"></path></marker><marker id="SvgjsMarker1252" markerWidth="13" markerHeight="9" refX="9.5" refY="4.5" viewBox="0 0 13 9" orient="auto" markerUnits="userSpaceOnUse" stroke-dasharray="0,0"><path id="SvgjsPath1253" d="M0,0 L13,4.5 L0,9 L0,0" fill="#a6a6a6" stroke="#a6a6a6" stroke-width="1"></path></marker><marker id="SvgjsMarker1256" markerWidth="13" markerHeight="9" refX="9.5" refY="4.5" viewBox="0 0 13 9" orient="auto" markerUnits="userSpaceOnUse" stroke-dasharray="0,0"><path id="SvgjsPath1257" d="M0,0 L13,4.5 L0,9 L0,0" fill="#323232" stroke="#323232" stroke-width="1"></path></marker></defs><rect id="svgbackgroundid" width="451.66666666666663" height="262.46666971842444" fill="#ffffff"></rect><rect id="SvgjsRect1216" width="451.66666666666663" height="262.46666971842444" fill="url(#pattern_mark_0)"></rect><rect id="SvgjsRect1217" width="451.66666666666663" height="262.46666971842444" fill="url(#pattern_mark_1)"></rect><g id="SvgjsG1218" transform="translate(29.933324178060047,107.56666819254559)"><path id="SvgjsPath1219" d="M 14.666666666666666 0L 85.73334248860654 0C 105.2888980441621 0 105.2888980441621 44 85.73334248860654 44L 14.666666666666666 44C -4.888888888888888 44 -4.888888888888888 0 14.666666666666666 0Z" stroke="rgba(33,41,48,1)" stroke-width="2" fill-opacity="1" fill="#f6edc1"></path><g id="SvgjsG1220"><text id="SvgjsText1221" font-family="微软雅黑" text-anchor="middle" font-size="20px" width="81px" fill="#323232" font-weight="400" align="middle" lineHeight="125%" anchor="middle" family="微软雅黑" size="20px" weight="400" font-style="" opacity="1" y="4" transform="rotate(0)"><tspan id="SvgjsTspan1222" dy="25" x="50.5"><tspan id="SvgjsTspan1223" style="">thread1</tspan></tspan></text></g></g><g id="SvgjsG1224" transform="translate(310,107.56666819254559)"><path id="SvgjsPath1225" d="M 14.666666666666666 0L 85.73334248860654 0C 105.2888980441621 0 105.2888980441621 44 85.73334248860654 44L 14.666666666666666 44C -4.888888888888888 44 -4.888888888888888 0 14.666666666666666 0Z" stroke="rgba(33,41,48,1)" stroke-width="2" fill-opacity="1" fill="#b7eaeb"></path><g id="SvgjsG1226"><text id="SvgjsText1227" font-family="微软雅黑" text-anchor="middle" font-size="20px" width="81px" fill="#323232" font-weight="400" align="middle" lineHeight="125%" anchor="middle" family="微软雅黑" size="20px" weight="400" font-style="" opacity="1" y="4" transform="rotate(0)"><tspan id="SvgjsTspan1228" dy="25" x="50.5"><tspan id="SvgjsTspan1229" style="">thread2</tspan></tspan></text></g></g><g id="SvgjsG1230" transform="translate(172.16666666666663,25)"><path id="SvgjsPath1231" d="M 0 4Q 0 0 4 0L 92 0Q 96 0 96 4L 96 40Q 96 44 92 44L 4 44Q 0 44 0 40Z" stroke="rgba(33,41,48,1)" stroke-width="1.5" fill-opacity="1" fill="#fcf9ea"></path><g id="SvgjsG1232"><text id="SvgjsText1233" font-family="微软雅黑" text-anchor="middle" font-size="20px" width="76px" fill="#323232" font-weight="400" align="middle" lineHeight="125%" anchor="middle" family="微软雅黑" size="20px" weight="400" font-style="" opacity="1" y="4" transform="rotate(0)"><tspan id="SvgjsTspan1234" dy="25" x="48"><tspan id="SvgjsTspan1235" style="">mutex1</tspan></tspan></text></g></g><g id="SvgjsG1236" transform="translate(172.16666666666663,193.46666971842444)"><path id="SvgjsPath1237" d="M 0 4Q 0 0 4 0L 92 0Q 96 0 96 4L 96 40Q 96 44 92 44L 4 44Q 0 44 0 40Z" stroke="rgba(33,41,48,1)" stroke-width="1.5" fill-opacity="1" fill="#dbf5f5"></path><g id="SvgjsG1238"><text id="SvgjsText1239" font-family="微软雅黑" text-anchor="middle" font-size="20px" width="76px" fill="#323232" font-weight="400" align="middle" lineHeight="125%" anchor="middle" family="微软雅黑" size="20px" weight="400" font-style="" opacity="1" y="4" transform="rotate(0)"><tspan id="SvgjsTspan1240" dy="25" x="48"><tspan id="SvgjsTspan1241" style="">mutex2</tspan></tspan></text></g></g><g id="SvgjsG1242"><path id="SvgjsPath1243" d="M80.25451517971385 106.57403842740962C 80.13332875569665 63.496802600772895 128.09680107489396 47 169.468995293617 47.11211227867133" stroke="#323232" stroke-width="1.5" fill="none" marker-end="url(#SvgjsMarker1244)"></path></g><g id="SvgjsG1246"><path id="SvgjsPath1247" d="M80.2482148961318 152.56004685888382C 80.13332875569665 196.383353446218 127.34998141299423 215.46666971842444 169.46953156266216 215.34232249993096" stroke-dasharray="8,5" stroke="#a6a6a6" stroke-width="1.5" fill="none" marker-end="url(#SvgjsMarker1248)"></path></g><g id="SvgjsG1250"><path id="SvgjsPath1251" d="M360.0788181536194 106.57403842740962C 360.2000045776366 63.496802600772895 312.2365322584393 46.99999999999994 270.86433803971624 47.11211227867133" stroke-dasharray="8,5" stroke="#a6a6a6" stroke-width="1.5" fill="none" marker-end="url(#SvgjsMarker1252)"></path></g><g id="SvgjsG1254"><path id="SvgjsPath1255" d="M360.08511843720146 152.56004685888382C 360.2000045776366 196.383353446218 312.98335192033903 215.46666971842444 270.8638017706711 215.34232249993096" stroke="#323232" stroke-width="1.5" fill="none" marker-end="url(#SvgjsMarker1256)"></path></g><g id="SvgjsG1258" transform="translate(25,27)"><path id="SvgjsPath1259" d="M 0 0L 100 0L 100 40L 0 40Z" stroke="none" fill="none"></path><g id="SvgjsG1260"><text id="SvgjsText1261" font-family="微软雅黑" text-anchor="middle" font-size="20px" width="100px" fill="#323232" font-weight="400" align="middle" lineHeight="125%" anchor="middle" family="微软雅黑" size="20px" weight="400" font-style="" opacity="1" y="2" transform="rotate(0)"><tspan id="SvgjsTspan1262" dy="25" x="50"><tspan id="SvgjsTspan1263" style="">持有</tspan></tspan></text></g></g><g id="SvgjsG1264" transform="translate(326.66666666666663,195.46666971842444)"><path id="SvgjsPath1265" d="M 0 0L 100 0L 100 40L 0 40Z" stroke="none" fill="none"></path><g id="SvgjsG1266"><text id="SvgjsText1267" font-family="微软雅黑" text-anchor="middle" font-size="20px" width="100px" fill="#323232" font-weight="400" align="middle" lineHeight="125%" anchor="middle" family="微软雅黑" size="20px" weight="400" font-style="" opacity="1" y="2" transform="rotate(0)"><tspan id="SvgjsTspan1268" dy="25" x="50"><tspan id="SvgjsTspan1269" style="">持有</tspan></tspan></text></g></g><g id="SvgjsG1270" transform="translate(326.66666666666663,27)"><path id="SvgjsPath1271" d="M 0 0L 100 0L 100 40L 0 40Z" stroke="none" fill="none"></path><g id="SvgjsG1272"><text id="SvgjsText1273" font-family="微软雅黑" text-anchor="middle" font-size="20px" width="100px" fill="#323232" font-weight="400" align="middle" lineHeight="125%" anchor="middle" family="微软雅黑" size="20px" weight="400" font-style="" opacity="1" y="2" transform="rotate(0)"><tspan id="SvgjsTspan1274" dy="25" x="50"><tspan id="SvgjsTspan1275" style="">申请</tspan></tspan></text></g></g><g id="SvgjsG1276" transform="translate(25,195.46666971842444)"><path id="SvgjsPath1277" d="M 0 0L 100 0L 100 40L 0 40Z" stroke="none" fill="none"></path><g id="SvgjsG1278"><text id="SvgjsText1279" font-family="微软雅黑" text-anchor="middle" font-size="20px" width="100px" fill="#323232" font-weight="400" align="middle" lineHeight="125%" anchor="middle" family="微软雅黑" size="20px" weight="400" font-style="" opacity="1" y="2" transform="rotate(0)"><tspan id="SvgjsTspan1280" dy="25" x="50"><tspan id="SvgjsTspan1281" style="">申请</tspan></tspan></text></g></g></svg>