<svg id="SvgjsSvg1006" width="455.1302374026433" height="244.36666361490882" xmlns="http://www.w3.org/2000/svg" version="1.1" xmlns:xlink="http://www.w3.org/1999/xlink" xmlns:svgjs="http://svgjs.com/svgjs"><defs id="SvgjsDefs1007"><pattern patternUnits="userSpaceOnUse" id="pattern_mark_0" width="300" height="300"><text x="150" y="100" fill="rgba(229,229,229,0.8)" font-size="18" transform="rotate(-45, 150, 150)" style="dominant-baseline: middle; text-anchor: middle;"></text></pattern><pattern patternUnits="userSpaceOnUse" id="pattern_mark_1" width="300" height="300"><text x="150" y="200" fill="rgba(229,229,229,0.8)" font-size="18" transform="rotate(-45, 150, 150)" style="dominant-baseline: middle; text-anchor: middle;"></text></pattern><marker id="SvgjsMarker1025" markerWidth="13" markerHeight="9" refX="9.5" refY="4.5" viewBox="0 0 13 9" orient="auto" markerUnits="userSpaceOnUse" stroke-dasharray="0,0"><path id="SvgjsPath1026" d="M0,0 L13,4.5 L0,9 L0,0" fill="#323232" stroke="#323232" stroke-width="1"></path></marker><marker id="SvgjsMarker1035" markerWidth="13" markerHeight="9" refX="9.5" refY="4.5" viewBox="0 0 13 9" orient="auto" markerUnits="userSpaceOnUse" stroke-dasharray="0,0"><path id="SvgjsPath1036" d="M0,0 L13,4.5 L0,9 L0,0" fill="#323232" stroke="#323232" stroke-width="1"></path></marker><marker id="SvgjsMarker1045" markerWidth="13" markerHeight="9" refX="9.5" refY="4.5" viewBox="0 0 13 9" orient="auto" markerUnits="userSpaceOnUse" stroke-dasharray="0,0"><path id="SvgjsPath1046" d="M0,0 L13,4.5 L0,9 L0,0" fill="#323232" stroke="#323232" stroke-width="1"></path></marker><marker id="SvgjsMarker1067" markerWidth="13" markerHeight="9" refX="9.5" refY="4.5" viewBox="0 0 13 9" orient="auto" markerUnits="userSpaceOnUse" stroke-dasharray="0,0"><path id="SvgjsPath1068" d="M0,0 L13,4.5 L0,9 L0,0" fill="#323232" stroke="#323232" stroke-width="1"></path></marker><marker id="SvgjsMarker1071" markerWidth="13" markerHeight="9" refX="9.5" refY="4.5" viewBox="0 0 13 9" orient="auto" markerUnits="userSpaceOnUse" stroke-dasharray="0,0"><path id="SvgjsPath1072" d="M0,0 L13,4.5 L0,9 L0,0" fill="#323232" stroke="#323232" stroke-width="1"></path></marker><marker id="SvgjsMarker1075" markerWidth="13" markerHeight="9" refX="9.5" refY="4.5" viewBox="0 0 13 9" orient="auto" markerUnits="userSpaceOnUse" stroke-dasharray="0,0"><path id="SvgjsPath1076" d="M0,0 L13,4.5 L0,9 L0,0" fill="#323232" stroke="#323232" stroke-width="1"></path></marker></defs><rect id="svgbackgroundid" width="455.1302374026433" height="244.36666361490882" fill="#ffffff"></rect><rect id="SvgjsRect1009" width="455.1302374026433" height="244.36666361490882" fill="url(#pattern_mark_0)"></rect><rect id="SvgjsRect1010" width="455.1302374026433" height="244.36666361490882" fill="url(#pattern_mark_1)"></rect><g id="SvgjsG1011" transform="translate(25,35)"><path id="SvgjsPath1012" d="M 13.122221204969625 0L 90.21111212836364 0C 107.70740706832314 0 107.70740706832314 39.36666361490887 90.21111212836364 39.36666361490887L 13.122221204969625 39.36666361490887C -4.374073734989875 39.36666361490887 -4.374073734989875 0 13.122221204969625 0Z" stroke="rgba(33,41,48,1)" stroke-width="2" fill-opacity="1" fill="#fcf9ea"></path><g id="SvgjsG1013"><text id="SvgjsText1014" font-family="微软雅黑" text-anchor="middle" font-size="20px" width="84px" fill="#323232" font-weight="400" align="middle" lineHeight="125%" anchor="middle" family="微软雅黑" size="20px" weight="400" font-style="" opacity="1" y="1.6833318074544366" transform="rotate(0)"><tspan id="SvgjsTspan1015" dy="25" x="52"><tspan id="SvgjsTspan1016" style="">生产者</tspan></tspan></text></g></g><g id="SvgjsG1017" transform="translate(175.66666666666674,25)"><path id="SvgjsPath1018" d="M 0 4Q 0 0 4 0L 99.79690406930979 0Q 103.79690406930979 0 103.79690406930979 4L 103.79690406930979 190.36666361490882Q 103.79690406930979 194.36666361490882 99.79690406930979 194.36666361490882L 4 194.36666361490882Q 0 194.36666361490882 0 190.36666361490882Z" stroke="rgba(33,41,48,1)" stroke-width="2" fill-opacity="1" fill="#e5f6da"></path><g id="SvgjsG1019"><text id="SvgjsText1020" font-family="微软雅黑" text-anchor="middle" font-size="20px" width="84px" fill="#323232" font-weight="400" align="middle" lineHeight="125%" anchor="middle" family="微软雅黑" size="20px" weight="400" font-style="" opacity="1" y="79.18333180745441" transform="rotate(0)"><tspan id="SvgjsTspan1021" dy="25" x="52"><tspan id="SvgjsTspan1022" style="">缓冲区</tspan></tspan></text></g></g><g id="SvgjsG1023"><path id="SvgjsPath1024" d="M129.33333333333326 54.68333180745441L172.7166666666667 54.68333180745441" stroke="#323232" stroke-width="1.5" fill="none" marker-end="url(#SvgjsMarker1025)"></path></g><g id="SvgjsG1027" transform="translate(25,169.99999999999994)"><path id="SvgjsPath1028" d="M 13.122221204969625 0L 90.21111212836364 0C 107.70740706832314 0 107.70740706832314 39.36666361490887 90.21111212836364 39.36666361490887L 13.122221204969625 39.36666361490887C -4.374073734989875 39.36666361490887 -4.374073734989875 0 13.122221204969625 0Z" stroke="rgba(33,41,48,1)" stroke-width="2" fill-opacity="1" fill="#fcf9ea"></path><g id="SvgjsG1029"><text id="SvgjsText1030" font-family="微软雅黑" text-anchor="middle" font-size="20px" width="84px" fill="#323232" font-weight="400" align="middle" lineHeight="125%" anchor="middle" family="微软雅黑" size="20px" weight="400" font-style="" opacity="1" y="1.6833318074544366" transform="rotate(0)"><tspan id="SvgjsTspan1031" dy="25" x="52"><tspan id="SvgjsTspan1032" style="">生产者</tspan></tspan></text></g></g><g id="SvgjsG1033"><path id="SvgjsPath1034" d="M129.33333333333337 189.6833318074543L173.04999999999995 189.6833318074543" stroke="#323232" stroke-width="1.5" fill="none" marker-end="url(#SvgjsMarker1035)"></path></g><g id="SvgjsG1037" transform="translate(25,102.49999999999994)"><path id="SvgjsPath1038" d="M 13.122221204969625 0L 90.21111212836364 0C 107.70740706832314 0 107.70740706832314 39.36666361490887 90.21111212836364 39.36666361490887L 13.122221204969625 39.36666361490887C -4.374073734989875 39.36666361490887 -4.374073734989875 0 13.122221204969625 0Z" stroke="rgba(33,41,48,1)" stroke-width="2" fill-opacity="1" fill="#fcf9ea"></path><g id="SvgjsG1039"><text id="SvgjsText1040" font-family="微软雅黑" text-anchor="middle" font-size="20px" width="84px" fill="#323232" font-weight="400" align="middle" lineHeight="125%" anchor="middle" family="微软雅黑" size="20px" weight="400" font-style="" opacity="1" y="1.6833318074544366" transform="rotate(0)"><tspan id="SvgjsTspan1041" dy="25" x="52"><tspan id="SvgjsTspan1042" style="">生产者</tspan></tspan></text></g></g><g id="SvgjsG1043"><path id="SvgjsPath1044" d="M129.33333333333337 122.1833318074543L172.7166666666667 122.1833318074543" stroke="#323232" stroke-width="1.5" fill="none" marker-end="url(#SvgjsMarker1045)"></path></g><g id="SvgjsG1047" transform="translate(326.79690406931,35)"><path id="SvgjsPath1048" d="M 13.122221204969625 0L 90.21111212836364 0C 107.70740706832314 0 107.70740706832314 39.36666361490887 90.21111212836364 39.36666361490887L 13.122221204969625 39.36666361490887C -4.374073734989875 39.36666361490887 -4.374073734989875 0 13.122221204969625 0Z" stroke="rgba(33,41,48,1)" stroke-width="2" fill-opacity="1" fill="#dbf5f5"></path><g id="SvgjsG1049"><text id="SvgjsText1050" font-family="微软雅黑" text-anchor="middle" font-size="20px" width="84px" fill="#323232" font-weight="400" align="middle" lineHeight="125%" anchor="middle" family="微软雅黑" size="20px" weight="400" font-style="" opacity="1" y="1.6833318074544366" transform="rotate(0)"><tspan id="SvgjsTspan1051" dy="25" x="52"><tspan id="SvgjsTspan1052" style="">消费者</tspan></tspan></text></g></g><g id="SvgjsG1053" transform="translate(326.79690406931,169.99999999999994)"><path id="SvgjsPath1054" d="M 13.122221204969625 0L 90.21111212836364 0C 107.70740706832314 0 107.70740706832314 39.36666361490887 90.21111212836364 39.36666361490887L 13.122221204969625 39.36666361490887C -4.374073734989875 39.36666361490887 -4.374073734989875 0 13.122221204969625 0Z" stroke="rgba(33,41,48,1)" stroke-width="2" fill-opacity="1" fill="#dbf5f5"></path><g id="SvgjsG1055"><text id="SvgjsText1056" font-family="微软雅黑" text-anchor="middle" font-size="20px" width="84px" fill="#323232" font-weight="400" align="middle" lineHeight="125%" anchor="middle" family="微软雅黑" size="20px" weight="400" font-style="" opacity="1" y="1.6833318074544366" transform="rotate(0)"><tspan id="SvgjsTspan1057" dy="25" x="52"><tspan id="SvgjsTspan1058" style="">消费者</tspan></tspan></text></g></g><g id="SvgjsG1059" transform="translate(326.79690406931,102.5)"><path id="SvgjsPath1060" d="M 13.122221204969625 0L 90.21111212836364 0C 107.70740706832314 0 107.70740706832314 39.36666361490887 90.21111212836364 39.36666361490887L 13.122221204969625 39.36666361490887C -4.374073734989875 39.36666361490887 -4.374073734989875 0 13.122221204969625 0Z" stroke="rgba(33,41,48,1)" stroke-width="2" fill-opacity="1" fill="#dbf5f5"></path><g id="SvgjsG1061"><text id="SvgjsText1062" font-family="微软雅黑" text-anchor="middle" font-size="20px" width="84px" fill="#323232" font-weight="400" align="middle" lineHeight="125%" anchor="middle" family="微软雅黑" size="20px" weight="400" font-style="" opacity="1" y="1.6833318074544366" transform="rotate(0)"><tspan id="SvgjsTspan1063" dy="25" x="52"><tspan id="SvgjsTspan1064" style="">消费者</tspan></tspan></text></g></g><g id="SvgjsG1065"><path id="SvgjsPath1066" d="M280 54.68333180745441L302.89845203465495 54.68333180745441L302.89845203465495 54.68333180745441L323.84690406930997 54.68333180745441" stroke="#323232" stroke-width="1.5" fill="none" marker-end="url(#SvgjsMarker1067)"></path></g><g id="SvgjsG1069"><path id="SvgjsPath1070" d="M280.46357073597653 189.6833318074544L303.1302374026433 189.6833318074544L303.1302374026433 189.6833318074544L323.84690406930997 189.6833318074544" stroke="#323232" stroke-width="1.5" fill="none" marker-end="url(#SvgjsMarker1071)"></path></g><g id="SvgjsG1073"><path id="SvgjsPath1074" d="M280.46357073597653 122.18333180745441L323.84690406930997 122.18333180745441" stroke="#323232" stroke-width="1.5" fill="none" marker-end="url(#SvgjsMarker1075)"></path></g></svg>