<svg id="SvgjsSvg1006" width="389" height="213.3249969482422" xmlns="http://www.w3.org/2000/svg" version="1.1" xmlns:xlink="http://www.w3.org/1999/xlink" xmlns:svgjs="http://svgjs.com/svgjs"><defs id="SvgjsDefs1007"><pattern patternUnits="userSpaceOnUse" id="pattern_mark_0" width="300" height="300"><text x="150" y="100" fill="rgba(229,229,229,0.8)" font-size="18" transform="rotate(-45, 150, 150)" style="dominant-baseline: middle; text-anchor: middle;"></text></pattern><pattern patternUnits="userSpaceOnUse" id="pattern_mark_1" width="300" height="300"><text x="150" y="200" fill="rgba(229,229,229,0.8)" font-size="18" transform="rotate(-45, 150, 150)" style="dominant-baseline: middle; text-anchor: middle;"></text></pattern><marker id="SvgjsMarker1049" markerWidth="13" markerHeight="9" refX="9.5" refY="4.5" viewBox="0 0 13 9" orient="auto" markerUnits="userSpaceOnUse" stroke-dasharray="0,0"><path id="SvgjsPath1050" d="M0,0 L13,4.5 L0,9 L0,0" fill="#323232" stroke="#323232" stroke-width="1"></path></marker><marker id="SvgjsMarker1053" markerWidth="13" markerHeight="9" refX="9.5" refY="4.5" viewBox="0 0 13 9" orient="auto" markerUnits="userSpaceOnUse" stroke-dasharray="0,0"><path id="SvgjsPath1054" d="M0,0 L13,4.5 L0,9 L0,0" fill="#323232" stroke="#323232" stroke-width="1"></path></marker></defs><rect id="svgbackgroundid" width="389" height="213.3249969482422" fill="#ffffff"></rect><rect id="SvgjsRect1009" width="389" height="213.3249969482422" fill="url(#pattern_mark_0)"></rect><rect id="SvgjsRect1010" width="389" height="213.3249969482422" fill="url(#pattern_mark_1)"></rect><g id="SvgjsG1011"><path id="SvgjsPath1012" d="M25.008326212565123 111.06666247049975L363.6749928792317 111.06666247049975" stroke-dasharray="8,5" stroke="#323232" stroke-width="1.5" fill="none"></path></g><g id="SvgjsG1013" transform="matrix(-1,1.2246467991473532e-16,-1.2246467991473532e-16,-1,274.34165954589844,188.3333282470703)"><path id="SvgjsPath1014" d="M 24 0L 153.33333333333334 0C 161.8181818181818 0 161.8181818181818 40 153.33333333333334 40L 24 40C -8 40 -8 0 24 0ZM 153.33333333333334 0C 145 0 145 40 153.33333333333334 40C 145 40 145 0 153.33333333333334 0" stroke="rgba(33,41,48,1)" stroke-width="1.5" fill-opacity="1" fill="#e5f6da"></path><g id="SvgjsG1015"><text id="SvgjsText1016" font-family="微软雅黑" text-anchor="middle" font-size="13px" width="128px" fill="#323232" font-weight="400" align="middle" lineHeight="125%" anchor="middle" family="微软雅黑" size="13px" weight="400" font-style="" opacity="1" y="9.375" transform="rotate(0)"></text></g></g><g id="SvgjsG1017" transform="translate(25.008326212565123,25)"><path id="SvgjsPath1018" d="M 0 4Q 0 0 4 0L 75.76666768391925 0Q 79.76666768391925 0 79.76666768391925 4L 79.76666768391925 46.15579710144936Q 79.76666768391925 50.15579710144936 75.76666768391925 50.15579710144936L 4 50.15579710144936Q 0 50.15579710144936 0 46.15579710144936Z" stroke="rgba(33,41,48,1)" stroke-width="1.5" fill-opacity="1" fill="#fcf9ea"></path><g id="SvgjsG1019"><text id="SvgjsText1020" font-family="微软雅黑" text-anchor="middle" font-size="16px" width="60px" fill="#323232" font-weight="400" align="middle" lineHeight="125%" anchor="middle" family="微软雅黑" size="16px" weight="400" font-style="" opacity="1" y="11.07789855072468" transform="rotate(0)"><tspan id="SvgjsTspan1021" dy="20" x="40"><tspan id="SvgjsTspan1022" style="">write</tspan></tspan></text></g></g><g id="SvgjsG1023" transform="translate(283.7749938964844,25)"><path id="SvgjsPath1024" d="M 0 4Q 0 0 4 0L 75.89999898274732 0Q 79.89999898274732 0 79.89999898274732 4L 79.89999898274732 46.155797101449366Q 79.89999898274732 50.155797101449366 75.89999898274732 50.155797101449366L 4 50.155797101449366Q 0 50.155797101449366 0 46.155797101449366Z" stroke="rgba(33,41,48,1)" stroke-width="1.5" fill-opacity="1" fill="#dbf5f5"></path><g id="SvgjsG1025"><text id="SvgjsText1026" font-family="微软雅黑" text-anchor="middle" font-size="16px" width="60px" fill="#323232" font-weight="400" align="middle" lineHeight="125%" anchor="middle" family="微软雅黑" size="16px" weight="400" font-style="" opacity="1" y="11.077898550724683" transform="rotate(0)"><tspan id="SvgjsTspan1027" dy="20" x="40"><tspan id="SvgjsTspan1028" style="">read</tspan></tspan></text></g></g><g id="SvgjsG1029" transform="translate(121.77499389648438,148.33333333333337)"><path id="SvgjsPath1030" d="M 0 0L 63.5 0L 63.5 40L 0 40Z" stroke="none" fill="none"></path><g id="SvgjsG1031"><text id="SvgjsText1032" font-family="微软雅黑" text-anchor="middle" font-size="16px" width="64px" fill="#323232" font-weight="400" align="middle" lineHeight="125%" anchor="middle" family="微软雅黑" size="16px" weight="400" font-style="" opacity="1" y="6" transform="rotate(0)"><tspan id="SvgjsTspan1033" dy="20" x="32"><tspan id="SvgjsTspan1034" style="">写端</tspan></tspan></text></g></g><g id="SvgjsG1035" transform="translate(209.77499389648438,148.33333333333337)"><path id="SvgjsPath1036" d="M 0 0L 64 0L 64 40L 0 40Z" stroke="none" fill="none"></path><g id="SvgjsG1037"><text id="SvgjsText1038" font-family="微软雅黑" text-anchor="middle" font-size="16px" width="64px" fill="#323232" font-weight="400" align="middle" lineHeight="125%" anchor="middle" family="微软雅黑" size="16px" weight="400" font-style="" opacity="1" y="6" transform="rotate(0)"><tspan id="SvgjsTspan1039" dy="20" x="32"><tspan id="SvgjsTspan1040" style="">读端</tspan></tspan></text></g></g><g id="SvgjsG1041" transform="translate(154.45832570393884,111.83333333333337)"><path id="SvgjsPath1042" d="M 0 0L 79.7666676839192 0L 79.7666676839192 40L 0 40Z" stroke="none" fill="none"></path><g id="SvgjsG1043"><text id="SvgjsText1044" font-family="微软雅黑" text-anchor="middle" font-size="16px" width="80px" fill="#323232" font-weight="400" align="middle" lineHeight="125%" anchor="middle" family="微软雅黑" size="16px" weight="400" font-style="" opacity="1" y="6" transform="rotate(0)"><tspan id="SvgjsTspan1045" dy="20" x="40"><tspan id="SvgjsTspan1046" style="">管道</tspan></tspan></text></g></g><g id="SvgjsG1047"><path id="SvgjsPath1048" d="M64.91753910288418 75.90535048504256C 64.89166005452478 118.82320724168073 78.107583756253 168.33333333333337 119.09725890241191 167.9873054420878" stroke="#323232" stroke-width="1.5" fill="none" marker-end="url(#SvgjsMarker1049)"></path></g><g id="SvgjsG1051"><path id="SvgjsPath1052" d="M274.51738993574213 168.22680577401508C 316.0636320063735 168.33333333333331 323.72499338785804 117.44443521133849 323.6631482614945 77.85508870858354" stroke="#323232" stroke-width="1.5" fill="none" marker-end="url(#SvgjsMarker1053)"></path></g></svg>