<svg width="451.163" height="254.45" xmlns="http://www.w3.org/2000/svg"><defs><marker id="prefix__c" markerWidth="13" markerHeight="9" refX="9.5" refY="4.5" viewBox="0 0 13 9" orient="auto" markerUnits="userSpaceOnUse" stroke-dasharray="0 0"><path d="M0 0l13 4.5L0 9V0" fill="#323232" stroke="#323232"/></marker><marker id="prefix__d" markerWidth="13" markerHeight="9" refX="9.5" refY="4.5" viewBox="0 0 13 9" orient="auto" markerUnits="userSpaceOnUse" stroke-dasharray="0 0"><path d="M0 0l13 4.5L0 9V0" fill="#323232" stroke="#323232"/></marker><marker id="prefix__e" markerWidth="13" markerHeight="9" refX="9.5" refY="4.5" viewBox="0 0 13 9" orient="auto" markerUnits="userSpaceOnUse" stroke-dasharray="0 0"><path d="M0 0l13 4.5L0 9V0" fill="#a6a6a6" stroke="#a6a6a6"/></marker><marker id="prefix__f" markerWidth="13" markerHeight="9" refX="9.5" refY="4.5" viewBox="0 0 13 9" orient="auto" markerUnits="userSpaceOnUse" stroke-dasharray="0 0"><path d="M0 0l13 4.5L0 9V0" fill="#323232" stroke="#323232"/></marker><marker id="prefix__g" markerWidth="13" markerHeight="9" refX="9.5" refY="4.5" viewBox="0 0 13 9" orient="auto" markerUnits="userSpaceOnUse" stroke-dasharray="0 0"><path d="M0 0l13 4.5L0 9V0" fill="#569230" stroke="#569230"/></marker></defs><path fill="#fff" d="M0 0h451.163v254.45H0z"/><path fill="url(#prefix__a)" d="M0 0h451.163v254.45H0z"/><path fill="url(#prefix__b)" d="M0 0h451.163v254.45H0z"/><path d="M171.17 159.647q0-4 4-4h247.113q4 0 4 4v59.042q0 4-4 4H175.17q-4 0-4-4z" stroke="rgba(33,41,48,1)" stroke-width="1.5" fill="#b7eaeb"/><path d="M182.366 100.065h48.92v27.777h-48.92z" fill="none"/><text font-family="微软雅黑" text-anchor="middle" font-size="20" fill="#323232" font-weight="400" y="-4.112" transform="translate(182.366 100.065)"><tspan dy="25" x="24.5"><tspan>stdin</tspan></tspan></text><path d="M225.696 52.494h70.199v48.75h-70.2z" fill="none"/><text font-family="微软雅黑" text-anchor="middle" font-size="20" fill="#a6a6a6" font-weight="400" y="6.375" transform="translate(225.696 52.494)"><tspan dy="25" x="35.5"><tspan text-decoration="line-through">stdout</tspan></tspan></text><path d="M275.05 24.997h79.43v27.144h-79.43z" fill="none"/><text font-family="微软雅黑" text-anchor="middle" font-size="20" fill="#323232" font-weight="400" y="-4.428" transform="translate(275.05 24.997)"><tspan dy="25" x="40"><tspan>stderr</tspan></tspan></text><path d="M25.01 36.46q0-4 4-4h118.036q4 0 4 4v188.75q0 4-4 4H29.011q-4 0-4-4z" stroke="rgba(33,41,48,1)" stroke-width="1.5" fill="#caedb4"/><text font-family="微软雅黑" text-anchor="middle" font-size="20" fill="#323232" font-weight="400" y="-13" transform="translate(25.01 32.46)"><tspan dy="40" x="63.5"><tspan>files_struct</tspan></tspan></text><path d="M38.463 166.168q0-4 4-4h92.38q4 0 4 4v46q0 4-4 4h-92.38q-4 0-4-4z" stroke="rgba(33,41,48,1)" stroke-width="1.5" fill="#e5f6da"/><text font-family="微软雅黑" text-anchor="middle" font-size="20" fill="#323232" font-weight="400" y="9" transform="translate(38.463 162.168)"><tspan dy="25" x="50.5"><tspan>fd_array</tspan></tspan></text><path d="M38.653 110.835h100v40h-100z" fill="none"/><text font-family="微软雅黑" text-anchor="middle" font-size="24" fill="#323232" font-weight="400" y="-1" transform="translate(38.653 110.835)"><tspan dy="30" x="50"><tspan>···</tspan></tspan></text><path d="M139.594 189.168h28.876" stroke="#323232" stroke-width="1.5" fill="none" marker-end="url(#prefix__c)"/><path d="M346.853 174.325h28.462v29.686h-28.462z" fill="none"/><text font-family="微软雅黑" text-anchor="middle" font-size="24" fill="#323232" font-weight="400" y="-6.157" transform="translate(346.853 174.325)"><tspan dy="30" x="14.5"><tspan>···</tspan></tspan></text><g><path d="M184.946 171.708q0-4 4-4h35.76q4 0 4 4v34.92q0 4-4 4h-35.76q-4 0-4-4z" stroke="rgba(33,41,48,1)" stroke-width="1.5" fill="#dbf5f5"/><text font-family="微软雅黑" text-anchor="middle" font-size="18" font-weight="400" y="5.71" transform="translate(184.946 167.708)"><tspan dy="22.5" x="22"><tspan>0</tspan></tspan></text></g><g><path d="M238.915 171.708q0-4 4-4h35.76q4 0 4 4v34.92q0 4-4 4h-35.76q-4 0-4-4z" stroke="rgba(33,41,48,1)" stroke-width="1.5" fill="#dbf5f5"/><text font-family="微软雅黑" text-anchor="middle" font-size="18" font-weight="400" y="5.71" transform="translate(238.915 167.708)"><tspan dy="22.5" x="22"><tspan>1</tspan></tspan></text></g><g><path d="M292.884 171.708q0-4 4-4h35.76q4 0 4 4v34.92q0 4-4 4h-35.76q-4 0-4-4z" stroke="rgba(33,41,48,1)" stroke-width="1.5" fill="#dbf5f5"/><text font-family="微软雅黑" text-anchor="middle" font-size="18" font-weight="400" y="5.71" transform="translate(292.884 167.708)"><tspan dy="22.5" x="22"><tspan>2</tspan></tspan></text></g><g><path d="M206.826 166.958v-36.416" stroke="#323232" stroke-width="1.5" fill="none" marker-end="url(#prefix__d)"/></g><g><path d="M260.795 166.958V92.081" stroke-dasharray="8 5" stroke="#a6a6a6" stroke-width="1.5" fill="none" marker-end="url(#prefix__e)"/></g><g><path d="M314.764 166.958V54.841" stroke="#323232" stroke-width="1.5" fill="none" marker-end="url(#prefix__f)"/></g><g><path d="M358.094 87.073h68.19v23.762h-68.19z" fill="none"/><text font-family="微软雅黑" text-anchor="middle" font-size="20" fill="#569230" font-weight="400" y="-6.119" transform="translate(358.094 87.073)"><tspan dy="25" x="34.5"><tspan>out.txt</tspan></tspan></text></g><g><path d="M260.875 166.963c-.08-46.91 49.563-68.01 94.522-67.888" stroke="#569230" stroke-width="1.5" fill="none" marker-end="url(#prefix__g)"/></g></svg>