<svg id="SvgjsSvg1185" width="602.5781860351564" height="872.2658284505209" xmlns="http://www.w3.org/2000/svg" version="1.1" xmlns:xlink="http://www.w3.org/1999/xlink" xmlns:svgjs="http://svgjs.com/svgjs"><defs id="SvgjsDefs1186"><pattern patternUnits="userSpaceOnUse" id="pattern_mark_0" width="300" height="300"><text x="150" y="100" fill="rgba(229,229,229,0.8)" font-size="18" transform="rotate(-45, 150, 150)" style="dominant-baseline: middle; text-anchor: middle;"></text></pattern><pattern patternUnits="userSpaceOnUse" id="pattern_mark_1" width="300" height="300"><text x="150" y="200" fill="rgba(229,229,229,0.8)" font-size="18" transform="rotate(-45, 150, 150)" style="dominant-baseline: middle; text-anchor: middle;"></text></pattern><marker id="SvgjsMarker1284" markerWidth="13" markerHeight="9" refX="9.5" refY="4.5" viewBox="0 0 13 9" orient="auto" markerUnits="userSpaceOnUse" stroke-dasharray="0,0"><path id="SvgjsPath1285" d="M0,0 L13,4.5 L0,9 L0,0" fill="#323232" stroke="#323232" stroke-width="1"></path></marker><marker id="SvgjsMarker1288" markerWidth="13" markerHeight="9" refX="9.5" refY="4.5" viewBox="0 0 13 9" orient="auto" markerUnits="userSpaceOnUse" stroke-dasharray="0,0"><path id="SvgjsPath1289" d="M0,0 L13,4.5 L0,9 L0,0" fill="#323232" stroke="#323232" stroke-width="1"></path></marker></defs><rect id="svgbackgroundid" width="602.5781860351564" height="872.2658284505209" fill="#ffffff"></rect><rect id="SvgjsRect1188" width="602.5781860351564" height="872.2658284505209" fill="url(#pattern_mark_0)"></rect><rect id="SvgjsRect1189" width="602.5781860351564" height="872.2658284505209" fill="url(#pattern_mark_1)"></rect><g id="SvgjsG1190" transform="translate(187.86605108351944,65.29319545200897)"><path id="SvgjsPath1191" d="M 0 4Q 0 0 4 0L 214.57142857142867 0Q 218.57142857142867 0 218.57142857142867 4L 218.57142857142867 734.2380952380953Q 218.57142857142867 738.2380952380953 214.57142857142867 738.2380952380953L 4 738.2380952380953Q 0 738.2380952380953 0 734.2380952380953Z" stroke="rgba(33,41,48,1)" stroke-width="1.5" fill-opacity="1" fill="#ded9d7"></path><g id="SvgjsG1192"><text id="SvgjsText1193" font-family="微软雅黑" text-anchor="middle" font-size="20px" width="199px" fill="#323232" font-weight="400" align="middle" lineHeight="125%" anchor="middle" family="微软雅黑" size="20px" weight="400" font-style="" opacity="1" y="351.11904761904765" transform="rotate(0)"></text></g></g><g id="SvgjsG1194" transform="translate(200.3350653115068,79.36475509425708)"><path id="SvgjsPath1195" d="M 0 4Q 0 0 4 0L 189.63340011545387 0Q 193.63340011545387 0 193.63340011545387 4L 193.63340011545387 170.96616894083593Q 193.63340011545387 174.96616894083593 189.63340011545387 174.96616894083593L 4 174.96616894083593Q 0 174.96616894083593 0 170.96616894083593Z" stroke="rgba(33,41,48,1)" stroke-width="1.5" fill-opacity="1" fill="#efeceb"></path><g id="SvgjsG1196"><text id="SvgjsText1197" font-family="微软雅黑" text-anchor="middle" font-size="20px" width="174px" fill="#323232" font-weight="400" align="middle" lineHeight="150%" anchor="middle" family="微软雅黑" size="20px" weight="400" font-style="" opacity="1" y="4.483084470417964" transform="rotate(0)"><tspan id="SvgjsTspan1198" dy="30" x="97"><tspan id="SvgjsTspan1199" style="">内核代码</tspan></tspan><tspan id="SvgjsTspan1200" dy="30" x="97"><tspan id="SvgjsTspan1201" style="">内核数据结构</tspan></tspan><tspan id="SvgjsTspan1202" dy="30" x="97"><tspan id="SvgjsTspan1203" style="">中断向量表</tspan></tspan><tspan id="SvgjsTspan1204" dy="30" x="97"><tspan id="SvgjsTspan1205" style="">系统调用接口</tspan></tspan><tspan id="SvgjsTspan1206" dy="30" x="97"><tspan id="SvgjsTspan1207" style="">···</tspan></tspan></text></g></g><g id="SvgjsG1208" transform="translate(200.3350653115068,268.68460013661456)"><path id="SvgjsPath1209" d="M 0 4Q 0 0 4 0L 189.63340011545387 0Q 193.63340011545387 0 193.63340011545387 4L 193.63340011545387 515.3145245974167Q 193.63340011545387 519.3145245974167 189.63340011545387 519.3145245974167L 4 519.3145245974167Q 0 519.3145245974167 0 515.3145245974167Z" stroke="rgba(33,41,48,1)" stroke-width="1.5" fill-opacity="1" fill="#f2f2f2"></path><g id="SvgjsG1210"><text id="SvgjsText1211" font-family="微软雅黑" text-anchor="middle" font-size="20px" width="174px" fill="#323232" font-weight="400" align="middle" lineHeight="125%" anchor="middle" family="微软雅黑" size="20px" weight="400" font-style="" opacity="1" y="241.65726229870836" transform="rotate(0)"><tspan id="SvgjsTspan1212" dy="25" x="97"><tspan id="SvgjsTspan1213" style=""> </tspan></tspan></text></g></g><g id="SvgjsG1214" transform="translate(418.58033679780544,79.36475509425705)"><path id="SvgjsPath1215" d="M 0 174.96616894083604Q 9 174.96616894083604 9 165.96616894083604L 9 96.48308447041802Q 9 87.48308447041802 22 87.48308447041802Q 9 87.48308447041802 9 78.48308447041802L 9 9Q 9 0 0 0" stroke="rgba(33,41,48,1)" stroke-width="1.5" fill="none"></path><path id="SvgjsPath1216" d="M 0 0L 159.28571428571422 0L 159.28571428571422 174.96616894083604L 0 174.96616894083604Z" stroke="none" fill="none"></path><g id="SvgjsG1217"><text id="SvgjsText1218" font-family="微软雅黑" text-anchor="start" font-size="24px" width="133px" fill="#323232" font-weight="400" align="middle" lineHeight="125%" anchor="start" family="微软雅黑" size="24px" weight="400" font-style="" opacity="1" y="66.48308447041802" transform="rotate(0)"><tspan id="SvgjsTspan1219" dy="30" x="27"><tspan id="SvgjsTspan1220" style="">内核空间</tspan></tspan></text></g></g><g id="SvgjsG1221" transform="translate(418.58033679780544,268.68460013661456)"><path id="SvgjsPath1222" d="M 0 519.3145245974167Q 9 519.3145245974167 9 510.3145245974167L 9 268.65726229870836Q 9 259.65726229870836 22 259.65726229870836Q 9 259.65726229870836 9 250.65726229870836L 9 9Q 9 0 0 0" stroke="rgba(33,41,48,1)" stroke-width="1.5" fill="none"></path><path id="SvgjsPath1223" d="M 0 0L 159.28571428571422 0L 159.28571428571422 519.3145245974167L 0 519.3145245974167Z" stroke="none" fill="none"></path><g id="SvgjsG1224"><text id="SvgjsText1225" font-family="微软雅黑" text-anchor="start" font-size="24px" width="133px" fill="#323232" font-weight="400" align="middle" lineHeight="125%" anchor="start" family="微软雅黑" size="24px" weight="400" font-style="" opacity="1" y="238.65726229870836" transform="rotate(0)"><tspan id="SvgjsTspan1226" dy="30" x="27"><tspan id="SvgjsTspan1227" style="">用户空间</tspan></tspan></text></g></g><g id="SvgjsG1228" transform="translate(213.1677591211436,277.48901454777524)"><path id="SvgjsPath1229" d="M 0 4Q 0 0 4 0L 163.96801249618025 0Q 167.96801249618025 0 167.96801249618025 4L 167.96801249618025 36.942050856409885Q 167.96801249618025 40.942050856409885 163.96801249618025 40.942050856409885L 4 40.942050856409885Q 0 40.942050856409885 0 36.942050856409885Z" stroke="rgba(33,41,48,1)" stroke-width="1.5" fill-opacity="1" fill="#f6ddfa"></path><g id="SvgjsG1230"><text id="SvgjsText1231" font-family="微软雅黑" text-anchor="middle" font-size="20px" width="148px" fill="#323232" font-weight="400" align="middle" lineHeight="125%" anchor="middle" family="微软雅黑" size="20px" weight="400" font-style="" opacity="1" y="2.4710254282049426" transform="rotate(0)"><tspan id="SvgjsTspan1232" dy="25" x="84"><tspan id="SvgjsTspan1233" style="">环境变量</tspan></tspan></text></g></g><g id="SvgjsG1234" transform="translate(213.1677591211436,328.45769010371407)"><path id="SvgjsPath1235" d="M 0 4Q 0 0 4 0L 163.96801249618025 0Q 167.96801249618025 0 167.96801249618025 4L 167.96801249618025 36.942050856409885Q 167.96801249618025 40.942050856409885 163.96801249618025 40.942050856409885L 4 40.942050856409885Q 0 40.942050856409885 0 36.942050856409885Z" stroke="rgba(33,41,48,1)" stroke-width="1.5" fill-opacity="1" fill="#dddefa"></path><g id="SvgjsG1236"><text id="SvgjsText1237" font-family="微软雅黑" text-anchor="middle" font-size="20px" width="148px" fill="#323232" font-weight="400" align="middle" lineHeight="125%" anchor="middle" family="微软雅黑" size="20px" weight="400" font-style="" opacity="1" y="2.4710254282049426" transform="rotate(0)"><tspan id="SvgjsTspan1238" dy="25" x="84"><tspan id="SvgjsTspan1239" style="">命令行参数</tspan></tspan></text></g></g><g id="SvgjsG1240" transform="translate(213.1677591211436,379.4263656596529)"><path id="SvgjsPath1241" d="M 0 4Q 0 0 4 0L 163.96801249618025 0Q 167.96801249618025 0 167.96801249618025 4L 167.96801249618025 36.942050856409885Q 167.96801249618025 40.942050856409885 163.96801249618025 40.942050856409885L 4 40.942050856409885Q 0 40.942050856409885 0 36.942050856409885Z" stroke="rgba(33,41,48,1)" stroke-width="1.5" fill-opacity="1" fill="#d2e9f9"></path><g id="SvgjsG1242"><text id="SvgjsText1243" font-family="微软雅黑" text-anchor="middle" font-size="20px" width="148px" fill="#323232" font-weight="400" align="middle" lineHeight="125%" anchor="middle" family="微软雅黑" size="20px" weight="400" font-style="" opacity="1" y="2.4710254282049426" transform="rotate(0)"><tspan id="SvgjsTspan1244" dy="25" x="84"><tspan id="SvgjsTspan1245" style="">函数栈</tspan></tspan></text></g></g><g id="SvgjsG1246" transform="translate(213.1677591211435,456.5833333691278)"><path id="SvgjsPath1247" d="M 0 4Q 0 0 4 0L 163.96801249618025 0Q 167.96801249618025 0 167.96801249618025 4L 167.96801249618025 36.942050856409885Q 167.96801249618025 40.942050856409885 163.96801249618025 40.942050856409885L 4 40.942050856409885Q 0 40.942050856409885 0 36.942050856409885Z" stroke="rgba(33,41,48,1)" stroke-width="1.5" fill-opacity="1" fill="#dbf5f1"></path><g id="SvgjsG1248"><text id="SvgjsText1249" font-family="微软雅黑" text-anchor="middle" font-size="20px" width="148px" fill="#323232" font-weight="400" align="middle" lineHeight="125%" anchor="middle" family="微软雅黑" size="20px" weight="400" font-style="" opacity="1" y="2.4710254282049426" transform="rotate(0)"><tspan id="SvgjsTspan1250" dy="25" x="84"><tspan id="SvgjsTspan1251" style="">共享区</tspan></tspan></text></g></g><g id="SvgjsG1252" transform="translate(213.1677591211436,533.7403010786027)"><path id="SvgjsPath1253" d="M 0 4Q 0 0 4 0L 163.96801249618025 0Q 167.96801249618025 0 167.96801249618025 4L 167.96801249618025 36.942050856409885Q 167.96801249618025 40.942050856409885 163.96801249618025 40.942050856409885L 4 40.942050856409885Q 0 40.942050856409885 0 36.942050856409885Z" stroke="rgba(33,41,48,1)" stroke-width="1.5" fill-opacity="1" fill="#def6da"></path><g id="SvgjsG1254"><text id="SvgjsText1255" font-family="微软雅黑" text-anchor="middle" font-size="20px" width="148px" fill="#323232" font-weight="400" align="middle" lineHeight="125%" anchor="middle" family="微软雅黑" size="20px" weight="400" font-style="" opacity="1" y="2.4710254282049426" transform="rotate(0)"><tspan id="SvgjsTspan1256" dy="25" x="84"><tspan id="SvgjsTspan1257" style="">堆区</tspan></tspan></text></g></g><g id="SvgjsG1258" transform="translate(213.1677591211435,584.7089766345417)"><path id="SvgjsPath1259" d="M 0 4Q 0 0 4 0L 163.96801249618025 0Q 167.96801249618025 0 167.96801249618025 4L 167.96801249618025 36.942050856409885Q 167.96801249618025 40.942050856409885 163.96801249618025 40.942050856409885L 4 40.942050856409885Q 0 40.942050856409885 0 36.942050856409885Z" stroke="rgba(33,41,48,1)" stroke-width="1.5" fill-opacity="1" fill="#f2f6da"></path><g id="SvgjsG1260"><text id="SvgjsText1261" font-family="微软雅黑" text-anchor="middle" font-size="20px" width="148px" fill="#323232" font-weight="400" align="middle" lineHeight="125%" anchor="middle" family="微软雅黑" size="20px" weight="400" font-style="" opacity="1" y="2.4710254282049426" transform="rotate(0)"><tspan id="SvgjsTspan1262" dy="25" x="84"><tspan id="SvgjsTspan1263" style="">未初始化全局区</tspan></tspan></text></g></g><g id="SvgjsG1264" transform="translate(213.1677591211436,635.6776521904808)"><path id="SvgjsPath1265" d="M 0 4Q 0 0 4 0L 163.96801249618025 0Q 167.96801249618025 0 167.96801249618025 4L 167.96801249618025 36.942050856409885Q 167.96801249618025 40.942050856409885 163.96801249618025 40.942050856409885L 4 40.942050856409885Q 0 40.942050856409885 0 36.942050856409885Z" stroke="rgba(33,41,48,1)" stroke-width="1.5" fill-opacity="1" fill="#fcf4ea"></path><g id="SvgjsG1266"><text id="SvgjsText1267" font-family="微软雅黑" text-anchor="middle" font-size="20px" width="148px" fill="#323232" font-weight="400" align="middle" lineHeight="125%" anchor="middle" family="微软雅黑" size="20px" weight="400" font-style="" opacity="1" y="2.4710254282049426" transform="rotate(0)"><tspan id="SvgjsTspan1268" dy="25" x="84"><tspan id="SvgjsTspan1269" style="">已初始化全局区</tspan></tspan></text></g></g><g id="SvgjsG1270" transform="translate(213.1677591211435,686.6463277464198)"><path id="SvgjsPath1271" d="M 0 4Q 0 0 4 0L 163.96801249618025 0Q 167.96801249618025 0 167.96801249618025 4L 167.96801249618025 36.942050856409885Q 167.96801249618025 40.942050856409885 163.96801249618025 40.942050856409885L 4 40.942050856409885Q 0 40.942050856409885 0 36.942050856409885Z" stroke="rgba(33,41,48,1)" stroke-width="1.5" fill-opacity="1" fill="#fbe5da"></path><g id="SvgjsG1272"><text id="SvgjsText1273" font-family="微软雅黑" text-anchor="middle" font-size="20px" width="148px" fill="#323232" font-weight="400" align="middle" lineHeight="125%" anchor="middle" family="微软雅黑" size="20px" weight="400" font-style="" opacity="1" y="2.4710254282049426" transform="rotate(0)"><tspan id="SvgjsTspan1274" dy="25" x="84"><tspan id="SvgjsTspan1275" style="">字符常量区</tspan></tspan></text></g></g><g id="SvgjsG1276" transform="translate(213.1677591211435,737.6150033023589)"><path id="SvgjsPath1277" d="M 0 4Q 0 0 4 0L 163.96801249618025 0Q 167.96801249618025 0 167.96801249618025 4L 167.96801249618025 36.942050856409885Q 167.96801249618025 40.942050856409885 163.96801249618025 40.942050856409885L 4 40.942050856409885Q 0 40.942050856409885 0 36.942050856409885Z" stroke="rgba(33,41,48,1)" stroke-width="1.5" fill-opacity="1" fill="#fadcdb"></path><g id="SvgjsG1278"><text id="SvgjsText1279" font-family="微软雅黑" text-anchor="middle" font-size="20px" width="148px" fill="#323232" font-weight="400" align="middle" lineHeight="125%" anchor="middle" family="微软雅黑" size="20px" weight="400" font-style="" opacity="1" y="2.4710254282049426" transform="rotate(0)"><tspan id="SvgjsTspan1280" dy="25" x="84"><tspan id="SvgjsTspan1281" style="">代码区</tspan></tspan></text></g></g><g id="SvgjsG1282"><path id="SvgjsPath1283" d="M297.1517653692338 421.1184165160628L297.1517653692338 453.88333336912774" stroke="#323232" stroke-width="1.5" fill="none" marker-end="url(#SvgjsMarker1284)"></path></g><g id="SvgjsG1286"><path id="SvgjsPath1287" d="M297.1517653692338 532.9903010786027L297.1517653692338 500.2253842255377" stroke="#323232" stroke-width="1.5" fill="none" marker-end="url(#SvgjsMarker1288)"></path></g><g id="SvgjsG1290" transform="translate(25.008908226376434,80.09505825116949)"><path id="SvgjsPath1291" d="M 150.71428571428567 0Q 141.71428571428567 0 141.71428571428567 9L 141.71428571428567 345.3171848198872Q 141.71428571428567 354.3171848198872 128.71428571428567 354.3171848198872Q 141.71428571428567 354.3171848198872 141.71428571428567 363.3171848198872L 141.71428571428567 699.6343696397744Q 141.71428571428567 708.6343696397744 150.71428571428567 708.6343696397744" stroke="rgba(33,41,48,1)" stroke-width="1.5" fill="none"></path><path id="SvgjsPath1292" d="M 0 0L 150.71428571428567 0L 150.71428571428567 708.6343696397744L 0 708.6343696397744Z" stroke="none" fill="none"></path><g id="SvgjsG1293"><text id="SvgjsText1294" font-family="微软雅黑" text-anchor="end" font-size="24px" width="124px" fill="#323232" font-weight="400" align="middle" lineHeight="125%" anchor="end" family="微软雅黑" size="24px" weight="400" font-style="" opacity="1" y="333.3171848198872" transform="rotate(0)"><tspan id="SvgjsTspan1295" dy="30" x="124"><tspan id="SvgjsTspan1296" style="">地址空间</tspan></tspan></text></g></g><g id="SvgjsG1297" transform="translate(194.60651057846553,807.2719710118338)"><path id="SvgjsPath1298" d="M 0 0L 205.09050958153648 0L 205.09050958153648 40L 0 40Z" stroke="none" fill="none"></path><g id="SvgjsG1299"><text id="SvgjsText1300" font-family="微软雅黑" text-anchor="middle" font-size="18px" width="206px" fill="#323232" font-weight="400" align="middle" lineHeight="125%" anchor="middle" family="微软雅黑" size="18px" weight="400" font-style="" opacity="1" y="4.25" transform="rotate(0)"><tspan id="SvgjsTspan1301" dy="22.5" x="103"><tspan id="SvgjsTspan1302" style="">低地址 0x00000000</tspan></tspan></text></g></g><g id="SvgjsG1303" transform="translate(194.60651057846553,25.01107899273552)"><path id="SvgjsPath1304" d="M 0 0L 205.09050958153648 0L 205.09050958153648 40L 0 40Z" stroke="none" fill="none"></path><g id="SvgjsG1305"><text id="SvgjsText1306" font-family="微软雅黑" text-anchor="middle" font-size="18px" width="206px" fill="#323232" font-weight="400" align="middle" lineHeight="125%" anchor="middle" family="微软雅黑" size="18px" weight="400" font-style="" opacity="1" y="4.25" transform="rotate(0)"><tspan id="SvgjsTspan1307" dy="22.5" x="103"><tspan id="SvgjsTspan1308" style="">高地址 0xFFFFFFFF</tspan></tspan></text></g></g></svg>