<svg id="SvgjsSvg1006" width="1034.84375" height="406" xmlns="http://www.w3.org/2000/svg" version="1.1" xmlns:xlink="http://www.w3.org/1999/xlink" xmlns:svgjs="http://svgjs.com/svgjs"><defs id="SvgjsDefs1007"><pattern patternUnits="userSpaceOnUse" id="pattern_mark_0" width="300" height="300"><text x="150" y="100" fill="rgba(229,229,229,0.8)" font-size="18" transform="rotate(-45, 150, 150)" style="dominant-baseline: middle; text-anchor: middle;"></text></pattern><pattern patternUnits="userSpaceOnUse" id="pattern_mark_1" width="300" height="300"><text x="150" y="200" fill="rgba(229,229,229,0.8)" font-size="18" transform="rotate(-45, 150, 150)" style="dominant-baseline: middle; text-anchor: middle;"></text></pattern><marker id="SvgjsMarker1047" markerWidth="13" markerHeight="9" refX="9.5" refY="4.5" viewBox="0 0 13 9" orient="auto" markerUnits="userSpaceOnUse" stroke-dasharray="0,0"><path id="SvgjsPath1048" d="M0,0 L13,4.5 L0,9 L0,0" fill="#323232" stroke="#323232" stroke-width="1"></path></marker><marker id="SvgjsMarker1167" markerWidth="13" markerHeight="9" refX="9.5" refY="4.5" viewBox="0 0 13 9" orient="auto" markerUnits="userSpaceOnUse" stroke-dasharray="0,0"><path id="SvgjsPath1168" d="M0,0 L13,4.5 L0,9 L0,0" fill="#e74f4c" stroke="#e74f4c" stroke-width="1"></path></marker><marker id="SvgjsMarker1175" markerWidth="13" markerHeight="9" refX="9.5" refY="4.5" viewBox="0 0 13 9" orient="auto" markerUnits="userSpaceOnUse" stroke-dasharray="0,0"><path id="SvgjsPath1176" d="M0,0 L13,4.5 L0,9 L0,0" fill="#e74f4c" stroke="#e74f4c" stroke-width="1"></path></marker></defs><rect id="svgbackgroundid" width="1034.84375" height="406" fill="#ffffff"></rect><rect id="SvgjsRect1009" width="1034.84375" height="406" fill="url(#pattern_mark_0)"></rect><rect id="SvgjsRect1010" width="1034.84375" height="406" fill="url(#pattern_mark_1)"></rect><g id="SvgjsG1011" transform="translate(25.01116071428578,65.00744047619037)"><path id="SvgjsPath1012" d="M 0 4Q 0 0 4 0L 122.03571428571422 0Q 126.03571428571422 0 126.03571428571422 4L 126.03571428571422 311.89880952380963Q 126.03571428571422 315.89880952380963 122.03571428571422 315.89880952380963L 4 315.89880952380963Q 0 315.89880952380963 0 311.89880952380963Z" stroke="rgba(33,41,48,1)" stroke-width="1.5" fill-opacity="1" fill="#f6edc1"></path><g id="SvgjsG1013"><text id="SvgjsText1014" font-family="微软雅黑" text-anchor="middle" font-size="20px" width="107px" fill="#323232" font-weight="400" align="top" lineHeight="200%" anchor="middle" family="微软雅黑" size="20px" weight="400" font-style="" opacity="1" y="-13" transform="rotate(0)"><tspan id="SvgjsTspan1015" dy="40" x="63.5"><tspan id="SvgjsTspan1016" style="">task_struct</tspan></tspan></text></g></g><g id="SvgjsG1017" transform="translate(38.64806547619048,184.21752450980375)"><path id="SvgjsPath1018" d="M 0 4Q 0 0 4 0L 96.76190476190482 0Q 100.76190476190482 0 100.76190476190482 4L 100.76190476190482 50Q 100.76190476190482 54 96.76190476190482 54L 4 54Q 0 54 0 50Z" stroke="rgba(33,41,48,1)" stroke-width="1.5" fill-opacity="1" fill="#fcf9ea"></path><g id="SvgjsG1019"><text id="SvgjsText1020" font-family="微软雅黑" text-anchor="middle" font-size="16px" width="81px" fill="#323232" font-weight="400" align="middle" lineHeight="125%" anchor="middle" family="微软雅黑" size="16px" weight="400" font-style="" opacity="1" y="13" transform="rotate(0)"><tspan id="SvgjsTspan1021" dy="20" x="50.5"><tspan id="SvgjsTspan1022" style="">mm_struct</tspan></tspan></text></g></g><g id="SvgjsG1023" transform="translate(38.02901785714289,140.53124999999943)"><path id="SvgjsPath1024" d="M 0 0L 100 0L 100 40L 0 40Z" stroke="none" fill="none"></path><g id="SvgjsG1025"><text id="SvgjsText1026" font-family="微软雅黑" text-anchor="middle" font-size="24px" width="100px" fill="#323232" font-weight="400" align="middle" lineHeight="125%" anchor="middle" family="微软雅黑" size="24px" weight="400" font-style="" opacity="1" y="-1" transform="rotate(0)"><tspan id="SvgjsTspan1027" dy="30" x="50"><tspan id="SvgjsTspan1028" style="">···</tspan></tspan></text></g></g><g id="SvgjsG1029" transform="translate(38.02901785714289,277.19791666666686)"><path id="SvgjsPath1030" d="M 0 0L 100 0L 100 40L 0 40Z" stroke="none" fill="none"></path><g id="SvgjsG1031"><text id="SvgjsText1032" font-family="微软雅黑" text-anchor="middle" font-size="24px" width="100px" fill="#323232" font-weight="400" align="middle" lineHeight="125%" anchor="middle" family="微软雅黑" size="24px" weight="400" font-style="" opacity="1" y="-1" transform="rotate(0)"><tspan id="SvgjsTspan1033" dy="30" x="50"><tspan id="SvgjsTspan1034" style="">···</tspan></tspan></text></g></g><g id="SvgjsG1035" transform="translate(228.72439600840357,65.00744047619037)"><path id="SvgjsPath1036" d="M 0 4Q 0 0 4 0L 122.03571428571422 0Q 126.03571428571422 0 126.03571428571422 4L 126.03571428571422 311.89880952380963Q 126.03571428571422 315.89880952380963 122.03571428571422 315.89880952380963L 4 315.89880952380963Q 0 315.89880952380963 0 311.89880952380963Z" stroke="rgba(33,41,48,1)" stroke-width="1.5" fill-opacity="1" fill="#b7eaeb"></path><g id="SvgjsG1037"><text id="SvgjsText1038" font-family="微软雅黑" text-anchor="middle" font-size="20px" width="107px" fill="#323232" font-weight="400" align="top" lineHeight="200%" anchor="middle" family="微软雅黑" size="20px" weight="400" font-style="" opacity="1" y="-13" transform="rotate(0)"></text></g></g><g id="SvgjsG1039" transform="translate(242.1767769607843,266.4221813725487)"><path id="SvgjsPath1040" d="M 0 4Q 0 0 4 0L 96.38095238095241 0Q 100.38095238095241 0 100.38095238095241 4L 100.38095238095241 36.37500000000091Q 100.38095238095241 40.37500000000091 96.38095238095241 40.37500000000091L 4 40.37500000000091Q 0 40.37500000000091 0 36.37500000000091Z" stroke="rgba(33,41,48,1)" stroke-width="1.5" fill-opacity="1" fill="#dbf5f5"></path><g id="SvgjsG1041"><text id="SvgjsText1042" font-family="微软雅黑" text-anchor="middle" font-size="20px" width="81px" fill="#323232" font-weight="400" align="middle" lineHeight="125%" anchor="middle" family="微软雅黑" size="20px" weight="400" font-style="" opacity="1" y="2.1875000000004547" transform="rotate(0)"><tspan id="SvgjsTspan1043" dy="25" x="50.5"><tspan id="SvgjsTspan1044" style="">数据段</tspan></tspan></text></g></g><g id="SvgjsG1045"><path id="SvgjsPath1046" d="M140.14947759310917 211.09250902324163C 201.43698538937235 211.21752450980364 166.98309514284074 84.65625 226.3478838160679 85.10630575162384" stroke="#323232" stroke-width="1.5" fill="none" marker-end="url(#SvgjsMarker1047)"></path></g><g id="SvgjsG1049" transform="translate(242.1767769607843,322.89276960784287)"><path id="SvgjsPath1050" d="M 0 4Q 0 0 4 0L 96.38095238095241 0Q 100.38095238095241 0 100.38095238095241 4L 100.38095238095241 36.37500000000091Q 100.38095238095241 40.37500000000091 96.38095238095241 40.37500000000091L 4 40.37500000000091Q 0 40.37500000000091 0 36.37500000000091Z" stroke="rgba(33,41,48,1)" stroke-width="1.5" fill-opacity="1" fill="#dbf5f5"></path><g id="SvgjsG1051"><text id="SvgjsText1052" font-family="微软雅黑" text-anchor="middle" font-size="20px" width="81px" fill="#323232" font-weight="400" align="middle" lineHeight="125%" anchor="middle" family="微软雅黑" size="20px" weight="400" font-style="" opacity="1" y="2.1875000000004547" transform="rotate(0)"><tspan id="SvgjsTspan1053" dy="25" x="50.5"><tspan id="SvgjsTspan1054" style="">代码段</tspan></tspan></text></g></g><g id="SvgjsG1055" transform="translate(242.1767769607843,209.95159313725458)"><path id="SvgjsPath1056" d="M 0 4Q 0 0 4 0L 96.38095238095241 0Q 100.38095238095241 0 100.38095238095241 4L 100.38095238095241 36.37500000000091Q 100.38095238095241 40.37500000000091 96.38095238095241 40.37500000000091L 4 40.37500000000091Q 0 40.37500000000091 0 36.37500000000091Z" stroke="rgba(33,41,48,1)" stroke-width="1.5" fill-opacity="1" fill="#dbf5f5"></path><g id="SvgjsG1057"><text id="SvgjsText1058" font-family="微软雅黑" text-anchor="middle" font-size="20px" width="81px" fill="#323232" font-weight="400" align="middle" lineHeight="125%" anchor="middle" family="微软雅黑" size="20px" weight="400" font-style="" opacity="1" y="2.1875000000004547" transform="rotate(0)"><tspan id="SvgjsTspan1059" dy="25" x="50.5"><tspan id="SvgjsTspan1060" style="">堆区</tspan></tspan></text></g></g><g id="SvgjsG1061" transform="translate(242.1767769607843,116.03860294117499)"><path id="SvgjsPath1062" d="M 0 4Q 0 0 4 0L 96.38095238095241 0Q 100.38095238095241 0 100.38095238095241 4L 100.38095238095241 36.37500000000091Q 100.38095238095241 40.37500000000091 96.38095238095241 40.37500000000091L 4 40.37500000000091Q 0 40.37500000000091 0 36.37500000000091Z" stroke="rgba(33,41,48,1)" stroke-width="1.5" fill-opacity="1" fill="#dbf5f5"></path><g id="SvgjsG1063"><text id="SvgjsText1064" font-family="微软雅黑" text-anchor="middle" font-size="20px" width="81px" fill="#323232" font-weight="400" align="middle" lineHeight="125%" anchor="middle" family="微软雅黑" size="20px" weight="400" font-style="" opacity="1" y="2.1875000000004547" transform="rotate(0)"><tspan id="SvgjsTspan1065" dy="25" x="50.5"><tspan id="SvgjsTspan1066" style="">函数栈</tspan></tspan></text></g></g><g id="SvgjsG1067" transform="translate(242.36725315126068,163.18259803921524)"><path id="SvgjsPath1068" d="M 0 0L 100 0L 100 40L 0 40Z" stroke="none" fill="none"></path><g id="SvgjsG1069"><text id="SvgjsText1070" font-family="微软雅黑" text-anchor="middle" font-size="24px" width="100px" fill="#323232" font-weight="400" align="middle" lineHeight="125%" anchor="middle" family="微软雅黑" size="24px" weight="400" font-style="" opacity="1" y="-1" transform="rotate(0)"><tspan id="SvgjsTspan1071" dy="30" x="50"><tspan id="SvgjsTspan1072" style="">···</tspan></tspan></text></g></g><g id="SvgjsG1073" transform="translate(242.36725315126046,70.88979341736683)"><path id="SvgjsPath1074" d="M 0 0L 100 0L 100 40L 0 40Z" stroke="none" fill="none"></path><g id="SvgjsG1075"><text id="SvgjsText1076" font-family="微软雅黑" text-anchor="middle" font-size="24px" width="100px" fill="#323232" font-weight="400" align="middle" lineHeight="125%" anchor="middle" family="微软雅黑" size="24px" weight="400" font-style="" opacity="1" y="-1" transform="rotate(0)"><tspan id="SvgjsTspan1077" dy="30" x="50"><tspan id="SvgjsTspan1078" style="">···</tspan></tspan></text></g></g><g id="SvgjsG1079" transform="translate(241.77901785714266,25.007440476190368)"><path id="SvgjsPath1080" d="M 0 0L 100 0L 100 40L 0 40Z" stroke="none" fill="none"></path><g id="SvgjsG1081"><text id="SvgjsText1082" font-family="微软雅黑" text-anchor="middle" font-size="20px" width="100px" fill="#323232" font-weight="400" align="middle" lineHeight="125%" anchor="middle" family="微软雅黑" size="20px" weight="400" font-style="" opacity="1" y="2" transform="rotate(0)"><tspan id="SvgjsTspan1083" dy="25" x="50"><tspan id="SvgjsTspan1084" style="">地址空间</tspan></tspan></text></g></g><g id="SvgjsG1085" transform="translate(421.9425332633059,168.18373599439838)"><path id="SvgjsPath1086" d="M 0 0L 133.1925770308119 0L 133.1925770308119 94.28571428571422L 0 94.28571428571422L 0 0ZM 20 0L 20 94.28571428571422M 0 18.857142857142843L 133.1925770308119 18.857142857142843" stroke="rgba(33,41,48,1)" stroke-width="1.5" fill-opacity="1" fill="#fbeada"></path><g id="SvgjsG1087"><text id="SvgjsText1088" font-family="微软雅黑" text-anchor="middle" font-size="20px" width="114px" fill="#323232" font-weight="400" align="middle" lineHeight="125%" anchor="middle" family="微软雅黑" size="20px" weight="400" font-style="" opacity="1" y="38.57142857142853" transform="rotate(0)"><tspan id="SvgjsTspan1089" dy="25" x="77"><tspan id="SvgjsTspan1090" style="">页表</tspan></tspan></text></g></g><g id="SvgjsG1091" transform="translate(622.3175332633059,65.00744047619037)"><path id="SvgjsPath1092" d="M 0 4Q 0 0 4 0L 122.03571428571422 0Q 126.03571428571422 0 126.03571428571422 4L 126.03571428571422 311.89880952380963Q 126.03571428571422 315.89880952380963 122.03571428571422 315.89880952380963L 4 315.89880952380963Q 0 315.89880952380963 0 311.89880952380963Z" stroke="rgba(33,41,48,1)" stroke-width="1.5" fill-opacity="1" fill="#a6aef3"></path><g id="SvgjsG1093"><text id="SvgjsText1094" font-family="微软雅黑" text-anchor="middle" font-size="20px" width="107px" fill="#323232" font-weight="400" align="top" lineHeight="200%" anchor="middle" family="微软雅黑" size="20px" weight="400" font-style="" opacity="1" y="-13" transform="rotate(0)"></text></g></g><g id="SvgjsG1095" transform="translate(636.3581495098044,84.75980392156771)"><path id="SvgjsPath1096" d="M 0 4Q 0 0 4 0L 96.38095238095241 0Q 100.38095238095241 0 100.38095238095241 4L 100.38095238095241 36.37500000000091Q 100.38095238095241 40.37500000000091 96.38095238095241 40.37500000000091L 4 40.37500000000091Q 0 40.37500000000091 0 36.37500000000091Z" stroke="rgba(33,41,48,1)" stroke-width="1.5" fill-opacity="1" fill="#d2d6f9"></path><g id="SvgjsG1097"><text id="SvgjsText1098" font-family="微软雅黑" text-anchor="middle" font-size="20px" width="81px" fill="#323232" font-weight="400" align="middle" lineHeight="125%" anchor="middle" family="微软雅黑" size="20px" weight="400" font-style="" opacity="1" y="2.1875000000004547" transform="rotate(0)"><tspan id="SvgjsTspan1099" dy="25" x="50.5"><tspan id="SvgjsTspan1100" style="">数据段</tspan></tspan></text></g></g><g id="SvgjsG1101" transform="translate(636.3581495098044,143.84252450980284)"><path id="SvgjsPath1102" d="M 0 4Q 0 0 4 0L 96.38095238095241 0Q 100.38095238095241 0 100.38095238095241 4L 100.38095238095241 36.37500000000091Q 100.38095238095241 40.37500000000091 96.38095238095241 40.37500000000091L 4 40.37500000000091Q 0 40.37500000000091 0 36.37500000000091Z" stroke="rgba(33,41,48,1)" stroke-width="1.5" fill-opacity="1" fill="#d2d6f9"></path><g id="SvgjsG1103"><text id="SvgjsText1104" font-family="微软雅黑" text-anchor="middle" font-size="20px" width="81px" fill="#323232" font-weight="400" align="middle" lineHeight="125%" anchor="middle" family="微软雅黑" size="20px" weight="400" font-style="" opacity="1" y="2.1875000000004547" transform="rotate(0)"><tspan id="SvgjsTspan1105" dy="25" x="50.5"><tspan id="SvgjsTspan1106" style="">堆区</tspan></tspan></text></g></g><g id="SvgjsG1107" transform="translate(636.3581495098044,238.21752450980375)"><path id="SvgjsPath1108" d="M 0 4Q 0 0 4 0L 96.38095238095241 0Q 100.38095238095241 0 100.38095238095241 4L 100.38095238095241 36.37500000000091Q 100.38095238095241 40.37500000000091 96.38095238095241 40.37500000000091L 4 40.37500000000091Q 0 40.37500000000091 0 36.37500000000091Z" stroke="rgba(33,41,48,1)" stroke-width="1.5" fill-opacity="1" fill="#d2d6f9"></path><g id="SvgjsG1109"><text id="SvgjsText1110" font-family="微软雅黑" text-anchor="middle" font-size="20px" width="81px" fill="#323232" font-weight="400" align="middle" lineHeight="125%" anchor="middle" family="微软雅黑" size="20px" weight="400" font-style="" opacity="1" y="2.1875000000004547" transform="rotate(0)"><tspan id="SvgjsTspan1111" dy="25" x="50.5"><tspan id="SvgjsTspan1112" style="">代码段</tspan></tspan></text></g></g><g id="SvgjsG1113" transform="translate(636.3581495098044,301.92095588235134)"><path id="SvgjsPath1114" d="M 0 4Q 0 0 4 0L 96.38095238095241 0Q 100.38095238095241 0 100.38095238095241 4L 100.38095238095241 36.37500000000091Q 100.38095238095241 40.37500000000091 96.38095238095241 40.37500000000091L 4 40.37500000000091Q 0 40.37500000000091 0 36.37500000000091Z" stroke="rgba(33,41,48,1)" stroke-width="1.5" fill-opacity="1" fill="#d2d6f9"></path><g id="SvgjsG1115"><text id="SvgjsText1116" font-family="微软雅黑" text-anchor="middle" font-size="20px" width="81px" fill="#323232" font-weight="400" align="middle" lineHeight="125%" anchor="middle" family="微软雅黑" size="20px" weight="400" font-style="" opacity="1" y="2.1875000000004547" transform="rotate(0)"><tspan id="SvgjsTspan1117" dy="25" x="50.5"><tspan id="SvgjsTspan1118" style="">函数栈</tspan></tspan></text></g></g><g id="SvgjsG1119" transform="translate(636.5486257002806,25.007440476190368)"><path id="SvgjsPath1120" d="M 0 0L 100 0L 100 40L 0 40Z" stroke="none" fill="none"></path><g id="SvgjsG1121"><text id="SvgjsText1122" font-family="微软雅黑" text-anchor="middle" font-size="20px" width="100px" fill="#323232" font-weight="400" align="middle" lineHeight="125%" anchor="middle" family="微软雅黑" size="20px" weight="400" font-style="" opacity="1" y="2" transform="rotate(0)"><tspan id="SvgjsTspan1123" dy="25" x="50"><tspan id="SvgjsTspan1124" style="">物理内存</tspan></tspan></text></g></g><g id="SvgjsG1125"><path id="SvgjsPath1126" d="M343.29775605238865 136.34800645844143C 379.24029620309807 136.22610294117544 385.45583783875486 181.80003251300616 421.3983779894643 181.67812899574005" stroke="#000000" stroke-width="1.5" fill="none"></path></g><g id="SvgjsG1127"><path id="SvgjsPath1128" d="M343.3033726108383 230.058370679144C 376.3133066798571 230.13909313725503 389.0487902471498 204.0245223089246 422.05872431616854 204.10524476703563" stroke="#000000" stroke-width="1.5" fill="none"></path></g><g id="SvgjsG1129"><path id="SvgjsPath1130" d="M343.2956716734009 286.475736924593C 382.1467917092359 286.6096813725492 383.4979197194534 229.07164115646242 422.34903975528846 229.20558560441862" stroke="#000000" stroke-width="1.5" fill="none"></path></g><g id="SvgjsG1131"><path id="SvgjsPath1132" d="M343.2954210979983 342.9449519344088C 390.816275184382 343.0802696078433 374.408408771513 259.8942568304051 421.3646436862782 252.5919345046559" stroke="#000000" stroke-width="1.5" fill="none"></path></g><g id="SvgjsG1133"><path id="SvgjsPath1134" d="M555.6839655356061 181.11278424770364C 599.7236484938974 181.25531462585013 591.5821343633634 104.4249824929966 635.6218173216546 104.5675128711431" stroke="#000000" stroke-width="1.5" fill="none"></path></g><g id="SvgjsG1135"><path id="SvgjsPath1136" d="M554.7414487551887 203.91797213965071C 590.6216285506437 204.0245223089246 599.7355769197807 164.0300245098033 635.6157567152356 164.13657467907717" stroke="#000000" stroke-width="1.5" fill="none"></path></g><g id="SvgjsG1137"><path id="SvgjsPath1138" d="M555.4096727382723 227.68534092670552C 589.5888596782947 227.59595088035314 601.4343086772835 258.4050245098042 635.613495617306 258.31563446345183" stroke="#000000" stroke-width="1.5" fill="none"></path></g><g id="SvgjsG1139"><path id="SvgjsPath1140" d="M554.7360718694094 250.63286167499587C 597.6552829400707 250.49391006402652 592.7019225303536 322.1084558823518 635.6211336010149 321.96950427138245" stroke="#000000" stroke-width="1.5" fill="none"></path></g><g id="SvgjsG1141" transform="translate(859.8564455780097,109.8364845938379)"><path id="SvgjsPath1142" d="M 50.099190759711234 0L 100.19838151942247 0C 166.99730253237078 0 166.99730253237078 210.9802170868353 100.19838151942247 210.9802170868353L 50.099190759711234 210.9802170868353C -16.699730253237078 210.9802170868353 -16.699730253237078 0 50.099190759711234 0Z" stroke="rgba(33,41,48,1)" stroke-width="1.5" fill-opacity="1" fill="#d9d9d9"></path><g id="SvgjsG1143"><text id="SvgjsText1144" font-family="微软雅黑" text-anchor="middle" font-size="20px" width="131px" fill="#323232" font-weight="400" align="top" lineHeight="200%" anchor="middle" family="微软雅黑" size="20px" weight="400" font-style="" opacity="1" y="-13" transform="rotate(0)"><tspan id="SvgjsTspan1145" dy="40" x="75.5"><tspan id="SvgjsTspan1146" style="">新的程序</tspan></tspan></text></g></g><g id="SvgjsG1147" transform="translate(884.8147555271003,169.57659313725367)"><path id="SvgjsPath1148" d="M 0 4Q 0 0 4 0L 96.38095238095241 0Q 100.38095238095241 0 100.38095238095241 4L 100.38095238095241 36.37500000000091Q 100.38095238095241 40.37500000000091 96.38095238095241 40.37500000000091L 4 40.37500000000091Q 0 40.37500000000091 0 36.37500000000091Z" stroke="rgba(33,41,48,1)" stroke-width="1.5" fill-opacity="1" fill="#f2f2f2"></path><g id="SvgjsG1149"><text id="SvgjsText1150" font-family="微软雅黑" text-anchor="middle" font-size="20px" width="81px" fill="#323232" font-weight="400" align="middle" lineHeight="125%" anchor="middle" family="微软雅黑" size="20px" weight="400" font-style="" opacity="1" y="2.1875000000004547" transform="rotate(0)"><tspan id="SvgjsTspan1151" dy="25" x="50.5"><tspan id="SvgjsTspan1152" style="">数据段</tspan></tspan></text></g></g><g id="SvgjsG1153" transform="translate(884.8147555271003,247.28195028011226)"><path id="SvgjsPath1154" d="M 0 4Q 0 0 4 0L 96.38095238095241 0Q 100.38095238095241 0 100.38095238095241 4L 100.38095238095241 36.37500000000091Q 100.38095238095241 40.37500000000091 96.38095238095241 40.37500000000091L 4 40.37500000000091Q 0 40.37500000000091 0 36.37500000000091Z" stroke="rgba(33,41,48,1)" stroke-width="1.5" fill-opacity="1" fill="#f2f2f2"></path><g id="SvgjsG1155"><text id="SvgjsText1156" font-family="微软雅黑" text-anchor="middle" font-size="20px" width="81px" fill="#323232" font-weight="400" align="middle" lineHeight="125%" anchor="middle" family="微软雅黑" size="20px" weight="400" font-style="" opacity="1" y="2.1875000000004547" transform="rotate(0)"><tspan id="SvgjsTspan1157" dy="25" x="50.5"><tspan id="SvgjsTspan1158" style="">代码段</tspan></tspan></text></g></g><g id="SvgjsG1159" transform="translate(885.0052317175764,207.4694502801126)"><path id="SvgjsPath1160" d="M 0 0L 100 0L 100 40L 0 40Z" stroke="none" fill="none"></path><g id="SvgjsG1161"><text id="SvgjsText1162" font-family="微软雅黑" text-anchor="middle" font-size="24px" width="100px" fill="#323232" font-weight="400" align="middle" lineHeight="125%" anchor="middle" family="微软雅黑" size="24px" weight="400" font-style="" opacity="1" y="-1" transform="rotate(0)"><tspan id="SvgjsTspan1163" dy="30" x="50"><tspan id="SvgjsTspan1164" style="">···</tspan></tspan></text></g></g><g id="SvgjsG1165"><path id="SvgjsPath1166" d="M884.0676745424903 189.69798714331864C 816.45200191915 189.76409313725412 805.1018554987072 104.42498249299649 739.4285934353529 104.66296407116442" stroke="#e74f4c" stroke-width="1.5" fill="none" marker-end="url(#SvgjsMarker1167)"></path><rect id="SvgjsRect1169" width="32" height="20" x="797.3616185973111" y="139.67036953578014" fill="#ffffff"></rect><text id="SvgjsText1170" font-family="微软雅黑" text-anchor="middle" font-size="16px" width="32px" fill="#e74f4c" font-weight="400" align="top" lineHeight="20px" anchor="middle" family="微软雅黑" size="16px" weight="400" font-style="" opacity="1" y="135.67036953578014" transform="rotate(0)"><tspan id="SvgjsTspan1171" dy="20" x="813.3616185973111"><tspan id="SvgjsTspan1172" style="">替换</tspan></tspan></text></g><g id="SvgjsG1173"><path id="SvgjsPath1174" d="M884.0648109620809 267.46033165094786C 825.4736223874297 267.4694502801127 796.0802350304275 258.4050245098041 739.4389023248268 258.4378515747976" stroke="#e74f4c" stroke-width="1.5" fill="none" marker-end="url(#SvgjsMarker1175)"></path><rect id="SvgjsRect1177" width="32" height="20" x="795.0206606925599" y="252.94020094943693" fill="#ffffff"></rect><text id="SvgjsText1178" font-family="微软雅黑" text-anchor="middle" font-size="16px" width="32px" fill="#e74f4c" font-weight="400" align="top" lineHeight="20px" anchor="middle" family="微软雅黑" size="16px" weight="400" font-style="" opacity="1" y="248.94020094943693" transform="rotate(0)"><tspan id="SvgjsTspan1179" dy="20" x="811.0206606925599"><tspan id="SvgjsTspan1180" style="">替换</tspan></tspan></text></g></svg>