<svg id="SvgjsSvg1006" width="780.0000871930803" height="114" xmlns="http://www.w3.org/2000/svg" version="1.1" xmlns:xlink="http://www.w3.org/1999/xlink" xmlns:svgjs="http://svgjs.com/svgjs"><defs id="SvgjsDefs1007"><pattern patternUnits="userSpaceOnUse" id="pattern_mark_0" width="300" height="300"><text x="150" y="100" fill="rgba(229,229,229,0.8)" font-size="18" transform="rotate(-45, 150, 150)" style="dominant-baseline: middle; text-anchor: middle;"></text></pattern><pattern patternUnits="userSpaceOnUse" id="pattern_mark_1" width="300" height="300"><text x="150" y="200" fill="rgba(229,229,229,0.8)" font-size="18" transform="rotate(-45, 150, 150)" style="dominant-baseline: middle; text-anchor: middle;"></text></pattern><marker id="SvgjsMarker1031" markerWidth="13" markerHeight="9" refX="9.5" refY="4.5" viewBox="0 0 13 9" orient="auto" markerUnits="userSpaceOnUse" stroke-dasharray="0,0"><path id="SvgjsPath1032" d="M0,0 L13,4.5 L0,9 L0,0" fill="#323232" stroke="#323232" stroke-width="1"></path></marker><marker id="SvgjsMarker1035" markerWidth="13" markerHeight="9" refX="9.5" refY="4.5" viewBox="0 0 13 9" orient="auto" markerUnits="userSpaceOnUse" stroke-dasharray="0,0"><path id="SvgjsPath1036" d="M0,0 L13,4.5 L0,9 L0,0" fill="#323232" stroke="#323232" stroke-width="1"></path></marker><marker id="SvgjsMarker1039" markerWidth="13" markerHeight="9" refX="9.5" refY="4.5" viewBox="0 0 13 9" orient="auto" markerUnits="userSpaceOnUse" stroke-dasharray="0,0"><path id="SvgjsPath1040" d="M0,0 L13,4.5 L0,9 L0,0" fill="#323232" stroke="#323232" stroke-width="1"></path></marker><marker id="SvgjsMarker1043" markerWidth="13" markerHeight="9" refX="9.5" refY="4.5" viewBox="0 0 13 9" orient="auto" markerUnits="userSpaceOnUse" stroke-dasharray="0,0"><path id="SvgjsPath1044" d="M0,0 L13,4.5 L0,9 L0,0" fill="#323232" stroke="#323232" stroke-width="1"></path></marker><marker id="SvgjsMarker1047" markerWidth="13" markerHeight="9" refX="9.5" refY="4.5" viewBox="0 0 13 9" orient="auto" markerUnits="userSpaceOnUse" stroke-dasharray="0,0"><path id="SvgjsPath1048" d="M0,0 L13,4.5 L0,9 L0,0" fill="#323232" stroke="#323232" stroke-width="1"></path></marker><marker id="SvgjsMarker1051" markerWidth="13" markerHeight="9" refX="9.5" refY="4.5" viewBox="0 0 13 9" orient="auto" markerUnits="userSpaceOnUse" stroke-dasharray="0,0"><path id="SvgjsPath1052" d="M0,0 L13,4.5 L0,9 L0,0" fill="#323232" stroke="#323232" stroke-width="1"></path></marker><marker id="SvgjsMarker1055" markerWidth="13" markerHeight="9" refX="9.5" refY="4.5" viewBox="0 0 13 9" orient="auto" markerUnits="userSpaceOnUse" stroke-dasharray="0,0"><path id="SvgjsPath1056" d="M0,0 L13,4.5 L0,9 L0,0" fill="#323232" stroke="#323232" stroke-width="1"></path></marker><marker id="SvgjsMarker1059" markerWidth="13" markerHeight="9" refX="9.5" refY="4.5" viewBox="0 0 13 9" orient="auto" markerUnits="userSpaceOnUse" stroke-dasharray="0,0"><path id="SvgjsPath1060" d="M0,0 L13,4.5 L0,9 L0,0" fill="#323232" stroke="#323232" stroke-width="1"></path></marker></defs><rect id="svgbackgroundid" width="780.0000871930803" height="114" fill="#ffffff"></rect><rect id="SvgjsRect1009" width="780.0000871930803" height="114" fill="url(#pattern_mark_0)"></rect><rect id="SvgjsRect1010" width="780.0000871930803" height="114" fill="url(#pattern_mark_1)"></rect><g id="SvgjsG1011" transform="translate(152.53052339099713,25.014119466145814)"><path id="SvgjsPath1012" d="M 0 4Q 0 0 4 0L 124.04761904761904 0Q 128.04761904761904 0 128.04761904761904 4L 128.04761904761904 60.095238095238074Q 128.04761904761904 64.09523809523807 124.04761904761904 64.09523809523807L 4 64.09523809523807Q 0 64.09523809523807 0 60.095238095238074Z" stroke="rgba(33,41,48,1)" stroke-width="1.5" fill-opacity="1" fill="#fcf9ea"></path><g id="SvgjsG1013"><text id="SvgjsText1014" font-family="微软雅黑" text-anchor="middle" font-size="20px" width="109px" fill="#323232" font-weight="400" align="middle" lineHeight="125%" anchor="middle" family="微软雅黑" size="20px" weight="400" font-style="" opacity="1" y="14.047619047619037" transform="rotate(0)"><tspan id="SvgjsTspan1015" dy="25" x="64.5"><tspan id="SvgjsTspan1016" style="">task_struct</tspan></tspan></text></g></g><g id="SvgjsG1017" transform="translate(328.53052339099713,25.014119466145814)"><path id="SvgjsPath1018" d="M 0 4Q 0 0 4 0L 124.04761904761904 0Q 128.04761904761904 0 128.04761904761904 4L 128.04761904761904 60.095238095238074Q 128.04761904761904 64.09523809523807 124.04761904761904 64.09523809523807L 4 64.09523809523807Q 0 64.09523809523807 0 60.095238095238074Z" stroke="rgba(33,41,48,1)" stroke-width="1.5" fill-opacity="1" fill="#fcf9ea"></path><g id="SvgjsG1019"><text id="SvgjsText1020" font-family="微软雅黑" text-anchor="middle" font-size="20px" width="109px" fill="#323232" font-weight="400" align="middle" lineHeight="125%" anchor="middle" family="微软雅黑" size="20px" weight="400" font-style="" opacity="1" y="14.047619047619037" transform="rotate(0)"><tspan id="SvgjsTspan1021" dy="25" x="64.5"><tspan id="SvgjsTspan1022" style="">task_struct</tspan></tspan></text></g></g><g id="SvgjsG1023" transform="translate(504.53052339099713,25.014119466145814)"><path id="SvgjsPath1024" d="M 0 4Q 0 0 4 0L 124.04761904761904 0Q 128.04761904761904 0 128.04761904761904 4L 128.04761904761904 60.095238095238074Q 128.04761904761904 64.09523809523807 124.04761904761904 64.09523809523807L 4 64.09523809523807Q 0 64.09523809523807 0 60.095238095238074Z" stroke="rgba(33,41,48,1)" stroke-width="1.5" fill-opacity="1" fill="#fcf9ea"></path><g id="SvgjsG1025"><text id="SvgjsText1026" font-family="微软雅黑" text-anchor="middle" font-size="20px" width="109px" fill="#323232" font-weight="400" align="middle" lineHeight="125%" anchor="middle" family="微软雅黑" size="20px" weight="400" font-style="" opacity="1" y="14.047619047619037" transform="rotate(0)"><tspan id="SvgjsTspan1027" dy="25" x="64.5"><tspan id="SvgjsTspan1028" style="">task_struct</tspan></tspan></text></g></g><g id="SvgjsG1029"><path id="SvgjsPath1030" d="M280.6614757719494 40.4426908947172L304.57814243861606 40.4426908947172L304.57814243861606 40.4426908947172L326.54480910528264 40.4426908947172" stroke="#323232" stroke-width="1.5" fill="none" marker-end="url(#SvgjsMarker1031)"></path></g><g id="SvgjsG1033"><path id="SvgjsPath1034" d="M328.4948091052827 75.10935756138389L304.57814243861606 75.10935756138389L304.57814243861606 75.10935756138389L282.6114757719495 75.10935756138389" stroke="#323232" stroke-width="1.5" fill="none" marker-end="url(#SvgjsMarker1035)"></path></g><g id="SvgjsG1037"><path id="SvgjsPath1038" d="M456.82814243861606 39.72840518043154L480.6614757719493 39.72840518043154L480.6614757719493 39.72840518043154L502.54480910528264 39.72840518043154" stroke="#323232" stroke-width="1.5" fill="none" marker-end="url(#SvgjsMarker1039)"></path></g><g id="SvgjsG1041"><path id="SvgjsPath1042" d="M504.32814243861606 74.39507184709822L480.82814243861606 74.39507184709822L480.82814243861606 74.39507184709822L459.2781424386161 74.39507184709822" stroke="#323232" stroke-width="1.5" fill="none" marker-end="url(#SvgjsMarker1043)"></path></g><g id="SvgjsG1045"><path id="SvgjsPath1046" d="M632.703142438616 39.72840518043154L657.0364757719493 39.72840518043154L657.0364757719493 39.72840518043154L682.1198091052826 39.72840518043154" stroke="#323232" stroke-width="1.5" fill="none" marker-end="url(#SvgjsMarker1047)"></path></g><g id="SvgjsG1049"><path id="SvgjsPath1050" d="M681.953142438616 74.39507184709822L656.765642438616 74.39507184709822L656.765642438616 74.39507184709822L634.2781424386161 74.39507184709822" stroke="#323232" stroke-width="1.5" fill="none" marker-end="url(#SvgjsMarker1051)"></path></g><g id="SvgjsG1053"><path id="SvgjsPath1054" d="M101.32814243861606 39.72840518043154L151.49480910528257 39.72840518043154" stroke="#323232" stroke-width="1.5" fill="none" marker-end="url(#SvgjsMarker1055)"></path></g><g id="SvgjsG1057"><path id="SvgjsPath1058" d="M151.32814243861606 74.39507184709822L126.14064243861606 74.39507184709822L126.14064243861606 74.39507184709822L100.95314243861606 74.39507184709822" stroke="#323232" stroke-width="1.5" fill="none" marker-end="url(#SvgjsMarker1059)"></path></g><g id="SvgjsG1061" transform="translate(25.006713867187443,25.014119466145814)"><path id="SvgjsPath1062" d="M 0 0L 100 0L 100 40L 0 40Z" stroke="none" fill="none"></path><g id="SvgjsG1063"><text id="SvgjsText1064" font-family="微软雅黑" text-anchor="middle" font-size="32px" width="100px" fill="#323232" font-weight="400" align="middle" lineHeight="125%" anchor="middle" family="微软雅黑" size="32px" weight="400" font-style="" opacity="1" y="-8" transform="rotate(0)"><tspan id="SvgjsTspan1065" dy="40" x="50"><tspan id="SvgjsTspan1066" style="">…</tspan></tspan></text></g></g><g id="SvgjsG1067" transform="translate(655.0067138671874,25.014119466145814)"><path id="SvgjsPath1068" d="M 0 0L 100 0L 100 40L 0 40Z" stroke="none" fill="none"></path><g id="SvgjsG1069"><text id="SvgjsText1070" font-family="微软雅黑" text-anchor="middle" font-size="32px" width="100px" fill="#323232" font-weight="400" align="middle" lineHeight="125%" anchor="middle" family="微软雅黑" size="32px" weight="400" font-style="" opacity="1" y="-8" transform="rotate(0)"><tspan id="SvgjsTspan1071" dy="40" x="50"><tspan id="SvgjsTspan1072" style="">…</tspan></tspan></text></g></g></svg>