<svg id="SvgjsSvg1244" width="444.125" height="281.5454995291573" xmlns="http://www.w3.org/2000/svg" version="1.1" xmlns:xlink="http://www.w3.org/1999/xlink" xmlns:svgjs="http://svgjs.com/svgjs"><defs id="SvgjsDefs1245"><pattern patternUnits="userSpaceOnUse" id="pattern_mark_0" width="300" height="300"><text x="150" y="100" fill="rgba(229,229,229,0.8)" font-size="18" transform="rotate(-45, 150, 150)" style="dominant-baseline: middle; text-anchor: middle;"></text></pattern><pattern patternUnits="userSpaceOnUse" id="pattern_mark_1" width="300" height="300"><text x="150" y="200" fill="rgba(229,229,229,0.8)" font-size="18" transform="rotate(-45, 150, 150)" style="dominant-baseline: middle; text-anchor: middle;"></text></pattern><marker id="SvgjsMarker1269" markerWidth="13" markerHeight="9" refX="9.5" refY="4.5" viewBox="0 0 13 9" orient="auto" markerUnits="userSpaceOnUse" stroke-dasharray="0,0"><path id="SvgjsPath1270" d="M0,0 L13,4.5 L0,9 L0,0" fill="#323232" stroke="#323232" stroke-width="1"></path></marker><marker id="SvgjsMarker1277" markerWidth="13" markerHeight="9" refX="9.5" refY="4.5" viewBox="0 0 13 9" orient="auto" markerUnits="userSpaceOnUse" stroke-dasharray="0,0"><path id="SvgjsPath1278" d="M0,0 L13,4.5 L0,9 L0,0" fill="#323232" stroke="#323232" stroke-width="1"></path></marker><marker id="SvgjsMarker1297" markerWidth="13" markerHeight="9" refX="9.5" refY="4.5" viewBox="0 0 13 9" orient="auto" markerUnits="userSpaceOnUse" stroke-dasharray="0,0"><path id="SvgjsPath1298" d="M0,0 L13,4.5 L0,9 L0,0" fill="#323232" stroke="#323232" stroke-width="1"></path></marker></defs><rect id="svgbackgroundid" width="444.125" height="281.5454995291573" fill="#ffffff"></rect><rect id="SvgjsRect1247" width="444.125" height="281.5454995291573" fill="url(#pattern_mark_0)"></rect><rect id="SvgjsRect1248" width="444.125" height="281.5454995291573" fill="url(#pattern_mark_1)"></rect><g id="SvgjsG1249" transform="translate(25.00077040940414,86.53878366187053)"><path id="SvgjsPath1250" d="M 0 4Q 0 0 4 0L 111.62423504016328 0Q 115.62423504016328 0 115.62423504016328 4L 115.62423504016328 165.61380454145916Q 115.62423504016328 169.61380454145916 111.62423504016328 169.61380454145916L 4 169.61380454145916Q 0 169.61380454145916 0 165.61380454145916Z" stroke="rgba(0,0,0,1)" stroke-width="1.5" fill-opacity="1" fill="#fadcdb"></path><g id="SvgjsG1251"><text id="SvgjsText1252" font-family="微软雅黑" text-anchor="middle" font-size="20px" width="96px" fill="#323232" font-weight="400" align="middle" lineHeight="125%" anchor="middle" family="微软雅黑" size="20px" weight="400" font-style="" opacity="1" y="66.80690227072958" transform="rotate(0)"><tspan id="SvgjsTspan1253" dy="25" x="58"><tspan id="SvgjsTspan1254" style="">read</tspan></tspan></text></g></g><g id="SvgjsG1255" transform="translate(303.12577040940414,86.53878366187053)"><path id="SvgjsPath1256" d="M 0 4Q 0 0 4 0L 111.62423504016328 0Q 115.62423504016328 0 115.62423504016328 4L 115.62423504016328 58.6138045414591Q 115.62423504016328 62.6138045414591 111.62423504016328 62.6138045414591L 4 62.6138045414591Q 0 62.6138045414591 0 58.6138045414591Z" stroke="rgba(0,0,0,1)" stroke-width="1.5" fill-opacity="1" fill="#fcf9ea"></path><g id="SvgjsG1257"><text id="SvgjsText1258" font-family="微软雅黑" text-anchor="middle" font-size="20px" width="96px" fill="#323232" font-weight="400" align="middle" lineHeight="125%" anchor="middle" family="微软雅黑" size="20px" weight="400" font-style="" opacity="1" y="13.306902270729552" transform="rotate(0)"><tspan id="SvgjsTspan1259" dy="25" x="58"><tspan id="SvgjsTspan1260" style="">未就绪</tspan></tspan></text></g></g><g id="SvgjsG1261" transform="translate(303.12577040940414,193.53878366187058)"><path id="SvgjsPath1262" d="M 0 4Q 0 0 4 0L 111.62423504016328 0Q 115.62423504016328 0 115.62423504016328 4L 115.62423504016328 58.61380454145908Q 115.62423504016328 62.61380454145908 111.62423504016328 62.61380454145908L 4 62.61380454145908Q 0 62.61380454145908 0 58.61380454145908Z" stroke="rgba(0,0,0,1)" stroke-width="1.5" fill-opacity="1" fill="#e5f6da"></path><g id="SvgjsG1263"><text id="SvgjsText1264" font-family="微软雅黑" text-anchor="middle" font-size="20px" width="96px" fill="#323232" font-weight="400" align="middle" lineHeight="125%" anchor="middle" family="微软雅黑" size="20px" weight="400" font-style="" opacity="1" y="13.306902270729541" transform="rotate(0)"><tspan id="SvgjsTspan1265" dy="25" x="58"><tspan id="SvgjsTspan1266" style="">资源就绪</tspan></tspan></text></g></g><g id="SvgjsG1267"><path id="SvgjsPath1268" d="M144.02596609933028 117.96754019601002L223.57586825436715 117.96754019601002L223.57586825436715 117.96754019601002L300.4257704094041 117.96754019601002" stroke="#323232" stroke-width="1.5" fill="none" marker-end="url(#SvgjsMarker1269)"></path><rect id="SvgjsRect1271" width="64" height="20" x="185.43901356289953" y="107.96754019601002" fill="#ffffff"></rect><text id="SvgjsText1272" font-family="微软雅黑" text-anchor="middle" font-size="16px" width="64px" fill="#323232" font-weight="400" align="top" lineHeight="20px" anchor="middle" family="微软雅黑" size="16px" weight="400" font-style="" opacity="1" y="103.96754019601002" transform="rotate(0)"><tspan id="SvgjsTspan1273" dy="20" x="217.43901356289953"><tspan id="SvgjsTspan1274" style="">系统调用</tspan></tspan></text></g><g id="SvgjsG1275"><path id="SvgjsPath1276" d="M302.37577040940414 224.84568593260013L223.57586825436715 224.84568593260013L223.57586825436715 224.84568593260013L144.02596609933028 224.84568593260013" stroke="#323232" stroke-width="1.5" fill="none" marker-end="url(#SvgjsMarker1277)"></path><rect id="SvgjsRect1279" width="32" height="20" x="202.7833205128491" y="214.84568593260013" fill="#ffffff"></rect><text id="SvgjsText1280" font-family="微软雅黑" text-anchor="middle" font-size="16px" width="32px" fill="#323232" font-weight="400" align="top" lineHeight="20px" anchor="middle" family="微软雅黑" size="16px" weight="400" font-style="" opacity="1" y="210.84568593260013" transform="rotate(0)"><tspan id="SvgjsTspan1281" dy="20" x="218.7833205128491"><tspan id="SvgjsTspan1282" style="">拷贝</tspan></tspan></text></g><g id="SvgjsG1283" transform="translate(32.81288792948578,25.00973106047246)"><path id="SvgjsPath1284" d="M 0 0L 100 0L 100 40L 0 40Z" stroke="none" fill="none"></path><g id="SvgjsG1285"><text id="SvgjsText1286" font-family="微软雅黑" text-anchor="middle" font-size="20px" width="100px" fill="#323232" font-weight="400" align="middle" lineHeight="125%" anchor="middle" family="微软雅黑" size="20px" weight="400" font-style="" opacity="1" y="2" transform="rotate(0)"><tspan id="SvgjsTspan1287" dy="25" x="50"><tspan id="SvgjsTspan1288" style="">用户</tspan></tspan></text></g></g><g id="SvgjsG1289" transform="translate(310.9378879294858,25.00973106047246)"><path id="SvgjsPath1290" d="M 0 0L 100 0L 100 40L 0 40Z" stroke="none" fill="none"></path><g id="SvgjsG1291"><text id="SvgjsText1292" font-family="微软雅黑" text-anchor="middle" font-size="20px" width="100px" fill="#323232" font-weight="400" align="middle" lineHeight="125%" anchor="middle" family="微软雅黑" size="20px" weight="400" font-style="" opacity="1" y="2" transform="rotate(0)"><tspan id="SvgjsTspan1293" dy="25" x="50"><tspan id="SvgjsTspan1294" style="">内核</tspan></tspan></text></g></g><g id="SvgjsG1295"><path id="SvgjsPath1296" d="M360.9378879294858 149.90258820332963L360.9378879294858 171.34568593260013L360.9378879294858 171.34568593260013L360.9378879294858 190.8387836618706" stroke-dasharray="8,5" stroke="#323232" stroke-width="1.5" fill="none" marker-end="url(#SvgjsMarker1297)"></path></g></svg>