<svg id="SvgjsSvg1135" width="444.13642229352683" height="388.54540361676897" xmlns="http://www.w3.org/2000/svg" version="1.1" xmlns:xlink="http://www.w3.org/1999/xlink" xmlns:svgjs="http://svgjs.com/svgjs"><defs id="SvgjsDefs1136"><pattern patternUnits="userSpaceOnUse" id="pattern_mark_0" width="300" height="300"><text x="150" y="100" fill="rgba(229,229,229,0.8)" font-size="18" transform="rotate(-45, 150, 150)" style="dominant-baseline: middle; text-anchor: middle;"></text></pattern><pattern patternUnits="userSpaceOnUse" id="pattern_mark_1" width="300" height="300"><text x="150" y="200" fill="rgba(229,229,229,0.8)" font-size="18" transform="rotate(-45, 150, 150)" style="dominant-baseline: middle; text-anchor: middle;"></text></pattern><marker id="SvgjsMarker1160" markerWidth="13" markerHeight="9" refX="9.5" refY="4.5" viewBox="0 0 13 9" orient="auto" markerUnits="userSpaceOnUse" stroke-dasharray="0,0"><path id="SvgjsPath1161" d="M0,0 L13,4.5 L0,9 L0,0" fill="#323232" stroke="#323232" stroke-width="1"></path></marker><marker id="SvgjsMarker1168" markerWidth="13" markerHeight="9" refX="9.5" refY="4.5" viewBox="0 0 13 9" orient="auto" markerUnits="userSpaceOnUse" stroke-dasharray="0,0"><path id="SvgjsPath1169" d="M0,0 L13,4.5 L0,9 L0,0" fill="#323232" stroke="#323232" stroke-width="1"></path></marker><marker id="SvgjsMarker1188" markerWidth="13" markerHeight="9" refX="9.5" refY="4.5" viewBox="0 0 13 9" orient="auto" markerUnits="userSpaceOnUse" stroke-dasharray="0,0"><path id="SvgjsPath1189" d="M0,0 L13,4.5 L0,9 L0,0" fill="#323232" stroke="#323232" stroke-width="1"></path></marker><marker id="SvgjsMarker1196" markerWidth="13" markerHeight="9" refX="9.5" refY="4.5" viewBox="0 0 13 9" orient="auto" markerUnits="userSpaceOnUse" stroke-dasharray="0,0"><path id="SvgjsPath1197" d="M0,0 L13,4.5 L0,9 L0,0" fill="#323232" stroke="#323232" stroke-width="1"></path></marker><marker id="SvgjsMarker1204" markerWidth="13" markerHeight="9" refX="9.5" refY="4.5" viewBox="0 0 13 9" orient="auto" markerUnits="userSpaceOnUse" stroke-dasharray="0,0"><path id="SvgjsPath1205" d="M0,0 L13,4.5 L0,9 L0,0" fill="#323232" stroke="#323232" stroke-width="1"></path></marker><marker id="SvgjsMarker1214" markerWidth="13" markerHeight="9" refX="9.5" refY="4.5" viewBox="0 0 13 9" orient="auto" markerUnits="userSpaceOnUse" stroke-dasharray="0,0"><path id="SvgjsPath1215" d="M0,0 L13,4.5 L0,9 L0,0" fill="#323232" stroke="#323232" stroke-width="1"></path></marker><marker id="SvgjsMarker1218" markerWidth="13" markerHeight="9" refX="9.5" refY="4.5" viewBox="0 0 13 9" orient="auto" markerUnits="userSpaceOnUse" stroke-dasharray="0,0"><path id="SvgjsPath1219" d="M0,0 L13,4.5 L0,9 L0,0" fill="#323232" stroke="#323232" stroke-width="1"></path></marker><marker id="SvgjsMarker1226" markerWidth="13" markerHeight="9" refX="9.5" refY="4.5" viewBox="0 0 13 9" orient="auto" markerUnits="userSpaceOnUse" stroke-dasharray="0,0"><path id="SvgjsPath1227" d="M0,0 L13,4.5 L0,9 L0,0" fill="#323232" stroke="#323232" stroke-width="1"></path></marker></defs><rect id="svgbackgroundid" width="444.13642229352683" height="388.54540361676897" fill="#ffffff"></rect><rect id="SvgjsRect1138" width="444.13642229352683" height="388.54540361676897" fill="url(#pattern_mark_0)"></rect><rect id="SvgjsRect1139" width="444.13642229352683" height="388.54540361676897" fill="url(#pattern_mark_1)"></rect><g id="SvgjsG1140" transform="translate(25.012192702930975,86.53878366187053)"><path id="SvgjsPath1141" d="M 0 4Q 0 0 4 0L 111.62423504016328 0Q 115.62423504016328 0 115.62423504016328 4L 115.62423504016328 58.6138045414591Q 115.62423504016328 62.6138045414591 111.62423504016328 62.6138045414591L 4 62.6138045414591Q 0 62.6138045414591 0 58.6138045414591Z" stroke="rgba(0,0,0,1)" stroke-width="1.5" fill-opacity="1" fill="#fadcdb"></path><g id="SvgjsG1142"><text id="SvgjsText1143" font-family="微软雅黑" text-anchor="middle" font-size="20px" width="96px" fill="#323232" font-weight="400" align="middle" lineHeight="125%" anchor="middle" family="微软雅黑" size="20px" weight="400" font-style="" opacity="1" y="13.306902270729552" transform="rotate(0)"><tspan id="SvgjsTspan1144" dy="25" x="58"><tspan id="SvgjsTspan1145" style="">read</tspan></tspan></text></g></g><g id="SvgjsG1146" transform="translate(303.137192702931,86.53878366187053)"><path id="SvgjsPath1147" d="M 0 4Q 0 0 4 0L 111.62423504016328 0Q 115.62423504016328 0 115.62423504016328 4L 115.62423504016328 58.6138045414591Q 115.62423504016328 62.6138045414591 111.62423504016328 62.6138045414591L 4 62.6138045414591Q 0 62.6138045414591 0 58.6138045414591Z" stroke="rgba(0,0,0,1)" stroke-width="1.5" fill-opacity="1" fill="#fcf9ea"></path><g id="SvgjsG1148"><text id="SvgjsText1149" font-family="微软雅黑" text-anchor="middle" font-size="20px" width="96px" fill="#323232" font-weight="400" align="middle" lineHeight="125%" anchor="middle" family="微软雅黑" size="20px" weight="400" font-style="" opacity="1" y="13.306902270729552" transform="rotate(0)"><tspan id="SvgjsTspan1150" dy="25" x="58"><tspan id="SvgjsTspan1151" style="">未就绪</tspan></tspan></text></g></g><g id="SvgjsG1152" transform="translate(303.137192702931,300.5387836618707)"><path id="SvgjsPath1153" d="M 0 4Q 0 0 4 0L 111.62423504016328 0Q 115.62423504016328 0 115.62423504016328 4L 115.62423504016328 58.61380454145908Q 115.62423504016328 62.61380454145908 111.62423504016328 62.61380454145908L 4 62.61380454145908Q 0 62.61380454145908 0 58.61380454145908Z" stroke="rgba(0,0,0,1)" stroke-width="1.5" fill-opacity="1" fill="#e5f6da"></path><g id="SvgjsG1154"><text id="SvgjsText1155" font-family="微软雅黑" text-anchor="middle" font-size="20px" width="96px" fill="#323232" font-weight="400" align="middle" lineHeight="125%" anchor="middle" family="微软雅黑" size="20px" weight="400" font-style="" opacity="1" y="13.306902270729541" transform="rotate(0)"><tspan id="SvgjsTspan1156" dy="25" x="58"><tspan id="SvgjsTspan1157" style="">资源就绪</tspan></tspan></text></g></g><g id="SvgjsG1158"><path id="SvgjsPath1159" d="M141.26142774309426 101.0681969778878L222.01142774309426 101.0681969778878L222.01142774309426 101.0681969778878L300.8114277430942 101.0681969778878" stroke="#323232" stroke-width="1.5" fill="none" marker-end="url(#SvgjsMarker1160)"></path><rect id="SvgjsRect1162" width="64" height="20" x="184.1531565050466" y="91.0681969778878" fill="#ffffff"></rect><text id="SvgjsText1163" font-family="微软雅黑" text-anchor="middle" font-size="16px" width="64px" fill="#323232" font-weight="400" align="top" lineHeight="20px" anchor="middle" family="微软雅黑" size="16px" weight="400" font-style="" opacity="1" y="87.0681969778878" transform="rotate(0)"><tspan id="SvgjsTspan1164" dy="20" x="216.1531565050466"><tspan id="SvgjsTspan1165" style="">系统调用</tspan></tspan></text></g><g id="SvgjsG1166"><path id="SvgjsPath1167" d="M302.88642774309426 135.4431969778878L221.76142774309426 135.4431969778878L221.76142774309426 135.4431969778878L142.5864277430943 135.4431969778878" stroke="#323232" stroke-width="1.5" fill="none" marker-end="url(#SvgjsMarker1168)"></path><rect id="SvgjsRect1170" width="61" height="20" x="187.76447461343508" y="125.4431969778878" fill="#ffffff"></rect><text id="SvgjsText1171" font-family="微软雅黑" text-anchor="middle" font-size="16px" width="61px" fill="#323232" font-weight="400" align="top" lineHeight="20px" anchor="middle" family="微软雅黑" size="16px" weight="400" font-style="" opacity="1" y="121.4431969778878" transform="rotate(0)"><tspan id="SvgjsTspan1172" dy="20" x="218.26447461343508"><tspan id="SvgjsTspan1173" style="">EAGAIN</tspan></tspan></text></g><g id="SvgjsG1174" transform="translate(25.012192702930975,193.53878366187058)"><path id="SvgjsPath1175" d="M 0 4Q 0 0 4 0L 111.62423504016328 0Q 115.62423504016328 0 115.62423504016328 4L 115.62423504016328 58.6138045414591Q 115.62423504016328 62.6138045414591 111.62423504016328 62.6138045414591L 4 62.6138045414591Q 0 62.6138045414591 0 58.6138045414591Z" stroke="rgba(0,0,0,1)" stroke-width="1.5" fill-opacity="1" fill="#fadcdb"></path><g id="SvgjsG1176"><text id="SvgjsText1177" font-family="微软雅黑" text-anchor="middle" font-size="20px" width="96px" fill="#323232" font-weight="400" align="middle" lineHeight="125%" anchor="middle" family="微软雅黑" size="20px" weight="400" font-style="" opacity="1" y="13.306902270729552" transform="rotate(0)"><tspan id="SvgjsTspan1178" dy="25" x="58"><tspan id="SvgjsTspan1179" style="">read</tspan></tspan></text></g></g><g id="SvgjsG1180" transform="translate(303.137192702931,193.53878366187058)"><path id="SvgjsPath1181" d="M 0 4Q 0 0 4 0L 111.62423504016328 0Q 115.62423504016328 0 115.62423504016328 4L 115.62423504016328 58.6138045414591Q 115.62423504016328 62.6138045414591 111.62423504016328 62.6138045414591L 4 62.6138045414591Q 0 62.6138045414591 0 58.6138045414591Z" stroke="rgba(0,0,0,1)" stroke-width="1.5" fill-opacity="1" fill="#fcf9ea"></path><g id="SvgjsG1182"><text id="SvgjsText1183" font-family="微软雅黑" text-anchor="middle" font-size="20px" width="96px" fill="#323232" font-weight="400" align="middle" lineHeight="125%" anchor="middle" family="微软雅黑" size="20px" weight="400" font-style="" opacity="1" y="13.306902270729552" transform="rotate(0)"><tspan id="SvgjsTspan1184" dy="25" x="58"><tspan id="SvgjsTspan1185" style="">未就绪</tspan></tspan></text></g></g><g id="SvgjsG1186"><path id="SvgjsPath1187" d="M141.26142774309426 208.06819697788785L222.01142774309426 208.06819697788785L222.01142774309426 208.06819697788785L300.8114277430942 208.06819697788785" stroke="#323232" stroke-width="1.5" fill="none" marker-end="url(#SvgjsMarker1188)"></path><rect id="SvgjsRect1190" width="64" height="20" x="184.1531565050466" y="198.06819697788785" fill="#ffffff"></rect><text id="SvgjsText1191" font-family="微软雅黑" text-anchor="middle" font-size="16px" width="64px" fill="#323232" font-weight="400" align="top" lineHeight="20px" anchor="middle" family="微软雅黑" size="16px" weight="400" font-style="" opacity="1" y="194.06819697788785" transform="rotate(0)"><tspan id="SvgjsTspan1192" dy="20" x="216.1531565050466"><tspan id="SvgjsTspan1193" style="">系统调用</tspan></tspan></text></g><g id="SvgjsG1194"><path id="SvgjsPath1195" d="M302.88642774309426 242.44319697788785L221.76142774309426 242.44319697788785L221.76142774309426 242.44319697788785L142.5864277430943 242.44319697788785" stroke="#323232" stroke-width="1.5" fill="none" marker-end="url(#SvgjsMarker1196)"></path><rect id="SvgjsRect1198" width="61" height="20" x="187.76447461343508" y="232.44319697788785" fill="#ffffff"></rect><text id="SvgjsText1199" font-family="微软雅黑" text-anchor="middle" font-size="16px" width="61px" fill="#323232" font-weight="400" align="top" lineHeight="20px" anchor="middle" family="微软雅黑" size="16px" weight="400" font-style="" opacity="1" y="228.44319697788785" transform="rotate(0)"><tspan id="SvgjsTspan1200" dy="20" x="218.26447461343508"><tspan id="SvgjsTspan1201" style="">EAGAIN</tspan></tspan></text></g><g id="SvgjsG1202"><path id="SvgjsPath1203" d="M82.82431022301262 149.90258820332963L82.82431022301262 190.8387836618706" stroke="#323232" stroke-width="1.5" fill="none" marker-end="url(#SvgjsMarker1204)"></path></g><g id="SvgjsG1206" transform="translate(25.012192702930975,300.5387836618707)"><path id="SvgjsPath1207" d="M 0 4Q 0 0 4 0L 111.62423504016328 0Q 115.62423504016328 0 115.62423504016328 4L 115.62423504016328 58.6138045414591Q 115.62423504016328 62.6138045414591 111.62423504016328 62.6138045414591L 4 62.6138045414591Q 0 62.6138045414591 0 58.6138045414591Z" stroke="rgba(0,0,0,1)" stroke-width="1.5" fill-opacity="1" fill="#fadcdb"></path><g id="SvgjsG1208"><text id="SvgjsText1209" font-family="微软雅黑" text-anchor="middle" font-size="20px" width="96px" fill="#323232" font-weight="400" align="middle" lineHeight="125%" anchor="middle" family="微软雅黑" size="20px" weight="400" font-style="" opacity="1" y="13.306902270729552" transform="rotate(0)"><tspan id="SvgjsTspan1210" dy="25" x="58"><tspan id="SvgjsTspan1211" style="">read</tspan></tspan></text></g></g><g id="SvgjsG1212"><path id="SvgjsPath1213" d="M82.82431022301262 256.9025882033297L82.82431022301262 297.83878366187065" stroke="#323232" stroke-width="1.5" fill="none" marker-end="url(#SvgjsMarker1214)"></path></g><g id="SvgjsG1216"><path id="SvgjsPath1217" d="M140.89059700643213 314.65818593260025L221.8511233222216 314.65818593260025L221.8511233222216 314.65818593260025L300.86164963801104 314.65818593260025" stroke="#323232" stroke-width="1.5" fill="none" marker-end="url(#SvgjsMarker1218)"></path><rect id="SvgjsRect1220" width="64" height="20" x="183.97996512581923" y="304.65818593260025" fill="#ffffff"></rect><text id="SvgjsText1221" font-family="微软雅黑" text-anchor="middle" font-size="16px" width="64px" fill="#323232" font-weight="400" align="top" lineHeight="20px" anchor="middle" family="微软雅黑" size="16px" weight="400" font-style="" opacity="1" y="300.65818593260025" transform="rotate(0)"><tspan id="SvgjsTspan1222" dy="20" x="215.97996512581923"><tspan id="SvgjsTspan1223" style="">系统调用</tspan></tspan></text></g><g id="SvgjsG1224"><path id="SvgjsPath1225" d="M303.23270226958994 349.0331859326005L222.08796542748462 349.0331859326005L222.08796542748462 349.0331859326005L142.89322858537946 349.0331859326005" stroke="#323232" stroke-width="1.5" fill="none" marker-end="url(#SvgjsMarker1226)"></path><rect id="SvgjsRect1228" width="32" height="20" x="202.5899110846899" y="339.0331859326005" fill="#ffffff"></rect><text id="SvgjsText1229" font-family="微软雅黑" text-anchor="middle" font-size="16px" width="32px" fill="#323232" font-weight="400" align="top" lineHeight="20px" anchor="middle" family="微软雅黑" size="16px" weight="400" font-style="" opacity="1" y="335.0331859326005" transform="rotate(0)"><tspan id="SvgjsTspan1230" dy="20" x="218.5899110846899"><tspan id="SvgjsTspan1231" style="">拷贝</tspan></tspan></text></g><g id="SvgjsG1232" transform="translate(32.82431022301262,25.00973106047246)"><path id="SvgjsPath1233" d="M 0 0L 100 0L 100 40L 0 40Z" stroke="none" fill="none"></path><g id="SvgjsG1234"><text id="SvgjsText1235" font-family="微软雅黑" text-anchor="middle" font-size="20px" width="100px" fill="#323232" font-weight="400" align="middle" lineHeight="125%" anchor="middle" family="微软雅黑" size="20px" weight="400" font-style="" opacity="1" y="2" transform="rotate(0)"><tspan id="SvgjsTspan1236" dy="25" x="50"><tspan id="SvgjsTspan1237" style="">用户</tspan></tspan></text></g></g><g id="SvgjsG1238" transform="translate(310.9493102230126,25.00973106047246)"><path id="SvgjsPath1239" d="M 0 0L 100 0L 100 40L 0 40Z" stroke="none" fill="none"></path><g id="SvgjsG1240"><text id="SvgjsText1241" font-family="微软雅黑" text-anchor="middle" font-size="20px" width="100px" fill="#323232" font-weight="400" align="middle" lineHeight="125%" anchor="middle" family="微软雅黑" size="20px" weight="400" font-style="" opacity="1" y="2" transform="rotate(0)"><tspan id="SvgjsTspan1242" dy="25" x="50"><tspan id="SvgjsTspan1243" style="">内核</tspan></tspan></text></g></g></svg>