<svg class="icon" viewBox="0 0 716.8 806.977" width="16" height="16" xmlns="http://www.w3.org/2000/svg"><path d="M707.43 200.845 8.192 603.38a65.74 65.74 0 0 1-7.424-29.85L0 234.842c0-23.04 12.288-44.544 32.256-56.064L325.12 8.743c19.968-11.52 44.749-11.725 64.666-.205L683.52 177.396c10.189 5.632 18.176 13.824 23.86 23.45z" fill="#4c8ec0"/><path d="M707.072 606.503a62.976 62.976 0 0 1-22.528 21.709l-293.12 169.984c-19.968 11.571-44.544 11.776-64.666.205L33.228 629.594a64.41 64.41 0 0 1-25.394-26.777L356.659 403.29l350.362 203.264z" fill="#004678"/><path d="M357.632 164.698a239.411 239.411 0 1 0 0 478.72 239.411 239.411 0 0 0 0-478.72zm0 359.578a120.115 120.115 0 0 1-120.218-120.218 120.115 120.115 0 0 1 120.218-120.166 120.115 120.115 0 0 1 120.166 120.166 120.115 120.115 0 0 1-120.166 120.218z" fill="#fff"/><path d="M716.8 572.148c0 12.288-3.533 24.217-9.728 34.355L355.635 404.058l352.103-202.65c5.478 9.575 8.396 20.327 8.396 31.642z" fill="#005a92"/><path d="M596.992 389.415v27.34h-27.34v27.393H542.31v-27.392h-27.392v-27.34h27.392v-27.342h27.341v27.341zm100.66.973v27.34H670.31v27.393h-27.392v-27.392h-27.34v-27.341h27.34v-27.34h27.392v27.34z" fill="#fff"/></svg>