<svg id="SvgjsSvg1006" width="444.125" height="386.93751356336804" xmlns="http://www.w3.org/2000/svg" version="1.1" xmlns:xlink="http://www.w3.org/1999/xlink" xmlns:svgjs="http://svgjs.com/svgjs"><defs id="SvgjsDefs1007"><pattern patternUnits="userSpaceOnUse" id="pattern_mark_0" width="300" height="300"><text x="150" y="100" fill="rgba(229,229,229,0.8)" font-size="18" transform="rotate(-45, 150, 150)" style="dominant-baseline: middle; text-anchor: middle;"></text></pattern><pattern patternUnits="userSpaceOnUse" id="pattern_mark_1" width="300" height="300"><text x="150" y="200" fill="rgba(229,229,229,0.8)" font-size="18" transform="rotate(-45, 150, 150)" style="dominant-baseline: middle; text-anchor: middle;"></text></pattern><marker id="SvgjsMarker1025" markerWidth="13" markerHeight="9" refX="9.5" refY="4.5" viewBox="0 0 13 9" orient="auto" markerUnits="userSpaceOnUse" stroke-dasharray="0,0"><path id="SvgjsPath1026" d="M0,0 L13,4.5 L0,9 L0,0" fill="#323232" stroke="#323232" stroke-width="1"></path></marker><marker id="SvgjsMarker1057" markerWidth="13" markerHeight="9" refX="9.5" refY="4.5" viewBox="0 0 13 9" orient="auto" markerUnits="userSpaceOnUse" stroke-dasharray="0,0"><path id="SvgjsPath1058" d="M0,0 L13,4.5 L0,9 L0,0" fill="#323232" stroke="#323232" stroke-width="1"></path></marker><marker id="SvgjsMarker1067" markerWidth="13" markerHeight="9" refX="9.5" refY="4.5" viewBox="0 0 13 9" orient="auto" markerUnits="userSpaceOnUse" stroke-dasharray="0,0"><path id="SvgjsPath1068" d="M0,0 L13,4.5 L0,9 L0,0" fill="#323232" stroke="#323232" stroke-width="1"></path></marker><marker id="SvgjsMarker1075" markerWidth="13" markerHeight="9" refX="9.5" refY="4.5" viewBox="0 0 13 9" orient="auto" markerUnits="userSpaceOnUse" stroke-dasharray="0,0"><path id="SvgjsPath1076" d="M0,0 L13,4.5 L0,9 L0,0" fill="#323232" stroke="#323232" stroke-width="1"></path></marker><marker id="SvgjsMarker1083" markerWidth="13" markerHeight="9" refX="9.5" refY="4.5" viewBox="0 0 13 9" orient="auto" markerUnits="userSpaceOnUse" stroke-dasharray="0,0"><path id="SvgjsPath1084" d="M0,0 L13,4.5 L0,9 L0,0" fill="#323232" stroke="#323232" stroke-width="1"></path></marker><marker id="SvgjsMarker1091" markerWidth="13" markerHeight="9" refX="9.5" refY="4.5" viewBox="0 0 13 9" orient="auto" markerUnits="userSpaceOnUse" stroke-dasharray="0,0"><path id="SvgjsPath1092" d="M0,0 L13,4.5 L0,9 L0,0" fill="#323232" stroke="#323232" stroke-width="1"></path></marker></defs><rect id="svgbackgroundid" width="444.125" height="386.93751356336804" fill="#ffffff"></rect><rect id="SvgjsRect1009" width="444.125" height="386.93751356336804" fill="url(#pattern_mark_0)"></rect><rect id="SvgjsRect1010" width="444.125" height="386.93751356336804" fill="url(#pattern_mark_1)"></rect><g id="SvgjsG1011" transform="translate(25.00649124428776,86.53917118667209)"><path id="SvgjsPath1012" d="M 0 4Q 0 0 4 0L 111.62423504016328 0Q 115.62423504016328 0 115.62423504016328 4L 115.62423504016328 58.6138045414591Q 115.62423504016328 62.6138045414591 111.62423504016328 62.6138045414591L 4 62.6138045414591Q 0 62.6138045414591 0 58.6138045414591Z" stroke="rgba(0,0,0,1)" stroke-width="1.5" fill-opacity="1" fill="#fbeada"></path><g id="SvgjsG1013"><text id="SvgjsText1014" font-family="微软雅黑" text-anchor="middle" font-size="20px" width="96px" fill="#323232" font-weight="400" align="middle" lineHeight="125%" anchor="middle" family="微软雅黑" size="20px" weight="400" font-style="" opacity="1" y="13.306902270729552" transform="rotate(0)"><tspan id="SvgjsTspan1015" dy="25" x="58"><tspan id="SvgjsTspan1016" style="">select</tspan></tspan></text></g></g><g id="SvgjsG1017" transform="translate(303.13149124428776,86.53917118667209)"><path id="SvgjsPath1018" d="M 0 4Q 0 0 4 0L 111.62423504016328 0Q 115.62423504016328 0 115.62423504016328 4L 115.62423504016328 58.6138045414591Q 115.62423504016328 62.6138045414591 111.62423504016328 62.6138045414591L 4 62.6138045414591Q 0 62.6138045414591 0 58.6138045414591Z" stroke="rgba(0,0,0,1)" stroke-width="1.5" fill-opacity="1" fill="#fcf9ea"></path><g id="SvgjsG1019"><text id="SvgjsText1020" font-family="微软雅黑" text-anchor="middle" font-size="20px" width="96px" fill="#323232" font-weight="400" align="middle" lineHeight="125%" anchor="middle" family="微软雅黑" size="20px" weight="400" font-style="" opacity="1" y="13.306902270729552" transform="rotate(0)"><tspan id="SvgjsTspan1021" dy="25" x="58"><tspan id="SvgjsTspan1022" style="">未就绪</tspan></tspan></text></g></g><g id="SvgjsG1023"><path id="SvgjsPath1024" d="M141.38072628445104 117.84607345740164L221.8811087643694 117.84607345740164L221.8811087643694 117.84607345740164L300.4314912442877 117.84607345740164" stroke="#323232" stroke-width="1.5" fill="none" marker-end="url(#SvgjsMarker1025)"></path><rect id="SvgjsRect1027" width="64" height="20" x="184.03811737660476" y="107.84607345740164" fill="#ffffff"></rect><text id="SvgjsText1028" font-family="微软雅黑" text-anchor="middle" font-size="16px" width="64px" fill="#323232" font-weight="400" align="top" lineHeight="20px" anchor="middle" family="微软雅黑" size="16px" weight="400" font-style="" opacity="1" y="103.84607345740164" transform="rotate(0)"><tspan id="SvgjsTspan1029" dy="20" x="216.03811737660476"><tspan id="SvgjsTspan1030" style="">系统调用</tspan></tspan></text></g><g id="SvgjsG1031" transform="translate(25.006491244287645,298.95186959937075)"><path id="SvgjsPath1032" d="M 0 4Q 0 0 4 0L 111.62423504016328 0Q 115.62423504016328 0 115.62423504016328 4L 115.62423504016328 58.6138045414591Q 115.62423504016328 62.6138045414591 111.62423504016328 62.6138045414591L 4 62.6138045414591Q 0 62.6138045414591 0 58.6138045414591Z" stroke="rgba(0,0,0,1)" stroke-width="1.5" fill-opacity="1" fill="#fadcdb"></path><g id="SvgjsG1033"><text id="SvgjsText1034" font-family="微软雅黑" text-anchor="middle" font-size="20px" width="96px" fill="#323232" font-weight="400" align="middle" lineHeight="125%" anchor="middle" family="微软雅黑" size="20px" weight="400" font-style="" opacity="1" y="13.306902270729552" transform="rotate(0)"><tspan id="SvgjsTspan1035" dy="25" x="58"><tspan id="SvgjsTspan1036" style="">read</tspan></tspan></text></g></g><g id="SvgjsG1037" transform="translate(32.8186087643694,25.01011858527403)"><path id="SvgjsPath1038" d="M 0 0L 100 0L 100 40L 0 40Z" stroke="none" fill="none"></path><g id="SvgjsG1039"><text id="SvgjsText1040" font-family="微软雅黑" text-anchor="middle" font-size="20px" width="100px" fill="#323232" font-weight="400" align="middle" lineHeight="125%" anchor="middle" family="微软雅黑" size="20px" weight="400" font-style="" opacity="1" y="2" transform="rotate(0)"><tspan id="SvgjsTspan1041" dy="25" x="50"><tspan id="SvgjsTspan1042" style="">用户</tspan></tspan></text></g></g><g id="SvgjsG1043" transform="translate(310.9436087643694,25.01011858527403)"><path id="SvgjsPath1044" d="M 0 0L 100 0L 100 40L 0 40Z" stroke="none" fill="none"></path><g id="SvgjsG1045"><text id="SvgjsText1046" font-family="微软雅黑" text-anchor="middle" font-size="20px" width="100px" fill="#323232" font-weight="400" align="middle" lineHeight="125%" anchor="middle" family="微软雅黑" size="20px" weight="400" font-style="" opacity="1" y="2" transform="rotate(0)"><tspan id="SvgjsTspan1047" dy="25" x="50"><tspan id="SvgjsTspan1048" style="">内核</tspan></tspan></text></g></g><g id="SvgjsG1049" transform="translate(303.13149124428776,192.74552039302142)"><path id="SvgjsPath1050" d="M 0 4Q 0 0 4 0L 111.62423504016328 0Q 115.62423504016328 0 115.62423504016328 4L 115.62423504016328 58.61380454145908Q 115.62423504016328 62.61380454145908 111.62423504016328 62.61380454145908L 4 62.61380454145908Q 0 62.61380454145908 0 58.61380454145908Z" stroke="rgba(0,0,0,1)" stroke-width="1.5" fill-opacity="1" fill="#e5f6da"></path><g id="SvgjsG1051"><text id="SvgjsText1052" font-family="微软雅黑" text-anchor="middle" font-size="20px" width="96px" fill="#323232" font-weight="400" align="middle" lineHeight="125%" anchor="middle" family="微软雅黑" size="20px" weight="400" font-style="" opacity="1" y="13.306902270729541" transform="rotate(0)"><tspan id="SvgjsTspan1053" dy="25" x="58"><tspan id="SvgjsTspan1054" style="">资源就绪</tspan></tspan></text></g></g><g id="SvgjsG1055"><path id="SvgjsPath1056" d="M360.9436087643694 149.9029757281312L360.9436087643694 190.04552039302143" stroke-dasharray="8,5" stroke="#323232" stroke-width="1.5" fill="none" marker-end="url(#SvgjsMarker1057)"></path></g><g id="SvgjsG1059" transform="translate(25.00649124428776,192.74552039302142)"><path id="SvgjsPath1060" d="M 0 4Q 0 0 4 0L 111.62423504016328 0Q 115.62423504016328 0 115.62423504016328 4L 115.62423504016328 58.6138045414591Q 115.62423504016328 62.6138045414591 111.62423504016328 62.6138045414591L 4 62.6138045414591Q 0 62.6138045414591 0 58.6138045414591Z" stroke="rgba(0,0,0,1)" stroke-width="1.5" fill-opacity="1" fill="#fadcdb"></path><g id="SvgjsG1061"><text id="SvgjsText1062" font-family="微软雅黑" text-anchor="middle" font-size="20px" width="96px" fill="#323232" font-weight="400" align="middle" lineHeight="125%" anchor="middle" family="微软雅黑" size="20px" weight="400" font-style="" opacity="1" y="13.306902270729552" transform="rotate(0)"><tspan id="SvgjsTspan1063" dy="25" x="58"><tspan id="SvgjsTspan1064" style="">应用进程</tspan></tspan></text></g></g><g id="SvgjsG1065"><path id="SvgjsPath1066" d="M302.38149124428776 224.05242266375097L221.8811087643694 224.05242266375097L221.8811087643694 224.05242266375097L143.3307262844511 224.05242266375097" stroke="#323232" stroke-width="1.5" fill="none" marker-end="url(#SvgjsMarker1067)"></path><rect id="SvgjsRect1069" width="32" height="20" x="203.24094433697502" y="214.05242266375097" fill="#ffffff"></rect><text id="SvgjsText1070" font-family="微软雅黑" text-anchor="middle" font-size="16px" width="32px" fill="#323232" font-weight="400" align="top" lineHeight="20px" anchor="middle" family="微软雅黑" size="16px" weight="400" font-style="" opacity="1" y="210.05242266375097" transform="rotate(0)"><tspan id="SvgjsTspan1071" dy="20" x="219.24094433697502"><tspan id="SvgjsTspan1072" style="">返回</tspan></tspan></text></g><g id="SvgjsG1073"><path id="SvgjsPath1074" d="M140.9375271267361 314.5127401240683L221.8261758521785 314.5127401240683L221.8261758521785 314.5127401240683L303.464824577621 314.5127401240683" stroke="#323232" stroke-width="1.5" fill="none" marker-end="url(#SvgjsMarker1075)"></path><rect id="SvgjsRect1077" width="64" height="20" x="185.22677988201548" y="304.5127401240683" fill="#ffffff"></rect><text id="SvgjsText1078" font-family="微软雅黑" text-anchor="middle" font-size="16px" width="64px" fill="#323232" font-weight="400" align="top" lineHeight="20px" anchor="middle" family="微软雅黑" size="16px" weight="400" font-style="" opacity="1" y="300.5127401240683" transform="rotate(0)"><tspan id="SvgjsTspan1079" dy="20" x="217.22677988201548"><tspan id="SvgjsTspan1080" style="">系统调用</tspan></tspan></text></g><g id="SvgjsG1081"><path id="SvgjsPath1082" d="M303.1875271267361 345.163533774862L221.6875271267361 345.163533774862L221.6875271267361 345.163533774862L142.88752712673613 345.163533774862" stroke="#323232" stroke-width="1.5" fill="none" marker-end="url(#SvgjsMarker1083)"></path><rect id="SvgjsRect1085" width="32" height="20" x="203.5955025868588" y="335.163533774862" fill="#ffffff"></rect><text id="SvgjsText1086" font-family="微软雅黑" text-anchor="middle" font-size="16px" width="32px" fill="#323232" font-weight="400" align="top" lineHeight="20px" anchor="middle" family="微软雅黑" size="16px" weight="400" font-style="" opacity="1" y="331.163533774862" transform="rotate(0)"><tspan id="SvgjsTspan1087" dy="20" x="219.5955025868588"><tspan id="SvgjsTspan1088" style="">拷贝</tspan></tspan></text></g><g id="SvgjsG1089"><path id="SvgjsPath1090" d="M82.8186087643694 256.1093249344805L82.8186087643694 277.1555972669256L82.8186087643694 277.1555972669256L82.8186087643694 296.2518695993707" stroke-dasharray="8,5" stroke="#323232" stroke-width="1.5" fill="none" marker-end="url(#SvgjsMarker1091)"></path></g><g id="SvgjsG1093" transform="translate(303.13149124428776,298.95186959937075)"><path id="SvgjsPath1094" d="M 0 4Q 0 0 4 0L 111.62423504016328 0Q 115.62423504016328 0 115.62423504016328 4L 115.62423504016328 58.61380454145908Q 115.62423504016328 62.61380454145908 111.62423504016328 62.61380454145908L 4 62.61380454145908Q 0 62.61380454145908 0 58.61380454145908Z" stroke="rgba(0,0,0,1)" stroke-width="1.5" fill-opacity="1" fill="#e5f6da"></path><g id="SvgjsG1095"><text id="SvgjsText1096" font-family="微软雅黑" text-anchor="middle" font-size="20px" width="96px" fill="#323232" font-weight="400" align="middle" lineHeight="125%" anchor="middle" family="微软雅黑" size="20px" weight="400" font-style="" opacity="1" y="13.306902270729541" transform="rotate(0)"><tspan id="SvgjsTspan1097" dy="25" x="58"><tspan id="SvgjsTspan1098" style="">资源就绪</tspan></tspan></text></g></g></svg>