<svg id="SvgjsSvg1099" width="444.125" height="389.10934787326386" xmlns="http://www.w3.org/2000/svg" version="1.1" xmlns:xlink="http://www.w3.org/1999/xlink" xmlns:svgjs="http://svgjs.com/svgjs"><defs id="SvgjsDefs1100"><pattern patternUnits="userSpaceOnUse" id="pattern_mark_0" width="300" height="300"><text x="150" y="100" fill="rgba(229,229,229,0.8)" font-size="18" transform="rotate(-45, 150, 150)" style="dominant-baseline: middle; text-anchor: middle;"></text></pattern><pattern patternUnits="userSpaceOnUse" id="pattern_mark_1" width="300" height="300"><text x="150" y="200" fill="rgba(229,229,229,0.8)" font-size="18" transform="rotate(-45, 150, 150)" style="dominant-baseline: middle; text-anchor: middle;"></text></pattern><marker id="SvgjsMarker1124" markerWidth="13" markerHeight="9" refX="9.5" refY="4.5" viewBox="0 0 13 9" orient="auto" markerUnits="userSpaceOnUse" stroke-dasharray="0,0"><path id="SvgjsPath1125" d="M0,0 L13,4.5 L0,9 L0,0" fill="#323232" stroke="#323232" stroke-width="1"></path></marker><marker id="SvgjsMarker1132" markerWidth="13" markerHeight="9" refX="9.5" refY="4.5" viewBox="0 0 13 9" orient="auto" markerUnits="userSpaceOnUse" stroke-dasharray="0,0"><path id="SvgjsPath1133" d="M0,0 L13,4.5 L0,9 L0,0" fill="#323232" stroke="#323232" stroke-width="1"></path></marker><marker id="SvgjsMarker1146" markerWidth="13" markerHeight="9" refX="9.5" refY="4.5" viewBox="0 0 13 9" orient="auto" markerUnits="userSpaceOnUse" stroke-dasharray="0,0"><path id="SvgjsPath1147" d="M0,0 L13,4.5 L0,9 L0,0" fill="#323232" stroke="#323232" stroke-width="1"></path></marker><marker id="SvgjsMarker1178" markerWidth="13" markerHeight="9" refX="9.5" refY="4.5" viewBox="0 0 13 9" orient="auto" markerUnits="userSpaceOnUse" stroke-dasharray="0,0"><path id="SvgjsPath1179" d="M0,0 L13,4.5 L0,9 L0,0" fill="#323232" stroke="#323232" stroke-width="1"></path></marker><marker id="SvgjsMarker1186" markerWidth="13" markerHeight="9" refX="9.5" refY="4.5" viewBox="0 0 13 9" orient="auto" markerUnits="userSpaceOnUse" stroke-dasharray="0,0"><path id="SvgjsPath1187" d="M0,0 L13,4.5 L0,9 L0,0" fill="#323232" stroke="#323232" stroke-width="1"></path></marker><marker id="SvgjsMarker1194" markerWidth="13" markerHeight="9" refX="9.5" refY="4.5" viewBox="0 0 13 9" orient="auto" markerUnits="userSpaceOnUse" stroke-dasharray="0,0"><path id="SvgjsPath1195" d="M0,0 L13,4.5 L0,9 L0,0" fill="#323232" stroke="#323232" stroke-width="1"></path></marker><marker id="SvgjsMarker1198" markerWidth="13" markerHeight="9" refX="9.5" refY="4.5" viewBox="0 0 13 9" orient="auto" markerUnits="userSpaceOnUse" stroke-dasharray="0,0"><path id="SvgjsPath1199" d="M0,0 L13,4.5 L0,9 L0,0" fill="#323232" stroke="#323232" stroke-width="1"></path></marker></defs><rect id="svgbackgroundid" width="444.125" height="389.10934787326386" fill="#ffffff"></rect><rect id="SvgjsRect1102" width="444.125" height="389.10934787326386" fill="url(#pattern_mark_0)"></rect><rect id="SvgjsRect1103" width="444.125" height="389.10934787326386" fill="url(#pattern_mark_1)"></rect><g id="SvgjsG1104" transform="translate(25.006491244287645,87.28697973391928)"><path id="SvgjsPath1105" d="M 0 4Q 0 0 4 0L 111.62423504016328 0Q 115.62423504016328 0 115.62423504016328 4L 115.62423504016328 58.6138045414591Q 115.62423504016328 62.6138045414591 111.62423504016328 62.6138045414591L 4 62.6138045414591Q 0 62.6138045414591 0 58.6138045414591Z" stroke="rgba(0,0,0,1)" stroke-width="1.5" fill-opacity="1" fill="#fbeada"></path><g id="SvgjsG1106"><text id="SvgjsText1107" font-family="微软雅黑" text-anchor="middle" font-size="20px" width="96px" fill="#323232" font-weight="400" align="middle" lineHeight="125%" anchor="middle" family="微软雅黑" size="20px" weight="400" font-style="" opacity="1" y="13.306902270729552" transform="rotate(0)"><tspan id="SvgjsTspan1108" dy="25" x="58"><tspan id="SvgjsTspan1109" style="">signal</tspan></tspan></text></g></g><g id="SvgjsG1110" transform="translate(303.13149124428764,87.28697973391928)"><path id="SvgjsPath1111" d="M 0 4Q 0 0 4 0L 111.62423504016328 0Q 115.62423504016328 0 115.62423504016328 4L 115.62423504016328 58.6138045414591Q 115.62423504016328 62.6138045414591 111.62423504016328 62.6138045414591L 4 62.6138045414591Q 0 62.6138045414591 0 58.6138045414591Z" stroke="rgba(0,0,0,1)" stroke-width="1.5" fill-opacity="1" fill="#fcf9ea"></path><g id="SvgjsG1112"><text id="SvgjsText1113" font-family="微软雅黑" text-anchor="middle" font-size="20px" width="96px" fill="#323232" font-weight="400" align="middle" lineHeight="125%" anchor="middle" family="微软雅黑" size="20px" weight="400" font-style="" opacity="1" y="13.306902270729552" transform="rotate(0)"><tspan id="SvgjsTspan1114" dy="25" x="58"><tspan id="SvgjsTspan1115" style="">未就绪</tspan></tspan></text></g></g><g id="SvgjsG1116" transform="translate(303.13149124428764,193.8584083053479)"><path id="SvgjsPath1117" d="M 0 4Q 0 0 4 0L 111.62423504016328 0Q 115.62423504016328 0 115.62423504016328 4L 115.62423504016328 59.270091043610364Q 115.62423504016328 63.270091043610364 111.62423504016328 63.270091043610364L 4 63.270091043610364Q 0 63.270091043610364 0 59.270091043610364Z" stroke="rgba(0,0,0,1)" stroke-width="1.5" fill-opacity="1" fill="#e5f6da"></path><g id="SvgjsG1118"><text id="SvgjsText1119" font-family="微软雅黑" text-anchor="middle" font-size="20px" width="96px" fill="#323232" font-weight="400" align="middle" lineHeight="125%" anchor="middle" family="微软雅黑" size="20px" weight="400" font-style="" opacity="1" y="13.635045521805182" transform="rotate(0)"><tspan id="SvgjsTspan1120" dy="25" x="58"><tspan id="SvgjsTspan1121" style="">资源就绪</tspan></tspan></text></g></g><g id="SvgjsG1122"><path id="SvgjsPath1123" d="M141.25572628445093 101.81639304993655L222.00572628445093 101.81639304993655L222.00572628445093 101.81639304993655L300.8057262844509 101.81639304993655" stroke="#323232" stroke-width="1.5" fill="none" marker-end="url(#SvgjsMarker1124)"></path><rect id="SvgjsRect1126" width="64" height="20" x="184.14745504640325" y="91.81639304993655" fill="#ffffff"></rect><text id="SvgjsText1127" font-family="微软雅黑" text-anchor="middle" font-size="16px" width="64px" fill="#323232" font-weight="400" align="top" lineHeight="20px" anchor="middle" family="微软雅黑" size="16px" weight="400" font-style="" opacity="1" y="87.81639304993655" transform="rotate(0)"><tspan id="SvgjsTspan1128" dy="20" x="216.14745504640325"><tspan id="SvgjsTspan1129" style="">系统调用</tspan></tspan></text></g><g id="SvgjsG1130"><path id="SvgjsPath1131" d="M302.88072628445093 136.19139304993655L221.75572628445093 136.19139304993655L221.75572628445093 136.19139304993655L142.58072628445098 136.19139304993655" stroke="#323232" stroke-width="1.5" fill="none" marker-end="url(#SvgjsMarker1132)"></path><rect id="SvgjsRect1134" width="32" height="20" x="202.25877315479175" y="126.19139304993655" fill="#ffffff"></rect><text id="SvgjsText1135" font-family="微软雅黑" text-anchor="middle" font-size="16px" width="32px" fill="#323232" font-weight="400" align="top" lineHeight="20px" anchor="middle" family="微软雅黑" size="16px" weight="400" font-style="" opacity="1" y="122.19139304993655" transform="rotate(0)"><tspan id="SvgjsTspan1136" dy="20" x="218.25877315479175"><tspan id="SvgjsTspan1137" style="">返回</tspan></tspan></text></g><g id="SvgjsG1138" transform="translate(25.006491244287645,193.8584083053479)"><path id="SvgjsPath1139" d="M 0 4Q 0 0 4 0L 111.62423504016328 0Q 115.62423504016328 0 115.62423504016328 4L 115.62423504016328 59.270091043610385Q 115.62423504016328 63.270091043610385 111.62423504016328 63.270091043610385L 4 63.270091043610385Q 0 63.270091043610385 0 59.270091043610385Z" stroke="rgba(0,0,0,1)" stroke-width="1.5" fill-opacity="1" fill="#fadcdb"></path><g id="SvgjsG1140"><text id="SvgjsText1141" font-family="微软雅黑" text-anchor="middle" font-size="20px" width="96px" fill="#323232" font-weight="400" align="middle" lineHeight="125%" anchor="middle" family="微软雅黑" size="20px" weight="400" font-style="" opacity="1" y="13.635045521805193" transform="rotate(0)"><tspan id="SvgjsTspan1142" dy="25" x="58"><tspan id="SvgjsTspan1143" style="">用户进程</tspan></tspan></text></g></g><g id="SvgjsG1144"><path id="SvgjsPath1145" d="M302.38149124428764 225.49345382715308L221.8811087643693 225.49345382715308L221.8811087643693 225.49345382715308L143.33072628445098 225.49345382715308" stroke="#323232" stroke-width="1.5" fill="none" marker-end="url(#SvgjsMarker1146)"></path><rect id="SvgjsRect1148" width="76" height="20" x="187.85527574646687" y="215.49345382715308" fill="#ffffff"></rect><text id="SvgjsText1149" font-family="微软雅黑" text-anchor="middle" font-size="16px" width="76px" fill="#323232" font-weight="400" align="top" lineHeight="20px" anchor="middle" family="微软雅黑" size="16px" weight="400" font-style="" opacity="1" y="211.49345382715308" transform="rotate(0)"><tspan id="SvgjsTspan1150" dy="20" x="225.85527574646687"><tspan id="SvgjsTspan1151" style="">SIGIO信号</tspan></tspan></text></g><g id="SvgjsG1152" transform="translate(33.37416431992483,24.9960223706164)"><path id="SvgjsPath1153" d="M 0 0L 100 0L 100 40L 0 40Z" stroke="none" fill="none"></path><g id="SvgjsG1154"><text id="SvgjsText1155" font-family="微软雅黑" text-anchor="middle" font-size="20px" width="100px" fill="#323232" font-weight="400" align="middle" lineHeight="125%" anchor="middle" family="微软雅黑" size="20px" weight="400" font-style="" opacity="1" y="2" transform="rotate(0)"><tspan id="SvgjsTspan1156" dy="25" x="50"><tspan id="SvgjsTspan1157" style="">用户</tspan></tspan></text></g></g><g id="SvgjsG1158" transform="translate(311.49916431992483,24.9960223706164)"><path id="SvgjsPath1159" d="M 0 0L 100 0L 100 40L 0 40Z" stroke="none" fill="none"></path><g id="SvgjsG1160"><text id="SvgjsText1161" font-family="微软雅黑" text-anchor="middle" font-size="20px" width="100px" fill="#323232" font-weight="400" align="middle" lineHeight="125%" anchor="middle" family="微软雅黑" size="20px" weight="400" font-style="" opacity="1" y="2" transform="rotate(0)"><tspan id="SvgjsTspan1162" dy="25" x="50"><tspan id="SvgjsTspan1163" style="">内核</tspan></tspan></text></g></g><g id="SvgjsG1164" transform="translate(303.13149124428764,301.0806305275701)"><path id="SvgjsPath1165" d="M 0 4Q 0 0 4 0L 111.62423504016328 0Q 115.62423504016328 0 115.62423504016328 4L 115.62423504016328 59.270091043610364Q 115.62423504016328 63.270091043610364 111.62423504016328 63.270091043610364L 4 63.270091043610364Q 0 63.270091043610364 0 59.270091043610364Z" stroke="rgba(0,0,0,1)" stroke-width="1.5" fill-opacity="1" fill="#e5f6da"></path><g id="SvgjsG1166"><text id="SvgjsText1167" font-family="微软雅黑" text-anchor="middle" font-size="20px" width="96px" fill="#323232" font-weight="400" align="middle" lineHeight="125%" anchor="middle" family="微软雅黑" size="20px" weight="400" font-style="" opacity="1" y="13.635045521805182" transform="rotate(0)"><tspan id="SvgjsTspan1168" dy="25" x="58"><tspan id="SvgjsTspan1169" style="">资源就绪</tspan></tspan></text></g></g><g id="SvgjsG1170" transform="translate(25.006491244287645,301.0806305275701)"><path id="SvgjsPath1171" d="M 0 4Q 0 0 4 0L 111.62423504016328 0Q 115.62423504016328 0 115.62423504016328 4L 115.62423504016328 59.270091043610385Q 115.62423504016328 63.270091043610385 111.62423504016328 63.270091043610385L 4 63.270091043610385Q 0 63.270091043610385 0 59.270091043610385Z" stroke="rgba(0,0,0,1)" stroke-width="1.5" fill-opacity="1" fill="#fadcdb"></path><g id="SvgjsG1172"><text id="SvgjsText1173" font-family="微软雅黑" text-anchor="middle" font-size="20px" width="96px" fill="#323232" font-weight="400" align="middle" lineHeight="125%" anchor="middle" family="微软雅黑" size="20px" weight="400" font-style="" opacity="1" y="13.635045521805193" transform="rotate(0)"><tspan id="SvgjsTspan1174" dy="25" x="58"><tspan id="SvgjsTspan1175" style="">read</tspan></tspan></text></g></g><g id="SvgjsG1176"><path id="SvgjsPath1177" d="M140.00649124428764 315.5281760493753L221.50649124428764 315.5281760493753L221.50649124428764 315.5281760493753L303.00649124428764 315.5281760493753" stroke="#323232" stroke-width="1.5" fill="none" marker-end="url(#SvgjsMarker1178)"></path><rect id="SvgjsRect1180" width="64" height="20" x="184.5176274912211" y="305.5281760493753" fill="#ffffff"></rect><text id="SvgjsText1181" font-family="微软雅黑" text-anchor="middle" font-size="16px" width="64px" fill="#323232" font-weight="400" align="top" lineHeight="20px" anchor="middle" family="微软雅黑" size="16px" weight="400" font-style="" opacity="1" y="301.5281760493753" transform="rotate(0)"><tspan id="SvgjsTspan1182" dy="20" x="216.5176274912211"><tspan id="SvgjsTspan1183" style="">系统调用</tspan></tspan></text></g><g id="SvgjsG1184"><path id="SvgjsPath1185" d="M303.13149124428764 349.9031760493753L221.25649124428764 349.9031760493753L221.25649124428764 349.9031760493753L139.38149124428764 349.9031760493753" stroke="#323232" stroke-width="1.5" fill="none" marker-end="url(#SvgjsMarker1186)"></path><rect id="SvgjsRect1188" width="32" height="20" x="200.6882920865728" y="339.9031760493753" fill="#ffffff"></rect><text id="SvgjsText1189" font-family="微软雅黑" text-anchor="middle" font-size="16px" width="32px" fill="#323232" font-weight="400" align="top" lineHeight="20px" anchor="middle" family="微软雅黑" size="16px" weight="400" font-style="" opacity="1" y="335.9031760493753" transform="rotate(0)"><tspan id="SvgjsTspan1190" dy="20" x="216.6882920865728"><tspan id="SvgjsTspan1191" style="">拷贝</tspan></tspan></text></g><g id="SvgjsG1192"><path id="SvgjsPath1193" d="M82.81860876436929 257.8784993489583L82.81860876436929 279.1045649382642L82.81860876436929 279.1045649382642L82.81860876436929 298.3806305275701" stroke="#323232" stroke-width="1.5" fill="none" marker-end="url(#SvgjsMarker1194)"></path></g><g id="SvgjsG1196"><path id="SvgjsPath1197" d="M360.9436087643693 150.65078427537838L360.9436087643693 171.87959629036317L360.9436087643693 171.87959629036317L360.9436087643693 191.1584083053479" stroke-dasharray="8,5" stroke="#323232" stroke-width="1.5" fill="none" marker-end="url(#SvgjsMarker1198)"></path></g></svg>