<svg id="SvgjsSvg1006" width="463.48735163762024" height="136.86253943810095" xmlns="http://www.w3.org/2000/svg" version="1.1" xmlns:xlink="http://www.w3.org/1999/xlink" xmlns:svgjs="http://svgjs.com/svgjs"><defs id="SvgjsDefs1007"><pattern patternUnits="userSpaceOnUse" id="pattern_mark_0" width="300" height="300"><text x="150" y="100" fill="rgba(229,229,229,0.8)" font-size="18" transform="rotate(-45, 150, 150)" style="dominant-baseline: middle; text-anchor: middle;"></text></pattern><pattern patternUnits="userSpaceOnUse" id="pattern_mark_1" width="300" height="300"><text x="150" y="200" fill="rgba(229,229,229,0.8)" font-size="18" transform="rotate(-45, 150, 150)" style="dominant-baseline: middle; text-anchor: middle;"></text></pattern></defs><rect id="svgbackgroundid" width="463.48735163762024" height="136.86253943810095" fill="#ffffff"></rect><rect id="SvgjsRect1009" width="463.48735163762024" height="136.86253943810095" fill="url(#pattern_mark_0)"></rect><rect id="SvgjsRect1010" width="463.48735163762024" height="136.86253943810095" fill="url(#pattern_mark_1)"></rect><g id="SvgjsG1011" transform="translate(25.00804320659381,25.019654364370638)"><path id="SvgjsPath1012" d="M 0 4Q 0 0 4 0L 115.95027134669124 0Q 119.95027134669124 0 119.95027134669124 4L 119.95027134669124 59.838072686410555Q 119.95027134669124 63.838072686410555 115.95027134669124 63.838072686410555L 4 63.838072686410555Q 0 63.838072686410555 0 59.838072686410555Z" stroke="rgba(0,0,0,1)" stroke-width="1.5" fill-opacity="1" fill="#fbeada"></path><g id="SvgjsG1013"><text id="SvgjsText1014" font-family="微软雅黑" text-anchor="middle" font-size="22px" width="100px" fill="#323232" font-weight="400" align="middle" lineHeight="125%" anchor="middle" family="微软雅黑" size="22px" weight="400" font-style="" opacity="1" y="12.169036343205278" transform="rotate(0)"><tspan id="SvgjsTspan1015" dy="27.5" x="60"><tspan id="SvgjsTspan1016" style="">select</tspan></tspan></text></g></g><g id="SvgjsG1017" transform="translate(168.77887184491533,25.019654364370638)"><path id="SvgjsPath1018" d="M 0 4Q 0 0 4 0L 59.74834826976803 0Q 63.74834826976803 0 63.74834826976803 4L 63.74834826976803 59.838072686410555Q 63.74834826976803 63.838072686410555 59.74834826976803 63.838072686410555L 4 63.838072686410555Q 0 63.838072686410555 0 59.838072686410555Z" stroke="rgba(0,0,0,1)" stroke-width="1.5" fill-opacity="1" fill="#fcf9ea"></path><g id="SvgjsG1019"><text id="SvgjsText1020" font-family="微软雅黑" text-anchor="middle" font-size="20px" width="44px" fill="#323232" font-weight="400" align="middle" lineHeight="125%" anchor="middle" family="微软雅黑" size="20px" weight="400" font-style="" opacity="1" y="13.919036343205278" transform="rotate(0)"><tspan id="SvgjsTspan1021" dy="25" x="32"><tspan id="SvgjsTspan1022" style="">fd</tspan></tspan></text></g></g><g id="SvgjsG1023" transform="translate(237.11700817554436,25.019654364370638)"><path id="SvgjsPath1024" d="M 0 4Q 0 0 4 0L 60.10411750053731 0Q 64.10411750053731 0 64.10411750053731 4L 64.10411750053731 59.838072686410555Q 64.10411750053731 63.838072686410555 60.10411750053731 63.838072686410555L 4 63.838072686410555Q 0 63.838072686410555 0 59.838072686410555Z" stroke="rgba(0,0,0,1)" stroke-width="1.5" fill-opacity="1" fill="#fadcdb"></path><g id="SvgjsG1025"><text id="SvgjsText1026" font-family="微软雅黑" text-anchor="middle" font-size="20px" width="45px" fill="#323232" font-weight="400" align="middle" lineHeight="125%" anchor="middle" family="微软雅黑" size="20px" weight="400" font-style="" opacity="1" y="13.919036343205278" transform="rotate(0)"><tspan id="SvgjsTspan1027" dy="25" x="32.5"><tspan id="SvgjsTspan1028" style="">fd</tspan></tspan></text></g></g><g id="SvgjsG1029" transform="translate(241.732392790929,88.8577270507812)"><path id="SvgjsPath1030" d="M 0 0L 51.74834826976826 0L 51.74834826976826 23.07692307692315L 0 23.07692307692315Z" stroke="none" fill="none"></path><g id="SvgjsG1031"><text id="SvgjsText1032" font-family="微软雅黑" text-anchor="middle" font-size="16px" width="52px" fill="#323232" font-weight="400" align="middle" lineHeight="125%" anchor="middle" family="微软雅黑" size="16px" weight="400" font-style="" opacity="1" y="-2.4615384615384244" transform="rotate(0)"><tspan id="SvgjsTspan1033" dy="20" x="26"><tspan id="SvgjsTspan1034" style="">链接</tspan></tspan></text></g></g><g id="SvgjsG1035" transform="translate(176.16348722953046,88.8577270507812)"><path id="SvgjsPath1036" d="M 0 0L 51.74834826976826 0L 51.74834826976826 23.076923076923208L 0 23.076923076923208Z" stroke="none" fill="none"></path><g id="SvgjsG1037"><text id="SvgjsText1038" font-family="微软雅黑" text-anchor="middle" font-size="16px" width="52px" fill="#323232" font-weight="400" align="middle" lineHeight="125%" anchor="middle" family="微软雅黑" size="16px" weight="400" font-style="" opacity="1" y="-2.461538461538396" transform="rotate(0)"><tspan id="SvgjsTspan1039" dy="20" x="26"><tspan id="SvgjsTspan1040" style="">服务器</tspan></tspan></text></g></g><g id="SvgjsG1041" transform="translate(305.81091373694267,25.019654364370638)"><path id="SvgjsPath1042" d="M 0 4Q 0 0 4 0L 60.10411750053731 0Q 64.10411750053731 0 64.10411750053731 4L 64.10411750053731 59.838072686410555Q 64.10411750053731 63.838072686410555 60.10411750053731 63.838072686410555L 4 63.838072686410555Q 0 63.838072686410555 0 59.838072686410555Z" stroke="rgba(0,0,0,1)" stroke-width="1.5" fill-opacity="1" fill="#fadcdb"></path><g id="SvgjsG1043"><text id="SvgjsText1044" font-family="微软雅黑" text-anchor="middle" font-size="20px" width="45px" fill="#323232" font-weight="400" align="middle" lineHeight="125%" anchor="middle" family="微软雅黑" size="20px" weight="400" font-style="" opacity="1" y="13.919036343205278" transform="rotate(0)"><tspan id="SvgjsTspan1045" dy="25" x="32.5"><tspan id="SvgjsTspan1046" style="">fd</tspan></tspan></text></g></g><g id="SvgjsG1047" transform="translate(310.4262983523273,88.8577270507812)"><path id="SvgjsPath1048" d="M 0 0L 51.74834826976826 0L 51.74834826976826 23.07692307692315L 0 23.07692307692315Z" stroke="none" fill="none"></path><g id="SvgjsG1049"><text id="SvgjsText1050" font-family="微软雅黑" text-anchor="middle" font-size="16px" width="52px" fill="#323232" font-weight="400" align="middle" lineHeight="125%" anchor="middle" family="微软雅黑" size="16px" weight="400" font-style="" opacity="1" y="-2.4615384615384244" transform="rotate(0)"><tspan id="SvgjsTspan1051" dy="20" x="26"><tspan id="SvgjsTspan1052" style="">链接</tspan></tspan></text></g></g><g id="SvgjsG1053" transform="translate(374.504819298341,25.019654364370638)"><path id="SvgjsPath1054" d="M 0 4Q 0 0 4 0L 60.10411750053731 0Q 64.10411750053731 0 64.10411750053731 4L 64.10411750053731 59.838072686410555Q 64.10411750053731 63.838072686410555 60.10411750053731 63.838072686410555L 4 63.838072686410555Q 0 63.838072686410555 0 59.838072686410555Z" stroke="rgba(0,0,0,1)" stroke-width="1.5" fill-opacity="1" fill="#fadcdb"></path><g id="SvgjsG1055"><text id="SvgjsText1056" font-family="微软雅黑" text-anchor="middle" font-size="20px" width="45px" fill="#323232" font-weight="400" align="middle" lineHeight="125%" anchor="middle" family="微软雅黑" size="20px" weight="400" font-style="" opacity="1" y="13.919036343205278" transform="rotate(0)"><tspan id="SvgjsTspan1057" dy="25" x="32.5"><tspan id="SvgjsTspan1058" style="">fd</tspan></tspan></text></g></g><g id="SvgjsG1059" transform="translate(381.7611850836338,88.8577270507812)"><path id="SvgjsPath1060" d="M 0 0L 51.74834826976826 0L 51.74834826976826 23.07692307692315L 0 23.07692307692315Z" stroke="none" fill="none"></path><g id="SvgjsG1061"><text id="SvgjsText1062" font-family="微软雅黑" text-anchor="middle" font-size="16px" width="52px" fill="#323232" font-weight="400" align="middle" lineHeight="125%" anchor="middle" family="微软雅黑" size="16px" weight="400" font-style="" opacity="1" y="-2.4615384615384244" transform="rotate(0)"><tspan id="SvgjsTspan1063" dy="20" x="26"><tspan id="SvgjsTspan1064" style="">链接</tspan></tspan></text></g></g></svg>