<svg id="SvgjsSvg1217" width="549.7373704176683" height="256.84999201847955" xmlns="http://www.w3.org/2000/svg" version="1.1" xmlns:xlink="http://www.w3.org/1999/xlink" xmlns:svgjs="http://svgjs.com/svgjs"><defs id="SvgjsDefs1218"><pattern patternUnits="userSpaceOnUse" id="pattern_mark_0" width="300" height="300"><text x="150" y="100" fill="rgba(229,229,229,0.8)" font-size="18" transform="rotate(-45, 150, 150)" style="dominant-baseline: middle; text-anchor: middle;"></text></pattern><pattern patternUnits="userSpaceOnUse" id="pattern_mark_1" width="300" height="300"><text x="150" y="200" fill="rgba(229,229,229,0.8)" font-size="18" transform="rotate(-45, 150, 150)" style="dominant-baseline: middle; text-anchor: middle;"></text></pattern><marker id="SvgjsMarker1296" markerWidth="13" markerHeight="9" refX="9.5" refY="4.5" viewBox="0 0 13 9" orient="auto" markerUnits="userSpaceOnUse" stroke-dasharray="0,0"><path id="SvgjsPath1297" d="M0,0 L13,4.5 L0,9 L0,0" fill="#323232" stroke="#323232" stroke-width="1"></path></marker><marker id="SvgjsMarker1310" markerWidth="13" markerHeight="9" refX="9.5" refY="4.5" viewBox="0 0 13 9" orient="auto" markerUnits="userSpaceOnUse" stroke-dasharray="0,0"><path id="SvgjsPath1311" d="M0,0 L13,4.5 L0,9 L0,0" fill="#323232" stroke="#323232" stroke-width="1"></path></marker><marker id="SvgjsMarker1324" markerWidth="13" markerHeight="9" refX="9.5" refY="4.5" viewBox="0 0 13 9" orient="auto" markerUnits="userSpaceOnUse" stroke-dasharray="0,0"><path id="SvgjsPath1325" d="M0,0 L13,4.5 L0,9 L0,0" fill="#323232" stroke="#323232" stroke-width="1"></path></marker></defs><rect id="svgbackgroundid" width="549.7373704176683" height="256.84999201847955" fill="#ffffff"></rect><rect id="SvgjsRect1220" width="549.7373704176683" height="256.84999201847955" fill="url(#pattern_mark_0)"></rect><rect id="SvgjsRect1221" width="549.7373704176683" height="256.84999201847955" fill="url(#pattern_mark_1)"></rect><g id="SvgjsG1222" transform="translate(25.00804320659381,145.00710694474924)"><path id="SvgjsPath1223" d="M 0 4Q 0 0 4 0L 115.95027134669124 0Q 119.95027134669124 0 119.95027134669124 4L 119.95027134669124 59.838072686410555Q 119.95027134669124 63.838072686410555 115.95027134669124 63.838072686410555L 4 63.838072686410555Q 0 63.838072686410555 0 59.838072686410555Z" stroke="rgba(0,0,0,1)" stroke-width="1.5" fill-opacity="1" fill="#fbeada"></path><g id="SvgjsG1224"><text id="SvgjsText1225" font-family="微软雅黑" text-anchor="middle" font-size="22px" width="100px" fill="#323232" font-weight="400" align="middle" lineHeight="125%" anchor="middle" family="微软雅黑" size="22px" weight="400" font-style="" opacity="1" y="12.169036343205278" transform="rotate(0)"><tspan id="SvgjsTspan1226" dy="27.5" x="60"><tspan id="SvgjsTspan1227" style="">select</tspan></tspan></text></g></g><g id="SvgjsG1228" transform="translate(168.77887184491533,145.00710694474924)"><path id="SvgjsPath1229" d="M 0 4Q 0 0 4 0L 59.74834826976803 0Q 63.74834826976803 0 63.74834826976803 4L 63.74834826976803 59.838072686410555Q 63.74834826976803 63.838072686410555 59.74834826976803 63.838072686410555L 4 63.838072686410555Q 0 63.838072686410555 0 59.838072686410555Z" stroke="rgba(0,0,0,1)" stroke-width="1.5" fill-opacity="1" fill="#e5f6da"></path><g id="SvgjsG1230"><text id="SvgjsText1231" font-family="微软雅黑" text-anchor="middle" font-size="20px" width="44px" fill="#323232" font-weight="400" align="middle" lineHeight="125%" anchor="middle" family="微软雅黑" size="20px" weight="400" font-style="" opacity="1" y="13.919036343205278" transform="rotate(0)"><tspan id="SvgjsTspan1232" dy="25" x="32"><tspan id="SvgjsTspan1233" style="">fd</tspan></tspan></text></g></g><g id="SvgjsG1234" transform="translate(237.11700817554436,145.00710694474924)"><path id="SvgjsPath1235" d="M 0 4Q 0 0 4 0L 60.10411750053731 0Q 64.10411750053731 0 64.10411750053731 4L 64.10411750053731 59.838072686410555Q 64.10411750053731 63.838072686410555 60.10411750053731 63.838072686410555L 4 63.838072686410555Q 0 63.838072686410555 0 59.838072686410555Z" stroke="rgba(0,0,0,1)" stroke-width="1.5" fill-opacity="1" fill="#fadcdb"></path><g id="SvgjsG1236"><text id="SvgjsText1237" font-family="微软雅黑" text-anchor="middle" font-size="20px" width="45px" fill="#323232" font-weight="400" align="middle" lineHeight="125%" anchor="middle" family="微软雅黑" size="20px" weight="400" font-style="" opacity="1" y="13.919036343205278" transform="rotate(0)"><tspan id="SvgjsTspan1238" dy="25" x="32.5"><tspan id="SvgjsTspan1239" style="">fd</tspan></tspan></text></g></g><g id="SvgjsG1240" transform="translate(241.732392790929,208.8451796311598)"><path id="SvgjsPath1241" d="M 0 0L 51.74834826976826 0L 51.74834826976826 23.07692307692315L 0 23.07692307692315Z" stroke="none" fill="none"></path><g id="SvgjsG1242"><text id="SvgjsText1243" font-family="微软雅黑" text-anchor="middle" font-size="16px" width="52px" fill="#323232" font-weight="400" align="middle" lineHeight="125%" anchor="middle" family="微软雅黑" size="16px" weight="400" font-style="" opacity="1" y="-2.4615384615384244" transform="rotate(0)"><tspan id="SvgjsTspan1244" dy="20" x="26"><tspan id="SvgjsTspan1245" style="">链接</tspan></tspan></text></g></g><g id="SvgjsG1246" transform="translate(176.16348722953046,208.8451796311598)"><path id="SvgjsPath1247" d="M 0 0L 51.74834826976826 0L 51.74834826976826 23.076923076923208L 0 23.076923076923208Z" stroke="none" fill="none"></path><g id="SvgjsG1248"><text id="SvgjsText1249" font-family="微软雅黑" text-anchor="middle" font-size="16px" width="52px" fill="#323232" font-weight="400" align="middle" lineHeight="125%" anchor="middle" family="微软雅黑" size="16px" weight="400" font-style="" opacity="1" y="-2.461538461538396" transform="rotate(0)"><tspan id="SvgjsTspan1250" dy="20" x="26"><tspan id="SvgjsTspan1251" style="">服务器</tspan></tspan></text></g></g><g id="SvgjsG1252" transform="translate(305.81091373694267,145.00710694474924)"><path id="SvgjsPath1253" d="M 0 4Q 0 0 4 0L 60.10411750053731 0Q 64.10411750053731 0 64.10411750053731 4L 64.10411750053731 59.838072686410555Q 64.10411750053731 63.838072686410555 60.10411750053731 63.838072686410555L 4 63.838072686410555Q 0 63.838072686410555 0 59.838072686410555Z" stroke="rgba(0,0,0,1)" stroke-width="1.5" fill-opacity="1" fill="#e5f6da"></path><g id="SvgjsG1254"><text id="SvgjsText1255" font-family="微软雅黑" text-anchor="middle" font-size="20px" width="45px" fill="#323232" font-weight="400" align="middle" lineHeight="125%" anchor="middle" family="微软雅黑" size="20px" weight="400" font-style="" opacity="1" y="13.919036343205278" transform="rotate(0)"><tspan id="SvgjsTspan1256" dy="25" x="32.5"><tspan id="SvgjsTspan1257" style="">fd</tspan></tspan></text></g></g><g id="SvgjsG1258" transform="translate(310.4262983523273,208.8451796311598)"><path id="SvgjsPath1259" d="M 0 0L 51.74834826976826 0L 51.74834826976826 23.07692307692315L 0 23.07692307692315Z" stroke="none" fill="none"></path><g id="SvgjsG1260"><text id="SvgjsText1261" font-family="微软雅黑" text-anchor="middle" font-size="16px" width="52px" fill="#323232" font-weight="400" align="middle" lineHeight="125%" anchor="middle" family="微软雅黑" size="16px" weight="400" font-style="" opacity="1" y="-2.4615384615384244" transform="rotate(0)"><tspan id="SvgjsTspan1262" dy="20" x="26"><tspan id="SvgjsTspan1263" style="">链接</tspan></tspan></text></g></g><g id="SvgjsG1264" transform="translate(374.504819298341,145.00710694474924)"><path id="SvgjsPath1265" d="M 0 4Q 0 0 4 0L 60.10411750053731 0Q 64.10411750053731 0 64.10411750053731 4L 64.10411750053731 59.838072686410555Q 64.10411750053731 63.838072686410555 60.10411750053731 63.838072686410555L 4 63.838072686410555Q 0 63.838072686410555 0 59.838072686410555Z" stroke="rgba(0,0,0,1)" stroke-width="1.5" fill-opacity="1" fill="#fadcdb"></path><g id="SvgjsG1266"><text id="SvgjsText1267" font-family="微软雅黑" text-anchor="middle" font-size="20px" width="45px" fill="#323232" font-weight="400" align="middle" lineHeight="125%" anchor="middle" family="微软雅黑" size="20px" weight="400" font-style="" opacity="1" y="13.919036343205278" transform="rotate(0)"><tspan id="SvgjsTspan1268" dy="25" x="32.5"><tspan id="SvgjsTspan1269" style="">fd</tspan></tspan></text></g></g><g id="SvgjsG1270" transform="translate(382.2452039137254,208.8451796311598)"><path id="SvgjsPath1271" d="M 0 0L 51.74834826976826 0L 51.74834826976826 23.07692307692315L 0 23.07692307692315Z" stroke="none" fill="none"></path><g id="SvgjsG1272"><text id="SvgjsText1273" font-family="微软雅黑" text-anchor="middle" font-size="16px" width="52px" fill="#323232" font-weight="400" align="middle" lineHeight="125%" anchor="middle" family="微软雅黑" size="16px" weight="400" font-style="" opacity="1" y="-2.4615384615384244" transform="rotate(0)"><tspan id="SvgjsTspan1274" dy="20" x="26"><tspan id="SvgjsTspan1275" style="">链接</tspan></tspan></text></g></g><g id="SvgjsG1276" transform="translate(443.1987248597393,145.00710694474924)"><path id="SvgjsPath1277" d="M 0 4Q 0 0 4 0L 60.10411750053731 0Q 64.10411750053731 0 64.10411750053731 4L 64.10411750053731 59.838072686410555Q 64.10411750053731 63.838072686410555 60.10411750053731 63.838072686410555L 4 63.838072686410555Q 0 63.838072686410555 0 59.838072686410555Z" stroke="rgba(0,0,0,1)" stroke-width="1.5" fill-opacity="1" fill="#e5f6da"></path><g id="SvgjsG1278"><text id="SvgjsText1279" font-family="微软雅黑" text-anchor="middle" font-size="20px" width="45px" fill="#323232" font-weight="400" align="middle" lineHeight="125%" anchor="middle" family="微软雅黑" size="20px" weight="400" font-style="" opacity="1" y="13.919036343205278" transform="rotate(0)"><tspan id="SvgjsTspan1280" dy="25" x="32.5"><tspan id="SvgjsTspan1281" style="">fd</tspan></tspan></text></g></g><g id="SvgjsG1282" transform="translate(450.9391094751237,208.8451796311598)"><path id="SvgjsPath1283" d="M 0 0L 51.74834826976826 0L 51.74834826976826 23.07692307692315L 0 23.07692307692315Z" stroke="none" fill="none"></path><g id="SvgjsG1284"><text id="SvgjsText1285" font-family="微软雅黑" text-anchor="middle" font-size="16px" width="52px" fill="#323232" font-weight="400" align="middle" lineHeight="125%" anchor="middle" family="微软雅黑" size="16px" weight="400" font-style="" opacity="1" y="-2.4615384615384244" transform="rotate(0)"><tspan id="SvgjsTspan1286" dy="20" x="26"><tspan id="SvgjsTspan1287" style="">链接</tspan></tspan></text></g></g><g id="SvgjsG1288" transform="translate(152.57612290287636,25.007106944749296)"><path id="SvgjsPath1289" d="M 0 4Q 0 0 4 0L 92.15384615384613 0Q 96.15384615384613 0 96.15384615384613 4L 96.15384615384613 44.4534573017952Q 96.15384615384613 48.4534573017952 92.15384615384613 48.4534573017952L 4 48.4534573017952Q 0 48.4534573017952 0 44.4534573017952Z" stroke="rgba(0,0,0,1)" stroke-width="1.5" fill-opacity="1" fill="#fadded"></path><g id="SvgjsG1290"><text id="SvgjsText1291" font-family="微软雅黑" text-anchor="middle" font-size="22px" width="77px" fill="#323232" font-weight="400" align="middle" lineHeight="125%" anchor="middle" family="微软雅黑" size="22px" weight="400" font-style="" opacity="1" y="4.4767286508975985" transform="rotate(0)"><tspan id="SvgjsTspan1292" dy="27.5" x="48.5"><tspan id="SvgjsTspan1293" style="">客户端</tspan></tspan></text></g></g><g id="SvgjsG1294"><path id="SvgjsPath1295" d="M200.65304597979946 74.2105642465445L200.65304597979946 109.2338355956469L200.65304597979934 109.2338355956469L200.65304597979934 142.30710694474925" stroke="#323232" stroke-width="1.5" fill="none" marker-end="url(#SvgjsMarker1296)"></path><rect id="SvgjsRect1298" width="26" height="16" x="187.6530459797994" y="96.9603680210102" fill="#ffffff"></rect><text id="SvgjsText1299" font-family="微软雅黑" text-anchor="middle" font-size="13px" width="26px" fill="#323232" font-weight="400" align="top" lineHeight="16px" anchor="middle" family="微软雅黑" size="13px" weight="400" font-style="" opacity="1" y="94.3353680210102" transform="rotate(0)"><tspan id="SvgjsTspan1300" dy="16.25" x="200.6530459797994"><tspan id="SvgjsTspan1301" style="">连接</tspan></tspan></text></g><g id="SvgjsG1302" transform="translate(288.22354941028834,25.007106944749296)"><path id="SvgjsPath1303" d="M 0 4Q 0 0 4 0L 92.15384615384613 0Q 96.15384615384613 0 96.15384615384613 4L 96.15384615384613 44.4534573017952Q 96.15384615384613 48.4534573017952 92.15384615384613 48.4534573017952L 4 48.4534573017952Q 0 48.4534573017952 0 44.4534573017952Z" stroke="rgba(0,0,0,1)" stroke-width="1.5" fill-opacity="1" fill="#fadded"></path><g id="SvgjsG1304"><text id="SvgjsText1305" font-family="微软雅黑" text-anchor="middle" font-size="22px" width="77px" fill="#323232" font-weight="400" align="middle" lineHeight="125%" anchor="middle" family="微软雅黑" size="22px" weight="400" font-style="" opacity="1" y="4.4767286508975985" transform="rotate(0)"><tspan id="SvgjsTspan1306" dy="27.5" x="48.5"><tspan id="SvgjsTspan1307" style="">客户端</tspan></tspan></text></g></g><g id="SvgjsG1308"><path id="SvgjsPath1309" d="M336.30047248721144 74.2105642465445L336.30047248721144 109.2338355956469L337.8629724872113 109.2338355956469L337.8629724872113 142.30710694474925" stroke="#323232" stroke-width="1.5" fill="none" marker-end="url(#SvgjsMarker1310)"></path><rect id="SvgjsRect1312" width="52" height="16" x="310.30047248721144" y="97.66593347989898" fill="#ffffff"></rect><text id="SvgjsText1313" font-family="微软雅黑" text-anchor="middle" font-size="13px" width="52px" fill="#323232" font-weight="400" align="top" lineHeight="16px" anchor="middle" family="微软雅黑" size="13px" weight="400" font-style="" opacity="1" y="95.04093347989898" transform="rotate(0)"><tspan id="SvgjsTspan1314" dy="16.25" x="336.30047248721144"><tspan id="SvgjsTspan1315" style="">发送消息</tspan></tspan></text></g><g id="SvgjsG1316" transform="translate(428.73636053308473,25.007106944749296)"><path id="SvgjsPath1317" d="M 0 4Q 0 0 4 0L 92.15384615384613 0Q 96.15384615384613 0 96.15384615384613 4L 96.15384615384613 44.4534573017952Q 96.15384615384613 48.4534573017952 92.15384615384613 48.4534573017952L 4 48.4534573017952Q 0 48.4534573017952 0 44.4534573017952Z" stroke="rgba(0,0,0,1)" stroke-width="1.5" fill-opacity="1" fill="#fadded"></path><g id="SvgjsG1318"><text id="SvgjsText1319" font-family="微软雅黑" text-anchor="middle" font-size="22px" width="77px" fill="#323232" font-weight="400" align="middle" lineHeight="125%" anchor="middle" family="微软雅黑" size="22px" weight="400" font-style="" opacity="1" y="4.4767286508975985" transform="rotate(0)"><tspan id="SvgjsTspan1320" dy="27.5" x="48.5"><tspan id="SvgjsTspan1321" style="">客户端</tspan></tspan></text></g></g><g id="SvgjsG1322"><path id="SvgjsPath1323" d="M476.81328361000794 74.2105642465445L476.81328361000794 142.30710694474925" stroke="#323232" stroke-width="1.5" fill="none" marker-end="url(#SvgjsMarker1324)"></path><rect id="SvgjsRect1326" width="52" height="16" x="450.81328361000794" y="96.9603680210102" fill="#ffffff"></rect><text id="SvgjsText1327" font-family="微软雅黑" text-anchor="middle" font-size="13px" width="52px" fill="#323232" font-weight="400" align="top" lineHeight="16px" anchor="middle" family="微软雅黑" size="13px" weight="400" font-style="" opacity="1" y="94.3353680210102" transform="rotate(0)"><tspan id="SvgjsTspan1328" dy="16.25" x="476.81328361000794"><tspan id="SvgjsTspan1329" style="">发送消息</tspan></tspan></text></g></svg>