<svg t="1702819860794" class="icon" viewBox="0 0 1024 1024" version="1.1" xmlns="http://www.w3.org/2000/svg" p-id="44010" width="16" height="16"><path d="M499.2 863.232H210.304a47.04 47.04 0 0 1-47.936-47.936V524.8c0-12.736 4.8-25.536 14.4-33.472l373.568-375.168A251.136 251.136 0 0 1 729.088 42.688c67.072 0 130.944 25.536 178.816 73.408a252.416 252.416 0 0 1 0 357.568l-375.168 375.168a49.792 49.792 0 0 1-33.536 14.4zM258.176 767.36H480l359.168-360.768a158.08 158.08 0 0 0 0-221.888 154.368 154.368 0 0 0-111.744-46.336c-41.472 0-81.408 16-111.744 46.336L258.176 543.936v223.488z" fill="#1296db" p-id="44011"></path><path d="M90.56 981.312a45.952 45.952 0 0 1-33.536-14.336c-19.2-19.2-19.2-49.472 0-67.072l549.12-549.12c19.2-19.2 49.536-19.2 67.072 0 19.2 19.136 19.2 49.472 0 67.008l-549.12 549.12a45.952 45.952 0 0 1-33.536 14.4z" fill="#1296db" p-id="44012"></path><path d="M657.28 684.416H387.456a47.04 47.04 0 0 1-47.872-47.872c0-27.136 20.736-47.936 47.872-47.936h269.824c27.136 0 47.872 20.8 47.872 47.936a47.04 47.04 0 0 1-47.872 47.872z" fill="#1296db" p-id="44013"></path></svg>