<svg class="icon" viewBox="0 0 1024 1024" version="1.1" xmlns="http://www.w3.org/2000/svg" width="16" height="16"><path d="M107.6 328.688l394.56 177.152a24.112 24.112 0 0 0 19.664 0l394.56-177.152a24 24 0 0 0 0-43.776l-394.56-177.12a24 24 0 0 0-19.664 0l-394.56 177.12a24 24 0 0 0 0 43.776zM511.984 155.984l336 150.816-336 150.832-336-150.832z" fill="#1296db"></path><path d="M916.384 695.232l-136.144-61.12a24 24 0 0 0-19.648 43.792l87.36 39.216-336 150.8-336-150.8 94.096-42.256a24 24 0 1 0-19.664-43.776l-142.848 64.144a24 24 0 0 0 0 43.776l394.56 177.12a24 24 0 0 0 19.664 0l394.56-177.12a24 24 0 0 0 0-43.776z" fill="#1296db"></path><path d="M107.6 539.008l394.56 177.136a24 24 0 0 0 19.664 0l150.4-67.504a24 24 0 1 0-19.648-43.776l-140.528 63.072-336-150.816 94.08-42.24a24 24 0 1 0-19.68-43.792l-142.848 64.128a24 24 0 0 0 0 43.776z" fill="#1296db"></path><path d="M916.384 495.232l-136.144-61.12a24 24 0 0 0-19.648 43.792l87.36 39.216-51.424 23.088a24 24 0 1 0 19.664 43.776l100.192-44.976a24 24 0 0 0 0-43.776z" fill="#1296db"></path><path d="M503.52 274.464l29.856-17.776 46.4-2.624-24.752-14.096 18.448-19.616-45.152 9.056-34.944-9.504-3.2 19.696-40 13.744 43.2 3.104z" fill="#1296db"></path><path d="M726.528 302.912l-59.008-23.312-69.392 31.28 59.008 23.312z" fill="#1296db"></path><path d="M400.464 298.288a105.808 105.808 0 0 0-71.248 4.416c-21.264 9.6-23.84 23.152-5.76 30.288a105.808 105.808 0 0 0 71.248-4.416c21.264-9.488 23.84-23.104 5.76-30.288z" fill="#1296db"></path><path d="M550.192 358.32l-111.92 19.2 73.712 29.12z" fill="#1296db"></path><path d="M719.456 590.768a24 24 0 1 0 24.08-24h-0.16a24 24 0 0 0-23.92 24z" fill="#1296db"></path></svg>