<svg t="1703038413246" class="icon" viewBox="0 0 1024 1024" version="1.1" xmlns="http://www.w3.org/2000/svg" p-id="60209" width="16" height="16"><path d="M497.8 540.459l433.81-210.722v-47.983L497.92 71.202 65.348 282.914l-0.725 47.13L497.8 540.459zM0 369.8l1.963-127.113L497.8 0l497.81 241.681v128.12L497.8 611.61 0 369.8z" p-id="60210" fill="#1296db"></path><path d="M99.797 388.173l-97.834 47.88L0 563.183l497.8 241.8 497.81-241.8v-128.12L890.436 384l-71.611 36.378 112.785 54.758v47.983L497.8 733.833 64.624 523.418l0.725-47.13 108.34-53.035z" p-id="60211" fill="#1296db"></path><path d="M99.797 580.173l-97.834 47.88L0 755.183l497.8 241.8 497.81-241.8v-128.12L890.436 576l-71.611 36.378 112.785 54.758v47.983L497.8 925.833 64.624 715.418l0.725-47.13 108.34-53.035z" p-id="60212" fill="#1296db"></path></svg>