<svg class="icon" viewBox="0 0 1024 1024" version="1.1" xmlns="http://www.w3.org/2000/svg" width="16" height="16"><path d="M512 0C229.2224 0 0 235.008 0 525.0048c0 225.9968 141.0048 426.6496 350.0544 498.0736 25.6 4.9664 35.0208-11.264 35.0208-25.2416 0-12.4928-0.4608-45.4656-0.6144-89.2416-142.4896 31.6928-172.4928-70.4512-172.4928-70.4512-23.296-60.6208-56.9856-76.8-56.9856-76.8-46.3872-32.512 3.584-31.8464 3.584-31.8464 51.4048 3.6864 78.4384 54.0672 78.4384 54.0672 45.6704 80.2816 119.8592 57.088 149.0944 43.6224 4.608-33.8944 17.8176-57.088 32.4608-70.1952-113.7152-13.1072-233.216-58.2656-233.216-259.4304 0-57.2928 19.8144-104.1408 52.6848-140.9024-5.7856-13.2608-23.04-66.56 4.4544-138.9056 0 0 42.9056-14.1312 140.8 53.76a479.488 479.488 0 0 1 128-17.664 479.488 479.488 0 0 1 128 17.7152c97.28-67.9424 140.1856-53.8112 140.1856-53.8112 27.4944 72.2944 10.24 125.6448 5.12 138.9056a206.3872 206.3872 0 0 1 52.48 140.9024c0 201.6768-119.7056 246.1184-233.6256 259.072 17.92 15.7184 34.56 47.872 34.56 97.0752 0 70.2464-0.6144 126.6688-0.6144 143.7184 0 13.824 8.96 30.208 35.1744 24.9344 209.7152-70.4 351.5392-271.104 351.4368-497.3568C1024 235.0592 794.7776 0 512 0" fill="#353535"></path></svg>