<svg t="1702032714639" class="icon" viewBox="0 0 1024 1024" version="1.1" xmlns="http://www.w3.org/2000/svg" p-id="1534" width="200" height="200"><path d="M512 597.333333a42.666667 42.666667 0 0 1 0 85.333334h-42.666667v-85.333334h42.666667m0-85.333333h-128v426.666667h85.333333v-170.666667h42.666667a128 128 0 0 0 128-128 128 128 0 0 0-128-128z m298.666667 85.333333a42.666667 42.666667 0 0 1 0 85.333334h-42.666667v-85.333334h42.666667m0-85.333333h-128v426.666667h85.333333v-170.666667h42.666667a128 128 0 0 0 128-128 128 128 0 0 0-128-128zM85.333333 85.333333v384h85.333334V170.666667h519.253333L853.333333 334.08V469.333333h85.333334v-170.666666L725.333333 85.333333z m170.666667 682.666667v42.666667a42.666667 42.666667 0 0 1-85.333333 0v-170.666667a42.666667 42.666667 0 0 1 85.333333 0v42.666667h85.333333v-42.666667a128 128 0 0 0-256 0v170.666667a128 128 0 0 0 256 0v-42.666667z" p-id="1535" fill="#1296db"></path></svg>