<svg t="1703039040079" class="icon" viewBox="0 0 1024 1024" version="1.1" xmlns="http://www.w3.org/2000/svg" p-id="77567" width="16" height="16"><path d="M992.422907 108.264317H31.577093c-18.044053 0-31.577093 13.53304-31.577093 31.577093v748.828194c0 18.044053 13.53304 27.066079 31.577093 27.066079H992.422907c18.044053 0 31.577093-13.53304 31.577093-31.577093V139.84141c0-18.044053-13.53304-31.577093-31.577093-31.577093z m-40.599118 735.295154H72.176211V365.39207h879.647578v478.167401z m0-550.343612H72.176211V184.951542h879.647578v108.264317z" fill="#1296db" p-id="77568"></path><path d="M663.118943 703.718062c0 4.511013 0 4.511013 4.511013 9.022026l36.088106 36.088106c4.511013 4.511013 13.53304 4.511013 13.533039 0l135.330397-139.84141-135.330397-139.84141c-4.511013-4.511013-13.53304-4.511013-13.533039 0l-36.088106 36.088106c-4.511013 0-4.511013 9.022026 0 18.044053l85.709251 85.709251-85.709251 85.709251s-4.511013 4.511013-4.511013 9.022027zM315.770925 753.339207c4.511013 0 4.511013 0 9.022027-4.511013l36.088105-36.088106c4.511013-4.511013 4.511013-9.022026 0-13.53304 0-4.511013 0-4.511013-4.511013-9.022026L270.660793 608.986784l85.709251-85.709251c4.511013-4.511013 4.511013-13.53304 0-13.53304l-40.599119-40.599119c-4.511013-4.511013-9.022026-4.511013-13.53304 0l-135.330396 139.84141 139.84141 139.84141s4.511013 4.511013 9.022026 4.511013zM424.035242 748.828194l45.110132 22.555066c4.511013 4.511013 13.53304 0 13.53304-4.511013l117.286344-270.660793c4.511013-4.511013 0-9.022026-4.511014-13.53304l-45.110132-22.555066c-4.511013 0-13.53304 0-13.533039 4.511013l-117.286344 270.660793c-4.511013 4.511013-4.511013 9.022026 4.511013 13.53304z" fill="#1296db" p-id="77569"></path></svg>