<svg t="1702637628137" class="icon" viewBox="0 0 1024 1024" version="1.1" xmlns="http://www.w3.org/2000/svg" p-id="12852" width="200" height="200"><path d="M687.91 809.68H326.99c-58.24 0-105.62-47.38-105.62-105.62V322.53c0-16.57 13.43-30 30-30s30 13.43 30 30v381.54c0 25.15 20.46 45.62 45.62 45.62H687.9c25.15 0 45.62-20.46 45.62-45.62V322.53c0-25.15-20.46-45.62-45.62-45.62H399.39c-16.57 0-30-13.43-30-30s13.43-30 30-30h288.52c58.24 0 105.62 47.38 105.62 105.62v381.54c-0.01 58.23-47.39 105.61-105.62 105.61z" p-id="12853" fill="#1296db"></path><path d="M614.68 675.58H400.22c-28.49 0-51.67-23.18-51.67-51.67V409.46c0-28.49 23.18-51.67 51.67-51.67h214.46c28.49 0 51.67 23.18 51.67 51.67v214.46c0 28.48-23.18 51.66-51.67 51.66z m-206.13-60h197.79v-197.8H408.55v197.8zM445.58 273.47c-16.57 0-30-13.43-30-30V130.04c0-16.57 13.43-30 30-30s30 13.43 30 30v113.43c0 16.57-13.43 30-30 30zM569.32 273.47c-16.57 0-30-13.43-30-30V130.04c0-16.57 13.43-30 30-30s30 13.43 30 30v113.43c0 16.57-13.43 30-30 30zM445.58 926.55c-16.57 0-30-13.43-30-30V783.12c0-16.57 13.43-30 30-30s30 13.43 30 30v113.43c0 16.57-13.43 30-30 30zM569.32 926.55c-16.57 0-30-13.43-30-30V783.12c0-16.57 13.43-30 30-30s30 13.43 30 30v113.43c0 16.57-13.43 30-30 30z" p-id="12854" fill="#1296db"></path><path d="M241.94 497.09H128.51c-16.57 0-30-13.43-30-30s13.43-30 30-30h113.43c16.57 0 30 13.43 30 30s-13.43 30-30 30zM241.94 620.83H128.51c-16.57 0-30-13.43-30-30s13.43-30 30-30h113.43c16.57 0 30 13.43 30 30s-13.43 30-30 30z" p-id="12855" fill="#1296db"></path><path d="M895.02 497.09H781.59c-16.57 0-30-13.43-30-30s13.43-30 30-30h113.43c16.57 0 30 13.43 30 30s-13.43 30-30 30zM895.02 620.83H781.59c-16.57 0-30-13.43-30-30s13.43-30 30-30h113.43c16.57 0 30 13.43 30 30s-13.43 30-30 30z" p-id="12856" fill="#1296db"></path></svg>