<svg t="1703038847772" class="icon" viewBox="0 0 1024 1024" version="1.1" xmlns="http://www.w3.org/2000/svg" p-id="65541" width="16" height="16"><path d="M872.9 71.45H155.15c-45.45 0-81.9 36.9-81.9 81.9v717.75c0 45.45 36.9 81.9 81.9 81.9h156.15v-56.25H155.15c-14.4 0-26.1-11.7-26.1-26.1V153.35c0-14.4 11.7-26.1 26.1-26.1h717.75c14.4 0 26.1 11.7 26.1 26.1v512.55c-18-16.65-37.8-31.5-58.95-44.1-90.45-57.15-199.35-75.6-307.8-51.75 0 0-22.5 4.95-27.9 19.35-5.4 13.05 4.5 29.7 4.5 29.7 5.85 10.35 15.75 22.5 27.45 36.45 2.25 2.7 4.95 5.85 7.65 9.45-14.85-2.7-35.1-9-59.85-20.7-20.7-13.05-27.45-20.25-29.7-23.85 0 0-6.75-9-13.05-13.95-9.45-7.65-26.55 0.45-26.55 0.45-55.35 22.95-94.95 45.9-104.4 51.3l-3.6 1.8c-22.05 11.25-34.65 15.75-41.85 17.55 0-21.6 15.75-48.15 28.8-70.2 2.25-3.6 4.05-6.75 5.85-10.35l5.85-9.9-2.7-10.8c-8.55-35.55 12.15-86.85 36.45-114.3 22.05-21.6 106.2-81.45 214.2-86.4l17.55-0.45 13.05-16.65c16.65-21.15 67.95-45.45 105.3-58.5-6.3 9.9-12.6 19.8-17.1 29.25-14.85 31.05-5.85 48.15 4.95 57.15 3.15 2.7 8.1 5.85 14.4 7.2 40.05 14.85 76.5 34.65 109.35 59.4 18.9-25.2 12.15-61.65-15.3-77.4-18.9-10.8-38.25-20.25-58.5-28.35 4.95-9 12.15-19.35 16.65-26.55 11.25-17.1 20.7-31.5 24.3-44.1l2.25-7.65-2.25-7.65c-3.6-12.6-14.4-22.05-28.8-24.75-40.05-7.65-156.15 38.7-195.75 83.7C432.8 327.5 336.95 385.1 299.15 422.9l-0.9 0.9c-31.95 35.55-59.4 99.45-52.2 153.9-18.45 31.5-44.55 74.7-35.1 119.25v0.45c3.6 14.85 12.6 26.1 25.65 31.95 27.9 13.05 63.9-3.15 95.85-19.35l4.05-2.25 1.8-0.9c6.3-3.6 36.9-21.6 81.45-40.95 8.55 8.1 19.8 16.65 35.55 26.55l2.7 1.35c56.7 27.45 130.5 45.9 153.9 6.75l0.9-1.8c12.15-24.75-8.1-49.05-34.2-79.65 81.9-10.35 162.9 7.2 230.85 50.4l0.45 0.45c32.85 20.25 62.1 45.9 86.85 76.5l1.35-0.9V872c0 14.4-11.7 26.1-26.1 26.1h-166.05v56.25H872c45.45 0 81.9-36.9 81.9-81.9V153.35c0.9-45-35.55-81.9-81-81.9z" p-id="65542" fill="#1296db"></path><path d="M407.15 897.2h58.5v56.25h-58.5zM540.8 897.2h58.5v56.25h-58.5z" p-id="65543" fill="#1296db"></path></svg>