<?xml version="1.0" standalone="no"?><!DOCTYPE svg PUBLIC "-//W3C//DTD SVG 1.1//EN" "http://www.w3.org/Graphics/SVG/1.1/DTD/svg11.dtd"><svg t="1702037085894" class="icon" viewBox="0 0 1034 1024" version="1.1" xmlns="http://www.w3.org/2000/svg" p-id="22912" xmlns:xlink="http://www.w3.org/1999/xlink" width="201.953125" height="200"><path d="M922.757 679.722c-9.278-52.003-24.544-99.516-43.39-139.068 0.091-0.137 0.182-0.275 0.275-0.408 0.847 0.258 1.696 0.508 2.541 0.773-0.422-0.883-0.863-1.76-1.292-2.643 12.366-18.578 22.399-39.972 29.136-66.647 3.516-13.909 6.145-29.263 7.783-46.397 0.818-8.569 1.389-17.584 1.698-27.092 0.156-4.751 0.246-9.626 0.269-14.633 0.022-5.002-0.022-10.14-0.133-15.402 0.081-10.857-0.111-21.828-0.471-32.944-0.359-11.116-0.885-22.367-1.475-33.786-1.178-22.837-2.604-46.319-3.434-70.643-1.523-34.468-1.834-70.638-2.67-105.163-19.341 6.757-39.436 15.327-59.56 25.448-81.158 40.989-166.211 107.387-215.76 191.069-1.042 1.655-2.046 3.322-3.049 4.986-38.35-10.217-79.226-15.743-121.656-15.743-43.438 0-85.243 5.795-124.381 16.487-0.939-1.447-1.869-2.891-2.834-4.33-53.276-84.088-134.112-149.982-215.583-191.043-20.062-10.118-40.164-18.696-59.515-25.452-0.839 34.537-1.153 70.724-2.677 105.213-1.663 48.665-5.701 93.985-5.376 137.427-1.778 83.493 13.639 133.437 39.644 171.555-0.142 0.303-0.294 0.602-0.437 0.905 0.139-0.038 0.277-0.075 0.416-0.112-18.356 39.116-33.223 85.823-42.326 136.86-2.678 15.010-4.747 29.82-6.254 44.359 65.632 10.539 144.907 36.168 225.818 75.514 55.879 27.177 105.924 57.687 147.427 88.735 3.259 3.722 7.779 7.212 12.852 10.232 5.65 3.36 11.912 6.11 17.756 7.969 2.927 0.931 5.759 1.64 8.428 2.108 1.336 0.237 2.633 0.412 3.885 0.526 0.625 0.052 1.241 0.096 1.846 0.115 0.605 0.021 1.2 0.027 1.78 0.018 11.043-0.218 22.754-6.308 32.935-14.805h0.439c43.386-33.658 97.033-66.961 157.499-96.36 80.923-39.35 160.207-64.979 225.863-75.526-1.484-13.815-3.485-27.877-6.022-42.109zM682.665 760.403c-54.102 27.67-102.101 59.014-140.921 90.693h-0.392c-9.11 7.996-19.587 13.728-29.469 13.934-0.52 0.007-1.052 0.003-1.594-0.017-0.541-0.021-1.090-0.059-1.652-0.109-1.121-0.106-2.282-0.27-3.476-0.495-2.389-0.442-4.923-1.108-7.54-1.985-5.229-1.75-10.831-4.338-15.887-7.5-4.539-2.842-8.584-6.126-11.5-9.63-37.133-29.222-81.911-57.936-131.909-83.515-72.395-37.033-143.325-61.151-202.047-71.073 1.348-13.683 3.2-27.623 5.597-41.749 7.070-41.692 18.023-80.317 31.533-113.864 11.924-1.751 24.096-2.671 36.471-2.671 143.697 0 261.084 115.913 274.521 266.783h0.074c1.127 17.839 12.971 31.877 27.428 31.877 15.201 0 27.523-15.518 27.523-34.659 0-2.258-0.177-4.463-0.505-6.602 19.173-146.753 126.643-260.464 267.536-260.464 13.608 0 26.973 1.105 40.032 3.213 14.126 34.29 25.577 74.068 32.88 117.121 2.272 13.395 4.061 26.629 5.39 39.631-58.742 9.924-129.68 34.047-202.086 71.082z" fill="#1296db" p-id="22913"></path></svg>