<svg t="1702990207221" class="icon" viewBox="0 0 1024 1024" version="1.1" xmlns="http://www.w3.org/2000/svg" p-id="25983" width="16" height="16"><path d="M853.333333 836.266667L753.493333 217.173333a65.706667 65.706667 0 0 0-25.6-42.666666 63.573333 63.573333 0 0 0-47.786666-11.093334l-107.52 17.493334a49.92 49.92 0 0 0-13.226667 5.12 63.146667 63.146667 0 0 0-42.666667-18.773334h-110.933333v-8.533333A64 64 0 0 0 341.333333 96H232.533333A64 64 0 0 0 170.666667 160v699.306667a64 64 0 0 0 63.573333 64H341.333333a63.146667 63.146667 0 0 0 32-8.96 61.866667 61.866667 0 0 0 31.573334 8.96h109.226666a64 64 0 0 0 63.573334-64V614.4l42.666666 259.84a62.293333 62.293333 0 0 0 25.6 42.666667 65.28 65.28 0 0 0 37.12 11.946666h10.24l107.946667-17.493333A64 64 0 0 0 853.333333 836.266667z m-512 23.04H232.96V160H341.333333z m0 2.133333z m170.666667-2.133333H405.76V232.533333h108.373333z m0 32v-32z m170.666667-27.306667l-99.84-618.666667 107.52-17.493333 100.693333 618.666667z" fill="#1296db" p-id="25984"></path></svg>