<?xml version="1.0" standalone="no"?><!DOCTYPE svg PUBLIC "-//W3C//DTD SVG 1.1//EN" "http://www.w3.org/Graphics/SVG/1.1/DTD/svg11.dtd"><svg t="1702036622175" class="icon" viewBox="0 0 1066 1024" version="1.1" xmlns="http://www.w3.org/2000/svg" p-id="10677" xmlns:xlink="http://www.w3.org/1999/xlink" width="208.203125" height="200"><path d="M511.887811 4.490109c44.790183 0 81.048903 36.25872 81.048904 81.048904v853.146352a81.048903 81.048903 0 0 1-81.048904 81.048903h-85.314635A81.048903 81.048903 0 0 1 345.524273 938.685365V85.539013C345.524273 40.748829 381.782993 4.490109 426.573176 4.490109z m-341.258541 0C215.419454 4.490109 251.678174 40.748829 251.678174 85.539013v853.146352A81.048903 81.048903 0 0 1 170.62927 1019.734268H85.314635A81.048903 81.048903 0 0 1 4.265732 938.685365V85.539013C4.265732 40.748829 40.524452 4.490109 85.314635 4.490109z m716.856223 54.857311l1.450349 6.142653 162.780324 837.491117a81.048903 81.048903 0 0 1-57.928638 93.590155l-6.185311 1.450349-83.736314 16.252438a81.048903 81.048903 0 0 1-93.590155-57.928638l-1.450349-6.142653-162.780324-837.491117A81.048903 81.048903 0 0 1 703.973712 19.121569l6.185311-1.450349L793.852681 1.418782a81.048903 81.048903 0 0 1 93.590154 57.928638zM516.153543 251.731922L511.887811 251.902551h-85.314635c-1.450349 0-2.85804 0-4.265732-0.127972V938.685365a4.265732 4.265732 0 0 0 4.265732 4.265732h85.314635a4.265732 4.265732 0 0 0 4.265732-4.265732V251.731922z m-341.258541 0L170.62927 251.902551H85.314635c-1.450349 0-2.85804 0-4.265732-0.127972V938.685365a4.265732 4.265732 0 0 0 4.265732 4.265732h85.314635a4.265732 4.265732 0 0 0 4.265732-4.265732V251.731922z m780.159682 578.774485l-83.736315 16.295096a4.265732 4.265732 0 0 0-3.369928 3.284613v1.706293l16.252438 83.736314a4.265732 4.265732 0 0 0 3.327271 3.369928h1.706293l83.736314-16.252438a4.265732 4.265732 0 0 0 3.369928-3.32727v-1.706293l-16.295095-83.736315a4.265732 4.265732 0 0 0-4.990906-3.369928z m-146.527886-753.754802l-83.736315 16.295096a4.265732 4.265732 0 0 0-3.369928 3.32727v1.706293L852.506492 772.321826l4.13776-0.938461 83.778972-16.295095a82.328623 82.328623 0 0 1 4.223074-0.725175L813.560361 80.164191a4.265732 4.265732 0 0 0-5.033563-3.412586zM511.887811 81.273281h-85.314635a4.265732 4.265732 0 0 0-4.265732 4.265732v85.314635a4.265732 4.265732 0 0 0 4.265732 4.265732h85.314635a4.265732 4.265732 0 0 0 4.265732-4.265732V85.539013a4.265732 4.265732 0 0 0-4.265732-4.265732z m-341.258541 0H85.314635a4.265732 4.265732 0 0 0-4.265732 4.265732v85.314635a4.265732 4.265732 0 0 0 4.265732 4.265732h85.314635a4.265732 4.265732 0 0 0 4.265732-4.265732V85.539013a4.265732 4.265732 0 0 0-4.265732-4.265732z" fill="#1296db" p-id="10678"></path></svg>