<svg t="1703038213795" class="icon" viewBox="0 0 1024 1024" version="1.1" xmlns="http://www.w3.org/2000/svg" p-id="59110" width="16" height="16"><path d="M174.682353 346.352941h367.435294v-60.235294h-367.435294zM174.682353 472.847059h228.894118v-60.235294h-228.894118zM174.682353 605.364706h228.894118v-60.235294h-228.894118zM174.682353 737.882353h228.894118v-60.235294h-228.894118zM530.070588 605.364706h349.364706v54.211765h-355.388235l72.282353 72.282353-42.164706 42.164705-138.541177-138.541176 138.541177-138.541177 42.164706 42.164706-66.258824 66.258824zM879.435294 382.494118h-349.364706v54.211764h355.388236l-72.282353 72.282353 42.164705 42.164706 138.541177-138.541176-138.541177-138.541177-42.164705 42.164706 66.258823 66.258824z" fill="#1296db" p-id="59111"></path><path d="M764.988235 201.788235c0-60.235294-48.188235-114.447059-114.447059-114.447059h-505.97647c-60.235294 0-114.447059 48.188235-114.447059 114.447059v620.42353c0 60.235294 48.188235 114.447059 114.447059 114.447059h505.97647c60.235294 0 114.447059-48.188235 114.447059-114.447059v-84.329412h-60.235294v84.329412c0 30.117647-24.094118 54.211765-54.211765 54.211764h-505.97647c-30.117647 0-54.211765-24.094118-54.211765-54.211764v-620.42353c0-30.117647 24.094118-54.211765 54.211765-54.211764h505.97647c30.117647 0 54.211765 24.094118 54.211765 54.211764v96.376471h60.235294v-96.376471z" fill="#1296db" p-id="59112"></path></svg>