<svg t="1702818683716" class="icon" viewBox="0 0 1024 1024" version="1.1" xmlns="http://www.w3.org/2000/svg" p-id="17751" width="200" height="200"><path d="M863.9 739.5c-16.4 0-31.7 4.3-45 11.8l-68.3-58.6V435L540.4 323.5v-64c39.4-12.2 68.1-48.9 68.1-92.3 0-53.3-43.3-96.6-96.6-96.6s-96.6 43.3-96.6 96.6c0 42.2 27.2 78.2 65 91.3V325L273.1 435v257.9L212 754c-14.3-9.2-31.3-14.5-49.5-14.5-50.6 0-91.7 41.2-91.7 91.7s41.2 91.7 91.7 91.7c50.6 0 91.7-41.2 91.7-91.7 0-10.4-1.7-20.4-4.9-29.7l79-79L511.8 820 694 723.3l85.1 73c-4.5 10.8-6.9 22.6-6.9 35 0 50.6 41.2 91.7 91.7 91.7s91.7-41.2 91.7-91.7-41.1-91.8-91.7-91.8zM507 528.8L377.2 459l134.7-71.5 126.6 67.2L507 528.8z m33.4 50l140.1-79v151.3l-140.1 74.4V578.8zM512 130.6c20.2 0 36.6 16.4 36.6 36.6 0 20.2-16.4 36.6-36.6 36.6-20.2 0-36.6-16.4-36.6-36.6 0-20.1 16.4-36.6 36.6-36.6zM162.5 863c-17.5 0-31.7-14.2-31.7-31.7s14.2-31.7 31.7-31.7 31.7 14.2 31.7 31.7S180 863 162.5 863z m180.6-354.1l137.3 73.7V724l-137.3-72.8V508.9zM863.9 863c-17.5 0-31.7-14.2-31.7-31.7s14.2-31.7 31.7-31.7 31.7 14.2 31.7 31.7-14.2 31.7-31.7 31.7z" p-id="17752" fill="#1296db"></path></svg>