<svg class="icon" viewBox="0 0 1024 1024" version="1.1" xmlns="http://www.w3.org/2000/svg" width="16" height="16"><path d="M32.042123 1024a31.697371 31.697371 0 0 1-22.610507-9.385493 31.782694 31.782694 0 0 1-6.783152-35.195601l134.895138-314.712661a31.697371 31.697371 0 0 1 5.11936-8.233637 18.770987 18.770987 0 0 1 1.791776-2.175728L725.374123 73.377494a95.006791 95.006791 0 0 0-40.912219-9.129525c-25.426155 0-49.316502 9.854768-67.234262 27.772528l-135.023122 135.023123a31.740032 31.740032 0 0 1-45.221015 0c-6.057909-6.015248-9.385493-14.07824-9.385493-22.610507s3.327584-16.595259 9.385493-22.610507l135.023123-135.023123a158.188226 158.188226 0 0 1 112.625921-46.543515c32.465275 0 64.205308 9.940091 90.655335 28.199142a165.142024 165.142024 0 0 1 90.058076-26.876641c32.29463 0 63.65071 9.428155 90.612674 27.345915 72.310961 51.278923 89.418156 151.106445 38.565846 222.734825-5.162021 7.252427-10.963963 14.120902-17.277841 20.434779L369.706582 879.591384a18.301712 18.301712 0 0 1-1.91976 1.621131 29.862934 29.862934 0 0 1-8.105654 5.162022l-315.053951 135.023122a31.996 31.996 0 0 1-12.585094 2.602341z m60.920385-92.959047l198.076574-84.896054-113.180519-113.137858-84.896055 198.033912z m254.133567-119.323751l404.813398-404.770737-134.767154-134.809815-404.813398 404.813398 134.767154 134.767154zM797.130487 361.68279l134.895138-134.895138a94.6655 94.6655 0 0 0 26.53535-83.360247 94.750823 94.750823 0 0 0-38.779153-61.816273 98.547682 98.547682 0 0 0-54.3932-16.211307c-27.217931 0-53.667958 11.262592-72.524268 30.929467l-130.543682 130.543682 134.809815 134.809816z" fill="#1296db"></path></svg>