<svg t="1702306122617" class="icon" viewBox="0 0 1024 1024" version="1.1" xmlns="http://www.w3.org/2000/svg" p-id="3178" width="200" height="200"><path d="M192 896V128h576v256a8 8 0 0 0 8 8h48a8 8 0 0 0 8-8V96c0-17.673-14.327-32-32-32H160c-17.673 0-32 14.327-32 32v832c0 17.673 14.327 32 32 32h295a8 8 0 0 0 8-8v-48a8 8 0 0 0-8-8H192z" fill="#1296db" p-id="3179"></path><path d="M256 264a8 8 0 0 1 8-8h240a8 8 0 0 1 8 8v48a8 8 0 0 1-8 8H264a8 8 0 0 1-8-8v-48zM264 512a8 8 0 0 0-8 8v48a8 8 0 0 0 8 8h144a8 8 0 0 0 8-8v-48a8 8 0 0 0-8-8H264zM672 600a8 8 0 0 1 8-8h48a8 8 0 0 1 8 8v88h88a8 8 0 0 1 8 8v48a8 8 0 0 1-8 8H704c-17.673 0-32-14.327-32-32V600z" fill="#1296db" p-id="3180"></path><path d="M707.5 960C846.952 960 960 846.952 960 707.5S846.952 455 707.5 455 455 568.048 455 707.5 568.048 960 707.5 960z m0-64C603.394 896 519 811.606 519 707.5S603.394 519 707.5 519 896 603.394 896 707.5 811.606 896 707.5 896z" fill="#1296db" p-id="3181"></path></svg>