<svg t="1702877838562" class="icon" viewBox="0 0 1024 1024" version="1.1" xmlns="http://www.w3.org/2000/svg" p-id="22604" width="16" height="16"><path d="M371.803 126.482c0-19.364 15.708-35.053 35.054-35.053h210.286c19.346 0 35.054 15.689 35.054 35.053v210.286a35.054 35.054 0 0 1-35.054 35.035h-70.09V512H757.34a70.09 70.09 0 0 1 70.09 70.09v70.107h70.089c19.364 0 35.053 15.689 35.053 35.035v210.286a35.054 35.054 0 0 1-35.053 35.053H687.232a35.054 35.054 0 0 1-35.035-35.053V687.232c0-19.346 15.689-35.035 35.035-35.035h70.107v-70.108H266.661v70.108h70.107c19.346 0 35.035 15.689 35.035 35.035v210.286a35.054 35.054 0 0 1-35.035 35.053H126.482a35.054 35.054 0 0 1-35.053-35.053V687.232c0-19.346 15.689-35.035 35.053-35.035h70.09v-70.108A70.09 70.09 0 0 1 266.66 512h210.285V371.803h-70.089a35.054 35.054 0 0 1-35.054-35.035V126.482z m70.108 175.232h140.178V161.518H441.911v140.196zM161.518 722.286v140.196h140.196V722.286H161.518z m560.768 0v140.196h140.196V722.286H722.286z" p-id="22605" fill="#1296db"></path></svg>