<svg t="1702637721264" class="icon" viewBox="0 0 1024 1024" version="1.1" xmlns="http://www.w3.org/2000/svg" p-id="15063" width="200" height="200"><path d="M443.73333333 921.6a34.13333333 34.13333333 0 0 1 0 68.26666667H139.776C81.23733333 989.86666667 34.13333333 941.4656 34.13333333 882.21013333V141.78986667C34.13333333 82.5344 81.23733333 34.13333333 139.776 34.13333333h607.91466667C806.22933333 34.13333333 853.33333333 82.5344 853.33333333 141.78986667v194.62826666a34.13333333 34.13333333 0 0 1-68.26666666 0V141.78986667C785.06666667 119.808 768.1024 102.4 747.69066667 102.4H139.776c-20.41173333 0-37.376 17.408-37.376 39.38986667v740.42026666C102.4 904.192 119.36426667 921.6 139.776 921.6H443.73333333z" fill="#1296db" p-id="15064"></path><path d="M750.93333333 989.86666667a273.06666667 273.06666667 0 1 1 0-546.13333334 273.06666667 273.06666667 0 0 1 0 546.13333334z m0-68.26666667a204.8 204.8 0 1 0 0-409.6 204.8 204.8 0 0 0 0 409.6z" fill="#1296db" p-id="15065"></path><path d="M768 699.73333333h84.75306667a34.13333333 34.13333333 0 1 1 0 68.26666667H733.86666667a34.13333333 34.13333333 0 0 1-34.13333334-34.13333333v-102.4a34.13333333 34.13333333 0 0 1 68.26666667 0v68.26666666zM273.06666667 341.33333333a34.13333333 34.13333333 0 0 1 0-68.26666666h341.33333333a34.13333333 34.13333333 0 0 1 0 68.26666666H273.06666667z m0 273.06666667a34.13333333 34.13333333 0 0 1 0-68.26666667h68.26666666a34.13333333 34.13333333 0 0 1 0 68.26666667h-68.26666666z" fill="#1296db" p-id="15066"></path></svg>