<svg t="1702877212975" class="icon" viewBox="0 0 1024 1024" version="1.1" xmlns="http://www.w3.org/2000/svg" p-id="9978" width="16" height="16"><path d="M910.05736 381.480164c-15.758569-56.280604-42.67093-107.751774-78.690517-151.95763l44.717498 5.730389c1.841911 0.204657 3.683821 0.306985 5.525732 0.306985 21.181973 0 39.498751-15.656241 42.261617-37.247527 2.967523-23.330868-13.507345-44.717498-36.838213-47.787349L702.944739 126.887179h-0.716299c-2.455881-0.306985-5.01409-0.409313-7.572299-0.204657-0.716299 0-1.330269 0.204657-1.944239 0.204657-1.841911 0.204657-3.683821 0.511642-5.423404 0.920955-0.920955 0.204657-1.739582 0.511642-2.660538 0.716299-1.637254 0.511642-3.172179 1.125612-4.707105 1.841911-0.716299 0.306985-1.534926 0.61397-2.251224 1.023283-2.046567 1.125612-4.093135 2.353553-6.037374 3.78615l-0.102328 0.102328c-0.409313 0.306985-0.818627 0.716299-1.22794 1.125612-1.534926 1.22794-2.967523 2.558209-4.195464 3.990807-0.61397 0.61397-1.125612 1.330269-1.637253 2.046567-1.023284 1.330269-2.046567 2.660538-2.967523 4.093135-0.511642 0.716299-0.920955 1.432597-1.330269 2.251224-1.125612 2.046567-2.046567 4.093135-2.865194 6.242031-0.102328 0.306985-0.204657 0.511642-0.306986 0.818627-0.818627 2.353553-1.330269 4.707105-1.637253 7.162986 0 0.306985-0.204657 0.61397-0.204657 0.920955-0.102328 0.409313 0 0.818627 0 1.330269-0.204657 1.944239-0.204657 3.888478-0.204657 5.832717 0 0.716299 0 1.432597 0.102328 2.148896 0.204657 2.353553 0.61397 4.809433 1.227941 7.162986l0.102328 0.306985c0 0.102328 0 0.102328 0.102329 0.204656L701.716798 349.963026c6.139702 22.716898 29.470571 36.224243 52.289797 30.186869 22.716898-6.139702 36.224243-29.470571 30.18687-52.289797l-8.18627-30.698511c23.433197 32.233437 41.136005 68.662336 52.08514 108.058759 0.204657 0.61397 0.306985 1.125612 0.511642 1.637254 26.810033 82.88598 20.772659 171.809333-16.986509 250.397521-10.232837 21.181973-1.330269 46.764065 19.954032 56.894574 5.935045 2.865194 12.279404 4.195463 18.419107 4.195463 15.860897 0 31.107825-8.902568 38.475467-24.149495 47.275707-98.030579 54.848006-209.159189 21.591286-312.715499zM749.197162 822.515439c-0.102328-0.409313-0.204657-0.818627-0.204657-1.125612-0.306985-2.046567-0.818627-4.093135-1.432597-6.139702-0.204657-0.818627-0.511642-1.534926-0.818627-2.251224-0.61397-1.637254-1.330269-3.172179-2.148896-4.707105-0.409313-0.716299-0.716299-1.432597-1.22794-2.148896-1.22794-2.046567-2.558209-3.888478-4.093135-5.730389-0.102328-0.204657-0.306985-0.409313-0.409313-0.511642-1.637254-1.841911-3.479165-3.581493-5.423404-5.116418-0.204657-0.204657-0.409313-0.409313-0.716299-0.61397-0.306985-0.306985-0.716299-0.409313-1.125612-0.716299-1.534926-1.125612-3.274508-2.148896-5.01409-3.069851-0.61397-0.306985-1.22794-0.716299-1.944239-1.023284-2.148896-1.023284-4.40012-1.841911-6.856001-2.558209l-0.306985-0.102328c-0.102328 0-0.204657 0-0.204656-0.102329l-169.251125-45.331468c-22.716898-6.139702-46.150095 7.367643-52.289797 30.186869-6.139702 22.716898 7.367643 46.150095 30.186869 52.289798l30.698511 8.186269c-39.601079 4.195463-80.020785 1.330269-119.621864-8.902568-0.61397-0.102328-1.125612-0.306985-1.739583-0.409313-85.239532-18.21445-159.222944-67.946038-208.340561-139.985211-13.302688-19.44239-39.805736-24.45648-59.248127-11.256121-19.44239 13.302688-24.45648 39.805736-11.25612 59.248127 61.397022 89.946637 153.697212 152.162286 260.118717 175.083841 34.689317 8.80024 69.890277 13.20036 104.886579 13.20036 22.205256 0 44.308184-1.944239 66.104127-5.423404l-27.424003 36.019587c-14.325972 18.726092-10.744479 45.536125 7.981613 59.759768 7.776956 5.935045 16.781853 8.80024 25.889077 8.80024 12.893375 0 25.582093-5.730389 33.973019-16.781853l112.663536-147.55751c0.102328-0.204657 0.204657-0.409313 0.306985-0.511642 1.534926-2.046567 2.865194-4.195463 3.990806-6.446687 0.306985-0.511642 0.409313-1.125612 0.716299-1.637254 0.818627-1.739582 1.432597-3.581493 1.944239-5.423404l0.61397-2.455881c0.409313-1.739582 0.61397-3.479165 0.818627-5.321075 0.102328-0.716299 0.204657-1.432597 0.204657-2.148896 0.102328-2.353553 0.102328-4.809433-0.204657-7.162985 0.204657 0 0.204657 0 0.204657-0.102329zM155.38563 542.135705c1.534926-1.023284 2.762866-2.251224 4.195463-3.376836 0.716299-0.61397 1.534926-1.125612 2.251224-1.841911l0.204657-0.204657 0.102328-0.102328 123.919657-123.919656c16.679524-16.679524 16.679524-43.694214 0-60.373739-16.679524-16.679524-43.694214-16.679524-60.373739 0l-22.409913 22.409913c16.167882-36.4289 38.884781-69.992605 67.536725-99.15619l1.22794-1.227941c58.327171-64.773858 138.347956-103.965624 225.327071-110.514639 23.535525-1.739582 41.136005-22.205256 39.294094-45.740782-1.739582-23.535525-22.205256-41.033676-45.740781-39.294094-108.570401 8.18627-208.647547 57.099231-281.710003 137.733986-40.82902 41.852303-71.936844 90.867593-92.30019 144.078345l-17.395823-41.647646c-9.107225-21.693614-34.075347-32.02878-55.768962-22.921555-21.795943 9.107225-32.02878 34.075347-22.921555 55.768962l71.527531 171.297691c0.102328 0.204657 0.204657 0.409313 0.306985 0.716299 0.511642 1.125612 1.023284 2.148896 1.637254 3.172179 0.511642 0.818627 0.920955 1.739582 1.432597 2.558209 0.511642 0.818627 1.22794 1.637254 1.739583 2.455881 0.61397 0.920955 1.22794 1.739582 1.944239 2.55821 0.61397 0.716299 1.330269 1.330269 1.944239 2.046567l2.455881 2.455881c0.716299 0.61397 1.432597 1.125612 2.251224 1.739582 0.920955 0.716299 1.841911 1.432597 2.762866 2.046568 0.818627 0.511642 1.637254 0.920955 2.455881 1.432597 1.023284 0.511642 2.046567 1.125612 3.069851 1.534925 0.204657 0.102328 0.409313 0.204657 0.716298 0.306985 0.409313 0.204657 0.818627 0.204657 1.227941 0.409314 1.841911 0.716299 3.78615 1.330269 5.730388 1.739582 0.716299 0.204657 1.330269 0.306985 2.046568 0.409314 2.455881 0.409313 5.01409 0.716299 7.572299 0.716298 3.376836 0 6.856001-0.61397 10.232837-1.432597 2.046567-0.511642 4.093135-1.023284 6.037374-1.841911h0.102328c0.818627-0.306985 1.534926-0.818627 2.251225-1.22794 1.841911-0.920955 3.479165-1.739582 5.116418-2.762866z" fill="#1296db" p-id="9979"></path></svg>