<svg t="1702637984884" class="icon" viewBox="0 0 1024 1024" version="1.1" xmlns="http://www.w3.org/2000/svg" p-id="18036" width="16" height="16"><path d="M725.333333 298.666667a128 128 0 1 0-120.746666-170.666667H597.333333l-9.258666 0.213333A213.333333 213.333333 0 0 0 384 341.333333v128H291.413333a128.042667 128.042667 0 1 0 0 85.333334H384v128l0.213333 9.258666A213.333333 213.333333 0 0 0 597.333333 896h7.253334a128.042667 128.042667 0 1 0 0-85.333333H597.333333l-7.509333-0.213334A128 128 0 0 1 469.333333 682.666667v-128h220.586667a128.042667 128.042667 0 1 0 0-85.333334H469.333333V341.333333l0.213334-7.509333A128 128 0 0 1 597.333333 213.333333h7.253334A128.042667 128.042667 0 0 0 725.333333 298.666667z m0 597.333333a42.666667 42.666667 0 1 1 0-85.333333 42.666667 42.666667 0 0 1 0 85.333333z m0-682.666667a42.666667 42.666667 0 1 1 0-85.333333 42.666667 42.666667 0 0 1 0 85.333333z m85.333334 341.333334a42.666667 42.666667 0 1 1 0-85.333334 42.666667 42.666667 0 0 1 0 85.333334zM170.666667 554.666667a42.666667 42.666667 0 1 1 0-85.333334 42.666667 42.666667 0 0 1 0 85.333334z" fill="#1296db" p-id="18037"></path></svg>