<svg t="1702877886388" class="icon" viewBox="0 0 1152 1024" version="1.1" xmlns="http://www.w3.org/2000/svg" p-id="24528" width="200" height="200"><path d="M48 563.52h119.616c64.256 0 120.768-45.76 138.432-112.064l76.16-285.824c5.888-22.4 27.648-35.328 48.448-28.928a41.024 41.024 0 0 1 27.648 31.616l141.568 708.928c15.616 78.4 87.552 128.32 160.576 111.488 48.832-11.2 88-50.496 101.76-102.016l76.032-285.824c5.888-22.144 24.768-37.376 46.144-37.376h119.616c26.496 0 48-23.04 48-51.52 0-28.416-21.504-51.52-48-51.52h-119.616c-64.256 0-120.768 45.76-138.432 112.064l-76.16 285.888a40.512 40.512 0 0 1-29.44 29.568c-21.248 4.864-42.112-9.6-46.656-32.32L552.128 146.752C541.696 94.272 505.088 52.352 457.088 37.632 385.216 15.616 310.4 60.16 289.856 137.28l-76.16 285.888c-5.824 22.08-24.704 37.312-46.08 37.312H48c-26.496 0-48 23.04-48 51.52 0 28.48 21.504 51.52 48 51.52z" fill="#1296db" p-id="24529"></path></svg>