<svg id="SvgjsSvg1245" width="645.8125" height="204.84375" xmlns="http://www.w3.org/2000/svg" version="1.1" xmlns:xlink="http://www.w3.org/1999/xlink" xmlns:svgjs="http://svgjs.com/svgjs"><defs id="SvgjsDefs1246"><pattern patternUnits="userSpaceOnUse" id="pattern_mark_0" width="300" height="300"><text x="150" y="100" fill="rgba(229,229,229,0.8)" font-size="18" transform="rotate(-45, 150, 150)" style="dominant-baseline: middle; text-anchor: middle;"></text></pattern><pattern patternUnits="userSpaceOnUse" id="pattern_mark_1" width="300" height="300"><text x="150" y="200" fill="rgba(229,229,229,0.8)" font-size="18" transform="rotate(-45, 150, 150)" style="dominant-baseline: middle; text-anchor: middle;"></text></pattern><marker id="SvgjsMarker1292" markerWidth="13" markerHeight="9" refX="9.5" refY="4.5" viewBox="0 0 13 9" orient="auto" markerUnits="userSpaceOnUse" stroke-dasharray="0,0"><path id="SvgjsPath1293" d="M0,0 L13,4.5 L0,9 L0,0" fill="#323232" stroke="#323232" stroke-width="1"></path></marker><marker id="SvgjsMarker1300" markerWidth="13" markerHeight="9" refX="9.5" refY="4.5" viewBox="0 0 13 9" orient="auto" markerUnits="userSpaceOnUse" stroke-dasharray="0,0"><path id="SvgjsPath1301" d="M0,0 L13,4.5 L0,9 L0,0" fill="#323232" stroke="#323232" stroke-width="1"></path></marker><marker id="SvgjsMarker1304" markerWidth="13" markerHeight="9" refX="9.5" refY="4.5" viewBox="0 0 13 9" orient="auto" markerUnits="userSpaceOnUse" stroke-dasharray="0,0"><path id="SvgjsPath1305" d="M0,0 L13,4.5 L0,9 L0,0" fill="#323232" stroke="#323232" stroke-width="1"></path></marker><marker id="SvgjsMarker1308" markerWidth="13" markerHeight="9" refX="9.5" refY="4.5" viewBox="0 0 13 9" orient="auto" markerUnits="userSpaceOnUse" stroke-dasharray="0,0"><path id="SvgjsPath1309" d="M0,0 L13,4.5 L0,9 L0,0" fill="#323232" stroke="#323232" stroke-width="1"></path></marker><marker id="SvgjsMarker1312" markerWidth="13" markerHeight="9" refX="9.5" refY="4.5" viewBox="0 0 13 9" orient="auto" markerUnits="userSpaceOnUse" stroke-dasharray="0,0"><path id="SvgjsPath1313" d="M0,0 L13,4.5 L0,9 L0,0" fill="#323232" stroke="#323232" stroke-width="1"></path></marker></defs><rect id="svgbackgroundid" width="645.8125" height="204.84375" fill="#ffffff"></rect><rect id="SvgjsRect1248" width="645.8125" height="204.84375" fill="url(#pattern_mark_0)"></rect><rect id="SvgjsRect1249" width="645.8125" height="204.84375" fill="url(#pattern_mark_1)"></rect><g id="SvgjsG1250" transform="translate(101.8231907894737,55.84457236842104)"><path id="SvgjsPath1251" d="M 32.48 0L 79.52000000000001 0L 112 32.48L 112 79.52L 79.52000000000001 112L 32.48 112L 0 79.52L 0 32.48Z" stroke="rgba(33,41,48,1)" stroke-width="1.5" fill-opacity="1" fill="#dbf5f5"></path><g id="SvgjsG1252"><text id="SvgjsText1253" font-family="微软雅黑" text-anchor="middle" font-size="13px" width="92px" fill="#323232" font-weight="400" align="middle" lineHeight="125%" anchor="middle" family="微软雅黑" size="13px" weight="400" font-style="" opacity="1" y="44.375" transform="rotate(0)"></text></g></g><g id="SvgjsG1254" transform="translate(232.796875,92.50246710526312)"><path id="SvgjsPath1255" d="M 0 4Q 0 0 4 0L 64 0Q 68 0 68 4L 68 33.34210526315792Q 68 37.34210526315792 64 37.34210526315792L 4 37.34210526315792Q 0 37.34210526315792 0 33.34210526315792Z" stroke="rgba(33,41,48,1)" stroke-width="1.5" fill-opacity="1" fill="#fcf9ea"></path><g id="SvgjsG1256"><text id="SvgjsText1257" font-family="微软雅黑" text-anchor="middle" font-size="20px" width="48px" fill="#323232" font-weight="400" align="middle" lineHeight="125%" anchor="middle" family="微软雅黑" size="20px" weight="400" font-style="" opacity="1" y="0.6710526315789593" transform="rotate(0)"><tspan id="SvgjsTspan1258" dy="25" x="34"><tspan id="SvgjsTspan1259" style="">进程</tspan></tspan></text></g></g><g id="SvgjsG1260" transform="translate(123.8231907894737,92.50246710526312)"><path id="SvgjsPath1261" d="M 0 4Q 0 0 4 0L 64 0Q 68 0 68 4L 68 33.34210526315792Q 68 37.34210526315792 64 37.34210526315792L 4 37.34210526315792Q 0 37.34210526315792 0 33.34210526315792Z" stroke="rgba(33,41,48,1)" stroke-width="1.5" fill-opacity="1" fill="#e5f6da"></path><g id="SvgjsG1262"><text id="SvgjsText1263" font-family="微软雅黑" text-anchor="middle" font-size="20px" width="48px" fill="#323232" font-weight="400" align="middle" lineHeight="125%" anchor="middle" family="微软雅黑" size="20px" weight="400" font-style="" opacity="1" y="0.6710526315789593" transform="rotate(0)"><tspan id="SvgjsTspan1264" dy="25" x="34"><tspan id="SvgjsTspan1265" style="">进程</tspan></tspan></text></g></g><g id="SvgjsG1266" transform="translate(329.27055921052624,92.50246710526312)"><path id="SvgjsPath1267" d="M 0 4Q 0 0 4 0L 64 0Q 68 0 68 4L 68 33.34210526315792Q 68 37.34210526315792 64 37.34210526315792L 4 37.34210526315792Q 0 37.34210526315792 0 33.34210526315792Z" stroke="rgba(33,41,48,1)" stroke-width="1.5" fill-opacity="1" fill="#fcf9ea"></path><g id="SvgjsG1268"><text id="SvgjsText1269" font-family="微软雅黑" text-anchor="middle" font-size="20px" width="48px" fill="#323232" font-weight="400" align="middle" lineHeight="125%" anchor="middle" family="微软雅黑" size="20px" weight="400" font-style="" opacity="1" y="0.6710526315789593" transform="rotate(0)"><tspan id="SvgjsTspan1270" dy="25" x="34"><tspan id="SvgjsTspan1271" style="">进程</tspan></tspan></text></g></g><g id="SvgjsG1272" transform="translate(425.7442434210525,92.50246710526312)"><path id="SvgjsPath1273" d="M 0 4Q 0 0 4 0L 64 0Q 68 0 68 4L 68 33.34210526315792Q 68 37.34210526315792 64 37.34210526315792L 4 37.34210526315792Q 0 37.34210526315792 0 33.34210526315792Z" stroke="rgba(33,41,48,1)" stroke-width="1.5" fill-opacity="1" fill="#fcf9ea"></path><g id="SvgjsG1274"><text id="SvgjsText1275" font-family="微软雅黑" text-anchor="middle" font-size="20px" width="48px" fill="#323232" font-weight="400" align="middle" lineHeight="125%" anchor="middle" family="微软雅黑" size="20px" weight="400" font-style="" opacity="1" y="0.6710526315789593" transform="rotate(0)"><tspan id="SvgjsTspan1276" dy="25" x="34"><tspan id="SvgjsTspan1277" style="">进程</tspan></tspan></text></g></g><g id="SvgjsG1278" transform="translate(107.3231907894737,121.515625)"><path id="SvgjsPath1279" d="M 0 0L 100 0L 100 40L 0 40Z" stroke="none" fill="none"></path><g id="SvgjsG1280"><text id="SvgjsText1281" font-family="微软雅黑" text-anchor="middle" font-size="13px" width="100px" fill="#323232" font-weight="400" align="middle" lineHeight="125%" anchor="middle" family="微软雅黑" size="13px" weight="400" font-style="" opacity="1" y="8.375" transform="rotate(0)"><tspan id="SvgjsTspan1282" dy="16.25" x="50"><tspan id="SvgjsTspan1283" style="">运行</tspan></tspan></text></g></g><g id="SvgjsG1284" transform="translate(522.2179276315787,92.50246710526312)"><path id="SvgjsPath1285" d="M 0 4Q 0 0 4 0L 64 0Q 68 0 68 4L 68 33.34210526315792Q 68 37.34210526315792 64 37.34210526315792L 4 37.34210526315792Q 0 37.34210526315792 0 33.34210526315792Z" stroke="rgba(33,41,48,1)" stroke-width="1.5" fill-opacity="1" fill="#fcf9ea"></path><g id="SvgjsG1286"><text id="SvgjsText1287" font-family="微软雅黑" text-anchor="middle" font-size="20px" width="48px" fill="#323232" font-weight="400" align="middle" lineHeight="125%" anchor="middle" family="微软雅黑" size="20px" weight="400" font-style="" opacity="1" y="0.6710526315789593" transform="rotate(0)"><tspan id="SvgjsTspan1288" dy="25" x="34"><tspan id="SvgjsTspan1289" style="">进程</tspan></tspan></text></g></g><g id="SvgjsG1290"><path id="SvgjsPath1291" d="M157.8231907894737 91.75246710526312L157.8231907894737 25.002467105263122L621.2179276315787 25.002467105263122L621.2179276315787 111.17351973684208L592.9179276315788 111.17351973684208" stroke="#323232" stroke-width="1.5" fill="none" marker-end="url(#SvgjsMarker1292)"></path><rect id="SvgjsRect1294" width="280" height="18" x="239.29740781209688" y="16.002467105263122" fill="#ffffff"></rect><text id="SvgjsText1295" font-family="微软雅黑" text-anchor="middle" font-size="14px" width="280px" fill="#323232" font-weight="400" align="top" lineHeight="18px" anchor="middle" family="微软雅黑" size="14px" weight="400" font-style="" opacity="1" y="13.252467105263122" transform="rotate(0)"><tspan id="SvgjsTspan1296" dy="17.5" x="379.2974078120969"><tspan id="SvgjsTspan1297" style="">时间片结束后被切换并带走自己的上下文信息</tspan></tspan></text></g><g id="SvgjsG1298"><path id="SvgjsPath1299" d="M232.046875 111.17351973684208L212.31003289473688 111.17351973684208L212.31003289473688 111.17351973684208L194.5231907894737 111.17351973684208" stroke="#323232" stroke-width="1.5" fill="none" marker-end="url(#SvgjsMarker1300)"></path></g><g id="SvgjsG1302"><path id="SvgjsPath1303" d="M328.52055921052624 111.17351973684208L315.0337171052631 111.17351973684208L315.0337171052631 111.17351973684208L303.49687500000005 111.17351973684208" stroke="#323232" stroke-width="1.5" fill="none" marker-end="url(#SvgjsMarker1304)"></path></g><g id="SvgjsG1306"><path id="SvgjsPath1307" d="M424.9942434210525 111.17351973684208L411.50740131578937 111.17351973684208L411.50740131578937 111.17351973684208L399.9705592105263 111.17351973684208" stroke="#323232" stroke-width="1.5" fill="none" marker-end="url(#SvgjsMarker1308)"></path></g><g id="SvgjsG1310"><path id="SvgjsPath1311" d="M521.4679276315787 111.17351973684208L496.44424342105253 111.17351973684208" stroke="#323232" stroke-width="1.5" fill="none" marker-end="url(#SvgjsMarker1312)"></path></g><g id="SvgjsG1314" transform="translate(351.50740131578937,139.84457236842104)"><path id="SvgjsPath1315" d="M 0 0L 100 0L 100 40L 0 40Z" stroke="none" fill="none"></path><g id="SvgjsG1316"><text id="SvgjsText1317" font-family="微软雅黑" text-anchor="middle" font-size="16px" width="100px" fill="#323232" font-weight="400" align="middle" lineHeight="125%" anchor="middle" family="微软雅黑" size="16px" weight="400" font-style="" opacity="1" y="6" transform="rotate(0)"><tspan id="SvgjsTspan1318" dy="20" x="50"><tspan id="SvgjsTspan1319" style="">任务队列</tspan></tspan></text></g></g><g id="SvgjsG1320" transform="translate(25.007401315789366,91.17351973684208)"><path id="SvgjsPath1321" d="M 0 0L 100 0L 100 40L 0 40Z" stroke="none" fill="none"></path><g id="SvgjsG1322"><text id="SvgjsText1323" font-family="微软雅黑" text-anchor="middle" font-size="16px" width="100px" fill="#323232" font-weight="400" align="middle" lineHeight="125%" anchor="middle" family="微软雅黑" size="16px" weight="400" font-style="" opacity="1" y="6" transform="rotate(0)"><tspan id="SvgjsTspan1324" dy="20" x="50"><tspan id="SvgjsTspan1325" style="">CPU</tspan></tspan></text></g></g></svg>