<svg viewBox="0 0 1024 1024" version="1.1" xmlns="http://www.w3.org/2000/svg" width="16" height="16"><path d="M780.322133 0H243.694933C109.124267 0 0 109.1072 0 243.677867v536.644266C0 914.8928 109.124267 1024 243.694933 1024h536.610134C914.8928 1024 1024 914.8928 1024 780.3392V243.677867C1024 109.1072 914.8928 0 780.322133 0z m-128.477866 699.136c-30.122667-17.749333-15.991467-40.0384 4.4544-48.520533 21.521067-8.977067 54.818133-12.458667 104.465066-13.5168h0.768c-19.950933-19.6608-56.081067-37.717333-130.423466-63.419734a27.511467 27.511467 0 0 1-12.578134-8.874666c-15.377067-19.319467-23.432533-38.058667-33.467733-71.304534-22.766933-75.656533-28.347733-84.309333-75.434667-136.260266-58.7776-64.802133-128.887467-96.068267-212.036266-94.856534a27.6992 27.6992 0 0 1-13.4656-3.259733 757.316267 757.316267 0 0 0-46.7968-23.432533c1.211733 1.792 2.4576 3.566933 3.6864 5.341866 26.862933 39.099733 35.089067 55.2448 27.562666 77.482667-3.413333 10.154667 30.0032 72.465067 57.0368 93.0816 8.174933 6.229333 12.202667 16.469333 10.478934 26.589867-10.581333 61.764267-10.478933 140.936533 1.006933 187.272533 1.911467-5.393067 3.84-11.4688 5.956267-18.090667 2.9696-9.710933 13.499733-46.882133 15.650133-53.265066 1.314133-3.976533 2.474667-7.168 3.857067-9.9328 1.450667-2.850133 1.450667-2.850133 4.693333-7.389867 5.853867-7.168 5.853867-7.168 27.9552-9.642667 17.937067 10.410667 17.937067 10.410667 20.514133 18.141867 1.501867 5.0688 14.353067 86.971733 76.6464 146.6368 10.939733 10.461867 45.329067 49.800533 58.077867 70.690133-9.437867 11.963733-141.141333-88.0128-161.245867-119.005866-5.512533 15.428267-10.820267 27.562667-16.708266 36.949333-17.117867 27.136-47.940267 35.669333-68.949334 5.495467-31.607467-45.1072-37.000533-152.5248-24.251733-241.800534-39.1168-38.109867-74.4448-109.4144-62.958933-143.377066-1.1776 3.4816-8.174933-10.257067-20.753067-28.6208l-2.645333-3.857067c-14.660267-21.111467-17.8688-25.924267-22.818134-34.901333-11.025067-19.9168-14.830933-34.696533-2.986666-50.8416 21.060267-28.842667 58.180267-17.373867 136.9088 24.593066 96.119467 0.443733 178.7904 38.434133 246.408533 112.9472 53.9136 59.4432 62.464 74.564267 87.3984 157.3888 6.877867 22.818133 12.066133 35.84 19.421867 46.882134 68.864 24.4224 114.5856 49.083733 142.5408 74.5472 12.202667 11.025067 20.906667 22.1696 27.0336 33.6384 3.566933 6.826667 6.4512 13.994667 8.6528 21.4016a27.613867 27.613867 0 0 1-25.582934 37.905066 2139.306667 2139.306667 0 0 0-63.6416 0.768l6.331734 3.7376c1.314133 0.836267 104.721067 130.696533 111.547733 160.8704-94.856533-75.3664-182.254933-140.4928-212.309333-158.190933zM362.5472 351.402667a133.1712 133.1712 0 0 0-28.8768-45.431467 27.5456 27.5456 0 0 1 36.6592 8.823467c8.277333 13.7216 5.410133 28.6208-7.7824 36.608z" fill="#035b8a"></path></svg>