<svg viewBox="0 0 500.778 493.53" width="16" height="16" xmlns="http://www.w3.org/2000/svg"><path d="M0 325.835v42.171c0 22.403 13.178 42.171 34.264 50.078l197.675 72.481c11.86 3.954 25.04 3.954 36.9 0l197.675-72.481c21.086-7.907 34.264-27.675 34.264-50.078v-42.17L250.39 418.083z" fill="#d81e06"/><path d="M0 207.23v79.07l250.39 92.249L500.777 286.3v-79.07L250.39 299.479z" fill="#d81e06"/><path d="M231.94 2.965L34.263 75.446C13.178 83.353 0 103.121 0 125.524v42.17l250.39 92.25 250.388-92.25v-42.17c0-22.403-13.178-42.17-34.264-50.078L268.84 2.966c-11.86-3.954-25.04-3.954-36.9 0zm-21.086 141.009c-21.085-7.907-21.085-21.086 0-28.993s56.667-7.907 77.752 0c21.086 7.907 21.086 21.086 0 28.993-21.085 7.907-55.349 7.907-77.752 0zm220.079-57.985l-79.07 28.992-23.721-38.217zm-180.544-60.62l63.256 23.72-63.256 22.404-61.938-22.404zm-148.916 48.76l38.218 5.27 31.628-7.906v14.496l32.946 9.225-36.9 3.953-10.542 14.496-25.04-13.178H92.25l22.403-11.86z" fill="#d81e06"/></svg>