<svg t="1704956751917" class="icon" viewBox="0 0 1024 1024" version="1.1" xmlns="http://www.w3.org/2000/svg" p-id="24415" width="16" height="16"><path d="M896 106.666667H170.666667a64 64 0 0 0-64 64v234.666666h42.666666v490.666667a64 64 0 0 0 64 64h640a64 64 0 0 0 64-64V405.333333h42.666667V170.666667a64 64 0 0 0-64-64z m-42.666667 789.333333H213.333333V405.333333h149.333334v298.666667l170.666666-106.666667 170.666667 106.666667V405.333333h149.333333v490.666667zM426.666667 597.333333v-192h213.333333v192l-106.666667-64-106.666666 64z m469.333333-256H170.666667V170.666667h725.333333v170.666666z" p-id="24416" fill="#1296db"></path></svg>