<svg id="SvgjsSvg1278" width="1031.6718207465278" height="543.875" xmlns="http://www.w3.org/2000/svg" version="1.1" xmlns:xlink="http://www.w3.org/1999/xlink" xmlns:svgjs="http://svgjs.com/svgjs"><defs id="SvgjsDefs1279"><pattern patternUnits="userSpaceOnUse" id="pattern_mark_0" width="300" height="300"><text x="150" y="100" fill="rgba(229,229,229,0.8)" font-size="18" transform="rotate(-45, 150, 150)" style="dominant-baseline: middle; text-anchor: middle;"></text></pattern><pattern patternUnits="userSpaceOnUse" id="pattern_mark_1" width="300" height="300"><text x="150" y="200" fill="rgba(229,229,229,0.8)" font-size="18" transform="rotate(-45, 150, 150)" style="dominant-baseline: middle; text-anchor: middle;"></text></pattern><marker id="SvgjsMarker1297" markerWidth="13" markerHeight="9" refX="9.5" refY="4.5" viewBox="0 0 13 9" orient="auto" markerUnits="userSpaceOnUse" stroke-dasharray="0,0"><path id="SvgjsPath1298" d="M0,0 L13,4.5 L0,9 L0,0" fill="#323232" stroke="#323232" stroke-width="1"></path></marker><marker id="SvgjsMarker1301" markerWidth="13" markerHeight="9" refX="9.5" refY="4.5" viewBox="0 0 13 9" orient="auto" markerUnits="userSpaceOnUse" stroke-dasharray="0,0"><path id="SvgjsPath1302" d="M0,0 L13,4.5 L0,9 L0,0" fill="#323232" stroke="#323232" stroke-width="1"></path></marker><marker id="SvgjsMarker1311" markerWidth="13" markerHeight="9" refX="9.5" refY="4.5" viewBox="0 0 13 9" orient="auto" markerUnits="userSpaceOnUse" stroke-dasharray="0,0"><path id="SvgjsPath1312" d="M0,0 L13,4.5 L0,9 L0,0" fill="#323232" stroke="#323232" stroke-width="1"></path></marker><marker id="SvgjsMarker1315" markerWidth="13" markerHeight="9" refX="9.5" refY="4.5" viewBox="0 0 13 9" orient="auto" markerUnits="userSpaceOnUse" stroke-dasharray="0,0"><path id="SvgjsPath1316" d="M0,0 L13,4.5 L0,9 L0,0" fill="#323232" stroke="#323232" stroke-width="1"></path></marker><marker id="SvgjsMarker1325" markerWidth="13" markerHeight="9" refX="9.5" refY="4.5" viewBox="0 0 13 9" orient="auto" markerUnits="userSpaceOnUse" stroke-dasharray="0,0"><path id="SvgjsPath1326" d="M0,0 L13,4.5 L0,9 L0,0" fill="#323232" stroke="#323232" stroke-width="1"></path></marker><marker id="SvgjsMarker1329" markerWidth="13" markerHeight="9" refX="9.5" refY="4.5" viewBox="0 0 13 9" orient="auto" markerUnits="userSpaceOnUse" stroke-dasharray="0,0"><path id="SvgjsPath1330" d="M0,0 L13,4.5 L0,9 L0,0" fill="#323232" stroke="#323232" stroke-width="1"></path></marker><marker id="SvgjsMarker1417" markerWidth="13" markerHeight="9" refX="9.5" refY="4.5" viewBox="0 0 13 9" orient="auto" markerUnits="userSpaceOnUse" stroke-dasharray="0,0"><path id="SvgjsPath1418" d="M0,0 L13,4.5 L0,9 L0,0" fill="#323232" stroke="#323232" stroke-width="1"></path></marker><marker id="SvgjsMarker1421" markerWidth="13" markerHeight="9" refX="9.5" refY="4.5" viewBox="0 0 13 9" orient="auto" markerUnits="userSpaceOnUse" stroke-dasharray="0,0"><path id="SvgjsPath1422" d="M0,0 L13,4.5 L0,9 L0,0" fill="#323232" stroke="#323232" stroke-width="1"></path></marker></defs><rect id="svgbackgroundid" width="1031.6718207465278" height="543.875" fill="#ffffff"></rect><rect id="SvgjsRect1281" width="1031.6718207465278" height="543.875" fill="url(#pattern_mark_0)"></rect><rect id="SvgjsRect1282" width="1031.6718207465278" height="543.875" fill="url(#pattern_mark_1)"></rect><g id="SvgjsG1283" transform="translate(405.1830160676795,25.00005425347223)"><path id="SvgjsPath1284" d="M 21.401041666666668 0L 98.09895833333333 0C 126.63368055555556 0 126.63368055555556 64.203125 98.09895833333333 64.203125L 21.401041666666668 64.203125C -7.133680555555556 64.203125 -7.133680555555556 0 21.401041666666668 0Z" stroke="rgba(33,41,48,1)" stroke-width="1.5" fill-opacity="1" fill="#e5f6da"></path><g id="SvgjsG1285"><text id="SvgjsText1286" font-family="微软雅黑" text-anchor="middle" font-size="20px" width="100px" fill="#323232" font-weight="400" align="middle" lineHeight="125%" anchor="middle" family="微软雅黑" size="20px" weight="400" font-style="" opacity="1" y="14.1015625" transform="rotate(0)"><tspan id="SvgjsTspan1287" dy="25" x="60"><tspan id="SvgjsTspan1288" style="">epitem</tspan></tspan></text></g></g><g id="SvgjsG1289" transform="translate(564.6830160676795,25.00005425347223)"><path id="SvgjsPath1290" d="M 21.401041666666668 0L 98.09895833333333 0C 126.63368055555556 0 126.63368055555556 64.203125 98.09895833333333 64.203125L 21.401041666666668 64.203125C -7.133680555555556 64.203125 -7.133680555555556 0 21.401041666666668 0Z" stroke="rgba(33,41,48,1)" stroke-width="1.5" fill-opacity="1" fill="#e5f6da"></path><g id="SvgjsG1291"><text id="SvgjsText1292" font-family="微软雅黑" text-anchor="middle" font-size="20px" width="100px" fill="#323232" font-weight="400" align="middle" lineHeight="125%" anchor="middle" family="微软雅黑" size="20px" weight="400" font-style="" opacity="1" y="14.1015625" transform="rotate(0)"><tspan id="SvgjsTspan1293" dy="25" x="60"><tspan id="SvgjsTspan1294" style="">epitem</tspan></tspan></text></g></g><g id="SvgjsG1295"><path id="SvgjsPath1296" d="M521.9971751172034 40.102699937293096C 539.3442471289834 34.762195067888854 550.6495864285673 34.13479325235261 565.913685800652 39.58126985765546" stroke="#323232" stroke-width="1.5" fill="none" marker-end="url(#SvgjsMarker1297)"></path></g><g id="SvgjsG1299"><path id="SvgjsPath1300" d="M567.6585847300937 73.61700156841499C 551.2591858806682 82.05248781294046 537.6317066018021 81.75277987199223 522.9043470413264 74.31334289799952" stroke="#323232" stroke-width="1.5" fill="none" marker-end="url(#SvgjsMarker1301)"></path></g><g id="SvgjsG1303" transform="translate(725.6830160676795,25.00005425347223)"><path id="SvgjsPath1304" d="M 21.401041666666668 0L 98.09895833333333 0C 126.63368055555556 0 126.63368055555556 64.203125 98.09895833333333 64.203125L 21.401041666666668 64.203125C -7.133680555555556 64.203125 -7.133680555555556 0 21.401041666666668 0Z" stroke="rgba(33,41,48,1)" stroke-width="1.5" fill-opacity="1" fill="#e5f6da"></path><g id="SvgjsG1305"><text id="SvgjsText1306" font-family="微软雅黑" text-anchor="middle" font-size="20px" width="100px" fill="#323232" font-weight="400" align="middle" lineHeight="125%" anchor="middle" family="微软雅黑" size="20px" weight="400" font-style="" opacity="1" y="14.1015625" transform="rotate(0)"><tspan id="SvgjsTspan1307" dy="25" x="60"><tspan id="SvgjsTspan1308" style="">epitem</tspan></tspan></text></g></g><g id="SvgjsG1309"><path id="SvgjsPath1310" d="M681.9746175931125 40.125462073883625C 699.9796684490957 35.6162030790087 711.2607960204705 34.000921979062696 726.9083110607692 39.60139707665485" stroke="#323232" stroke-width="1.5" fill="none" marker-end="url(#SvgjsMarker1311)"></path></g><g id="SvgjsG1313"><path id="SvgjsPath1314" d="M728.6569283516562 73.61277542361563C 712.0371767214892 82.16560712956306 698.6547412464306 80.93600880875323 683.3102077361007 74.23521135180385" stroke="#323232" stroke-width="1.5" fill="none" marker-end="url(#SvgjsMarker1315)"></path></g><g id="SvgjsG1317" transform="translate(886.6830160676795,25.00005425347223)"><path id="SvgjsPath1318" d="M 21.401041666666668 0L 98.09895833333333 0C 126.63368055555556 0 126.63368055555556 64.203125 98.09895833333333 64.203125L 21.401041666666668 64.203125C -7.133680555555556 64.203125 -7.133680555555556 0 21.401041666666668 0Z" stroke="rgba(33,41,48,1)" stroke-width="1.5" fill-opacity="1" fill="#e5f6da"></path><g id="SvgjsG1319"><text id="SvgjsText1320" font-family="微软雅黑" text-anchor="middle" font-size="20px" width="100px" fill="#323232" font-weight="400" align="middle" lineHeight="125%" anchor="middle" family="微软雅黑" size="20px" weight="400" font-style="" opacity="1" y="14.1015625" transform="rotate(0)"><tspan id="SvgjsTspan1321" dy="25" x="60"><tspan id="SvgjsTspan1322" style="">epitem</tspan></tspan></text></g></g><g id="SvgjsG1323"><path id="SvgjsPath1324" d="M843.0497186452574 40.11760752422674C 860.9424627756382 35.297864656379886 872.2898756891129 34.010934911961556 887.9104010786314 39.59349615451595" stroke="#323232" stroke-width="1.5" fill="none" marker-end="url(#SvgjsMarker1325)"></path></g><g id="SvgjsG1327"><path id="SvgjsPath1328" d="M889.6365451349936 73.55294677487575C 874.2562535776667 81.54445644645091 863.2522238967056 73.34120775425367 845.1830160676795 73.34120775425367" stroke="#323232" stroke-width="1.5" fill="none" marker-end="url(#SvgjsMarker1329)"></path></g><g id="SvgjsG1331" transform="translate(662.2256517265942,166.0337713587354)"><path id="SvgjsPath1332" d="M 0 43.457364341085366C 0 -14.485788113695122 86.91472868217073 -14.485788113695122 86.91472868217073 43.457364341085366C 86.91472868217073 101.40051679586585 0 101.40051679586585 0 43.457364341085366Z" stroke="rgba(33,41,48,1)" stroke-width="1.5" fill-opacity="1" fill="#e0e0e0"></path><g id="SvgjsG1333"><text id="SvgjsText1334" font-family="微软雅黑" text-anchor="middle" font-size="20px" width="67px" fill="#323232" font-weight="400" align="middle" lineHeight="125%" anchor="middle" family="微软雅黑" size="20px" weight="400" font-style="" opacity="1" y="25.457364341085366" transform="rotate(0)"><tspan id="SvgjsTspan1335" dy="25" x="43.5"><tspan id="SvgjsTspan1336" style="">epitem</tspan></tspan></text></g></g><g id="SvgjsG1337" transform="translate(513.2289739857306,264.5888654894111)"><path id="SvgjsPath1338" d="M 0 43.457364341085366C 0 -14.485788113695122 86.91472868217073 -14.485788113695122 86.91472868217073 43.457364341085366C 86.91472868217073 101.40051679586585 0 101.40051679586585 0 43.457364341085366Z" stroke="rgba(33,41,48,1)" stroke-width="1.5" fill-opacity="1" fill="#f5b9b7"></path><g id="SvgjsG1339"><text id="SvgjsText1340" font-family="微软雅黑" text-anchor="middle" font-size="20px" width="67px" fill="#323232" font-weight="400" align="middle" lineHeight="125%" anchor="middle" family="微软雅黑" size="20px" weight="400" font-style="" opacity="1" y="25.457364341085366" transform="rotate(0)"><tspan id="SvgjsTspan1341" dy="25" x="43.5"><tspan id="SvgjsTspan1342" style="">epitem</tspan></tspan></text></g></g><g id="SvgjsG1343" transform="translate(440.28268384176596,418.57427127963416)"><path id="SvgjsPath1344" d="M 0 43.457364341085366C 0 -14.485788113695122 86.91472868217073 -14.485788113695122 86.91472868217073 43.457364341085366C 86.91472868217073 101.40051679586585 0 101.40051679586585 0 43.457364341085366Z" stroke="rgba(33,41,48,1)" stroke-width="1.5" fill-opacity="1" fill="#e0e0e0"></path><g id="SvgjsG1345"><text id="SvgjsText1346" font-family="微软雅黑" text-anchor="middle" font-size="20px" width="67px" fill="#323232" font-weight="400" align="middle" lineHeight="125%" anchor="middle" family="微软雅黑" size="20px" weight="400" font-style="" opacity="1" y="25.457364341085366" transform="rotate(0)"><tspan id="SvgjsTspan1347" dy="25" x="43.5"><tspan id="SvgjsTspan1348" style="">epitem</tspan></tspan></text></g></g><g id="SvgjsG1349" transform="translate(589.2793615826297,424.44988431554606)"><path id="SvgjsPath1350" d="M 0 43.457364341085366C 0 -14.485788113695122 86.91472868217073 -14.485788113695122 86.91472868217073 43.457364341085366C 86.91472868217073 101.40051679586585 0 101.40051679586585 0 43.457364341085366Z" stroke="rgba(33,41,48,1)" stroke-width="1.5" fill-opacity="1" fill="#e0e0e0"></path><g id="SvgjsG1351"><text id="SvgjsText1352" font-family="微软雅黑" text-anchor="middle" font-size="20px" width="67px" fill="#323232" font-weight="400" align="middle" lineHeight="125%" anchor="middle" family="微软雅黑" size="20px" weight="400" font-style="" opacity="1" y="25.457364341085366" transform="rotate(0)"><tspan id="SvgjsTspan1353" dy="25" x="43.5"><tspan id="SvgjsTspan1354" style="">epitem</tspan></tspan></text></g></g><g id="SvgjsG1355"><path id="SvgjsPath1356" d="M533.7071703377328 345.3262311177978L500.7288799091609 422.1573120007642" stroke="#323232" stroke-width="1.5" fill="none"></path></g><g id="SvgjsG1357"><path id="SvgjsPath1358" d="M578.842706550196 346.0295877695584L613.5405192554667 427.7064257137825" stroke="#323232" stroke-width="1.5" fill="none"></path></g><g id="SvgjsG1359" transform="translate(811.2223294674577,272.0165272517906)"><path id="SvgjsPath1360" d="M 0 43.457364341085366C 0 -14.485788113695122 86.91472868217073 -14.485788113695122 86.91472868217073 43.457364341085366C 86.91472868217073 101.40051679586585 0 101.40051679586585 0 43.457364341085366Z" stroke="rgba(33,41,48,1)" stroke-width="1.5" fill-opacity="1" fill="#f5b9b7"></path><g id="SvgjsG1361"><text id="SvgjsText1362" font-family="微软雅黑" text-anchor="middle" font-size="20px" width="67px" fill="#323232" font-weight="400" align="middle" lineHeight="125%" anchor="middle" family="微软雅黑" size="20px" weight="400" font-style="" opacity="1" y="25.457364341085366" transform="rotate(0)"><tspan id="SvgjsTspan1363" dy="25" x="43.5"><tspan id="SvgjsTspan1364" style="">epitem</tspan></tspan></text></g></g><g id="SvgjsG1365" transform="translate(738.2760393234935,426.0019330420134)"><path id="SvgjsPath1366" d="M 0 43.457364341085366C 0 -14.485788113695122 86.91472868217073 -14.485788113695122 86.91472868217073 43.457364341085366C 86.91472868217073 101.40051679586585 0 101.40051679586585 0 43.457364341085366Z" stroke="rgba(33,41,48,1)" stroke-width="1.5" fill-opacity="1" fill="#e0e0e0"></path><g id="SvgjsG1367"><text id="SvgjsText1368" font-family="微软雅黑" text-anchor="middle" font-size="20px" width="67px" fill="#323232" font-weight="400" align="middle" lineHeight="125%" anchor="middle" family="微软雅黑" size="20px" weight="400" font-style="" opacity="1" y="25.457364341085366" transform="rotate(0)"><tspan id="SvgjsTspan1369" dy="25" x="43.5"><tspan id="SvgjsTspan1370" style="">epitem</tspan></tspan></text></g></g><g id="SvgjsG1371" transform="translate(887.272717064357,431.8775460779255)"><path id="SvgjsPath1372" d="M 0 43.457364341085366C 0 -14.485788113695122 86.91472868217073 -14.485788113695122 86.91472868217073 43.457364341085366C 86.91472868217073 101.40051679586585 0 101.40051679586585 0 43.457364341085366Z" stroke="rgba(33,41,48,1)" stroke-width="1.5" fill-opacity="1" fill="#e0e0e0"></path><g id="SvgjsG1373"><text id="SvgjsText1374" font-family="微软雅黑" text-anchor="middle" font-size="20px" width="67px" fill="#323232" font-weight="400" align="middle" lineHeight="125%" anchor="middle" family="微软雅黑" size="20px" weight="400" font-style="" opacity="1" y="25.457364341085366" transform="rotate(0)"><tspan id="SvgjsTspan1375" dy="25" x="43.5"><tspan id="SvgjsTspan1376" style="">epitem</tspan></tspan></text></g></g><g id="SvgjsG1377"><path id="SvgjsPath1378" d="M831.7005258194602 352.7538928801774L798.7222353908883 429.5849737631434" stroke="#323232" stroke-width="1.5" fill="none"></path></g><g id="SvgjsG1379"><path id="SvgjsPath1380" d="M876.8360620319229 353.45724953193786L911.5338747371941 435.13408747616194" stroke="#323232" stroke-width="1.5" fill="none"></path></g><g id="SvgjsG1381"><path id="SvgjsPath1382" d="M667.6298487066015 232.1350590763725L592.85019860888 281.8905191399676" stroke="#323232" stroke-width="1.5" fill="none"></path></g><g id="SvgjsG1383"><path id="SvgjsPath1384" d="M741.963512997529 234.76773467803991L818.3168456904486 289.5795439690872" stroke="#323232" stroke-width="1.5" fill="none"></path></g><g id="SvgjsG1385" transform="translate(25.010033274314168,89.20317925347223)"><path id="SvgjsPath1386" d="M 0 4Q 0 0 4 0L 230.8180374722136 0Q 234.8180374722136 0 234.8180374722136 4L 234.8180374722136 374.8125Q 234.8180374722136 378.8125 230.8180374722136 378.8125L 4 378.8125Q 0 378.8125 0 374.8125Z" stroke="rgba(33,41,48,1)" stroke-width="1.5" fill-opacity="1" fill="#dbf5f5"></path><g id="SvgjsG1387"><text id="SvgjsText1388" font-family="微软雅黑" text-anchor="middle" font-size="24px" width="215px" fill="#323232" font-weight="400" align="top" lineHeight="200%" anchor="middle" family="微软雅黑" size="24px" weight="400" font-style="" opacity="1" y="-15" transform="rotate(0)"><tspan id="SvgjsTspan1389" dy="48" x="117.5"><tspan id="SvgjsTspan1390" style="">struct  eventpoll</tspan></tspan></text></g></g><g id="SvgjsG1391" transform="translate(65.42953152772799,237.81362106039506)"><path id="SvgjsPath1392" d="M 0 4Q 0 0 4 0L 149.97904096538596 0Q 153.97904096538596 0 153.97904096538596 4L 153.97904096538596 57.59161638615438Q 153.97904096538596 61.59161638615438 149.97904096538596 61.59161638615438L 4 61.59161638615438Q 0 61.59161638615438 0 57.59161638615438Z" stroke="rgba(33,41,48,1)" stroke-width="1.5" fill-opacity="1" fill="#fcf9ea"></path><g id="SvgjsG1393"><text id="SvgjsText1394" font-family="微软雅黑" text-anchor="middle" font-size="24px" width="134px" fill="#323232" font-weight="400" align="middle" lineHeight="125%" anchor="middle" family="微软雅黑" size="24px" weight="400" font-style="" opacity="1" y="9.795808193077189" transform="rotate(0)"><tspan id="SvgjsTspan1395" dy="30" x="77"><tspan id="SvgjsTspan1396" style="">rdllist</tspan></tspan></text></g></g><g id="SvgjsG1397" transform="translate(65.42953152772799,324.6030478638734)"><path id="SvgjsPath1398" d="M 0 4Q 0 0 4 0L 149.97904096538596 0Q 153.97904096538596 0 153.97904096538596 4L 153.97904096538596 57.59161638615438Q 153.97904096538596 61.59161638615438 149.97904096538596 61.59161638615438L 4 61.59161638615438Q 0 61.59161638615438 0 57.59161638615438Z" stroke="rgba(33,41,48,1)" stroke-width="1.5" fill-opacity="1" fill="#fcf9ea"></path><g id="SvgjsG1399"><text id="SvgjsText1400" font-family="微软雅黑" text-anchor="middle" font-size="24px" width="134px" fill="#323232" font-weight="400" align="middle" lineHeight="125%" anchor="middle" family="微软雅黑" size="24px" weight="400" font-style="" opacity="1" y="9.795808193077189" transform="rotate(0)"><tspan id="SvgjsTspan1401" dy="30" x="77"><tspan id="SvgjsTspan1402" style="">rdr</tspan></tspan></text></g></g><g id="SvgjsG1403" transform="translate(78.26111827484345,167.32328877459253)"><path id="SvgjsPath1404" d="M 0 0L 128.31586747115497 0L 128.31586747115497 51.326346988461985L 0 51.326346988461985Z" stroke="none" fill="none"></path><g id="SvgjsG1405"><text id="SvgjsText1406" font-family="微软雅黑" text-anchor="middle" font-size="24px" width="129px" fill="#323232" font-weight="400" align="middle" lineHeight="125%" anchor="middle" family="微软雅黑" size="24px" weight="400" font-style="" opacity="1" y="4.663173494230993" transform="rotate(0)"><tspan id="SvgjsTspan1407" dy="30" x="64.5"><tspan id="SvgjsTspan1408" style="">…</tspan></tspan></text></g></g><g id="SvgjsG1409" transform="translate(78.26111827484345,385.65798480907443)"><path id="SvgjsPath1410" d="M 0 0L 128.31586747115497 0L 128.31586747115497 51.326346988461985L 0 51.326346988461985Z" stroke="none" fill="none"></path><g id="SvgjsG1411"><text id="SvgjsText1412" font-family="微软雅黑" text-anchor="middle" font-size="24px" width="129px" fill="#323232" font-weight="400" align="middle" lineHeight="125%" anchor="middle" family="微软雅黑" size="24px" weight="400" font-style="" opacity="1" y="4.663173494230993" transform="rotate(0)"><tspan id="SvgjsTspan1413" dy="30" x="64.5"><tspan id="SvgjsTspan1414" style="">…</tspan></tspan></text></g></g><g id="SvgjsG1415"><path id="SvgjsPath1416" d="M220.15617600041315 268.5495210247065C 332.0124435697157 268.6094292534721 292.7334646828887 62.99484802292341 402.50672016544087 57.45860448948116" stroke="#323232" stroke-width="1.5" fill="none" marker-end="url(#SvgjsMarker1417)"></path></g><g id="SvgjsG1419"><path id="SvgjsPath1420" d="M220.15799859665827 355.36952151542806C 414.8289037697146 355.39885605695036 536.7115111003086 40.53974460725277 672.9106476336676 176.8913599860897" stroke="#323232" stroke-width="1.5" fill="none" marker-end="url(#SvgjsMarker1421)"></path></g></svg>